%
M48
M72
T01C0.02362
T02C0.02756
T03C0.03200
T04C0.03543
T05C0.04000
T06C0.11800
%
T01
X518333Y72860
X588333Y42860
X533333Y142860
X528333Y162860
T02
X518333Y137860
X508333Y137860
X533333Y127860
X533333Y117860
T03
X548333Y112860
X578333Y112860
X613333Y112860
X623333Y112860
X578333Y102860
X548333Y102860
X548333Y92860
X578333Y92860
X578333Y82860
X548333Y82860
X548333Y72860
X578333Y72860
X613333Y72860
X623333Y72860
X578333Y62860
X548333Y62860
X548333Y52860
X578333Y52860
X613333Y32860
X623333Y32860
X578333Y122860
X548333Y122860
X548333Y132860
X548333Y142860
X578333Y142860
X578333Y132860
X578333Y152860
X548333Y152860
X548333Y162860
X578333Y162860
X578333Y172860
X548333Y172860
X548333Y182860
X578333Y182860
T04
X533333Y152860
X493333Y152860
X598333Y92860
X638333Y92860
X638333Y52860
X598333Y52860
X598333Y12860
X638333Y12860
T05
X493333Y62860
X493333Y72860
X493333Y82860
X493333Y92860
X493333Y102860
X493333Y112860
X638333Y127860
X638333Y137860
X638333Y147860
X638333Y157860
X638333Y167860
X638333Y177860
X638333Y187860
X638333Y197860
X573333Y32860
X563333Y32860
X553333Y32860
X553333Y22860
X563333Y22860
X573333Y22860
T06
X510459Y164356
X498648Y182860
X522270Y182860
M30
