G75*
%MOIN*%
%OFA0B0*%
%FSLAX25Y25*%
%IPPOS*%
%LPD*%
%AMOC8*
5,1,8,0,0,1.08239X$1,22.5*
%
%ADD10C,0.01600*%
%ADD11C,0.01100*%
%ADD12C,0.00800*%
%ADD13C,0.00100*%
%ADD14C,0.00600*%
D10*
X0589133Y0117213D02*
X0590535Y0115812D01*
X0593337Y0115812D01*
X0594738Y0117213D01*
X0594738Y0120016D01*
X0593337Y0121417D01*
X0590535Y0121417D01*
X0589133Y0120016D01*
X0589133Y0117213D01*
X0589133Y0125020D02*
X0593337Y0125020D01*
X0594738Y0126421D01*
X0594738Y0130625D01*
X0589133Y0130625D01*
X0589133Y0133961D02*
X0589133Y0136763D01*
X0589133Y0135362D02*
X0594738Y0135362D01*
X0594738Y0136763D01*
X0597541Y0135362D02*
X0598942Y0135362D01*
X0599133Y0136025D02*
X0600535Y0134624D01*
X0601936Y0136025D01*
X0601936Y0138827D01*
X0603337Y0140229D01*
X0604738Y0138827D01*
X0604738Y0134624D01*
X0599133Y0136025D02*
X0599133Y0140229D01*
X0594738Y0140366D02*
X0589133Y0140366D01*
X0589133Y0144570D01*
X0590535Y0145971D01*
X0594738Y0145971D01*
X0599133Y0145233D02*
X0599133Y0148035D01*
X0600535Y0149436D01*
X0603337Y0149436D01*
X0604738Y0148035D01*
X0604738Y0145233D01*
X0603337Y0143832D01*
X0601936Y0143832D01*
X0601936Y0149436D01*
X0603337Y0153039D02*
X0599133Y0153039D01*
X0597541Y0149574D02*
X0589133Y0149574D01*
X0589133Y0153778D01*
X0590535Y0155179D01*
X0593337Y0155179D01*
X0594738Y0153778D01*
X0594738Y0149574D01*
X0603337Y0153039D02*
X0604738Y0154441D01*
X0604738Y0158644D01*
X0599133Y0158644D01*
X0594738Y0158649D02*
X0594738Y0160050D01*
X0591936Y0162852D01*
X0594738Y0162852D02*
X0589133Y0162852D01*
X0589133Y0166455D02*
X0594738Y0166455D01*
X0597541Y0169258D01*
X0594738Y0172060D01*
X0589133Y0172060D01*
X0593337Y0172060D02*
X0593337Y0166455D01*
X0599133Y0166451D02*
X0599133Y0163649D01*
X0600535Y0162247D01*
X0603337Y0162247D01*
X0604738Y0163649D01*
X0604738Y0166451D01*
X0603337Y0167852D01*
X0600535Y0167852D01*
X0599133Y0166451D01*
X0609133Y0167247D02*
X0609133Y0171451D01*
X0610535Y0172852D01*
X0611936Y0171451D01*
X0611936Y0167247D01*
X0613337Y0167247D02*
X0609133Y0167247D01*
X0609133Y0163644D02*
X0614738Y0163644D01*
X0611936Y0163644D02*
X0614738Y0160842D01*
X0614738Y0159441D01*
X0613337Y0155971D02*
X0614738Y0154570D01*
X0614738Y0151767D01*
X0613337Y0150366D01*
X0611936Y0150366D01*
X0611936Y0155971D01*
X0610535Y0155971D02*
X0613337Y0155971D01*
X0610535Y0155971D02*
X0609133Y0154570D01*
X0609133Y0151767D01*
X0613337Y0167247D02*
X0614738Y0168649D01*
X0614738Y0171451D01*
X0607541Y0172856D02*
X0606139Y0171455D01*
X0604738Y0171455D01*
X0603337Y0172856D01*
X0603337Y0177060D01*
X0599133Y0177060D02*
X0607541Y0177060D01*
X0607541Y0172856D01*
X0603337Y0172856D02*
X0601936Y0171455D01*
X0600535Y0171455D01*
X0599133Y0172856D01*
X0599133Y0177060D01*
X0609133Y0177856D02*
X0609133Y0182060D01*
X0617541Y0182060D01*
X0617541Y0177856D01*
X0616139Y0176455D01*
X0614738Y0176455D01*
X0613337Y0177856D01*
X0613337Y0182060D01*
X0613337Y0177856D02*
X0611936Y0176455D01*
X0610535Y0176455D01*
X0609133Y0177856D01*
X0744133Y0177856D02*
X0745535Y0176455D01*
X0746936Y0176455D01*
X0748337Y0177856D01*
X0748337Y0182060D01*
X0744133Y0182060D02*
X0752541Y0182060D01*
X0752541Y0177856D01*
X0751139Y0176455D01*
X0749738Y0176455D01*
X0748337Y0177856D01*
X0744133Y0177856D02*
X0744133Y0182060D01*
X0745535Y0172852D02*
X0746936Y0171451D01*
X0746936Y0167247D01*
X0748337Y0167247D02*
X0744133Y0167247D01*
X0744133Y0171451D01*
X0745535Y0172852D01*
X0749738Y0171451D02*
X0749738Y0168649D01*
X0748337Y0167247D01*
X0749738Y0163644D02*
X0744133Y0163644D01*
X0746936Y0163644D02*
X0749738Y0160842D01*
X0749738Y0159441D01*
X0748337Y0155971D02*
X0749738Y0154570D01*
X0749738Y0151767D01*
X0748337Y0150366D01*
X0746936Y0150366D01*
X0746936Y0155971D01*
X0745535Y0155971D02*
X0748337Y0155971D01*
X0745535Y0155971D02*
X0744133Y0154570D01*
X0744133Y0151767D01*
D11*
X0564788Y0150342D02*
X0562820Y0148373D01*
X0558883Y0148373D01*
X0561836Y0148373D02*
X0561836Y0152310D01*
X0562820Y0152310D02*
X0564788Y0150342D01*
X0562820Y0152310D02*
X0558883Y0152310D01*
X0564788Y0145864D02*
X0564788Y0141928D01*
X0564788Y0143896D02*
X0558883Y0143896D01*
X0558883Y0139419D02*
X0562820Y0139419D01*
X0562820Y0138435D01*
X0561836Y0137451D01*
X0562820Y0136466D01*
X0561836Y0135482D01*
X0558883Y0135482D01*
X0558883Y0137451D02*
X0561836Y0137451D01*
X0561836Y0132973D02*
X0559867Y0132973D01*
X0558883Y0131989D01*
X0558883Y0130021D01*
X0560852Y0129037D02*
X0560852Y0132973D01*
X0561836Y0132973D02*
X0562820Y0131989D01*
X0562820Y0130021D01*
X0561836Y0129037D01*
X0560852Y0129037D01*
X0561836Y0126528D02*
X0559867Y0126528D01*
X0558883Y0125544D01*
X0558883Y0122591D01*
X0557899Y0122591D02*
X0562820Y0122591D01*
X0562820Y0125544D01*
X0561836Y0126528D01*
X0556915Y0124560D02*
X0556915Y0123575D01*
X0557899Y0122591D01*
X0559867Y0120083D02*
X0560852Y0119098D01*
X0560852Y0116146D01*
X0561836Y0116146D02*
X0558883Y0116146D01*
X0558883Y0119098D01*
X0559867Y0120083D01*
X0562820Y0119098D02*
X0562820Y0117130D01*
X0561836Y0116146D01*
X0563804Y0113637D02*
X0564788Y0112653D01*
X0564788Y0110684D01*
X0563804Y0109700D01*
X0562820Y0109700D01*
X0561836Y0110684D01*
X0560852Y0109700D01*
X0559867Y0109700D01*
X0558883Y0110684D01*
X0558883Y0112653D01*
X0559867Y0113637D01*
X0561836Y0111669D02*
X0561836Y0110684D01*
X0563804Y0107192D02*
X0564788Y0106207D01*
X0564788Y0104239D01*
X0563804Y0103255D01*
X0562820Y0103255D01*
X0558883Y0107192D01*
X0558883Y0103255D01*
X0559867Y0100746D02*
X0560852Y0100746D01*
X0561836Y0099762D01*
X0561836Y0097793D01*
X0560852Y0096809D01*
X0559867Y0096809D01*
X0558883Y0097793D01*
X0558883Y0099762D01*
X0559867Y0100746D01*
X0561836Y0099762D02*
X0562820Y0100746D01*
X0563804Y0100746D01*
X0564788Y0099762D01*
X0564788Y0097793D01*
X0563804Y0096809D01*
X0562820Y0096809D01*
X0561836Y0097793D01*
D12*
X0488733Y0017464D02*
X0488733Y0013260D01*
X0488733Y0015362D02*
X0491536Y0015362D01*
X0491536Y0017464D02*
X0491536Y0013260D01*
X0493337Y0013961D02*
X0494038Y0014661D01*
X0496140Y0014661D01*
X0496140Y0015362D02*
X0496140Y0013260D01*
X0494038Y0013260D01*
X0493337Y0013961D01*
X0494038Y0016062D02*
X0495439Y0016062D01*
X0496140Y0015362D01*
X0497941Y0016062D02*
X0497941Y0013961D01*
X0498642Y0013260D01*
X0500744Y0013260D01*
X0500744Y0012559D02*
X0500043Y0011859D01*
X0499342Y0011859D01*
X0500744Y0012559D02*
X0500744Y0016062D01*
X0502545Y0015362D02*
X0503246Y0016062D01*
X0504647Y0016062D01*
X0505347Y0015362D01*
X0505347Y0014661D01*
X0502545Y0014661D01*
X0502545Y0013961D02*
X0502545Y0015362D01*
X0502545Y0013961D02*
X0503246Y0013260D01*
X0504647Y0013260D01*
X0507149Y0013260D02*
X0509251Y0013260D01*
X0509951Y0013961D01*
X0509251Y0014661D01*
X0507850Y0014661D01*
X0507149Y0015362D01*
X0507850Y0016062D01*
X0509951Y0016062D01*
X0511753Y0015362D02*
X0512454Y0016062D01*
X0513855Y0016062D01*
X0514555Y0015362D01*
X0514555Y0014661D01*
X0511753Y0014661D01*
X0511753Y0013961D02*
X0511753Y0015362D01*
X0511753Y0013961D02*
X0512454Y0013260D01*
X0513855Y0013260D01*
X0516357Y0013961D02*
X0516357Y0016062D01*
X0516357Y0013961D02*
X0517057Y0013260D01*
X0519159Y0013260D01*
X0519159Y0012559D02*
X0518459Y0011859D01*
X0517758Y0011859D01*
X0519159Y0012559D02*
X0519159Y0016062D01*
X0505347Y0023961D02*
X0504647Y0023260D01*
X0503246Y0023260D01*
X0502545Y0023961D01*
X0502545Y0025362D02*
X0503946Y0026062D01*
X0504647Y0026062D01*
X0505347Y0025362D01*
X0505347Y0023961D01*
X0502545Y0025362D02*
X0502545Y0027464D01*
X0505347Y0027464D01*
X0499342Y0027464D02*
X0497941Y0026062D01*
X0496140Y0026763D02*
X0493337Y0023961D01*
X0494038Y0023260D01*
X0495439Y0023260D01*
X0496140Y0023961D01*
X0496140Y0026763D01*
X0495439Y0027464D01*
X0494038Y0027464D01*
X0493337Y0026763D01*
X0493337Y0023961D01*
X0491536Y0023260D02*
X0488733Y0023260D01*
X0491536Y0026062D01*
X0491536Y0026763D01*
X0490835Y0027464D01*
X0489434Y0027464D01*
X0488733Y0026763D01*
X0499342Y0027464D02*
X0499342Y0023260D01*
X0497941Y0023260D02*
X0500744Y0023260D01*
X0548333Y0020360D02*
X0548333Y0035360D01*
X0550833Y0037860D01*
X0555833Y0037860D01*
X0558333Y0035360D01*
X0558333Y0020360D01*
X0560833Y0017860D01*
X0565833Y0017860D01*
X0568333Y0020360D01*
X0568333Y0035360D01*
X0570833Y0037860D01*
X0575833Y0037860D01*
X0578333Y0035360D01*
X0578333Y0020360D01*
X0575833Y0017860D01*
X0570833Y0017860D01*
X0568333Y0020360D01*
X0558333Y0020360D02*
X0555833Y0017860D01*
X0550833Y0017860D01*
X0548333Y0020360D01*
X0550833Y0016541D02*
X0555833Y0016541D01*
X0605932Y0017584D02*
X0605932Y0008136D01*
X0630735Y0008136D01*
X0630735Y0017584D01*
X0605932Y0017584D01*
X0612733Y0014263D02*
X0613434Y0014964D01*
X0614835Y0014964D01*
X0615536Y0014263D01*
X0615536Y0013562D01*
X0614835Y0012862D01*
X0615536Y0012161D01*
X0615536Y0011461D01*
X0614835Y0010760D01*
X0613434Y0010760D01*
X0612733Y0011461D01*
X0614135Y0012862D02*
X0614835Y0012862D01*
X0617337Y0014263D02*
X0618038Y0014964D01*
X0619439Y0014964D01*
X0620140Y0014263D01*
X0620140Y0013562D01*
X0619439Y0012862D01*
X0620140Y0012161D01*
X0620140Y0011461D01*
X0619439Y0010760D01*
X0618038Y0010760D01*
X0617337Y0011461D01*
X0618738Y0012862D02*
X0619439Y0012862D01*
X0621941Y0011461D02*
X0621941Y0014263D01*
X0622642Y0014964D01*
X0624043Y0014964D01*
X0624744Y0014263D01*
X0621941Y0011461D01*
X0622642Y0010760D01*
X0624043Y0010760D01*
X0624744Y0011461D01*
X0624744Y0014263D01*
X0628333Y0025360D02*
X0628333Y0040360D01*
X0630735Y0048136D02*
X0605932Y0048136D01*
X0605932Y0057584D01*
X0630735Y0057584D01*
X0630735Y0048136D01*
X0624244Y0051461D02*
X0623543Y0050760D01*
X0622142Y0050760D01*
X0621441Y0051461D01*
X0624244Y0054263D01*
X0624244Y0051461D01*
X0624244Y0054263D02*
X0623543Y0054964D01*
X0622142Y0054964D01*
X0621441Y0054263D01*
X0621441Y0051461D01*
X0619640Y0051461D02*
X0618939Y0050760D01*
X0617538Y0050760D01*
X0616837Y0051461D01*
X0615036Y0051461D02*
X0614335Y0050760D01*
X0612934Y0050760D01*
X0612233Y0051461D01*
X0613635Y0052862D02*
X0614335Y0052862D01*
X0615036Y0052161D01*
X0615036Y0051461D01*
X0614335Y0052862D02*
X0615036Y0053562D01*
X0615036Y0054263D01*
X0614335Y0054964D01*
X0612934Y0054964D01*
X0612233Y0054263D01*
X0616837Y0054263D02*
X0617538Y0054964D01*
X0618939Y0054964D01*
X0619640Y0054263D01*
X0619640Y0053562D01*
X0618939Y0052862D01*
X0619640Y0052161D01*
X0619640Y0051461D01*
X0618939Y0052862D02*
X0618238Y0052862D01*
X0628333Y0065360D02*
X0628333Y0080360D01*
X0630735Y0088136D02*
X0605932Y0088136D01*
X0605932Y0097584D01*
X0630735Y0097584D01*
X0630735Y0088136D01*
X0624744Y0091461D02*
X0624043Y0090760D01*
X0622642Y0090760D01*
X0621941Y0091461D01*
X0624744Y0094263D01*
X0624744Y0091461D01*
X0621941Y0091461D02*
X0621941Y0094263D01*
X0622642Y0094964D01*
X0624043Y0094964D01*
X0624744Y0094263D01*
X0620140Y0094263D02*
X0620140Y0093562D01*
X0619439Y0092862D01*
X0620140Y0092161D01*
X0620140Y0091461D01*
X0619439Y0090760D01*
X0618038Y0090760D01*
X0617337Y0091461D01*
X0615536Y0091461D02*
X0614835Y0090760D01*
X0613434Y0090760D01*
X0612733Y0091461D01*
X0614135Y0092862D02*
X0614835Y0092862D01*
X0615536Y0092161D01*
X0615536Y0091461D01*
X0614835Y0092862D02*
X0615536Y0093562D01*
X0615536Y0094263D01*
X0614835Y0094964D01*
X0613434Y0094964D01*
X0612733Y0094263D01*
X0617337Y0094263D02*
X0618038Y0094964D01*
X0619439Y0094964D01*
X0620140Y0094263D01*
X0619439Y0092862D02*
X0618738Y0092862D01*
X0628333Y0105360D02*
X0628333Y0120360D01*
X0633333Y0125360D02*
X0635833Y0122860D01*
X0640833Y0122860D01*
X0643333Y0125360D01*
X0643333Y0130360D01*
X0640833Y0132860D01*
X0643333Y0135360D01*
X0643333Y0140360D01*
X0640833Y0142860D01*
X0643333Y0145360D01*
X0643333Y0150360D01*
X0640833Y0152860D01*
X0643333Y0155360D01*
X0643333Y0160360D01*
X0640833Y0162860D01*
X0643333Y0165360D01*
X0643333Y0170360D01*
X0640833Y0172860D01*
X0643333Y0175360D01*
X0643333Y0180360D01*
X0640833Y0182860D01*
X0643333Y0185360D01*
X0643333Y0190360D01*
X0640833Y0192860D01*
X0643333Y0195360D01*
X0643333Y0200360D01*
X0640833Y0202860D01*
X0635833Y0202860D01*
X0633333Y0200360D01*
X0633333Y0195360D01*
X0635833Y0192860D01*
X0633333Y0190360D01*
X0633333Y0185360D01*
X0635833Y0182860D01*
X0633333Y0180360D01*
X0633333Y0175360D01*
X0635833Y0172860D01*
X0633333Y0170360D01*
X0633333Y0165360D01*
X0635833Y0162860D01*
X0633333Y0160360D01*
X0633333Y0155360D01*
X0635833Y0152860D01*
X0633333Y0150360D01*
X0633333Y0145360D01*
X0635833Y0142860D01*
X0633333Y0140360D01*
X0633333Y0135360D01*
X0635833Y0132860D01*
X0633333Y0130360D01*
X0633333Y0125360D01*
X0631744Y0126961D02*
X0631043Y0126260D01*
X0629642Y0126260D01*
X0628941Y0126961D01*
X0628941Y0129763D01*
X0629642Y0130464D01*
X0631043Y0130464D01*
X0631744Y0129763D01*
X0627140Y0129763D02*
X0626439Y0130464D01*
X0625038Y0130464D01*
X0624337Y0129763D01*
X0624337Y0126961D01*
X0625038Y0126260D01*
X0626439Y0126260D01*
X0627140Y0126961D01*
X0622536Y0127661D02*
X0622536Y0130464D01*
X0619733Y0130464D02*
X0619733Y0127661D01*
X0621135Y0126260D01*
X0622536Y0127661D01*
X0623733Y0135760D02*
X0623733Y0138562D01*
X0625135Y0139964D01*
X0626536Y0138562D01*
X0626536Y0135760D01*
X0628337Y0136461D02*
X0629038Y0135760D01*
X0630439Y0135760D01*
X0631140Y0136461D01*
X0631140Y0137862D01*
X0630439Y0138562D01*
X0629738Y0138562D01*
X0628337Y0137862D01*
X0628337Y0139964D01*
X0631140Y0139964D01*
X0626536Y0137862D02*
X0623733Y0137862D01*
X0623733Y0146260D02*
X0623733Y0149062D01*
X0625135Y0150464D01*
X0626536Y0149062D01*
X0626536Y0146260D01*
X0626536Y0148362D02*
X0623733Y0148362D01*
X0628337Y0148362D02*
X0631140Y0148362D01*
X0630439Y0146260D02*
X0630439Y0150464D01*
X0628337Y0148362D01*
X0629038Y0155760D02*
X0628337Y0156461D01*
X0629038Y0155760D02*
X0630439Y0155760D01*
X0631140Y0156461D01*
X0631140Y0157161D01*
X0630439Y0157862D01*
X0629738Y0157862D01*
X0630439Y0157862D02*
X0631140Y0158562D01*
X0631140Y0159263D01*
X0630439Y0159964D01*
X0629038Y0159964D01*
X0628337Y0159263D01*
X0626536Y0158562D02*
X0626536Y0155760D01*
X0626536Y0157862D02*
X0623733Y0157862D01*
X0623733Y0158562D02*
X0625135Y0159964D01*
X0626536Y0158562D01*
X0623733Y0158562D02*
X0623733Y0155760D01*
X0623733Y0165760D02*
X0623733Y0168562D01*
X0625135Y0169964D01*
X0626536Y0168562D01*
X0626536Y0165760D01*
X0628337Y0165760D02*
X0631140Y0168562D01*
X0631140Y0169263D01*
X0630439Y0169964D01*
X0629038Y0169964D01*
X0628337Y0169263D01*
X0626536Y0167862D02*
X0623733Y0167862D01*
X0628337Y0165760D02*
X0631140Y0165760D01*
X0631640Y0176260D02*
X0628837Y0176260D01*
X0630238Y0176260D02*
X0630238Y0180464D01*
X0628837Y0179062D01*
X0627036Y0179062D02*
X0627036Y0176260D01*
X0627036Y0178362D02*
X0624233Y0178362D01*
X0624233Y0179062D02*
X0625635Y0180464D01*
X0627036Y0179062D01*
X0624233Y0179062D02*
X0624233Y0176260D01*
X0624233Y0185260D02*
X0624233Y0188062D01*
X0625635Y0189464D01*
X0627036Y0188062D01*
X0627036Y0185260D01*
X0628837Y0185961D02*
X0631640Y0188763D01*
X0631640Y0185961D01*
X0630939Y0185260D01*
X0629538Y0185260D01*
X0628837Y0185961D01*
X0628837Y0188763D01*
X0629538Y0189464D01*
X0630939Y0189464D01*
X0631640Y0188763D01*
X0627036Y0187362D02*
X0624233Y0187362D01*
X0624337Y0195760D02*
X0624337Y0199964D01*
X0627140Y0195760D01*
X0627140Y0199964D01*
X0628941Y0199964D02*
X0631043Y0199964D01*
X0631744Y0199263D01*
X0631744Y0196461D01*
X0631043Y0195760D01*
X0628941Y0195760D01*
X0628941Y0199964D01*
X0622536Y0199263D02*
X0621835Y0199964D01*
X0620434Y0199964D01*
X0619733Y0199263D01*
X0619733Y0196461D01*
X0620434Y0195760D01*
X0621835Y0195760D01*
X0622536Y0196461D01*
X0622536Y0197862D01*
X0621135Y0197862D01*
X0575333Y0187860D02*
X0575333Y0186860D01*
X0575333Y0187860D02*
X0568333Y0187860D01*
X0568331Y0187720D01*
X0568325Y0187580D01*
X0568315Y0187440D01*
X0568302Y0187300D01*
X0568284Y0187161D01*
X0568262Y0187022D01*
X0568237Y0186885D01*
X0568208Y0186747D01*
X0568175Y0186611D01*
X0568138Y0186476D01*
X0568097Y0186342D01*
X0568052Y0186209D01*
X0568004Y0186077D01*
X0567952Y0185947D01*
X0567897Y0185818D01*
X0567838Y0185691D01*
X0567775Y0185565D01*
X0567709Y0185441D01*
X0567640Y0185320D01*
X0567567Y0185200D01*
X0567490Y0185082D01*
X0567411Y0184967D01*
X0567328Y0184853D01*
X0567242Y0184743D01*
X0567153Y0184634D01*
X0567061Y0184528D01*
X0566966Y0184425D01*
X0566869Y0184324D01*
X0566768Y0184227D01*
X0566665Y0184132D01*
X0566559Y0184040D01*
X0566450Y0183951D01*
X0566340Y0183865D01*
X0566226Y0183782D01*
X0566111Y0183703D01*
X0565993Y0183626D01*
X0565873Y0183553D01*
X0565752Y0183484D01*
X0565628Y0183418D01*
X0565502Y0183355D01*
X0565375Y0183296D01*
X0565246Y0183241D01*
X0565116Y0183189D01*
X0564984Y0183141D01*
X0564851Y0183096D01*
X0564717Y0183055D01*
X0564582Y0183018D01*
X0564446Y0182985D01*
X0564308Y0182956D01*
X0564171Y0182931D01*
X0564032Y0182909D01*
X0563893Y0182891D01*
X0563753Y0182878D01*
X0563613Y0182868D01*
X0563473Y0182862D01*
X0563333Y0182860D01*
X0563193Y0182862D01*
X0563053Y0182868D01*
X0562913Y0182878D01*
X0562773Y0182891D01*
X0562634Y0182909D01*
X0562495Y0182931D01*
X0562358Y0182956D01*
X0562220Y0182985D01*
X0562084Y0183018D01*
X0561949Y0183055D01*
X0561815Y0183096D01*
X0561682Y0183141D01*
X0561550Y0183189D01*
X0561420Y0183241D01*
X0561291Y0183296D01*
X0561164Y0183355D01*
X0561038Y0183418D01*
X0560914Y0183484D01*
X0560793Y0183553D01*
X0560673Y0183626D01*
X0560555Y0183703D01*
X0560440Y0183782D01*
X0560326Y0183865D01*
X0560216Y0183951D01*
X0560107Y0184040D01*
X0560001Y0184132D01*
X0559898Y0184227D01*
X0559797Y0184324D01*
X0559700Y0184425D01*
X0559605Y0184528D01*
X0559513Y0184634D01*
X0559424Y0184743D01*
X0559338Y0184853D01*
X0559255Y0184967D01*
X0559176Y0185082D01*
X0559099Y0185200D01*
X0559026Y0185320D01*
X0558957Y0185441D01*
X0558891Y0185565D01*
X0558828Y0185691D01*
X0558769Y0185818D01*
X0558714Y0185947D01*
X0558662Y0186077D01*
X0558614Y0186209D01*
X0558569Y0186342D01*
X0558528Y0186476D01*
X0558491Y0186611D01*
X0558458Y0186747D01*
X0558429Y0186885D01*
X0558404Y0187022D01*
X0558382Y0187161D01*
X0558364Y0187300D01*
X0558351Y0187440D01*
X0558341Y0187580D01*
X0558335Y0187720D01*
X0558333Y0187860D01*
X0551333Y0187860D01*
X0551333Y0186860D01*
X0522270Y0192309D02*
X0522270Y0200577D01*
X0480144Y0200577D01*
X0480144Y0165143D01*
X0501010Y0165143D01*
X0519514Y0165143D02*
X0522270Y0165143D01*
X0522270Y0173411D01*
X0525735Y0157584D02*
X0500932Y0157584D01*
X0500932Y0148136D01*
X0525735Y0148136D01*
X0525735Y0157584D01*
X0516939Y0153562D02*
X0514837Y0152161D01*
X0516939Y0150760D01*
X0514837Y0150760D02*
X0514837Y0154964D01*
X0511635Y0154964D02*
X0511635Y0150760D01*
X0513036Y0150760D02*
X0510233Y0150760D01*
X0510233Y0153562D02*
X0511635Y0154964D01*
X0513333Y0140360D02*
X0513333Y0135360D01*
X0512040Y0132464D02*
X0512040Y0128260D01*
X0510639Y0128260D02*
X0513442Y0128260D01*
X0515243Y0128961D02*
X0515944Y0128260D01*
X0518046Y0128260D01*
X0518046Y0131062D01*
X0519847Y0130362D02*
X0521248Y0130362D01*
X0519847Y0128260D02*
X0519847Y0132464D01*
X0522649Y0132464D01*
X0515243Y0131062D02*
X0515243Y0128961D01*
X0512040Y0132464D02*
X0510639Y0131062D01*
X0509038Y0128961D02*
X0509038Y0128260D01*
X0508337Y0128260D01*
X0508337Y0128961D01*
X0509038Y0128961D01*
X0506536Y0128961D02*
X0505835Y0128260D01*
X0504434Y0128260D01*
X0503733Y0128961D01*
X0506536Y0131763D01*
X0506536Y0128961D01*
X0506536Y0131763D02*
X0505835Y0132464D01*
X0504434Y0132464D01*
X0503733Y0131763D01*
X0503733Y0128961D01*
X0523733Y0126759D02*
X0523733Y0125358D01*
X0524434Y0124658D01*
X0527236Y0124658D01*
X0524434Y0127460D01*
X0523733Y0126759D01*
X0524434Y0127460D02*
X0527236Y0127460D01*
X0527937Y0126759D01*
X0527937Y0125358D01*
X0527236Y0124658D01*
X0524434Y0122856D02*
X0524434Y0122155D01*
X0523733Y0122155D01*
X0523733Y0122856D01*
X0524434Y0122856D01*
X0530833Y0122860D02*
X0535833Y0122860D01*
X0527937Y0119153D02*
X0523733Y0119153D01*
X0523733Y0120554D02*
X0523733Y0117752D01*
X0524434Y0115950D02*
X0523733Y0115250D01*
X0523733Y0113148D01*
X0526536Y0113148D01*
X0525835Y0111346D02*
X0525835Y0109945D01*
X0523733Y0111346D02*
X0527937Y0111346D01*
X0527937Y0108544D01*
X0512744Y0110760D02*
X0511342Y0112161D01*
X0512043Y0112161D02*
X0509941Y0112161D01*
X0509941Y0110760D02*
X0509941Y0114964D01*
X0512043Y0114964D01*
X0512744Y0114263D01*
X0512744Y0112862D01*
X0512043Y0112161D01*
X0506738Y0110760D02*
X0506738Y0114964D01*
X0505337Y0114964D02*
X0508140Y0114964D01*
X0503536Y0114263D02*
X0502835Y0114964D01*
X0500733Y0114964D01*
X0500733Y0110760D01*
X0502835Y0110760D01*
X0503536Y0111461D01*
X0503536Y0114263D01*
X0498333Y0115360D02*
X0498333Y0110360D01*
X0495833Y0107860D01*
X0498333Y0105360D01*
X0498333Y0100360D01*
X0495833Y0097860D01*
X0498333Y0095360D01*
X0498333Y0090360D01*
X0495833Y0087860D01*
X0498333Y0085360D01*
X0498333Y0080360D01*
X0495833Y0077860D01*
X0498333Y0075360D01*
X0498333Y0070360D01*
X0495833Y0067860D01*
X0498333Y0065360D01*
X0498333Y0060360D01*
X0495833Y0057860D01*
X0490833Y0057860D01*
X0488333Y0060360D01*
X0488333Y0065360D01*
X0490833Y0067860D01*
X0488333Y0070360D01*
X0488333Y0075360D01*
X0490833Y0077860D01*
X0488333Y0080360D01*
X0488333Y0085360D01*
X0490833Y0087860D01*
X0488333Y0090360D01*
X0488333Y0095360D01*
X0490833Y0097860D01*
X0488333Y0100360D01*
X0488333Y0105360D01*
X0490833Y0107860D01*
X0488333Y0110360D01*
X0488333Y0115360D01*
X0490833Y0117860D01*
X0495833Y0117860D01*
X0498333Y0115360D01*
X0524434Y0115950D02*
X0526536Y0115950D01*
X0527937Y0119153D02*
X0526536Y0120554D01*
X0508140Y0104464D02*
X0505337Y0100260D01*
X0508140Y0100260D02*
X0505337Y0104464D01*
X0503536Y0104464D02*
X0500733Y0104464D01*
X0502135Y0104464D02*
X0502135Y0100260D01*
X0501233Y0095964D02*
X0503335Y0095964D01*
X0504036Y0095263D01*
X0504036Y0093862D01*
X0503335Y0093161D01*
X0501233Y0093161D01*
X0501233Y0091760D02*
X0501233Y0095964D01*
X0502635Y0093161D02*
X0504036Y0091760D01*
X0505837Y0091760D02*
X0508640Y0095964D01*
X0505837Y0095964D02*
X0508640Y0091760D01*
X0507939Y0084964D02*
X0506538Y0084964D01*
X0505837Y0084263D01*
X0505837Y0081461D01*
X0506538Y0080760D01*
X0507939Y0080760D01*
X0508640Y0081461D01*
X0510441Y0081461D02*
X0511142Y0080760D01*
X0512543Y0080760D01*
X0513244Y0081461D01*
X0510441Y0081461D02*
X0510441Y0084263D01*
X0511142Y0084964D01*
X0512543Y0084964D01*
X0513244Y0084263D01*
X0508640Y0084263D02*
X0507939Y0084964D01*
X0504036Y0084964D02*
X0504036Y0082161D01*
X0502635Y0080760D01*
X0501233Y0082161D01*
X0501233Y0084964D01*
X0501434Y0074964D02*
X0500733Y0074263D01*
X0500733Y0071461D01*
X0501434Y0070760D01*
X0502835Y0070760D01*
X0503536Y0071461D01*
X0506738Y0070760D02*
X0506738Y0074964D01*
X0505337Y0074964D02*
X0508140Y0074964D01*
X0509941Y0074263D02*
X0509941Y0073562D01*
X0510642Y0072862D01*
X0512043Y0072862D01*
X0512744Y0072161D01*
X0512744Y0071461D01*
X0512043Y0070760D01*
X0510642Y0070760D01*
X0509941Y0071461D01*
X0509941Y0074263D02*
X0510642Y0074964D01*
X0512043Y0074964D01*
X0512744Y0074263D01*
X0503536Y0074263D02*
X0502835Y0074964D01*
X0501434Y0074964D01*
X0501434Y0064464D02*
X0500733Y0063763D01*
X0500733Y0060961D01*
X0501434Y0060260D01*
X0502835Y0060260D01*
X0503536Y0060961D01*
X0503536Y0062362D01*
X0502135Y0062362D01*
X0503536Y0063763D02*
X0502835Y0064464D01*
X0501434Y0064464D01*
X0505337Y0064464D02*
X0508140Y0060260D01*
X0508140Y0064464D01*
X0509941Y0064464D02*
X0512043Y0064464D01*
X0512744Y0063763D01*
X0512744Y0060961D01*
X0512043Y0060260D01*
X0509941Y0060260D01*
X0509941Y0064464D01*
X0505337Y0064464D02*
X0505337Y0060260D01*
X0551333Y0048860D02*
X0551333Y0047860D01*
X0575333Y0047860D01*
X0575333Y0048860D01*
X0565833Y0037860D02*
X0568333Y0035360D01*
X0565833Y0037860D02*
X0560833Y0037860D01*
X0558333Y0035360D01*
D13*
X0628662Y0040669D02*
X0627942Y0040129D01*
X0627943Y0040130D02*
X0627762Y0040363D01*
X0627576Y0040591D01*
X0627384Y0040815D01*
X0627187Y0041034D01*
X0626985Y0041248D01*
X0626777Y0041457D01*
X0626564Y0041660D01*
X0626347Y0041859D01*
X0626124Y0042052D01*
X0625897Y0042240D01*
X0625666Y0042422D01*
X0625430Y0042599D01*
X0625189Y0042769D01*
X0624945Y0042934D01*
X0624697Y0043092D01*
X0624445Y0043245D01*
X0624189Y0043391D01*
X0623930Y0043531D01*
X0623667Y0043665D01*
X0623402Y0043792D01*
X0623133Y0043913D01*
X0622861Y0044027D01*
X0622587Y0044134D01*
X0622310Y0044235D01*
X0622031Y0044329D01*
X0621749Y0044416D01*
X0621466Y0044496D01*
X0621180Y0044569D01*
X0620893Y0044635D01*
X0620604Y0044694D01*
X0620314Y0044746D01*
X0620023Y0044791D01*
X0619731Y0044829D01*
X0619438Y0044859D01*
X0619144Y0044883D01*
X0618850Y0044899D01*
X0618556Y0044908D01*
X0618261Y0044910D01*
X0617966Y0044904D01*
X0617672Y0044892D01*
X0617378Y0044872D01*
X0617085Y0044845D01*
X0616792Y0044811D01*
X0616500Y0044770D01*
X0616210Y0044721D01*
X0615920Y0044666D01*
X0615633Y0044604D01*
X0615346Y0044534D01*
X0615062Y0044457D01*
X0614779Y0044374D01*
X0614499Y0044284D01*
X0614221Y0044187D01*
X0613945Y0044083D01*
X0613672Y0043972D01*
X0613402Y0043855D01*
X0613134Y0043731D01*
X0612870Y0043601D01*
X0612609Y0043464D01*
X0612352Y0043321D01*
X0612098Y0043171D01*
X0611847Y0043016D01*
X0611601Y0042854D01*
X0611359Y0042687D01*
X0611121Y0042513D01*
X0610887Y0042334D01*
X0610657Y0042149D01*
X0610433Y0041959D01*
X0610212Y0041763D01*
X0609997Y0041562D01*
X0609787Y0041355D01*
X0609582Y0041144D01*
X0609382Y0040927D01*
X0609187Y0040706D01*
X0608998Y0040480D01*
X0608815Y0040250D01*
X0608637Y0040015D01*
X0608465Y0039775D01*
X0608299Y0039532D01*
X0608139Y0039285D01*
X0607985Y0039034D01*
X0607837Y0038779D01*
X0607695Y0038520D01*
X0607560Y0038259D01*
X0607431Y0037994D01*
X0607309Y0037726D01*
X0607193Y0037455D01*
X0607084Y0037181D01*
X0606982Y0036905D01*
X0606887Y0036626D01*
X0606798Y0036345D01*
X0606716Y0036062D01*
X0606641Y0035777D01*
X0606574Y0035490D01*
X0606513Y0035202D01*
X0606459Y0034912D01*
X0606412Y0034621D01*
X0606373Y0034329D01*
X0606341Y0034037D01*
X0606315Y0033743D01*
X0606297Y0033449D01*
X0606287Y0033155D01*
X0606283Y0032860D01*
X0606287Y0032565D01*
X0606297Y0032271D01*
X0606315Y0031977D01*
X0606341Y0031683D01*
X0606373Y0031391D01*
X0606412Y0031099D01*
X0606459Y0030808D01*
X0606513Y0030518D01*
X0606574Y0030230D01*
X0606641Y0029943D01*
X0606716Y0029658D01*
X0606798Y0029375D01*
X0606887Y0029094D01*
X0606982Y0028815D01*
X0607084Y0028539D01*
X0607193Y0028265D01*
X0607309Y0027994D01*
X0607431Y0027726D01*
X0607560Y0027461D01*
X0607695Y0027200D01*
X0607837Y0026941D01*
X0607985Y0026686D01*
X0608139Y0026435D01*
X0608299Y0026188D01*
X0608465Y0025945D01*
X0608637Y0025705D01*
X0608815Y0025470D01*
X0608998Y0025240D01*
X0609187Y0025014D01*
X0609382Y0024793D01*
X0609582Y0024576D01*
X0609787Y0024365D01*
X0609997Y0024158D01*
X0610212Y0023957D01*
X0610433Y0023761D01*
X0610657Y0023571D01*
X0610887Y0023386D01*
X0611121Y0023207D01*
X0611359Y0023033D01*
X0611601Y0022866D01*
X0611847Y0022704D01*
X0612098Y0022549D01*
X0612352Y0022399D01*
X0612609Y0022256D01*
X0612870Y0022119D01*
X0613134Y0021989D01*
X0613402Y0021865D01*
X0613672Y0021748D01*
X0613945Y0021637D01*
X0614221Y0021533D01*
X0614499Y0021436D01*
X0614779Y0021346D01*
X0615062Y0021263D01*
X0615346Y0021186D01*
X0615633Y0021116D01*
X0615920Y0021054D01*
X0616210Y0020999D01*
X0616500Y0020950D01*
X0616792Y0020909D01*
X0617085Y0020875D01*
X0617378Y0020848D01*
X0617672Y0020828D01*
X0617966Y0020816D01*
X0618261Y0020810D01*
X0618556Y0020812D01*
X0618850Y0020821D01*
X0619144Y0020837D01*
X0619438Y0020861D01*
X0619731Y0020891D01*
X0620023Y0020929D01*
X0620314Y0020974D01*
X0620604Y0021026D01*
X0620893Y0021085D01*
X0621180Y0021151D01*
X0621466Y0021224D01*
X0621749Y0021304D01*
X0622031Y0021391D01*
X0622310Y0021485D01*
X0622587Y0021586D01*
X0622861Y0021693D01*
X0623133Y0021807D01*
X0623402Y0021928D01*
X0623667Y0022055D01*
X0623930Y0022189D01*
X0624189Y0022329D01*
X0624445Y0022475D01*
X0624697Y0022628D01*
X0624945Y0022786D01*
X0625189Y0022951D01*
X0625430Y0023121D01*
X0625666Y0023298D01*
X0625897Y0023480D01*
X0626124Y0023668D01*
X0626347Y0023861D01*
X0626564Y0024060D01*
X0626777Y0024263D01*
X0626985Y0024472D01*
X0627187Y0024686D01*
X0627384Y0024905D01*
X0627576Y0025129D01*
X0627762Y0025357D01*
X0627943Y0025590D01*
X0628662Y0025051D01*
X0628663Y0025050D01*
X0628469Y0024800D01*
X0628269Y0024554D01*
X0628063Y0024314D01*
X0627851Y0024079D01*
X0627633Y0023849D01*
X0627410Y0023624D01*
X0627182Y0023405D01*
X0626948Y0023191D01*
X0626709Y0022983D01*
X0626465Y0022781D01*
X0626216Y0022586D01*
X0625962Y0022396D01*
X0625704Y0022213D01*
X0625442Y0022036D01*
X0625175Y0021865D01*
X0624904Y0021701D01*
X0624629Y0021544D01*
X0624351Y0021393D01*
X0624068Y0021249D01*
X0623783Y0021113D01*
X0623494Y0020983D01*
X0623202Y0020860D01*
X0622907Y0020745D01*
X0622610Y0020637D01*
X0622309Y0020536D01*
X0622007Y0020442D01*
X0621702Y0020356D01*
X0621395Y0020277D01*
X0621087Y0020206D01*
X0620777Y0020143D01*
X0620465Y0020087D01*
X0620152Y0020038D01*
X0619838Y0019998D01*
X0619523Y0019965D01*
X0619207Y0019940D01*
X0618891Y0019922D01*
X0618575Y0019912D01*
X0618258Y0019910D01*
X0617941Y0019916D01*
X0617625Y0019929D01*
X0617309Y0019951D01*
X0616994Y0019979D01*
X0616679Y0020016D01*
X0616366Y0020060D01*
X0616053Y0020112D01*
X0615742Y0020172D01*
X0615433Y0020239D01*
X0615125Y0020314D01*
X0614819Y0020396D01*
X0614516Y0020485D01*
X0614214Y0020582D01*
X0613915Y0020687D01*
X0613619Y0020799D01*
X0613325Y0020917D01*
X0613035Y0021043D01*
X0612748Y0021176D01*
X0612463Y0021317D01*
X0612183Y0021464D01*
X0611906Y0021617D01*
X0611633Y0021778D01*
X0611364Y0021945D01*
X0611099Y0022119D01*
X0610839Y0022299D01*
X0610583Y0022485D01*
X0610332Y0022678D01*
X0610085Y0022876D01*
X0609843Y0023081D01*
X0609607Y0023291D01*
X0609375Y0023508D01*
X0609150Y0023730D01*
X0608929Y0023957D01*
X0608714Y0024189D01*
X0608505Y0024427D01*
X0608302Y0024670D01*
X0608104Y0024918D01*
X0607913Y0025170D01*
X0607728Y0025427D01*
X0607550Y0025689D01*
X0607378Y0025955D01*
X0607212Y0026224D01*
X0607053Y0026498D01*
X0606901Y0026776D01*
X0606756Y0027057D01*
X0606617Y0027342D01*
X0606486Y0027630D01*
X0606362Y0027922D01*
X0606244Y0028216D01*
X0606134Y0028513D01*
X0606032Y0028812D01*
X0605937Y0029114D01*
X0605849Y0029418D01*
X0605768Y0029725D01*
X0605695Y0030033D01*
X0605630Y0030343D01*
X0605572Y0030654D01*
X0605522Y0030967D01*
X0605480Y0031281D01*
X0605445Y0031595D01*
X0605418Y0031911D01*
X0605398Y0032227D01*
X0605387Y0032543D01*
X0605383Y0032860D01*
X0605387Y0033177D01*
X0605398Y0033493D01*
X0605418Y0033809D01*
X0605445Y0034125D01*
X0605480Y0034439D01*
X0605522Y0034753D01*
X0605572Y0035066D01*
X0605630Y0035377D01*
X0605695Y0035687D01*
X0605768Y0035995D01*
X0605849Y0036302D01*
X0605937Y0036606D01*
X0606032Y0036908D01*
X0606134Y0037207D01*
X0606244Y0037504D01*
X0606362Y0037798D01*
X0606486Y0038090D01*
X0606617Y0038378D01*
X0606756Y0038663D01*
X0606901Y0038944D01*
X0607053Y0039222D01*
X0607212Y0039496D01*
X0607378Y0039765D01*
X0607550Y0040031D01*
X0607728Y0040293D01*
X0607913Y0040550D01*
X0608104Y0040802D01*
X0608302Y0041050D01*
X0608505Y0041293D01*
X0608714Y0041531D01*
X0608929Y0041763D01*
X0609150Y0041990D01*
X0609375Y0042212D01*
X0609607Y0042429D01*
X0609843Y0042639D01*
X0610085Y0042844D01*
X0610332Y0043042D01*
X0610583Y0043235D01*
X0610839Y0043421D01*
X0611099Y0043601D01*
X0611364Y0043775D01*
X0611633Y0043942D01*
X0611906Y0044103D01*
X0612183Y0044256D01*
X0612463Y0044403D01*
X0612748Y0044544D01*
X0613035Y0044677D01*
X0613325Y0044803D01*
X0613619Y0044921D01*
X0613915Y0045033D01*
X0614214Y0045138D01*
X0614516Y0045235D01*
X0614819Y0045324D01*
X0615125Y0045406D01*
X0615433Y0045481D01*
X0615742Y0045548D01*
X0616053Y0045608D01*
X0616366Y0045660D01*
X0616679Y0045704D01*
X0616994Y0045741D01*
X0617309Y0045769D01*
X0617625Y0045791D01*
X0617941Y0045804D01*
X0618258Y0045810D01*
X0618575Y0045808D01*
X0618891Y0045798D01*
X0619207Y0045780D01*
X0619523Y0045755D01*
X0619838Y0045722D01*
X0620152Y0045682D01*
X0620465Y0045633D01*
X0620777Y0045577D01*
X0621087Y0045514D01*
X0621395Y0045443D01*
X0621702Y0045364D01*
X0622007Y0045278D01*
X0622309Y0045184D01*
X0622610Y0045083D01*
X0622907Y0044975D01*
X0623202Y0044860D01*
X0623494Y0044737D01*
X0623783Y0044607D01*
X0624068Y0044471D01*
X0624351Y0044327D01*
X0624629Y0044176D01*
X0624904Y0044019D01*
X0625175Y0043855D01*
X0625442Y0043684D01*
X0625704Y0043507D01*
X0625962Y0043324D01*
X0626216Y0043134D01*
X0626465Y0042939D01*
X0626709Y0042737D01*
X0626948Y0042529D01*
X0627182Y0042315D01*
X0627410Y0042096D01*
X0627633Y0041871D01*
X0627851Y0041641D01*
X0628063Y0041406D01*
X0628269Y0041166D01*
X0628469Y0040920D01*
X0628663Y0040670D01*
X0628588Y0040614D01*
X0628395Y0040862D01*
X0628196Y0041106D01*
X0627992Y0041344D01*
X0627782Y0041578D01*
X0627566Y0041806D01*
X0627344Y0042029D01*
X0627117Y0042247D01*
X0626885Y0042459D01*
X0626648Y0042665D01*
X0626406Y0042866D01*
X0626158Y0043060D01*
X0625907Y0043248D01*
X0625650Y0043430D01*
X0625390Y0043606D01*
X0625125Y0043775D01*
X0624856Y0043938D01*
X0624583Y0044094D01*
X0624307Y0044244D01*
X0624027Y0044386D01*
X0623743Y0044522D01*
X0623456Y0044651D01*
X0623166Y0044773D01*
X0622874Y0044887D01*
X0622578Y0044995D01*
X0622280Y0045095D01*
X0621980Y0045188D01*
X0621677Y0045273D01*
X0621373Y0045351D01*
X0621067Y0045422D01*
X0620759Y0045485D01*
X0620449Y0045541D01*
X0620139Y0045589D01*
X0619827Y0045629D01*
X0619514Y0045662D01*
X0619201Y0045687D01*
X0618887Y0045704D01*
X0618573Y0045714D01*
X0618258Y0045716D01*
X0617944Y0045710D01*
X0617630Y0045697D01*
X0617316Y0045676D01*
X0617003Y0045647D01*
X0616691Y0045611D01*
X0616380Y0045567D01*
X0616070Y0045515D01*
X0615761Y0045456D01*
X0615454Y0045389D01*
X0615148Y0045315D01*
X0614845Y0045234D01*
X0614543Y0045145D01*
X0614244Y0045048D01*
X0613947Y0044945D01*
X0613653Y0044834D01*
X0613362Y0044716D01*
X0613073Y0044591D01*
X0612788Y0044459D01*
X0612506Y0044320D01*
X0612228Y0044174D01*
X0611953Y0044021D01*
X0611682Y0043862D01*
X0611415Y0043696D01*
X0611152Y0043523D01*
X0610893Y0043345D01*
X0610639Y0043160D01*
X0610390Y0042968D01*
X0610145Y0042771D01*
X0609905Y0042568D01*
X0609670Y0042359D01*
X0609440Y0042144D01*
X0609216Y0041924D01*
X0608997Y0041699D01*
X0608784Y0041468D01*
X0608576Y0041232D01*
X0608374Y0040990D01*
X0608179Y0040745D01*
X0607989Y0040494D01*
X0607805Y0040239D01*
X0607628Y0039979D01*
X0607457Y0039715D01*
X0607293Y0039447D01*
X0607135Y0039175D01*
X0606984Y0038900D01*
X0606840Y0038620D01*
X0606702Y0038338D01*
X0606572Y0038052D01*
X0606448Y0037763D01*
X0606332Y0037470D01*
X0606223Y0037176D01*
X0606121Y0036878D01*
X0606027Y0036579D01*
X0605939Y0036276D01*
X0605859Y0035972D01*
X0605787Y0035667D01*
X0605722Y0035359D01*
X0605665Y0035050D01*
X0605615Y0034739D01*
X0605573Y0034428D01*
X0605538Y0034115D01*
X0605512Y0033802D01*
X0605492Y0033488D01*
X0605481Y0033174D01*
X0605477Y0032860D01*
X0605481Y0032546D01*
X0605492Y0032232D01*
X0605512Y0031918D01*
X0605538Y0031605D01*
X0605573Y0031292D01*
X0605615Y0030981D01*
X0605665Y0030670D01*
X0605722Y0030361D01*
X0605787Y0030053D01*
X0605859Y0029748D01*
X0605939Y0029444D01*
X0606027Y0029141D01*
X0606121Y0028842D01*
X0606223Y0028544D01*
X0606332Y0028250D01*
X0606448Y0027957D01*
X0606572Y0027668D01*
X0606702Y0027382D01*
X0606840Y0027100D01*
X0606984Y0026820D01*
X0607135Y0026545D01*
X0607293Y0026273D01*
X0607457Y0026005D01*
X0607628Y0025741D01*
X0607805Y0025481D01*
X0607989Y0025226D01*
X0608179Y0024975D01*
X0608374Y0024730D01*
X0608576Y0024488D01*
X0608784Y0024252D01*
X0608997Y0024021D01*
X0609216Y0023796D01*
X0609440Y0023576D01*
X0609670Y0023361D01*
X0609905Y0023152D01*
X0610145Y0022949D01*
X0610390Y0022752D01*
X0610639Y0022560D01*
X0610893Y0022375D01*
X0611152Y0022197D01*
X0611415Y0022024D01*
X0611682Y0021858D01*
X0611953Y0021699D01*
X0612228Y0021546D01*
X0612506Y0021400D01*
X0612788Y0021261D01*
X0613073Y0021129D01*
X0613362Y0021004D01*
X0613653Y0020886D01*
X0613947Y0020775D01*
X0614244Y0020672D01*
X0614543Y0020575D01*
X0614845Y0020486D01*
X0615148Y0020405D01*
X0615454Y0020331D01*
X0615761Y0020264D01*
X0616070Y0020205D01*
X0616380Y0020153D01*
X0616691Y0020109D01*
X0617003Y0020073D01*
X0617316Y0020044D01*
X0617630Y0020023D01*
X0617944Y0020010D01*
X0618258Y0020004D01*
X0618573Y0020006D01*
X0618887Y0020016D01*
X0619201Y0020033D01*
X0619514Y0020058D01*
X0619827Y0020091D01*
X0620139Y0020131D01*
X0620449Y0020179D01*
X0620759Y0020235D01*
X0621067Y0020298D01*
X0621373Y0020369D01*
X0621677Y0020447D01*
X0621980Y0020532D01*
X0622280Y0020625D01*
X0622578Y0020725D01*
X0622874Y0020833D01*
X0623166Y0020947D01*
X0623456Y0021069D01*
X0623743Y0021198D01*
X0624027Y0021334D01*
X0624307Y0021476D01*
X0624583Y0021626D01*
X0624856Y0021782D01*
X0625125Y0021945D01*
X0625390Y0022114D01*
X0625650Y0022290D01*
X0625907Y0022472D01*
X0626158Y0022660D01*
X0626406Y0022854D01*
X0626648Y0023055D01*
X0626885Y0023261D01*
X0627117Y0023473D01*
X0627344Y0023691D01*
X0627566Y0023914D01*
X0627782Y0024142D01*
X0627992Y0024376D01*
X0628196Y0024614D01*
X0628395Y0024858D01*
X0628588Y0025106D01*
X0628513Y0025163D01*
X0628321Y0024916D01*
X0628124Y0024674D01*
X0627921Y0024437D01*
X0627712Y0024206D01*
X0627498Y0023979D01*
X0627278Y0023757D01*
X0627053Y0023541D01*
X0626822Y0023331D01*
X0626587Y0023126D01*
X0626346Y0022927D01*
X0626101Y0022734D01*
X0625851Y0022548D01*
X0625597Y0022367D01*
X0625338Y0022192D01*
X0625075Y0022024D01*
X0624808Y0021863D01*
X0624537Y0021708D01*
X0624263Y0021559D01*
X0623985Y0021418D01*
X0623703Y0021283D01*
X0623419Y0021155D01*
X0623131Y0021034D01*
X0622840Y0020920D01*
X0622547Y0020814D01*
X0622251Y0020714D01*
X0621953Y0020622D01*
X0621653Y0020537D01*
X0621350Y0020460D01*
X0621046Y0020390D01*
X0620741Y0020327D01*
X0620434Y0020272D01*
X0620125Y0020224D01*
X0619816Y0020184D01*
X0619505Y0020152D01*
X0619194Y0020127D01*
X0618883Y0020110D01*
X0618571Y0020100D01*
X0618259Y0020098D01*
X0617947Y0020104D01*
X0617635Y0020117D01*
X0617324Y0020138D01*
X0617013Y0020166D01*
X0616703Y0020203D01*
X0616394Y0020246D01*
X0616086Y0020297D01*
X0615779Y0020356D01*
X0615475Y0020422D01*
X0615171Y0020496D01*
X0614870Y0020577D01*
X0614571Y0020665D01*
X0614274Y0020761D01*
X0613979Y0020864D01*
X0613687Y0020974D01*
X0613398Y0021091D01*
X0613111Y0021215D01*
X0612828Y0021346D01*
X0612548Y0021484D01*
X0612272Y0021629D01*
X0611999Y0021781D01*
X0611730Y0021939D01*
X0611465Y0022104D01*
X0611204Y0022275D01*
X0610948Y0022452D01*
X0610695Y0022636D01*
X0610448Y0022826D01*
X0610205Y0023021D01*
X0609966Y0023223D01*
X0609733Y0023431D01*
X0609505Y0023644D01*
X0609283Y0023862D01*
X0609065Y0024086D01*
X0608854Y0024315D01*
X0608648Y0024550D01*
X0608447Y0024789D01*
X0608253Y0025033D01*
X0608065Y0025282D01*
X0607882Y0025535D01*
X0607706Y0025793D01*
X0607537Y0026055D01*
X0607374Y0026321D01*
X0607217Y0026591D01*
X0607067Y0026865D01*
X0606924Y0027142D01*
X0606787Y0027422D01*
X0606658Y0027706D01*
X0606535Y0027993D01*
X0606420Y0028283D01*
X0606312Y0028576D01*
X0606210Y0028871D01*
X0606116Y0029169D01*
X0606030Y0029469D01*
X0605951Y0029770D01*
X0605879Y0030074D01*
X0605814Y0030379D01*
X0605757Y0030686D01*
X0605708Y0030994D01*
X0605666Y0031304D01*
X0605632Y0031614D01*
X0605605Y0031925D01*
X0605586Y0032236D01*
X0605575Y0032548D01*
X0605571Y0032860D01*
X0605575Y0033172D01*
X0605586Y0033484D01*
X0605605Y0033795D01*
X0605632Y0034106D01*
X0605666Y0034416D01*
X0605708Y0034726D01*
X0605757Y0035034D01*
X0605814Y0035341D01*
X0605879Y0035646D01*
X0605951Y0035950D01*
X0606030Y0036251D01*
X0606116Y0036551D01*
X0606210Y0036849D01*
X0606312Y0037144D01*
X0606420Y0037437D01*
X0606535Y0037727D01*
X0606658Y0038014D01*
X0606787Y0038298D01*
X0606924Y0038578D01*
X0607067Y0038855D01*
X0607217Y0039129D01*
X0607374Y0039399D01*
X0607537Y0039665D01*
X0607706Y0039927D01*
X0607882Y0040185D01*
X0608065Y0040438D01*
X0608253Y0040687D01*
X0608447Y0040931D01*
X0608648Y0041170D01*
X0608854Y0041405D01*
X0609065Y0041634D01*
X0609283Y0041858D01*
X0609505Y0042076D01*
X0609733Y0042289D01*
X0609966Y0042497D01*
X0610205Y0042699D01*
X0610448Y0042894D01*
X0610695Y0043084D01*
X0610948Y0043268D01*
X0611204Y0043445D01*
X0611465Y0043616D01*
X0611730Y0043781D01*
X0611999Y0043939D01*
X0612272Y0044091D01*
X0612548Y0044236D01*
X0612828Y0044374D01*
X0613111Y0044505D01*
X0613398Y0044629D01*
X0613687Y0044746D01*
X0613979Y0044856D01*
X0614274Y0044959D01*
X0614571Y0045055D01*
X0614870Y0045143D01*
X0615171Y0045224D01*
X0615475Y0045298D01*
X0615779Y0045364D01*
X0616086Y0045423D01*
X0616394Y0045474D01*
X0616703Y0045517D01*
X0617013Y0045554D01*
X0617324Y0045582D01*
X0617635Y0045603D01*
X0617947Y0045616D01*
X0618259Y0045622D01*
X0618571Y0045620D01*
X0618883Y0045610D01*
X0619194Y0045593D01*
X0619505Y0045568D01*
X0619816Y0045536D01*
X0620125Y0045496D01*
X0620434Y0045448D01*
X0620741Y0045393D01*
X0621046Y0045330D01*
X0621350Y0045260D01*
X0621653Y0045183D01*
X0621953Y0045098D01*
X0622251Y0045006D01*
X0622547Y0044906D01*
X0622840Y0044800D01*
X0623131Y0044686D01*
X0623419Y0044565D01*
X0623703Y0044437D01*
X0623985Y0044302D01*
X0624263Y0044161D01*
X0624537Y0044012D01*
X0624808Y0043857D01*
X0625075Y0043696D01*
X0625338Y0043528D01*
X0625597Y0043353D01*
X0625851Y0043172D01*
X0626101Y0042986D01*
X0626346Y0042793D01*
X0626587Y0042594D01*
X0626822Y0042389D01*
X0627053Y0042179D01*
X0627278Y0041963D01*
X0627498Y0041741D01*
X0627712Y0041514D01*
X0627921Y0041283D01*
X0628124Y0041046D01*
X0628321Y0040804D01*
X0628513Y0040557D01*
X0628437Y0040501D01*
X0628247Y0040746D01*
X0628052Y0040986D01*
X0627850Y0041221D01*
X0627643Y0041451D01*
X0627430Y0041676D01*
X0627212Y0041896D01*
X0626988Y0042110D01*
X0626759Y0042319D01*
X0626526Y0042522D01*
X0626287Y0042720D01*
X0626044Y0042911D01*
X0625795Y0043097D01*
X0625543Y0043276D01*
X0625286Y0043449D01*
X0625025Y0043616D01*
X0624760Y0043777D01*
X0624491Y0043930D01*
X0624219Y0044078D01*
X0623943Y0044218D01*
X0623663Y0044352D01*
X0623381Y0044479D01*
X0623095Y0044599D01*
X0622807Y0044712D01*
X0622516Y0044818D01*
X0622222Y0044916D01*
X0621926Y0045008D01*
X0621628Y0045092D01*
X0621328Y0045169D01*
X0621026Y0045238D01*
X0620723Y0045301D01*
X0620418Y0045355D01*
X0620112Y0045403D01*
X0619804Y0045442D01*
X0619496Y0045474D01*
X0619188Y0045499D01*
X0618878Y0045516D01*
X0618569Y0045526D01*
X0618259Y0045528D01*
X0617949Y0045522D01*
X0617640Y0045509D01*
X0617331Y0045488D01*
X0617022Y0045460D01*
X0616715Y0045424D01*
X0616408Y0045381D01*
X0616102Y0045330D01*
X0615798Y0045272D01*
X0615495Y0045206D01*
X0615194Y0045133D01*
X0614895Y0045053D01*
X0614598Y0044965D01*
X0614303Y0044870D01*
X0614011Y0044768D01*
X0613721Y0044659D01*
X0613434Y0044542D01*
X0613150Y0044419D01*
X0612869Y0044289D01*
X0612591Y0044152D01*
X0612317Y0044008D01*
X0612046Y0043858D01*
X0611779Y0043701D01*
X0611516Y0043537D01*
X0611257Y0043367D01*
X0611002Y0043191D01*
X0610751Y0043009D01*
X0610506Y0042820D01*
X0610264Y0042626D01*
X0610028Y0042426D01*
X0609797Y0042220D01*
X0609570Y0042008D01*
X0609349Y0041791D01*
X0609134Y0041569D01*
X0608923Y0041342D01*
X0608719Y0041109D01*
X0608520Y0040871D01*
X0608327Y0040629D01*
X0608140Y0040382D01*
X0607959Y0040131D01*
X0607785Y0039875D01*
X0607616Y0039615D01*
X0607454Y0039351D01*
X0607299Y0039083D01*
X0607150Y0038811D01*
X0607008Y0038536D01*
X0606872Y0038257D01*
X0606744Y0037976D01*
X0606622Y0037691D01*
X0606508Y0037403D01*
X0606400Y0037112D01*
X0606300Y0036819D01*
X0606206Y0036524D01*
X0606120Y0036226D01*
X0606042Y0035927D01*
X0605971Y0035625D01*
X0605907Y0035322D01*
X0605850Y0035018D01*
X0605801Y0034712D01*
X0605760Y0034405D01*
X0605726Y0034097D01*
X0605699Y0033788D01*
X0605680Y0033479D01*
X0605669Y0033170D01*
X0605665Y0032860D01*
X0605669Y0032550D01*
X0605680Y0032241D01*
X0605699Y0031932D01*
X0605726Y0031623D01*
X0605760Y0031315D01*
X0605801Y0031008D01*
X0605850Y0030702D01*
X0605907Y0030398D01*
X0605971Y0030095D01*
X0606042Y0029793D01*
X0606120Y0029494D01*
X0606206Y0029196D01*
X0606300Y0028901D01*
X0606400Y0028608D01*
X0606508Y0028317D01*
X0606622Y0028029D01*
X0606744Y0027744D01*
X0606872Y0027463D01*
X0607008Y0027184D01*
X0607150Y0026909D01*
X0607299Y0026637D01*
X0607454Y0026369D01*
X0607616Y0026105D01*
X0607785Y0025845D01*
X0607959Y0025589D01*
X0608140Y0025338D01*
X0608327Y0025091D01*
X0608520Y0024849D01*
X0608719Y0024611D01*
X0608923Y0024378D01*
X0609134Y0024151D01*
X0609349Y0023929D01*
X0609570Y0023712D01*
X0609797Y0023500D01*
X0610028Y0023294D01*
X0610264Y0023094D01*
X0610506Y0022900D01*
X0610751Y0022711D01*
X0611002Y0022529D01*
X0611257Y0022353D01*
X0611516Y0022183D01*
X0611779Y0022019D01*
X0612046Y0021862D01*
X0612317Y0021712D01*
X0612591Y0021568D01*
X0612869Y0021431D01*
X0613150Y0021301D01*
X0613434Y0021178D01*
X0613721Y0021061D01*
X0614011Y0020952D01*
X0614303Y0020850D01*
X0614598Y0020755D01*
X0614895Y0020667D01*
X0615194Y0020587D01*
X0615495Y0020514D01*
X0615798Y0020448D01*
X0616102Y0020390D01*
X0616408Y0020339D01*
X0616715Y0020296D01*
X0617022Y0020260D01*
X0617331Y0020232D01*
X0617640Y0020211D01*
X0617949Y0020198D01*
X0618259Y0020192D01*
X0618569Y0020194D01*
X0618878Y0020204D01*
X0619188Y0020221D01*
X0619496Y0020246D01*
X0619804Y0020278D01*
X0620112Y0020317D01*
X0620418Y0020365D01*
X0620723Y0020419D01*
X0621026Y0020482D01*
X0621328Y0020551D01*
X0621628Y0020628D01*
X0621926Y0020712D01*
X0622222Y0020804D01*
X0622516Y0020902D01*
X0622807Y0021008D01*
X0623095Y0021121D01*
X0623381Y0021241D01*
X0623663Y0021368D01*
X0623943Y0021502D01*
X0624219Y0021642D01*
X0624491Y0021790D01*
X0624760Y0021943D01*
X0625025Y0022104D01*
X0625286Y0022271D01*
X0625543Y0022444D01*
X0625795Y0022623D01*
X0626044Y0022809D01*
X0626287Y0023000D01*
X0626526Y0023198D01*
X0626759Y0023401D01*
X0626988Y0023610D01*
X0627212Y0023824D01*
X0627430Y0024044D01*
X0627643Y0024269D01*
X0627850Y0024499D01*
X0628052Y0024734D01*
X0628247Y0024974D01*
X0628437Y0025219D01*
X0628362Y0025276D01*
X0628174Y0025033D01*
X0627979Y0024794D01*
X0627779Y0024561D01*
X0627574Y0024333D01*
X0627362Y0024109D01*
X0627146Y0023891D01*
X0626924Y0023678D01*
X0626697Y0023471D01*
X0626465Y0023269D01*
X0626228Y0023073D01*
X0625986Y0022883D01*
X0625740Y0022699D01*
X0625489Y0022521D01*
X0625234Y0022349D01*
X0624975Y0022184D01*
X0624712Y0022024D01*
X0624445Y0021872D01*
X0624175Y0021725D01*
X0623901Y0021586D01*
X0623624Y0021453D01*
X0623343Y0021327D01*
X0623060Y0021208D01*
X0622773Y0021096D01*
X0622484Y0020991D01*
X0622193Y0020893D01*
X0621899Y0020802D01*
X0621603Y0020719D01*
X0621306Y0020642D01*
X0621006Y0020573D01*
X0620705Y0020512D01*
X0620402Y0020457D01*
X0620098Y0020411D01*
X0619793Y0020371D01*
X0619488Y0020339D01*
X0619181Y0020315D01*
X0618874Y0020298D01*
X0618567Y0020288D01*
X0618259Y0020286D01*
X0617952Y0020292D01*
X0617645Y0020305D01*
X0617338Y0020325D01*
X0617032Y0020354D01*
X0616726Y0020389D01*
X0616422Y0020432D01*
X0616119Y0020483D01*
X0615817Y0020540D01*
X0615516Y0020606D01*
X0615217Y0020678D01*
X0614921Y0020758D01*
X0614626Y0020845D01*
X0614333Y0020939D01*
X0614043Y0021041D01*
X0613755Y0021149D01*
X0613470Y0021264D01*
X0613188Y0021387D01*
X0612909Y0021516D01*
X0612633Y0021652D01*
X0612361Y0021795D01*
X0612092Y0021944D01*
X0611827Y0022100D01*
X0611566Y0022262D01*
X0611309Y0022431D01*
X0611056Y0022606D01*
X0610808Y0022787D01*
X0610564Y0022974D01*
X0610324Y0023167D01*
X0610090Y0023365D01*
X0609860Y0023570D01*
X0609635Y0023780D01*
X0609416Y0023995D01*
X0609202Y0024216D01*
X0608993Y0024441D01*
X0608790Y0024672D01*
X0608593Y0024908D01*
X0608401Y0025149D01*
X0608216Y0025394D01*
X0608036Y0025643D01*
X0607863Y0025897D01*
X0607696Y0026155D01*
X0607535Y0026417D01*
X0607381Y0026683D01*
X0607233Y0026953D01*
X0607092Y0027226D01*
X0606957Y0027503D01*
X0606830Y0027782D01*
X0606709Y0028065D01*
X0606595Y0028351D01*
X0606489Y0028639D01*
X0606389Y0028930D01*
X0606296Y0029223D01*
X0606211Y0029519D01*
X0606133Y0029816D01*
X0606062Y0030115D01*
X0605999Y0030416D01*
X0605943Y0030718D01*
X0605894Y0031022D01*
X0605853Y0031327D01*
X0605819Y0031632D01*
X0605793Y0031938D01*
X0605774Y0032245D01*
X0605763Y0032553D01*
X0605759Y0032860D01*
X0605763Y0033167D01*
X0605774Y0033475D01*
X0605793Y0033782D01*
X0605819Y0034088D01*
X0605853Y0034393D01*
X0605894Y0034698D01*
X0605943Y0035002D01*
X0605999Y0035304D01*
X0606062Y0035605D01*
X0606133Y0035904D01*
X0606211Y0036201D01*
X0606296Y0036497D01*
X0606389Y0036790D01*
X0606489Y0037081D01*
X0606595Y0037369D01*
X0606709Y0037655D01*
X0606830Y0037938D01*
X0606957Y0038217D01*
X0607092Y0038494D01*
X0607233Y0038767D01*
X0607381Y0039037D01*
X0607535Y0039303D01*
X0607696Y0039565D01*
X0607863Y0039823D01*
X0608036Y0040077D01*
X0608216Y0040326D01*
X0608401Y0040571D01*
X0608593Y0040812D01*
X0608790Y0041048D01*
X0608993Y0041279D01*
X0609202Y0041504D01*
X0609416Y0041725D01*
X0609635Y0041940D01*
X0609860Y0042150D01*
X0610090Y0042355D01*
X0610324Y0042553D01*
X0610564Y0042746D01*
X0610808Y0042933D01*
X0611056Y0043114D01*
X0611309Y0043289D01*
X0611566Y0043458D01*
X0611827Y0043620D01*
X0612092Y0043776D01*
X0612361Y0043925D01*
X0612633Y0044068D01*
X0612909Y0044204D01*
X0613188Y0044333D01*
X0613470Y0044456D01*
X0613755Y0044571D01*
X0614043Y0044679D01*
X0614333Y0044781D01*
X0614626Y0044875D01*
X0614921Y0044962D01*
X0615217Y0045042D01*
X0615516Y0045114D01*
X0615817Y0045180D01*
X0616119Y0045237D01*
X0616422Y0045288D01*
X0616726Y0045331D01*
X0617032Y0045366D01*
X0617338Y0045395D01*
X0617645Y0045415D01*
X0617952Y0045428D01*
X0618259Y0045434D01*
X0618567Y0045432D01*
X0618874Y0045422D01*
X0619181Y0045405D01*
X0619488Y0045381D01*
X0619793Y0045349D01*
X0620098Y0045309D01*
X0620402Y0045263D01*
X0620705Y0045208D01*
X0621006Y0045147D01*
X0621306Y0045078D01*
X0621603Y0045001D01*
X0621899Y0044918D01*
X0622193Y0044827D01*
X0622484Y0044729D01*
X0622773Y0044624D01*
X0623060Y0044512D01*
X0623343Y0044393D01*
X0623624Y0044267D01*
X0623901Y0044134D01*
X0624175Y0043995D01*
X0624445Y0043848D01*
X0624712Y0043696D01*
X0624975Y0043536D01*
X0625234Y0043371D01*
X0625489Y0043199D01*
X0625740Y0043021D01*
X0625986Y0042837D01*
X0626228Y0042647D01*
X0626465Y0042451D01*
X0626697Y0042249D01*
X0626924Y0042042D01*
X0627146Y0041829D01*
X0627362Y0041611D01*
X0627574Y0041387D01*
X0627779Y0041159D01*
X0627979Y0040926D01*
X0628174Y0040687D01*
X0628362Y0040444D01*
X0628287Y0040388D01*
X0628100Y0040629D01*
X0627907Y0040866D01*
X0627708Y0041097D01*
X0627504Y0041324D01*
X0627295Y0041546D01*
X0627080Y0041762D01*
X0626859Y0041973D01*
X0626634Y0042179D01*
X0626404Y0042379D01*
X0626168Y0042574D01*
X0625929Y0042762D01*
X0625684Y0042945D01*
X0625435Y0043122D01*
X0625182Y0043292D01*
X0624925Y0043457D01*
X0624664Y0043615D01*
X0624399Y0043766D01*
X0624131Y0043911D01*
X0623859Y0044050D01*
X0623584Y0044182D01*
X0623305Y0044307D01*
X0623024Y0044425D01*
X0622740Y0044536D01*
X0622453Y0044640D01*
X0622164Y0044738D01*
X0621872Y0044828D01*
X0621579Y0044911D01*
X0621283Y0044986D01*
X0620986Y0045055D01*
X0620687Y0045116D01*
X0620386Y0045170D01*
X0620085Y0045216D01*
X0619782Y0045256D01*
X0619479Y0045287D01*
X0619174Y0045312D01*
X0618870Y0045328D01*
X0618565Y0045338D01*
X0618260Y0045340D01*
X0617955Y0045334D01*
X0617650Y0045321D01*
X0617345Y0045301D01*
X0617041Y0045273D01*
X0616738Y0045238D01*
X0616436Y0045195D01*
X0616135Y0045145D01*
X0615835Y0045088D01*
X0615537Y0045023D01*
X0615241Y0044951D01*
X0614946Y0044872D01*
X0614653Y0044785D01*
X0614363Y0044692D01*
X0614075Y0044591D01*
X0613789Y0044483D01*
X0613506Y0044369D01*
X0613226Y0044247D01*
X0612949Y0044119D01*
X0612676Y0043984D01*
X0612406Y0043843D01*
X0612139Y0043694D01*
X0611876Y0043540D01*
X0611617Y0043379D01*
X0611361Y0043211D01*
X0611110Y0043038D01*
X0610864Y0042858D01*
X0610622Y0042672D01*
X0610384Y0042481D01*
X0610151Y0042284D01*
X0609923Y0042081D01*
X0609700Y0041872D01*
X0609482Y0041659D01*
X0609270Y0041440D01*
X0609063Y0041216D01*
X0608861Y0040986D01*
X0608665Y0040752D01*
X0608475Y0040514D01*
X0608291Y0040270D01*
X0608113Y0040023D01*
X0607941Y0039771D01*
X0607775Y0039514D01*
X0607616Y0039254D01*
X0607462Y0038990D01*
X0607316Y0038723D01*
X0607176Y0038452D01*
X0607042Y0038177D01*
X0606916Y0037900D01*
X0606796Y0037619D01*
X0606683Y0037335D01*
X0606577Y0037049D01*
X0606478Y0036761D01*
X0606386Y0036470D01*
X0606302Y0036176D01*
X0606224Y0035881D01*
X0606154Y0035584D01*
X0606091Y0035286D01*
X0606035Y0034986D01*
X0605987Y0034684D01*
X0605946Y0034382D01*
X0605913Y0034079D01*
X0605887Y0033775D01*
X0605868Y0033470D01*
X0605857Y0033165D01*
X0605853Y0032860D01*
X0605857Y0032555D01*
X0605868Y0032250D01*
X0605887Y0031945D01*
X0605913Y0031641D01*
X0605946Y0031338D01*
X0605987Y0031036D01*
X0606035Y0030734D01*
X0606091Y0030434D01*
X0606154Y0030136D01*
X0606224Y0029839D01*
X0606302Y0029544D01*
X0606386Y0029250D01*
X0606478Y0028959D01*
X0606577Y0028671D01*
X0606683Y0028385D01*
X0606796Y0028101D01*
X0606916Y0027820D01*
X0607042Y0027543D01*
X0607176Y0027268D01*
X0607316Y0026997D01*
X0607462Y0026730D01*
X0607616Y0026466D01*
X0607775Y0026206D01*
X0607941Y0025949D01*
X0608113Y0025697D01*
X0608291Y0025450D01*
X0608475Y0025206D01*
X0608665Y0024968D01*
X0608861Y0024734D01*
X0609063Y0024504D01*
X0609270Y0024280D01*
X0609482Y0024061D01*
X0609700Y0023848D01*
X0609923Y0023639D01*
X0610151Y0023436D01*
X0610384Y0023239D01*
X0610622Y0023048D01*
X0610864Y0022862D01*
X0611110Y0022682D01*
X0611361Y0022509D01*
X0611617Y0022341D01*
X0611876Y0022180D01*
X0612139Y0022026D01*
X0612406Y0021877D01*
X0612676Y0021736D01*
X0612949Y0021601D01*
X0613226Y0021473D01*
X0613506Y0021351D01*
X0613789Y0021237D01*
X0614075Y0021129D01*
X0614363Y0021028D01*
X0614653Y0020935D01*
X0614946Y0020848D01*
X0615241Y0020769D01*
X0615537Y0020697D01*
X0615835Y0020632D01*
X0616135Y0020575D01*
X0616436Y0020525D01*
X0616738Y0020482D01*
X0617041Y0020447D01*
X0617345Y0020419D01*
X0617650Y0020399D01*
X0617955Y0020386D01*
X0618260Y0020380D01*
X0618565Y0020382D01*
X0618870Y0020392D01*
X0619174Y0020408D01*
X0619479Y0020433D01*
X0619782Y0020464D01*
X0620085Y0020504D01*
X0620386Y0020550D01*
X0620687Y0020604D01*
X0620986Y0020665D01*
X0621283Y0020734D01*
X0621579Y0020809D01*
X0621872Y0020892D01*
X0622164Y0020982D01*
X0622453Y0021080D01*
X0622740Y0021184D01*
X0623024Y0021295D01*
X0623305Y0021413D01*
X0623584Y0021538D01*
X0623859Y0021670D01*
X0624131Y0021809D01*
X0624399Y0021954D01*
X0624664Y0022105D01*
X0624925Y0022263D01*
X0625182Y0022428D01*
X0625435Y0022598D01*
X0625684Y0022775D01*
X0625929Y0022958D01*
X0626168Y0023146D01*
X0626404Y0023341D01*
X0626634Y0023541D01*
X0626859Y0023747D01*
X0627080Y0023958D01*
X0627295Y0024174D01*
X0627504Y0024396D01*
X0627708Y0024623D01*
X0627907Y0024854D01*
X0628100Y0025091D01*
X0628287Y0025332D01*
X0628212Y0025388D01*
X0628026Y0025149D01*
X0627835Y0024914D01*
X0627638Y0024685D01*
X0627435Y0024460D01*
X0627227Y0024239D01*
X0627013Y0024025D01*
X0626795Y0023815D01*
X0626571Y0023611D01*
X0626343Y0023412D01*
X0626109Y0023219D01*
X0625871Y0023032D01*
X0625629Y0022851D01*
X0625382Y0022675D01*
X0625131Y0022506D01*
X0624875Y0022343D01*
X0624616Y0022186D01*
X0624353Y0022036D01*
X0624087Y0021892D01*
X0623817Y0021754D01*
X0623544Y0021623D01*
X0623268Y0021499D01*
X0622988Y0021382D01*
X0622706Y0021272D01*
X0622422Y0021168D01*
X0622135Y0021072D01*
X0621845Y0020982D01*
X0621554Y0020900D01*
X0621261Y0020825D01*
X0620965Y0020757D01*
X0620669Y0020696D01*
X0620371Y0020643D01*
X0620071Y0020597D01*
X0619771Y0020558D01*
X0619470Y0020526D01*
X0619168Y0020502D01*
X0618865Y0020485D01*
X0618563Y0020476D01*
X0618260Y0020474D01*
X0617957Y0020480D01*
X0617655Y0020493D01*
X0617352Y0020513D01*
X0617051Y0020541D01*
X0616750Y0020576D01*
X0616450Y0020618D01*
X0616151Y0020668D01*
X0615854Y0020725D01*
X0615558Y0020789D01*
X0615264Y0020860D01*
X0614971Y0020939D01*
X0614681Y0021025D01*
X0614392Y0021118D01*
X0614107Y0021217D01*
X0613823Y0021324D01*
X0613543Y0021438D01*
X0613265Y0021558D01*
X0612990Y0021686D01*
X0612718Y0021820D01*
X0612450Y0021960D01*
X0612185Y0022107D01*
X0611924Y0022261D01*
X0611667Y0022421D01*
X0611414Y0022587D01*
X0611165Y0022759D01*
X0610920Y0022937D01*
X0610679Y0023122D01*
X0610444Y0023312D01*
X0610213Y0023507D01*
X0609986Y0023709D01*
X0609765Y0023915D01*
X0609549Y0024128D01*
X0609338Y0024345D01*
X0609133Y0024567D01*
X0608933Y0024795D01*
X0608738Y0025027D01*
X0608550Y0025264D01*
X0608367Y0025506D01*
X0608190Y0025751D01*
X0608019Y0026002D01*
X0607855Y0026256D01*
X0607696Y0026514D01*
X0607544Y0026776D01*
X0607399Y0027041D01*
X0607260Y0027310D01*
X0607127Y0027583D01*
X0607002Y0027858D01*
X0606883Y0028137D01*
X0606771Y0028418D01*
X0606666Y0028702D01*
X0606567Y0028989D01*
X0606476Y0029278D01*
X0606392Y0029569D01*
X0606315Y0029862D01*
X0606246Y0030156D01*
X0606183Y0030453D01*
X0606128Y0030750D01*
X0606080Y0031049D01*
X0606039Y0031349D01*
X0606006Y0031651D01*
X0605980Y0031952D01*
X0605962Y0032255D01*
X0605951Y0032557D01*
X0605947Y0032860D01*
X0605951Y0033163D01*
X0605962Y0033465D01*
X0605980Y0033768D01*
X0606006Y0034069D01*
X0606039Y0034371D01*
X0606080Y0034671D01*
X0606128Y0034970D01*
X0606183Y0035267D01*
X0606246Y0035564D01*
X0606315Y0035858D01*
X0606392Y0036151D01*
X0606476Y0036442D01*
X0606567Y0036731D01*
X0606666Y0037018D01*
X0606771Y0037302D01*
X0606883Y0037583D01*
X0607002Y0037862D01*
X0607127Y0038137D01*
X0607260Y0038410D01*
X0607399Y0038679D01*
X0607544Y0038944D01*
X0607696Y0039206D01*
X0607855Y0039464D01*
X0608019Y0039718D01*
X0608190Y0039969D01*
X0608367Y0040214D01*
X0608550Y0040456D01*
X0608738Y0040693D01*
X0608933Y0040925D01*
X0609133Y0041153D01*
X0609338Y0041375D01*
X0609549Y0041592D01*
X0609765Y0041805D01*
X0609986Y0042011D01*
X0610213Y0042213D01*
X0610444Y0042408D01*
X0610679Y0042598D01*
X0610920Y0042783D01*
X0611165Y0042961D01*
X0611414Y0043133D01*
X0611667Y0043299D01*
X0611924Y0043459D01*
X0612185Y0043613D01*
X0612450Y0043760D01*
X0612718Y0043900D01*
X0612990Y0044034D01*
X0613265Y0044162D01*
X0613543Y0044282D01*
X0613823Y0044396D01*
X0614107Y0044503D01*
X0614392Y0044602D01*
X0614681Y0044695D01*
X0614971Y0044781D01*
X0615264Y0044860D01*
X0615558Y0044931D01*
X0615854Y0044995D01*
X0616151Y0045052D01*
X0616450Y0045102D01*
X0616750Y0045144D01*
X0617051Y0045179D01*
X0617352Y0045207D01*
X0617655Y0045227D01*
X0617957Y0045240D01*
X0618260Y0045246D01*
X0618563Y0045244D01*
X0618865Y0045235D01*
X0619168Y0045218D01*
X0619470Y0045194D01*
X0619771Y0045162D01*
X0620071Y0045123D01*
X0620371Y0045077D01*
X0620669Y0045024D01*
X0620965Y0044963D01*
X0621261Y0044895D01*
X0621554Y0044820D01*
X0621845Y0044738D01*
X0622135Y0044648D01*
X0622422Y0044552D01*
X0622706Y0044448D01*
X0622988Y0044338D01*
X0623268Y0044221D01*
X0623544Y0044097D01*
X0623817Y0043966D01*
X0624087Y0043828D01*
X0624353Y0043684D01*
X0624616Y0043534D01*
X0624875Y0043377D01*
X0625131Y0043214D01*
X0625382Y0043045D01*
X0625629Y0042869D01*
X0625871Y0042688D01*
X0626109Y0042501D01*
X0626343Y0042308D01*
X0626571Y0042109D01*
X0626795Y0041905D01*
X0627013Y0041695D01*
X0627227Y0041481D01*
X0627435Y0041260D01*
X0627638Y0041035D01*
X0627835Y0040806D01*
X0628026Y0040571D01*
X0628212Y0040332D01*
X0628137Y0040275D01*
X0627952Y0040513D01*
X0627762Y0040745D01*
X0627567Y0040974D01*
X0627366Y0041197D01*
X0627159Y0041415D01*
X0626947Y0041629D01*
X0626730Y0041837D01*
X0626508Y0042039D01*
X0626281Y0042236D01*
X0626050Y0042428D01*
X0625814Y0042614D01*
X0625573Y0042794D01*
X0625328Y0042968D01*
X0625079Y0043136D01*
X0624825Y0043298D01*
X0624568Y0043453D01*
X0624307Y0043602D01*
X0624043Y0043745D01*
X0623775Y0043882D01*
X0623504Y0044011D01*
X0623230Y0044134D01*
X0622953Y0044251D01*
X0622673Y0044360D01*
X0622390Y0044463D01*
X0622106Y0044559D01*
X0621818Y0044647D01*
X0621529Y0044729D01*
X0621238Y0044804D01*
X0620945Y0044871D01*
X0620651Y0044932D01*
X0620355Y0044985D01*
X0620058Y0045030D01*
X0619760Y0045069D01*
X0619461Y0045100D01*
X0619161Y0045124D01*
X0618861Y0045141D01*
X0618561Y0045150D01*
X0618260Y0045152D01*
X0617960Y0045146D01*
X0617659Y0045134D01*
X0617360Y0045113D01*
X0617060Y0045086D01*
X0616762Y0045051D01*
X0616464Y0045009D01*
X0616168Y0044960D01*
X0615873Y0044903D01*
X0615579Y0044839D01*
X0615287Y0044769D01*
X0614997Y0044691D01*
X0614708Y0044605D01*
X0614422Y0044513D01*
X0614138Y0044414D01*
X0613857Y0044308D01*
X0613579Y0044195D01*
X0613303Y0044076D01*
X0613030Y0043949D01*
X0612761Y0043816D01*
X0612495Y0043677D01*
X0612232Y0043531D01*
X0611973Y0043379D01*
X0611717Y0043220D01*
X0611466Y0043055D01*
X0611219Y0042884D01*
X0610976Y0042707D01*
X0610737Y0042524D01*
X0610503Y0042336D01*
X0610274Y0042142D01*
X0610050Y0041942D01*
X0609830Y0041737D01*
X0609616Y0041526D01*
X0609406Y0041310D01*
X0609202Y0041090D01*
X0609004Y0040864D01*
X0608811Y0040633D01*
X0608624Y0040398D01*
X0608442Y0040159D01*
X0608267Y0039915D01*
X0608097Y0039666D01*
X0607934Y0039414D01*
X0607777Y0039158D01*
X0607626Y0038898D01*
X0607482Y0038634D01*
X0607344Y0038367D01*
X0607212Y0038097D01*
X0607088Y0037824D01*
X0606970Y0037547D01*
X0606859Y0037268D01*
X0606754Y0036986D01*
X0606657Y0036702D01*
X0606566Y0036415D01*
X0606483Y0036126D01*
X0606407Y0035836D01*
X0606337Y0035543D01*
X0606275Y0035249D01*
X0606221Y0034954D01*
X0606173Y0034657D01*
X0606133Y0034359D01*
X0606100Y0034060D01*
X0606074Y0033761D01*
X0606056Y0033461D01*
X0606045Y0033161D01*
X0606041Y0032860D01*
X0606045Y0032559D01*
X0606056Y0032259D01*
X0606074Y0031959D01*
X0606100Y0031660D01*
X0606133Y0031361D01*
X0606173Y0031063D01*
X0606221Y0030766D01*
X0606275Y0030471D01*
X0606337Y0030177D01*
X0606407Y0029884D01*
X0606483Y0029594D01*
X0606566Y0029305D01*
X0606657Y0029018D01*
X0606754Y0028734D01*
X0606859Y0028452D01*
X0606970Y0028173D01*
X0607088Y0027896D01*
X0607212Y0027623D01*
X0607344Y0027353D01*
X0607482Y0027086D01*
X0607626Y0026822D01*
X0607777Y0026562D01*
X0607934Y0026306D01*
X0608097Y0026054D01*
X0608267Y0025805D01*
X0608442Y0025561D01*
X0608624Y0025322D01*
X0608811Y0025087D01*
X0609004Y0024856D01*
X0609202Y0024630D01*
X0609406Y0024410D01*
X0609616Y0024194D01*
X0609830Y0023983D01*
X0610050Y0023778D01*
X0610274Y0023578D01*
X0610503Y0023384D01*
X0610737Y0023196D01*
X0610976Y0023013D01*
X0611219Y0022836D01*
X0611466Y0022665D01*
X0611717Y0022500D01*
X0611973Y0022341D01*
X0612232Y0022189D01*
X0612495Y0022043D01*
X0612761Y0021904D01*
X0613030Y0021771D01*
X0613303Y0021644D01*
X0613579Y0021525D01*
X0613857Y0021412D01*
X0614138Y0021306D01*
X0614422Y0021207D01*
X0614708Y0021115D01*
X0614997Y0021029D01*
X0615287Y0020951D01*
X0615579Y0020881D01*
X0615873Y0020817D01*
X0616168Y0020760D01*
X0616464Y0020711D01*
X0616762Y0020669D01*
X0617060Y0020634D01*
X0617360Y0020607D01*
X0617659Y0020586D01*
X0617960Y0020574D01*
X0618260Y0020568D01*
X0618561Y0020570D01*
X0618861Y0020579D01*
X0619161Y0020596D01*
X0619461Y0020620D01*
X0619760Y0020651D01*
X0620058Y0020690D01*
X0620355Y0020735D01*
X0620651Y0020788D01*
X0620945Y0020849D01*
X0621238Y0020916D01*
X0621529Y0020991D01*
X0621818Y0021073D01*
X0622106Y0021161D01*
X0622390Y0021257D01*
X0622673Y0021360D01*
X0622953Y0021469D01*
X0623230Y0021586D01*
X0623504Y0021709D01*
X0623775Y0021838D01*
X0624043Y0021975D01*
X0624307Y0022118D01*
X0624568Y0022267D01*
X0624825Y0022422D01*
X0625079Y0022584D01*
X0625328Y0022752D01*
X0625573Y0022926D01*
X0625814Y0023106D01*
X0626050Y0023292D01*
X0626281Y0023484D01*
X0626508Y0023681D01*
X0626730Y0023883D01*
X0626947Y0024091D01*
X0627159Y0024305D01*
X0627366Y0024523D01*
X0627567Y0024746D01*
X0627762Y0024975D01*
X0627952Y0025207D01*
X0628137Y0025445D01*
X0628061Y0025501D01*
X0627879Y0025266D01*
X0627690Y0025035D01*
X0627496Y0024808D01*
X0627296Y0024586D01*
X0627091Y0024370D01*
X0626881Y0024158D01*
X0626666Y0023952D01*
X0626446Y0023751D01*
X0626220Y0023555D01*
X0625991Y0023365D01*
X0625756Y0023181D01*
X0625517Y0023002D01*
X0625274Y0022829D01*
X0625027Y0022663D01*
X0624775Y0022502D01*
X0624520Y0022348D01*
X0624261Y0022200D01*
X0623999Y0022058D01*
X0623733Y0021923D01*
X0623464Y0021794D01*
X0623192Y0021672D01*
X0622917Y0021556D01*
X0622639Y0021447D01*
X0622359Y0021346D01*
X0622076Y0021251D01*
X0621791Y0021163D01*
X0621504Y0021082D01*
X0621216Y0021007D01*
X0620925Y0020941D01*
X0620633Y0020881D01*
X0620339Y0020828D01*
X0620044Y0020783D01*
X0619749Y0020744D01*
X0619452Y0020713D01*
X0619155Y0020690D01*
X0618857Y0020673D01*
X0618559Y0020664D01*
X0618261Y0020662D01*
X0617962Y0020668D01*
X0617664Y0020680D01*
X0617367Y0020700D01*
X0617070Y0020728D01*
X0616774Y0020762D01*
X0616478Y0020804D01*
X0616184Y0020853D01*
X0615891Y0020909D01*
X0615600Y0020972D01*
X0615310Y0021043D01*
X0615022Y0021120D01*
X0614736Y0021204D01*
X0614452Y0021296D01*
X0614170Y0021394D01*
X0613891Y0021499D01*
X0613615Y0021611D01*
X0613341Y0021730D01*
X0613071Y0021855D01*
X0612803Y0021987D01*
X0612539Y0022126D01*
X0612278Y0022271D01*
X0612021Y0022422D01*
X0611768Y0022579D01*
X0611519Y0022743D01*
X0611273Y0022913D01*
X0611032Y0023088D01*
X0610795Y0023270D01*
X0610563Y0023457D01*
X0610336Y0023649D01*
X0610113Y0023848D01*
X0609895Y0024051D01*
X0609682Y0024260D01*
X0609474Y0024474D01*
X0609272Y0024694D01*
X0609075Y0024917D01*
X0608884Y0025146D01*
X0608698Y0025380D01*
X0608518Y0025617D01*
X0608344Y0025859D01*
X0608176Y0026106D01*
X0608014Y0026356D01*
X0607858Y0026610D01*
X0607708Y0026868D01*
X0607565Y0027130D01*
X0607428Y0027395D01*
X0607297Y0027663D01*
X0607174Y0027934D01*
X0607057Y0028209D01*
X0606946Y0028486D01*
X0606843Y0028766D01*
X0606746Y0029048D01*
X0606656Y0029332D01*
X0606574Y0029619D01*
X0606498Y0029907D01*
X0606429Y0030197D01*
X0606368Y0030489D01*
X0606313Y0030782D01*
X0606266Y0031077D01*
X0606226Y0031372D01*
X0606193Y0031669D01*
X0606168Y0031966D01*
X0606150Y0032264D01*
X0606139Y0032562D01*
X0606135Y0032860D01*
X0606139Y0033158D01*
X0606150Y0033456D01*
X0606168Y0033754D01*
X0606193Y0034051D01*
X0606226Y0034348D01*
X0606266Y0034643D01*
X0606313Y0034938D01*
X0606368Y0035231D01*
X0606429Y0035523D01*
X0606498Y0035813D01*
X0606574Y0036101D01*
X0606656Y0036388D01*
X0606746Y0036672D01*
X0606843Y0036954D01*
X0606946Y0037234D01*
X0607057Y0037511D01*
X0607174Y0037786D01*
X0607297Y0038057D01*
X0607428Y0038325D01*
X0607565Y0038590D01*
X0607708Y0038852D01*
X0607858Y0039110D01*
X0608014Y0039364D01*
X0608176Y0039614D01*
X0608344Y0039861D01*
X0608518Y0040103D01*
X0608698Y0040340D01*
X0608884Y0040574D01*
X0609075Y0040803D01*
X0609272Y0041026D01*
X0609474Y0041246D01*
X0609682Y0041460D01*
X0609895Y0041669D01*
X0610113Y0041872D01*
X0610336Y0042071D01*
X0610563Y0042263D01*
X0610795Y0042450D01*
X0611032Y0042632D01*
X0611273Y0042807D01*
X0611519Y0042977D01*
X0611768Y0043141D01*
X0612021Y0043298D01*
X0612278Y0043449D01*
X0612539Y0043594D01*
X0612803Y0043733D01*
X0613071Y0043865D01*
X0613341Y0043990D01*
X0613615Y0044109D01*
X0613891Y0044221D01*
X0614170Y0044326D01*
X0614452Y0044424D01*
X0614736Y0044516D01*
X0615022Y0044600D01*
X0615310Y0044677D01*
X0615600Y0044748D01*
X0615891Y0044811D01*
X0616184Y0044867D01*
X0616478Y0044916D01*
X0616774Y0044958D01*
X0617070Y0044992D01*
X0617367Y0045020D01*
X0617664Y0045040D01*
X0617962Y0045052D01*
X0618261Y0045058D01*
X0618559Y0045056D01*
X0618857Y0045047D01*
X0619155Y0045030D01*
X0619452Y0045007D01*
X0619749Y0044976D01*
X0620044Y0044937D01*
X0620339Y0044892D01*
X0620633Y0044839D01*
X0620925Y0044779D01*
X0621216Y0044713D01*
X0621504Y0044638D01*
X0621791Y0044557D01*
X0622076Y0044469D01*
X0622359Y0044374D01*
X0622639Y0044273D01*
X0622917Y0044164D01*
X0623192Y0044048D01*
X0623464Y0043926D01*
X0623733Y0043797D01*
X0623999Y0043662D01*
X0624261Y0043520D01*
X0624520Y0043372D01*
X0624775Y0043218D01*
X0625027Y0043057D01*
X0625274Y0042891D01*
X0625517Y0042718D01*
X0625756Y0042539D01*
X0625991Y0042355D01*
X0626220Y0042165D01*
X0626446Y0041969D01*
X0626666Y0041768D01*
X0626881Y0041562D01*
X0627091Y0041350D01*
X0627296Y0041134D01*
X0627496Y0040912D01*
X0627690Y0040685D01*
X0627879Y0040454D01*
X0628061Y0040219D01*
X0627986Y0040162D01*
X0627805Y0040396D01*
X0627618Y0040625D01*
X0627425Y0040850D01*
X0627227Y0041070D01*
X0627024Y0041285D01*
X0626815Y0041495D01*
X0626601Y0041700D01*
X0626383Y0041899D01*
X0626159Y0042093D01*
X0625931Y0042282D01*
X0625699Y0042465D01*
X0625462Y0042642D01*
X0625220Y0042813D01*
X0624975Y0042979D01*
X0624726Y0043138D01*
X0624472Y0043291D01*
X0624216Y0043438D01*
X0623955Y0043579D01*
X0623691Y0043713D01*
X0623424Y0043841D01*
X0623154Y0043962D01*
X0622882Y0044077D01*
X0622606Y0044185D01*
X0622328Y0044286D01*
X0622047Y0044380D01*
X0621765Y0044467D01*
X0621480Y0044548D01*
X0621193Y0044621D01*
X0620905Y0044688D01*
X0620615Y0044747D01*
X0620323Y0044799D01*
X0620031Y0044844D01*
X0619737Y0044882D01*
X0619443Y0044913D01*
X0619148Y0044937D01*
X0618853Y0044953D01*
X0618557Y0044962D01*
X0618261Y0044964D01*
X0617965Y0044958D01*
X0617669Y0044946D01*
X0617374Y0044926D01*
X0617079Y0044899D01*
X0616785Y0044865D01*
X0616492Y0044823D01*
X0616200Y0044775D01*
X0615910Y0044719D01*
X0615621Y0044656D01*
X0615333Y0044586D01*
X0615047Y0044509D01*
X0614763Y0044426D01*
X0614482Y0044335D01*
X0614202Y0044237D01*
X0613925Y0044133D01*
X0613651Y0044022D01*
X0613380Y0043904D01*
X0613111Y0043780D01*
X0612846Y0043649D01*
X0612584Y0043511D01*
X0612325Y0043368D01*
X0612070Y0043218D01*
X0611818Y0043061D01*
X0611571Y0042899D01*
X0611328Y0042731D01*
X0611088Y0042556D01*
X0610853Y0042376D01*
X0610623Y0042191D01*
X0610397Y0041999D01*
X0610176Y0041803D01*
X0609960Y0041601D01*
X0609749Y0041393D01*
X0609543Y0041181D01*
X0609342Y0040963D01*
X0609146Y0040741D01*
X0608956Y0040514D01*
X0608772Y0040283D01*
X0608594Y0040047D01*
X0608421Y0039807D01*
X0608254Y0039562D01*
X0608093Y0039314D01*
X0607938Y0039061D01*
X0607790Y0038805D01*
X0607648Y0038546D01*
X0607512Y0038283D01*
X0607382Y0038017D01*
X0607260Y0037748D01*
X0607143Y0037475D01*
X0607034Y0037200D01*
X0606931Y0036923D01*
X0606835Y0036643D01*
X0606746Y0036361D01*
X0606664Y0036076D01*
X0606589Y0035790D01*
X0606521Y0035502D01*
X0606460Y0035213D01*
X0606406Y0034922D01*
X0606359Y0034629D01*
X0606319Y0034336D01*
X0606287Y0034042D01*
X0606262Y0033747D01*
X0606243Y0033452D01*
X0606233Y0033156D01*
X0606229Y0032860D01*
X0606233Y0032564D01*
X0606243Y0032268D01*
X0606262Y0031973D01*
X0606287Y0031678D01*
X0606319Y0031384D01*
X0606359Y0031091D01*
X0606406Y0030798D01*
X0606460Y0030507D01*
X0606521Y0030218D01*
X0606589Y0029930D01*
X0606664Y0029644D01*
X0606746Y0029359D01*
X0606835Y0029077D01*
X0606931Y0028797D01*
X0607034Y0028520D01*
X0607143Y0028245D01*
X0607260Y0027972D01*
X0607382Y0027703D01*
X0607512Y0027437D01*
X0607648Y0027174D01*
X0607790Y0026915D01*
X0607938Y0026659D01*
X0608093Y0026406D01*
X0608254Y0026158D01*
X0608421Y0025913D01*
X0608594Y0025673D01*
X0608772Y0025437D01*
X0608956Y0025206D01*
X0609146Y0024979D01*
X0609342Y0024757D01*
X0609543Y0024539D01*
X0609749Y0024327D01*
X0609960Y0024119D01*
X0610176Y0023917D01*
X0610397Y0023721D01*
X0610623Y0023529D01*
X0610853Y0023344D01*
X0611088Y0023164D01*
X0611328Y0022989D01*
X0611571Y0022821D01*
X0611818Y0022659D01*
X0612070Y0022502D01*
X0612325Y0022352D01*
X0612584Y0022209D01*
X0612846Y0022071D01*
X0613111Y0021940D01*
X0613380Y0021816D01*
X0613651Y0021698D01*
X0613925Y0021587D01*
X0614202Y0021483D01*
X0614482Y0021385D01*
X0614763Y0021294D01*
X0615047Y0021211D01*
X0615333Y0021134D01*
X0615621Y0021064D01*
X0615910Y0021001D01*
X0616200Y0020945D01*
X0616492Y0020897D01*
X0616785Y0020855D01*
X0617079Y0020821D01*
X0617374Y0020794D01*
X0617669Y0020774D01*
X0617965Y0020762D01*
X0618261Y0020756D01*
X0618557Y0020758D01*
X0618853Y0020767D01*
X0619148Y0020783D01*
X0619443Y0020807D01*
X0619737Y0020838D01*
X0620031Y0020876D01*
X0620323Y0020921D01*
X0620615Y0020973D01*
X0620905Y0021032D01*
X0621193Y0021099D01*
X0621480Y0021172D01*
X0621765Y0021253D01*
X0622047Y0021340D01*
X0622328Y0021434D01*
X0622606Y0021535D01*
X0622882Y0021643D01*
X0623154Y0021758D01*
X0623424Y0021879D01*
X0623691Y0022007D01*
X0623955Y0022141D01*
X0624216Y0022282D01*
X0624472Y0022429D01*
X0624726Y0022582D01*
X0624975Y0022741D01*
X0625220Y0022907D01*
X0625462Y0023078D01*
X0625699Y0023255D01*
X0625931Y0023438D01*
X0626159Y0023627D01*
X0626383Y0023821D01*
X0626601Y0024020D01*
X0626815Y0024225D01*
X0627024Y0024435D01*
X0627227Y0024650D01*
X0627425Y0024870D01*
X0627618Y0025095D01*
X0627805Y0025324D01*
X0627986Y0025558D01*
X0628662Y0080669D02*
X0627942Y0080129D01*
X0627943Y0080130D02*
X0627762Y0080363D01*
X0627576Y0080591D01*
X0627384Y0080815D01*
X0627187Y0081034D01*
X0626985Y0081248D01*
X0626777Y0081457D01*
X0626564Y0081660D01*
X0626347Y0081859D01*
X0626124Y0082052D01*
X0625897Y0082240D01*
X0625666Y0082422D01*
X0625430Y0082599D01*
X0625189Y0082769D01*
X0624945Y0082934D01*
X0624697Y0083092D01*
X0624445Y0083245D01*
X0624189Y0083391D01*
X0623930Y0083531D01*
X0623667Y0083665D01*
X0623402Y0083792D01*
X0623133Y0083913D01*
X0622861Y0084027D01*
X0622587Y0084134D01*
X0622310Y0084235D01*
X0622031Y0084329D01*
X0621749Y0084416D01*
X0621466Y0084496D01*
X0621180Y0084569D01*
X0620893Y0084635D01*
X0620604Y0084694D01*
X0620314Y0084746D01*
X0620023Y0084791D01*
X0619731Y0084829D01*
X0619438Y0084859D01*
X0619144Y0084883D01*
X0618850Y0084899D01*
X0618556Y0084908D01*
X0618261Y0084910D01*
X0617966Y0084904D01*
X0617672Y0084892D01*
X0617378Y0084872D01*
X0617085Y0084845D01*
X0616792Y0084811D01*
X0616500Y0084770D01*
X0616210Y0084721D01*
X0615920Y0084666D01*
X0615633Y0084604D01*
X0615346Y0084534D01*
X0615062Y0084457D01*
X0614779Y0084374D01*
X0614499Y0084284D01*
X0614221Y0084187D01*
X0613945Y0084083D01*
X0613672Y0083972D01*
X0613402Y0083855D01*
X0613134Y0083731D01*
X0612870Y0083601D01*
X0612609Y0083464D01*
X0612352Y0083321D01*
X0612098Y0083171D01*
X0611847Y0083016D01*
X0611601Y0082854D01*
X0611359Y0082687D01*
X0611121Y0082513D01*
X0610887Y0082334D01*
X0610657Y0082149D01*
X0610433Y0081959D01*
X0610212Y0081763D01*
X0609997Y0081562D01*
X0609787Y0081355D01*
X0609582Y0081144D01*
X0609382Y0080927D01*
X0609187Y0080706D01*
X0608998Y0080480D01*
X0608815Y0080250D01*
X0608637Y0080015D01*
X0608465Y0079775D01*
X0608299Y0079532D01*
X0608139Y0079285D01*
X0607985Y0079034D01*
X0607837Y0078779D01*
X0607695Y0078520D01*
X0607560Y0078259D01*
X0607431Y0077994D01*
X0607309Y0077726D01*
X0607193Y0077455D01*
X0607084Y0077181D01*
X0606982Y0076905D01*
X0606887Y0076626D01*
X0606798Y0076345D01*
X0606716Y0076062D01*
X0606641Y0075777D01*
X0606574Y0075490D01*
X0606513Y0075202D01*
X0606459Y0074912D01*
X0606412Y0074621D01*
X0606373Y0074329D01*
X0606341Y0074037D01*
X0606315Y0073743D01*
X0606297Y0073449D01*
X0606287Y0073155D01*
X0606283Y0072860D01*
X0606287Y0072565D01*
X0606297Y0072271D01*
X0606315Y0071977D01*
X0606341Y0071683D01*
X0606373Y0071391D01*
X0606412Y0071099D01*
X0606459Y0070808D01*
X0606513Y0070518D01*
X0606574Y0070230D01*
X0606641Y0069943D01*
X0606716Y0069658D01*
X0606798Y0069375D01*
X0606887Y0069094D01*
X0606982Y0068815D01*
X0607084Y0068539D01*
X0607193Y0068265D01*
X0607309Y0067994D01*
X0607431Y0067726D01*
X0607560Y0067461D01*
X0607695Y0067200D01*
X0607837Y0066941D01*
X0607985Y0066686D01*
X0608139Y0066435D01*
X0608299Y0066188D01*
X0608465Y0065945D01*
X0608637Y0065705D01*
X0608815Y0065470D01*
X0608998Y0065240D01*
X0609187Y0065014D01*
X0609382Y0064793D01*
X0609582Y0064576D01*
X0609787Y0064365D01*
X0609997Y0064158D01*
X0610212Y0063957D01*
X0610433Y0063761D01*
X0610657Y0063571D01*
X0610887Y0063386D01*
X0611121Y0063207D01*
X0611359Y0063033D01*
X0611601Y0062866D01*
X0611847Y0062704D01*
X0612098Y0062549D01*
X0612352Y0062399D01*
X0612609Y0062256D01*
X0612870Y0062119D01*
X0613134Y0061989D01*
X0613402Y0061865D01*
X0613672Y0061748D01*
X0613945Y0061637D01*
X0614221Y0061533D01*
X0614499Y0061436D01*
X0614779Y0061346D01*
X0615062Y0061263D01*
X0615346Y0061186D01*
X0615633Y0061116D01*
X0615920Y0061054D01*
X0616210Y0060999D01*
X0616500Y0060950D01*
X0616792Y0060909D01*
X0617085Y0060875D01*
X0617378Y0060848D01*
X0617672Y0060828D01*
X0617966Y0060816D01*
X0618261Y0060810D01*
X0618556Y0060812D01*
X0618850Y0060821D01*
X0619144Y0060837D01*
X0619438Y0060861D01*
X0619731Y0060891D01*
X0620023Y0060929D01*
X0620314Y0060974D01*
X0620604Y0061026D01*
X0620893Y0061085D01*
X0621180Y0061151D01*
X0621466Y0061224D01*
X0621749Y0061304D01*
X0622031Y0061391D01*
X0622310Y0061485D01*
X0622587Y0061586D01*
X0622861Y0061693D01*
X0623133Y0061807D01*
X0623402Y0061928D01*
X0623667Y0062055D01*
X0623930Y0062189D01*
X0624189Y0062329D01*
X0624445Y0062475D01*
X0624697Y0062628D01*
X0624945Y0062786D01*
X0625189Y0062951D01*
X0625430Y0063121D01*
X0625666Y0063298D01*
X0625897Y0063480D01*
X0626124Y0063668D01*
X0626347Y0063861D01*
X0626564Y0064060D01*
X0626777Y0064263D01*
X0626985Y0064472D01*
X0627187Y0064686D01*
X0627384Y0064905D01*
X0627576Y0065129D01*
X0627762Y0065357D01*
X0627943Y0065590D01*
X0628662Y0065051D01*
X0628663Y0065050D01*
X0628469Y0064800D01*
X0628269Y0064554D01*
X0628063Y0064314D01*
X0627851Y0064079D01*
X0627633Y0063849D01*
X0627410Y0063624D01*
X0627182Y0063405D01*
X0626948Y0063191D01*
X0626709Y0062983D01*
X0626465Y0062781D01*
X0626216Y0062586D01*
X0625962Y0062396D01*
X0625704Y0062213D01*
X0625442Y0062036D01*
X0625175Y0061865D01*
X0624904Y0061701D01*
X0624629Y0061544D01*
X0624351Y0061393D01*
X0624068Y0061249D01*
X0623783Y0061113D01*
X0623494Y0060983D01*
X0623202Y0060860D01*
X0622907Y0060745D01*
X0622610Y0060637D01*
X0622309Y0060536D01*
X0622007Y0060442D01*
X0621702Y0060356D01*
X0621395Y0060277D01*
X0621087Y0060206D01*
X0620777Y0060143D01*
X0620465Y0060087D01*
X0620152Y0060038D01*
X0619838Y0059998D01*
X0619523Y0059965D01*
X0619207Y0059940D01*
X0618891Y0059922D01*
X0618575Y0059912D01*
X0618258Y0059910D01*
X0617941Y0059916D01*
X0617625Y0059929D01*
X0617309Y0059951D01*
X0616994Y0059979D01*
X0616679Y0060016D01*
X0616366Y0060060D01*
X0616053Y0060112D01*
X0615742Y0060172D01*
X0615433Y0060239D01*
X0615125Y0060314D01*
X0614819Y0060396D01*
X0614516Y0060485D01*
X0614214Y0060582D01*
X0613915Y0060687D01*
X0613619Y0060799D01*
X0613325Y0060917D01*
X0613035Y0061043D01*
X0612748Y0061176D01*
X0612463Y0061317D01*
X0612183Y0061464D01*
X0611906Y0061617D01*
X0611633Y0061778D01*
X0611364Y0061945D01*
X0611099Y0062119D01*
X0610839Y0062299D01*
X0610583Y0062485D01*
X0610332Y0062678D01*
X0610085Y0062876D01*
X0609843Y0063081D01*
X0609607Y0063291D01*
X0609375Y0063508D01*
X0609150Y0063730D01*
X0608929Y0063957D01*
X0608714Y0064189D01*
X0608505Y0064427D01*
X0608302Y0064670D01*
X0608104Y0064918D01*
X0607913Y0065170D01*
X0607728Y0065427D01*
X0607550Y0065689D01*
X0607378Y0065955D01*
X0607212Y0066224D01*
X0607053Y0066498D01*
X0606901Y0066776D01*
X0606756Y0067057D01*
X0606617Y0067342D01*
X0606486Y0067630D01*
X0606362Y0067922D01*
X0606244Y0068216D01*
X0606134Y0068513D01*
X0606032Y0068812D01*
X0605937Y0069114D01*
X0605849Y0069418D01*
X0605768Y0069725D01*
X0605695Y0070033D01*
X0605630Y0070343D01*
X0605572Y0070654D01*
X0605522Y0070967D01*
X0605480Y0071281D01*
X0605445Y0071595D01*
X0605418Y0071911D01*
X0605398Y0072227D01*
X0605387Y0072543D01*
X0605383Y0072860D01*
X0605387Y0073177D01*
X0605398Y0073493D01*
X0605418Y0073809D01*
X0605445Y0074125D01*
X0605480Y0074439D01*
X0605522Y0074753D01*
X0605572Y0075066D01*
X0605630Y0075377D01*
X0605695Y0075687D01*
X0605768Y0075995D01*
X0605849Y0076302D01*
X0605937Y0076606D01*
X0606032Y0076908D01*
X0606134Y0077207D01*
X0606244Y0077504D01*
X0606362Y0077798D01*
X0606486Y0078090D01*
X0606617Y0078378D01*
X0606756Y0078663D01*
X0606901Y0078944D01*
X0607053Y0079222D01*
X0607212Y0079496D01*
X0607378Y0079765D01*
X0607550Y0080031D01*
X0607728Y0080293D01*
X0607913Y0080550D01*
X0608104Y0080802D01*
X0608302Y0081050D01*
X0608505Y0081293D01*
X0608714Y0081531D01*
X0608929Y0081763D01*
X0609150Y0081990D01*
X0609375Y0082212D01*
X0609607Y0082429D01*
X0609843Y0082639D01*
X0610085Y0082844D01*
X0610332Y0083042D01*
X0610583Y0083235D01*
X0610839Y0083421D01*
X0611099Y0083601D01*
X0611364Y0083775D01*
X0611633Y0083942D01*
X0611906Y0084103D01*
X0612183Y0084256D01*
X0612463Y0084403D01*
X0612748Y0084544D01*
X0613035Y0084677D01*
X0613325Y0084803D01*
X0613619Y0084921D01*
X0613915Y0085033D01*
X0614214Y0085138D01*
X0614516Y0085235D01*
X0614819Y0085324D01*
X0615125Y0085406D01*
X0615433Y0085481D01*
X0615742Y0085548D01*
X0616053Y0085608D01*
X0616366Y0085660D01*
X0616679Y0085704D01*
X0616994Y0085741D01*
X0617309Y0085769D01*
X0617625Y0085791D01*
X0617941Y0085804D01*
X0618258Y0085810D01*
X0618575Y0085808D01*
X0618891Y0085798D01*
X0619207Y0085780D01*
X0619523Y0085755D01*
X0619838Y0085722D01*
X0620152Y0085682D01*
X0620465Y0085633D01*
X0620777Y0085577D01*
X0621087Y0085514D01*
X0621395Y0085443D01*
X0621702Y0085364D01*
X0622007Y0085278D01*
X0622309Y0085184D01*
X0622610Y0085083D01*
X0622907Y0084975D01*
X0623202Y0084860D01*
X0623494Y0084737D01*
X0623783Y0084607D01*
X0624068Y0084471D01*
X0624351Y0084327D01*
X0624629Y0084176D01*
X0624904Y0084019D01*
X0625175Y0083855D01*
X0625442Y0083684D01*
X0625704Y0083507D01*
X0625962Y0083324D01*
X0626216Y0083134D01*
X0626465Y0082939D01*
X0626709Y0082737D01*
X0626948Y0082529D01*
X0627182Y0082315D01*
X0627410Y0082096D01*
X0627633Y0081871D01*
X0627851Y0081641D01*
X0628063Y0081406D01*
X0628269Y0081166D01*
X0628469Y0080920D01*
X0628663Y0080670D01*
X0628588Y0080614D01*
X0628395Y0080862D01*
X0628196Y0081106D01*
X0627992Y0081344D01*
X0627782Y0081578D01*
X0627566Y0081806D01*
X0627344Y0082029D01*
X0627117Y0082247D01*
X0626885Y0082459D01*
X0626648Y0082665D01*
X0626406Y0082866D01*
X0626158Y0083060D01*
X0625907Y0083248D01*
X0625650Y0083430D01*
X0625390Y0083606D01*
X0625125Y0083775D01*
X0624856Y0083938D01*
X0624583Y0084094D01*
X0624307Y0084244D01*
X0624027Y0084386D01*
X0623743Y0084522D01*
X0623456Y0084651D01*
X0623166Y0084773D01*
X0622874Y0084887D01*
X0622578Y0084995D01*
X0622280Y0085095D01*
X0621980Y0085188D01*
X0621677Y0085273D01*
X0621373Y0085351D01*
X0621067Y0085422D01*
X0620759Y0085485D01*
X0620449Y0085541D01*
X0620139Y0085589D01*
X0619827Y0085629D01*
X0619514Y0085662D01*
X0619201Y0085687D01*
X0618887Y0085704D01*
X0618573Y0085714D01*
X0618258Y0085716D01*
X0617944Y0085710D01*
X0617630Y0085697D01*
X0617316Y0085676D01*
X0617003Y0085647D01*
X0616691Y0085611D01*
X0616380Y0085567D01*
X0616070Y0085515D01*
X0615761Y0085456D01*
X0615454Y0085389D01*
X0615148Y0085315D01*
X0614845Y0085234D01*
X0614543Y0085145D01*
X0614244Y0085048D01*
X0613947Y0084945D01*
X0613653Y0084834D01*
X0613362Y0084716D01*
X0613073Y0084591D01*
X0612788Y0084459D01*
X0612506Y0084320D01*
X0612228Y0084174D01*
X0611953Y0084021D01*
X0611682Y0083862D01*
X0611415Y0083696D01*
X0611152Y0083523D01*
X0610893Y0083345D01*
X0610639Y0083160D01*
X0610390Y0082968D01*
X0610145Y0082771D01*
X0609905Y0082568D01*
X0609670Y0082359D01*
X0609440Y0082144D01*
X0609216Y0081924D01*
X0608997Y0081699D01*
X0608784Y0081468D01*
X0608576Y0081232D01*
X0608374Y0080990D01*
X0608179Y0080745D01*
X0607989Y0080494D01*
X0607805Y0080239D01*
X0607628Y0079979D01*
X0607457Y0079715D01*
X0607293Y0079447D01*
X0607135Y0079175D01*
X0606984Y0078900D01*
X0606840Y0078620D01*
X0606702Y0078338D01*
X0606572Y0078052D01*
X0606448Y0077763D01*
X0606332Y0077470D01*
X0606223Y0077176D01*
X0606121Y0076878D01*
X0606027Y0076579D01*
X0605939Y0076276D01*
X0605859Y0075972D01*
X0605787Y0075667D01*
X0605722Y0075359D01*
X0605665Y0075050D01*
X0605615Y0074739D01*
X0605573Y0074428D01*
X0605538Y0074115D01*
X0605512Y0073802D01*
X0605492Y0073488D01*
X0605481Y0073174D01*
X0605477Y0072860D01*
X0605481Y0072546D01*
X0605492Y0072232D01*
X0605512Y0071918D01*
X0605538Y0071605D01*
X0605573Y0071292D01*
X0605615Y0070981D01*
X0605665Y0070670D01*
X0605722Y0070361D01*
X0605787Y0070053D01*
X0605859Y0069748D01*
X0605939Y0069444D01*
X0606027Y0069141D01*
X0606121Y0068842D01*
X0606223Y0068544D01*
X0606332Y0068250D01*
X0606448Y0067957D01*
X0606572Y0067668D01*
X0606702Y0067382D01*
X0606840Y0067100D01*
X0606984Y0066820D01*
X0607135Y0066545D01*
X0607293Y0066273D01*
X0607457Y0066005D01*
X0607628Y0065741D01*
X0607805Y0065481D01*
X0607989Y0065226D01*
X0608179Y0064975D01*
X0608374Y0064730D01*
X0608576Y0064488D01*
X0608784Y0064252D01*
X0608997Y0064021D01*
X0609216Y0063796D01*
X0609440Y0063576D01*
X0609670Y0063361D01*
X0609905Y0063152D01*
X0610145Y0062949D01*
X0610390Y0062752D01*
X0610639Y0062560D01*
X0610893Y0062375D01*
X0611152Y0062197D01*
X0611415Y0062024D01*
X0611682Y0061858D01*
X0611953Y0061699D01*
X0612228Y0061546D01*
X0612506Y0061400D01*
X0612788Y0061261D01*
X0613073Y0061129D01*
X0613362Y0061004D01*
X0613653Y0060886D01*
X0613947Y0060775D01*
X0614244Y0060672D01*
X0614543Y0060575D01*
X0614845Y0060486D01*
X0615148Y0060405D01*
X0615454Y0060331D01*
X0615761Y0060264D01*
X0616070Y0060205D01*
X0616380Y0060153D01*
X0616691Y0060109D01*
X0617003Y0060073D01*
X0617316Y0060044D01*
X0617630Y0060023D01*
X0617944Y0060010D01*
X0618258Y0060004D01*
X0618573Y0060006D01*
X0618887Y0060016D01*
X0619201Y0060033D01*
X0619514Y0060058D01*
X0619827Y0060091D01*
X0620139Y0060131D01*
X0620449Y0060179D01*
X0620759Y0060235D01*
X0621067Y0060298D01*
X0621373Y0060369D01*
X0621677Y0060447D01*
X0621980Y0060532D01*
X0622280Y0060625D01*
X0622578Y0060725D01*
X0622874Y0060833D01*
X0623166Y0060947D01*
X0623456Y0061069D01*
X0623743Y0061198D01*
X0624027Y0061334D01*
X0624307Y0061476D01*
X0624583Y0061626D01*
X0624856Y0061782D01*
X0625125Y0061945D01*
X0625390Y0062114D01*
X0625650Y0062290D01*
X0625907Y0062472D01*
X0626158Y0062660D01*
X0626406Y0062854D01*
X0626648Y0063055D01*
X0626885Y0063261D01*
X0627117Y0063473D01*
X0627344Y0063691D01*
X0627566Y0063914D01*
X0627782Y0064142D01*
X0627992Y0064376D01*
X0628196Y0064614D01*
X0628395Y0064858D01*
X0628588Y0065106D01*
X0628513Y0065163D01*
X0628321Y0064916D01*
X0628124Y0064674D01*
X0627921Y0064437D01*
X0627712Y0064206D01*
X0627498Y0063979D01*
X0627278Y0063757D01*
X0627053Y0063541D01*
X0626822Y0063331D01*
X0626587Y0063126D01*
X0626346Y0062927D01*
X0626101Y0062734D01*
X0625851Y0062548D01*
X0625597Y0062367D01*
X0625338Y0062192D01*
X0625075Y0062024D01*
X0624808Y0061863D01*
X0624537Y0061708D01*
X0624263Y0061559D01*
X0623985Y0061418D01*
X0623703Y0061283D01*
X0623419Y0061155D01*
X0623131Y0061034D01*
X0622840Y0060920D01*
X0622547Y0060814D01*
X0622251Y0060714D01*
X0621953Y0060622D01*
X0621653Y0060537D01*
X0621350Y0060460D01*
X0621046Y0060390D01*
X0620741Y0060327D01*
X0620434Y0060272D01*
X0620125Y0060224D01*
X0619816Y0060184D01*
X0619505Y0060152D01*
X0619194Y0060127D01*
X0618883Y0060110D01*
X0618571Y0060100D01*
X0618259Y0060098D01*
X0617947Y0060104D01*
X0617635Y0060117D01*
X0617324Y0060138D01*
X0617013Y0060166D01*
X0616703Y0060203D01*
X0616394Y0060246D01*
X0616086Y0060297D01*
X0615779Y0060356D01*
X0615475Y0060422D01*
X0615171Y0060496D01*
X0614870Y0060577D01*
X0614571Y0060665D01*
X0614274Y0060761D01*
X0613979Y0060864D01*
X0613687Y0060974D01*
X0613398Y0061091D01*
X0613111Y0061215D01*
X0612828Y0061346D01*
X0612548Y0061484D01*
X0612272Y0061629D01*
X0611999Y0061781D01*
X0611730Y0061939D01*
X0611465Y0062104D01*
X0611204Y0062275D01*
X0610948Y0062452D01*
X0610695Y0062636D01*
X0610448Y0062826D01*
X0610205Y0063021D01*
X0609966Y0063223D01*
X0609733Y0063431D01*
X0609505Y0063644D01*
X0609283Y0063862D01*
X0609065Y0064086D01*
X0608854Y0064315D01*
X0608648Y0064550D01*
X0608447Y0064789D01*
X0608253Y0065033D01*
X0608065Y0065282D01*
X0607882Y0065535D01*
X0607706Y0065793D01*
X0607537Y0066055D01*
X0607374Y0066321D01*
X0607217Y0066591D01*
X0607067Y0066865D01*
X0606924Y0067142D01*
X0606787Y0067422D01*
X0606658Y0067706D01*
X0606535Y0067993D01*
X0606420Y0068283D01*
X0606312Y0068576D01*
X0606210Y0068871D01*
X0606116Y0069169D01*
X0606030Y0069469D01*
X0605951Y0069770D01*
X0605879Y0070074D01*
X0605814Y0070379D01*
X0605757Y0070686D01*
X0605708Y0070994D01*
X0605666Y0071304D01*
X0605632Y0071614D01*
X0605605Y0071925D01*
X0605586Y0072236D01*
X0605575Y0072548D01*
X0605571Y0072860D01*
X0605575Y0073172D01*
X0605586Y0073484D01*
X0605605Y0073795D01*
X0605632Y0074106D01*
X0605666Y0074416D01*
X0605708Y0074726D01*
X0605757Y0075034D01*
X0605814Y0075341D01*
X0605879Y0075646D01*
X0605951Y0075950D01*
X0606030Y0076251D01*
X0606116Y0076551D01*
X0606210Y0076849D01*
X0606312Y0077144D01*
X0606420Y0077437D01*
X0606535Y0077727D01*
X0606658Y0078014D01*
X0606787Y0078298D01*
X0606924Y0078578D01*
X0607067Y0078855D01*
X0607217Y0079129D01*
X0607374Y0079399D01*
X0607537Y0079665D01*
X0607706Y0079927D01*
X0607882Y0080185D01*
X0608065Y0080438D01*
X0608253Y0080687D01*
X0608447Y0080931D01*
X0608648Y0081170D01*
X0608854Y0081405D01*
X0609065Y0081634D01*
X0609283Y0081858D01*
X0609505Y0082076D01*
X0609733Y0082289D01*
X0609966Y0082497D01*
X0610205Y0082699D01*
X0610448Y0082894D01*
X0610695Y0083084D01*
X0610948Y0083268D01*
X0611204Y0083445D01*
X0611465Y0083616D01*
X0611730Y0083781D01*
X0611999Y0083939D01*
X0612272Y0084091D01*
X0612548Y0084236D01*
X0612828Y0084374D01*
X0613111Y0084505D01*
X0613398Y0084629D01*
X0613687Y0084746D01*
X0613979Y0084856D01*
X0614274Y0084959D01*
X0614571Y0085055D01*
X0614870Y0085143D01*
X0615171Y0085224D01*
X0615475Y0085298D01*
X0615779Y0085364D01*
X0616086Y0085423D01*
X0616394Y0085474D01*
X0616703Y0085517D01*
X0617013Y0085554D01*
X0617324Y0085582D01*
X0617635Y0085603D01*
X0617947Y0085616D01*
X0618259Y0085622D01*
X0618571Y0085620D01*
X0618883Y0085610D01*
X0619194Y0085593D01*
X0619505Y0085568D01*
X0619816Y0085536D01*
X0620125Y0085496D01*
X0620434Y0085448D01*
X0620741Y0085393D01*
X0621046Y0085330D01*
X0621350Y0085260D01*
X0621653Y0085183D01*
X0621953Y0085098D01*
X0622251Y0085006D01*
X0622547Y0084906D01*
X0622840Y0084800D01*
X0623131Y0084686D01*
X0623419Y0084565D01*
X0623703Y0084437D01*
X0623985Y0084302D01*
X0624263Y0084161D01*
X0624537Y0084012D01*
X0624808Y0083857D01*
X0625075Y0083696D01*
X0625338Y0083528D01*
X0625597Y0083353D01*
X0625851Y0083172D01*
X0626101Y0082986D01*
X0626346Y0082793D01*
X0626587Y0082594D01*
X0626822Y0082389D01*
X0627053Y0082179D01*
X0627278Y0081963D01*
X0627498Y0081741D01*
X0627712Y0081514D01*
X0627921Y0081283D01*
X0628124Y0081046D01*
X0628321Y0080804D01*
X0628513Y0080557D01*
X0628437Y0080501D01*
X0628247Y0080746D01*
X0628052Y0080986D01*
X0627850Y0081221D01*
X0627643Y0081451D01*
X0627430Y0081676D01*
X0627212Y0081896D01*
X0626988Y0082110D01*
X0626759Y0082319D01*
X0626526Y0082522D01*
X0626287Y0082720D01*
X0626044Y0082911D01*
X0625795Y0083097D01*
X0625543Y0083276D01*
X0625286Y0083449D01*
X0625025Y0083616D01*
X0624760Y0083777D01*
X0624491Y0083930D01*
X0624219Y0084078D01*
X0623943Y0084218D01*
X0623663Y0084352D01*
X0623381Y0084479D01*
X0623095Y0084599D01*
X0622807Y0084712D01*
X0622516Y0084818D01*
X0622222Y0084916D01*
X0621926Y0085008D01*
X0621628Y0085092D01*
X0621328Y0085169D01*
X0621026Y0085238D01*
X0620723Y0085301D01*
X0620418Y0085355D01*
X0620112Y0085403D01*
X0619804Y0085442D01*
X0619496Y0085474D01*
X0619188Y0085499D01*
X0618878Y0085516D01*
X0618569Y0085526D01*
X0618259Y0085528D01*
X0617949Y0085522D01*
X0617640Y0085509D01*
X0617331Y0085488D01*
X0617022Y0085460D01*
X0616715Y0085424D01*
X0616408Y0085381D01*
X0616102Y0085330D01*
X0615798Y0085272D01*
X0615495Y0085206D01*
X0615194Y0085133D01*
X0614895Y0085053D01*
X0614598Y0084965D01*
X0614303Y0084870D01*
X0614011Y0084768D01*
X0613721Y0084659D01*
X0613434Y0084542D01*
X0613150Y0084419D01*
X0612869Y0084289D01*
X0612591Y0084152D01*
X0612317Y0084008D01*
X0612046Y0083858D01*
X0611779Y0083701D01*
X0611516Y0083537D01*
X0611257Y0083367D01*
X0611002Y0083191D01*
X0610751Y0083009D01*
X0610506Y0082820D01*
X0610264Y0082626D01*
X0610028Y0082426D01*
X0609797Y0082220D01*
X0609570Y0082008D01*
X0609349Y0081791D01*
X0609134Y0081569D01*
X0608923Y0081342D01*
X0608719Y0081109D01*
X0608520Y0080871D01*
X0608327Y0080629D01*
X0608140Y0080382D01*
X0607959Y0080131D01*
X0607785Y0079875D01*
X0607616Y0079615D01*
X0607454Y0079351D01*
X0607299Y0079083D01*
X0607150Y0078811D01*
X0607008Y0078536D01*
X0606872Y0078257D01*
X0606744Y0077976D01*
X0606622Y0077691D01*
X0606508Y0077403D01*
X0606400Y0077112D01*
X0606300Y0076819D01*
X0606206Y0076524D01*
X0606120Y0076226D01*
X0606042Y0075927D01*
X0605971Y0075625D01*
X0605907Y0075322D01*
X0605850Y0075018D01*
X0605801Y0074712D01*
X0605760Y0074405D01*
X0605726Y0074097D01*
X0605699Y0073788D01*
X0605680Y0073479D01*
X0605669Y0073170D01*
X0605665Y0072860D01*
X0605669Y0072550D01*
X0605680Y0072241D01*
X0605699Y0071932D01*
X0605726Y0071623D01*
X0605760Y0071315D01*
X0605801Y0071008D01*
X0605850Y0070702D01*
X0605907Y0070398D01*
X0605971Y0070095D01*
X0606042Y0069793D01*
X0606120Y0069494D01*
X0606206Y0069196D01*
X0606300Y0068901D01*
X0606400Y0068608D01*
X0606508Y0068317D01*
X0606622Y0068029D01*
X0606744Y0067744D01*
X0606872Y0067463D01*
X0607008Y0067184D01*
X0607150Y0066909D01*
X0607299Y0066637D01*
X0607454Y0066369D01*
X0607616Y0066105D01*
X0607785Y0065845D01*
X0607959Y0065589D01*
X0608140Y0065338D01*
X0608327Y0065091D01*
X0608520Y0064849D01*
X0608719Y0064611D01*
X0608923Y0064378D01*
X0609134Y0064151D01*
X0609349Y0063929D01*
X0609570Y0063712D01*
X0609797Y0063500D01*
X0610028Y0063294D01*
X0610264Y0063094D01*
X0610506Y0062900D01*
X0610751Y0062711D01*
X0611002Y0062529D01*
X0611257Y0062353D01*
X0611516Y0062183D01*
X0611779Y0062019D01*
X0612046Y0061862D01*
X0612317Y0061712D01*
X0612591Y0061568D01*
X0612869Y0061431D01*
X0613150Y0061301D01*
X0613434Y0061178D01*
X0613721Y0061061D01*
X0614011Y0060952D01*
X0614303Y0060850D01*
X0614598Y0060755D01*
X0614895Y0060667D01*
X0615194Y0060587D01*
X0615495Y0060514D01*
X0615798Y0060448D01*
X0616102Y0060390D01*
X0616408Y0060339D01*
X0616715Y0060296D01*
X0617022Y0060260D01*
X0617331Y0060232D01*
X0617640Y0060211D01*
X0617949Y0060198D01*
X0618259Y0060192D01*
X0618569Y0060194D01*
X0618878Y0060204D01*
X0619188Y0060221D01*
X0619496Y0060246D01*
X0619804Y0060278D01*
X0620112Y0060317D01*
X0620418Y0060365D01*
X0620723Y0060419D01*
X0621026Y0060482D01*
X0621328Y0060551D01*
X0621628Y0060628D01*
X0621926Y0060712D01*
X0622222Y0060804D01*
X0622516Y0060902D01*
X0622807Y0061008D01*
X0623095Y0061121D01*
X0623381Y0061241D01*
X0623663Y0061368D01*
X0623943Y0061502D01*
X0624219Y0061642D01*
X0624491Y0061790D01*
X0624760Y0061943D01*
X0625025Y0062104D01*
X0625286Y0062271D01*
X0625543Y0062444D01*
X0625795Y0062623D01*
X0626044Y0062809D01*
X0626287Y0063000D01*
X0626526Y0063198D01*
X0626759Y0063401D01*
X0626988Y0063610D01*
X0627212Y0063824D01*
X0627430Y0064044D01*
X0627643Y0064269D01*
X0627850Y0064499D01*
X0628052Y0064734D01*
X0628247Y0064974D01*
X0628437Y0065219D01*
X0628362Y0065276D01*
X0628174Y0065033D01*
X0627979Y0064794D01*
X0627779Y0064561D01*
X0627574Y0064333D01*
X0627362Y0064109D01*
X0627146Y0063891D01*
X0626924Y0063678D01*
X0626697Y0063471D01*
X0626465Y0063269D01*
X0626228Y0063073D01*
X0625986Y0062883D01*
X0625740Y0062699D01*
X0625489Y0062521D01*
X0625234Y0062349D01*
X0624975Y0062184D01*
X0624712Y0062024D01*
X0624445Y0061872D01*
X0624175Y0061725D01*
X0623901Y0061586D01*
X0623624Y0061453D01*
X0623343Y0061327D01*
X0623060Y0061208D01*
X0622773Y0061096D01*
X0622484Y0060991D01*
X0622193Y0060893D01*
X0621899Y0060802D01*
X0621603Y0060719D01*
X0621306Y0060642D01*
X0621006Y0060573D01*
X0620705Y0060512D01*
X0620402Y0060457D01*
X0620098Y0060411D01*
X0619793Y0060371D01*
X0619488Y0060339D01*
X0619181Y0060315D01*
X0618874Y0060298D01*
X0618567Y0060288D01*
X0618259Y0060286D01*
X0617952Y0060292D01*
X0617645Y0060305D01*
X0617338Y0060325D01*
X0617032Y0060354D01*
X0616726Y0060389D01*
X0616422Y0060432D01*
X0616119Y0060483D01*
X0615817Y0060540D01*
X0615516Y0060606D01*
X0615217Y0060678D01*
X0614921Y0060758D01*
X0614626Y0060845D01*
X0614333Y0060939D01*
X0614043Y0061041D01*
X0613755Y0061149D01*
X0613470Y0061264D01*
X0613188Y0061387D01*
X0612909Y0061516D01*
X0612633Y0061652D01*
X0612361Y0061795D01*
X0612092Y0061944D01*
X0611827Y0062100D01*
X0611566Y0062262D01*
X0611309Y0062431D01*
X0611056Y0062606D01*
X0610808Y0062787D01*
X0610564Y0062974D01*
X0610324Y0063167D01*
X0610090Y0063365D01*
X0609860Y0063570D01*
X0609635Y0063780D01*
X0609416Y0063995D01*
X0609202Y0064216D01*
X0608993Y0064441D01*
X0608790Y0064672D01*
X0608593Y0064908D01*
X0608401Y0065149D01*
X0608216Y0065394D01*
X0608036Y0065643D01*
X0607863Y0065897D01*
X0607696Y0066155D01*
X0607535Y0066417D01*
X0607381Y0066683D01*
X0607233Y0066953D01*
X0607092Y0067226D01*
X0606957Y0067503D01*
X0606830Y0067782D01*
X0606709Y0068065D01*
X0606595Y0068351D01*
X0606489Y0068639D01*
X0606389Y0068930D01*
X0606296Y0069223D01*
X0606211Y0069519D01*
X0606133Y0069816D01*
X0606062Y0070115D01*
X0605999Y0070416D01*
X0605943Y0070718D01*
X0605894Y0071022D01*
X0605853Y0071327D01*
X0605819Y0071632D01*
X0605793Y0071938D01*
X0605774Y0072245D01*
X0605763Y0072553D01*
X0605759Y0072860D01*
X0605763Y0073167D01*
X0605774Y0073475D01*
X0605793Y0073782D01*
X0605819Y0074088D01*
X0605853Y0074393D01*
X0605894Y0074698D01*
X0605943Y0075002D01*
X0605999Y0075304D01*
X0606062Y0075605D01*
X0606133Y0075904D01*
X0606211Y0076201D01*
X0606296Y0076497D01*
X0606389Y0076790D01*
X0606489Y0077081D01*
X0606595Y0077369D01*
X0606709Y0077655D01*
X0606830Y0077938D01*
X0606957Y0078217D01*
X0607092Y0078494D01*
X0607233Y0078767D01*
X0607381Y0079037D01*
X0607535Y0079303D01*
X0607696Y0079565D01*
X0607863Y0079823D01*
X0608036Y0080077D01*
X0608216Y0080326D01*
X0608401Y0080571D01*
X0608593Y0080812D01*
X0608790Y0081048D01*
X0608993Y0081279D01*
X0609202Y0081504D01*
X0609416Y0081725D01*
X0609635Y0081940D01*
X0609860Y0082150D01*
X0610090Y0082355D01*
X0610324Y0082553D01*
X0610564Y0082746D01*
X0610808Y0082933D01*
X0611056Y0083114D01*
X0611309Y0083289D01*
X0611566Y0083458D01*
X0611827Y0083620D01*
X0612092Y0083776D01*
X0612361Y0083925D01*
X0612633Y0084068D01*
X0612909Y0084204D01*
X0613188Y0084333D01*
X0613470Y0084456D01*
X0613755Y0084571D01*
X0614043Y0084679D01*
X0614333Y0084781D01*
X0614626Y0084875D01*
X0614921Y0084962D01*
X0615217Y0085042D01*
X0615516Y0085114D01*
X0615817Y0085180D01*
X0616119Y0085237D01*
X0616422Y0085288D01*
X0616726Y0085331D01*
X0617032Y0085366D01*
X0617338Y0085395D01*
X0617645Y0085415D01*
X0617952Y0085428D01*
X0618259Y0085434D01*
X0618567Y0085432D01*
X0618874Y0085422D01*
X0619181Y0085405D01*
X0619488Y0085381D01*
X0619793Y0085349D01*
X0620098Y0085309D01*
X0620402Y0085263D01*
X0620705Y0085208D01*
X0621006Y0085147D01*
X0621306Y0085078D01*
X0621603Y0085001D01*
X0621899Y0084918D01*
X0622193Y0084827D01*
X0622484Y0084729D01*
X0622773Y0084624D01*
X0623060Y0084512D01*
X0623343Y0084393D01*
X0623624Y0084267D01*
X0623901Y0084134D01*
X0624175Y0083995D01*
X0624445Y0083848D01*
X0624712Y0083696D01*
X0624975Y0083536D01*
X0625234Y0083371D01*
X0625489Y0083199D01*
X0625740Y0083021D01*
X0625986Y0082837D01*
X0626228Y0082647D01*
X0626465Y0082451D01*
X0626697Y0082249D01*
X0626924Y0082042D01*
X0627146Y0081829D01*
X0627362Y0081611D01*
X0627574Y0081387D01*
X0627779Y0081159D01*
X0627979Y0080926D01*
X0628174Y0080687D01*
X0628362Y0080444D01*
X0628287Y0080388D01*
X0628100Y0080629D01*
X0627907Y0080866D01*
X0627708Y0081097D01*
X0627504Y0081324D01*
X0627295Y0081546D01*
X0627080Y0081762D01*
X0626859Y0081973D01*
X0626634Y0082179D01*
X0626404Y0082379D01*
X0626168Y0082574D01*
X0625929Y0082762D01*
X0625684Y0082945D01*
X0625435Y0083122D01*
X0625182Y0083292D01*
X0624925Y0083457D01*
X0624664Y0083615D01*
X0624399Y0083766D01*
X0624131Y0083911D01*
X0623859Y0084050D01*
X0623584Y0084182D01*
X0623305Y0084307D01*
X0623024Y0084425D01*
X0622740Y0084536D01*
X0622453Y0084640D01*
X0622164Y0084738D01*
X0621872Y0084828D01*
X0621579Y0084911D01*
X0621283Y0084986D01*
X0620986Y0085055D01*
X0620687Y0085116D01*
X0620386Y0085170D01*
X0620085Y0085216D01*
X0619782Y0085256D01*
X0619479Y0085287D01*
X0619174Y0085312D01*
X0618870Y0085328D01*
X0618565Y0085338D01*
X0618260Y0085340D01*
X0617955Y0085334D01*
X0617650Y0085321D01*
X0617345Y0085301D01*
X0617041Y0085273D01*
X0616738Y0085238D01*
X0616436Y0085195D01*
X0616135Y0085145D01*
X0615835Y0085088D01*
X0615537Y0085023D01*
X0615241Y0084951D01*
X0614946Y0084872D01*
X0614653Y0084785D01*
X0614363Y0084692D01*
X0614075Y0084591D01*
X0613789Y0084483D01*
X0613506Y0084369D01*
X0613226Y0084247D01*
X0612949Y0084119D01*
X0612676Y0083984D01*
X0612406Y0083843D01*
X0612139Y0083694D01*
X0611876Y0083540D01*
X0611617Y0083379D01*
X0611361Y0083211D01*
X0611110Y0083038D01*
X0610864Y0082858D01*
X0610622Y0082672D01*
X0610384Y0082481D01*
X0610151Y0082284D01*
X0609923Y0082081D01*
X0609700Y0081872D01*
X0609482Y0081659D01*
X0609270Y0081440D01*
X0609063Y0081216D01*
X0608861Y0080986D01*
X0608665Y0080752D01*
X0608475Y0080514D01*
X0608291Y0080270D01*
X0608113Y0080023D01*
X0607941Y0079771D01*
X0607775Y0079514D01*
X0607616Y0079254D01*
X0607462Y0078990D01*
X0607316Y0078723D01*
X0607176Y0078452D01*
X0607042Y0078177D01*
X0606916Y0077900D01*
X0606796Y0077619D01*
X0606683Y0077335D01*
X0606577Y0077049D01*
X0606478Y0076761D01*
X0606386Y0076470D01*
X0606302Y0076176D01*
X0606224Y0075881D01*
X0606154Y0075584D01*
X0606091Y0075286D01*
X0606035Y0074986D01*
X0605987Y0074684D01*
X0605946Y0074382D01*
X0605913Y0074079D01*
X0605887Y0073775D01*
X0605868Y0073470D01*
X0605857Y0073165D01*
X0605853Y0072860D01*
X0605857Y0072555D01*
X0605868Y0072250D01*
X0605887Y0071945D01*
X0605913Y0071641D01*
X0605946Y0071338D01*
X0605987Y0071036D01*
X0606035Y0070734D01*
X0606091Y0070434D01*
X0606154Y0070136D01*
X0606224Y0069839D01*
X0606302Y0069544D01*
X0606386Y0069250D01*
X0606478Y0068959D01*
X0606577Y0068671D01*
X0606683Y0068385D01*
X0606796Y0068101D01*
X0606916Y0067820D01*
X0607042Y0067543D01*
X0607176Y0067268D01*
X0607316Y0066997D01*
X0607462Y0066730D01*
X0607616Y0066466D01*
X0607775Y0066206D01*
X0607941Y0065949D01*
X0608113Y0065697D01*
X0608291Y0065450D01*
X0608475Y0065206D01*
X0608665Y0064968D01*
X0608861Y0064734D01*
X0609063Y0064504D01*
X0609270Y0064280D01*
X0609482Y0064061D01*
X0609700Y0063848D01*
X0609923Y0063639D01*
X0610151Y0063436D01*
X0610384Y0063239D01*
X0610622Y0063048D01*
X0610864Y0062862D01*
X0611110Y0062682D01*
X0611361Y0062509D01*
X0611617Y0062341D01*
X0611876Y0062180D01*
X0612139Y0062026D01*
X0612406Y0061877D01*
X0612676Y0061736D01*
X0612949Y0061601D01*
X0613226Y0061473D01*
X0613506Y0061351D01*
X0613789Y0061237D01*
X0614075Y0061129D01*
X0614363Y0061028D01*
X0614653Y0060935D01*
X0614946Y0060848D01*
X0615241Y0060769D01*
X0615537Y0060697D01*
X0615835Y0060632D01*
X0616135Y0060575D01*
X0616436Y0060525D01*
X0616738Y0060482D01*
X0617041Y0060447D01*
X0617345Y0060419D01*
X0617650Y0060399D01*
X0617955Y0060386D01*
X0618260Y0060380D01*
X0618565Y0060382D01*
X0618870Y0060392D01*
X0619174Y0060408D01*
X0619479Y0060433D01*
X0619782Y0060464D01*
X0620085Y0060504D01*
X0620386Y0060550D01*
X0620687Y0060604D01*
X0620986Y0060665D01*
X0621283Y0060734D01*
X0621579Y0060809D01*
X0621872Y0060892D01*
X0622164Y0060982D01*
X0622453Y0061080D01*
X0622740Y0061184D01*
X0623024Y0061295D01*
X0623305Y0061413D01*
X0623584Y0061538D01*
X0623859Y0061670D01*
X0624131Y0061809D01*
X0624399Y0061954D01*
X0624664Y0062105D01*
X0624925Y0062263D01*
X0625182Y0062428D01*
X0625435Y0062598D01*
X0625684Y0062775D01*
X0625929Y0062958D01*
X0626168Y0063146D01*
X0626404Y0063341D01*
X0626634Y0063541D01*
X0626859Y0063747D01*
X0627080Y0063958D01*
X0627295Y0064174D01*
X0627504Y0064396D01*
X0627708Y0064623D01*
X0627907Y0064854D01*
X0628100Y0065091D01*
X0628287Y0065332D01*
X0628212Y0065388D01*
X0628026Y0065149D01*
X0627835Y0064914D01*
X0627638Y0064685D01*
X0627435Y0064460D01*
X0627227Y0064239D01*
X0627013Y0064025D01*
X0626795Y0063815D01*
X0626571Y0063611D01*
X0626343Y0063412D01*
X0626109Y0063219D01*
X0625871Y0063032D01*
X0625629Y0062851D01*
X0625382Y0062675D01*
X0625131Y0062506D01*
X0624875Y0062343D01*
X0624616Y0062186D01*
X0624353Y0062036D01*
X0624087Y0061892D01*
X0623817Y0061754D01*
X0623544Y0061623D01*
X0623268Y0061499D01*
X0622988Y0061382D01*
X0622706Y0061272D01*
X0622422Y0061168D01*
X0622135Y0061072D01*
X0621845Y0060982D01*
X0621554Y0060900D01*
X0621261Y0060825D01*
X0620965Y0060757D01*
X0620669Y0060696D01*
X0620371Y0060643D01*
X0620071Y0060597D01*
X0619771Y0060558D01*
X0619470Y0060526D01*
X0619168Y0060502D01*
X0618865Y0060485D01*
X0618563Y0060476D01*
X0618260Y0060474D01*
X0617957Y0060480D01*
X0617655Y0060493D01*
X0617352Y0060513D01*
X0617051Y0060541D01*
X0616750Y0060576D01*
X0616450Y0060618D01*
X0616151Y0060668D01*
X0615854Y0060725D01*
X0615558Y0060789D01*
X0615264Y0060860D01*
X0614971Y0060939D01*
X0614681Y0061025D01*
X0614392Y0061118D01*
X0614107Y0061217D01*
X0613823Y0061324D01*
X0613543Y0061438D01*
X0613265Y0061558D01*
X0612990Y0061686D01*
X0612718Y0061820D01*
X0612450Y0061960D01*
X0612185Y0062107D01*
X0611924Y0062261D01*
X0611667Y0062421D01*
X0611414Y0062587D01*
X0611165Y0062759D01*
X0610920Y0062937D01*
X0610679Y0063122D01*
X0610444Y0063312D01*
X0610213Y0063507D01*
X0609986Y0063709D01*
X0609765Y0063915D01*
X0609549Y0064128D01*
X0609338Y0064345D01*
X0609133Y0064567D01*
X0608933Y0064795D01*
X0608738Y0065027D01*
X0608550Y0065264D01*
X0608367Y0065506D01*
X0608190Y0065751D01*
X0608019Y0066002D01*
X0607855Y0066256D01*
X0607696Y0066514D01*
X0607544Y0066776D01*
X0607399Y0067041D01*
X0607260Y0067310D01*
X0607127Y0067583D01*
X0607002Y0067858D01*
X0606883Y0068137D01*
X0606771Y0068418D01*
X0606666Y0068702D01*
X0606567Y0068989D01*
X0606476Y0069278D01*
X0606392Y0069569D01*
X0606315Y0069862D01*
X0606246Y0070156D01*
X0606183Y0070453D01*
X0606128Y0070750D01*
X0606080Y0071049D01*
X0606039Y0071349D01*
X0606006Y0071651D01*
X0605980Y0071952D01*
X0605962Y0072255D01*
X0605951Y0072557D01*
X0605947Y0072860D01*
X0605951Y0073163D01*
X0605962Y0073465D01*
X0605980Y0073768D01*
X0606006Y0074069D01*
X0606039Y0074371D01*
X0606080Y0074671D01*
X0606128Y0074970D01*
X0606183Y0075267D01*
X0606246Y0075564D01*
X0606315Y0075858D01*
X0606392Y0076151D01*
X0606476Y0076442D01*
X0606567Y0076731D01*
X0606666Y0077018D01*
X0606771Y0077302D01*
X0606883Y0077583D01*
X0607002Y0077862D01*
X0607127Y0078137D01*
X0607260Y0078410D01*
X0607399Y0078679D01*
X0607544Y0078944D01*
X0607696Y0079206D01*
X0607855Y0079464D01*
X0608019Y0079718D01*
X0608190Y0079969D01*
X0608367Y0080214D01*
X0608550Y0080456D01*
X0608738Y0080693D01*
X0608933Y0080925D01*
X0609133Y0081153D01*
X0609338Y0081375D01*
X0609549Y0081592D01*
X0609765Y0081805D01*
X0609986Y0082011D01*
X0610213Y0082213D01*
X0610444Y0082408D01*
X0610679Y0082598D01*
X0610920Y0082783D01*
X0611165Y0082961D01*
X0611414Y0083133D01*
X0611667Y0083299D01*
X0611924Y0083459D01*
X0612185Y0083613D01*
X0612450Y0083760D01*
X0612718Y0083900D01*
X0612990Y0084034D01*
X0613265Y0084162D01*
X0613543Y0084282D01*
X0613823Y0084396D01*
X0614107Y0084503D01*
X0614392Y0084602D01*
X0614681Y0084695D01*
X0614971Y0084781D01*
X0615264Y0084860D01*
X0615558Y0084931D01*
X0615854Y0084995D01*
X0616151Y0085052D01*
X0616450Y0085102D01*
X0616750Y0085144D01*
X0617051Y0085179D01*
X0617352Y0085207D01*
X0617655Y0085227D01*
X0617957Y0085240D01*
X0618260Y0085246D01*
X0618563Y0085244D01*
X0618865Y0085235D01*
X0619168Y0085218D01*
X0619470Y0085194D01*
X0619771Y0085162D01*
X0620071Y0085123D01*
X0620371Y0085077D01*
X0620669Y0085024D01*
X0620965Y0084963D01*
X0621261Y0084895D01*
X0621554Y0084820D01*
X0621845Y0084738D01*
X0622135Y0084648D01*
X0622422Y0084552D01*
X0622706Y0084448D01*
X0622988Y0084338D01*
X0623268Y0084221D01*
X0623544Y0084097D01*
X0623817Y0083966D01*
X0624087Y0083828D01*
X0624353Y0083684D01*
X0624616Y0083534D01*
X0624875Y0083377D01*
X0625131Y0083214D01*
X0625382Y0083045D01*
X0625629Y0082869D01*
X0625871Y0082688D01*
X0626109Y0082501D01*
X0626343Y0082308D01*
X0626571Y0082109D01*
X0626795Y0081905D01*
X0627013Y0081695D01*
X0627227Y0081481D01*
X0627435Y0081260D01*
X0627638Y0081035D01*
X0627835Y0080806D01*
X0628026Y0080571D01*
X0628212Y0080332D01*
X0628137Y0080275D01*
X0627952Y0080513D01*
X0627762Y0080745D01*
X0627567Y0080974D01*
X0627366Y0081197D01*
X0627159Y0081415D01*
X0626947Y0081629D01*
X0626730Y0081837D01*
X0626508Y0082039D01*
X0626281Y0082236D01*
X0626050Y0082428D01*
X0625814Y0082614D01*
X0625573Y0082794D01*
X0625328Y0082968D01*
X0625079Y0083136D01*
X0624825Y0083298D01*
X0624568Y0083453D01*
X0624307Y0083602D01*
X0624043Y0083745D01*
X0623775Y0083882D01*
X0623504Y0084011D01*
X0623230Y0084134D01*
X0622953Y0084251D01*
X0622673Y0084360D01*
X0622390Y0084463D01*
X0622106Y0084559D01*
X0621818Y0084647D01*
X0621529Y0084729D01*
X0621238Y0084804D01*
X0620945Y0084871D01*
X0620651Y0084932D01*
X0620355Y0084985D01*
X0620058Y0085030D01*
X0619760Y0085069D01*
X0619461Y0085100D01*
X0619161Y0085124D01*
X0618861Y0085141D01*
X0618561Y0085150D01*
X0618260Y0085152D01*
X0617960Y0085146D01*
X0617659Y0085134D01*
X0617360Y0085113D01*
X0617060Y0085086D01*
X0616762Y0085051D01*
X0616464Y0085009D01*
X0616168Y0084960D01*
X0615873Y0084903D01*
X0615579Y0084839D01*
X0615287Y0084769D01*
X0614997Y0084691D01*
X0614708Y0084605D01*
X0614422Y0084513D01*
X0614138Y0084414D01*
X0613857Y0084308D01*
X0613579Y0084195D01*
X0613303Y0084076D01*
X0613030Y0083949D01*
X0612761Y0083816D01*
X0612495Y0083677D01*
X0612232Y0083531D01*
X0611973Y0083379D01*
X0611717Y0083220D01*
X0611466Y0083055D01*
X0611219Y0082884D01*
X0610976Y0082707D01*
X0610737Y0082524D01*
X0610503Y0082336D01*
X0610274Y0082142D01*
X0610050Y0081942D01*
X0609830Y0081737D01*
X0609616Y0081526D01*
X0609406Y0081310D01*
X0609202Y0081090D01*
X0609004Y0080864D01*
X0608811Y0080633D01*
X0608624Y0080398D01*
X0608442Y0080159D01*
X0608267Y0079915D01*
X0608097Y0079666D01*
X0607934Y0079414D01*
X0607777Y0079158D01*
X0607626Y0078898D01*
X0607482Y0078634D01*
X0607344Y0078367D01*
X0607212Y0078097D01*
X0607088Y0077824D01*
X0606970Y0077547D01*
X0606859Y0077268D01*
X0606754Y0076986D01*
X0606657Y0076702D01*
X0606566Y0076415D01*
X0606483Y0076126D01*
X0606407Y0075836D01*
X0606337Y0075543D01*
X0606275Y0075249D01*
X0606221Y0074954D01*
X0606173Y0074657D01*
X0606133Y0074359D01*
X0606100Y0074060D01*
X0606074Y0073761D01*
X0606056Y0073461D01*
X0606045Y0073161D01*
X0606041Y0072860D01*
X0606045Y0072559D01*
X0606056Y0072259D01*
X0606074Y0071959D01*
X0606100Y0071660D01*
X0606133Y0071361D01*
X0606173Y0071063D01*
X0606221Y0070766D01*
X0606275Y0070471D01*
X0606337Y0070177D01*
X0606407Y0069884D01*
X0606483Y0069594D01*
X0606566Y0069305D01*
X0606657Y0069018D01*
X0606754Y0068734D01*
X0606859Y0068452D01*
X0606970Y0068173D01*
X0607088Y0067896D01*
X0607212Y0067623D01*
X0607344Y0067353D01*
X0607482Y0067086D01*
X0607626Y0066822D01*
X0607777Y0066562D01*
X0607934Y0066306D01*
X0608097Y0066054D01*
X0608267Y0065805D01*
X0608442Y0065561D01*
X0608624Y0065322D01*
X0608811Y0065087D01*
X0609004Y0064856D01*
X0609202Y0064630D01*
X0609406Y0064410D01*
X0609616Y0064194D01*
X0609830Y0063983D01*
X0610050Y0063778D01*
X0610274Y0063578D01*
X0610503Y0063384D01*
X0610737Y0063196D01*
X0610976Y0063013D01*
X0611219Y0062836D01*
X0611466Y0062665D01*
X0611717Y0062500D01*
X0611973Y0062341D01*
X0612232Y0062189D01*
X0612495Y0062043D01*
X0612761Y0061904D01*
X0613030Y0061771D01*
X0613303Y0061644D01*
X0613579Y0061525D01*
X0613857Y0061412D01*
X0614138Y0061306D01*
X0614422Y0061207D01*
X0614708Y0061115D01*
X0614997Y0061029D01*
X0615287Y0060951D01*
X0615579Y0060881D01*
X0615873Y0060817D01*
X0616168Y0060760D01*
X0616464Y0060711D01*
X0616762Y0060669D01*
X0617060Y0060634D01*
X0617360Y0060607D01*
X0617659Y0060586D01*
X0617960Y0060574D01*
X0618260Y0060568D01*
X0618561Y0060570D01*
X0618861Y0060579D01*
X0619161Y0060596D01*
X0619461Y0060620D01*
X0619760Y0060651D01*
X0620058Y0060690D01*
X0620355Y0060735D01*
X0620651Y0060788D01*
X0620945Y0060849D01*
X0621238Y0060916D01*
X0621529Y0060991D01*
X0621818Y0061073D01*
X0622106Y0061161D01*
X0622390Y0061257D01*
X0622673Y0061360D01*
X0622953Y0061469D01*
X0623230Y0061586D01*
X0623504Y0061709D01*
X0623775Y0061838D01*
X0624043Y0061975D01*
X0624307Y0062118D01*
X0624568Y0062267D01*
X0624825Y0062422D01*
X0625079Y0062584D01*
X0625328Y0062752D01*
X0625573Y0062926D01*
X0625814Y0063106D01*
X0626050Y0063292D01*
X0626281Y0063484D01*
X0626508Y0063681D01*
X0626730Y0063883D01*
X0626947Y0064091D01*
X0627159Y0064305D01*
X0627366Y0064523D01*
X0627567Y0064746D01*
X0627762Y0064975D01*
X0627952Y0065207D01*
X0628137Y0065445D01*
X0628061Y0065501D01*
X0627879Y0065266D01*
X0627690Y0065035D01*
X0627496Y0064808D01*
X0627296Y0064586D01*
X0627091Y0064370D01*
X0626881Y0064158D01*
X0626666Y0063952D01*
X0626446Y0063751D01*
X0626220Y0063555D01*
X0625991Y0063365D01*
X0625756Y0063181D01*
X0625517Y0063002D01*
X0625274Y0062829D01*
X0625027Y0062663D01*
X0624775Y0062502D01*
X0624520Y0062348D01*
X0624261Y0062200D01*
X0623999Y0062058D01*
X0623733Y0061923D01*
X0623464Y0061794D01*
X0623192Y0061672D01*
X0622917Y0061556D01*
X0622639Y0061447D01*
X0622359Y0061346D01*
X0622076Y0061251D01*
X0621791Y0061163D01*
X0621504Y0061082D01*
X0621216Y0061007D01*
X0620925Y0060941D01*
X0620633Y0060881D01*
X0620339Y0060828D01*
X0620044Y0060783D01*
X0619749Y0060744D01*
X0619452Y0060713D01*
X0619155Y0060690D01*
X0618857Y0060673D01*
X0618559Y0060664D01*
X0618261Y0060662D01*
X0617962Y0060668D01*
X0617664Y0060680D01*
X0617367Y0060700D01*
X0617070Y0060728D01*
X0616774Y0060762D01*
X0616478Y0060804D01*
X0616184Y0060853D01*
X0615891Y0060909D01*
X0615600Y0060972D01*
X0615310Y0061043D01*
X0615022Y0061120D01*
X0614736Y0061204D01*
X0614452Y0061296D01*
X0614170Y0061394D01*
X0613891Y0061499D01*
X0613615Y0061611D01*
X0613341Y0061730D01*
X0613071Y0061855D01*
X0612803Y0061987D01*
X0612539Y0062126D01*
X0612278Y0062271D01*
X0612021Y0062422D01*
X0611768Y0062579D01*
X0611519Y0062743D01*
X0611273Y0062913D01*
X0611032Y0063088D01*
X0610795Y0063270D01*
X0610563Y0063457D01*
X0610336Y0063649D01*
X0610113Y0063848D01*
X0609895Y0064051D01*
X0609682Y0064260D01*
X0609474Y0064474D01*
X0609272Y0064694D01*
X0609075Y0064917D01*
X0608884Y0065146D01*
X0608698Y0065380D01*
X0608518Y0065617D01*
X0608344Y0065859D01*
X0608176Y0066106D01*
X0608014Y0066356D01*
X0607858Y0066610D01*
X0607708Y0066868D01*
X0607565Y0067130D01*
X0607428Y0067395D01*
X0607297Y0067663D01*
X0607174Y0067934D01*
X0607057Y0068209D01*
X0606946Y0068486D01*
X0606843Y0068766D01*
X0606746Y0069048D01*
X0606656Y0069332D01*
X0606574Y0069619D01*
X0606498Y0069907D01*
X0606429Y0070197D01*
X0606368Y0070489D01*
X0606313Y0070782D01*
X0606266Y0071077D01*
X0606226Y0071372D01*
X0606193Y0071669D01*
X0606168Y0071966D01*
X0606150Y0072264D01*
X0606139Y0072562D01*
X0606135Y0072860D01*
X0606139Y0073158D01*
X0606150Y0073456D01*
X0606168Y0073754D01*
X0606193Y0074051D01*
X0606226Y0074348D01*
X0606266Y0074643D01*
X0606313Y0074938D01*
X0606368Y0075231D01*
X0606429Y0075523D01*
X0606498Y0075813D01*
X0606574Y0076101D01*
X0606656Y0076388D01*
X0606746Y0076672D01*
X0606843Y0076954D01*
X0606946Y0077234D01*
X0607057Y0077511D01*
X0607174Y0077786D01*
X0607297Y0078057D01*
X0607428Y0078325D01*
X0607565Y0078590D01*
X0607708Y0078852D01*
X0607858Y0079110D01*
X0608014Y0079364D01*
X0608176Y0079614D01*
X0608344Y0079861D01*
X0608518Y0080103D01*
X0608698Y0080340D01*
X0608884Y0080574D01*
X0609075Y0080803D01*
X0609272Y0081026D01*
X0609474Y0081246D01*
X0609682Y0081460D01*
X0609895Y0081669D01*
X0610113Y0081872D01*
X0610336Y0082071D01*
X0610563Y0082263D01*
X0610795Y0082450D01*
X0611032Y0082632D01*
X0611273Y0082807D01*
X0611519Y0082977D01*
X0611768Y0083141D01*
X0612021Y0083298D01*
X0612278Y0083449D01*
X0612539Y0083594D01*
X0612803Y0083733D01*
X0613071Y0083865D01*
X0613341Y0083990D01*
X0613615Y0084109D01*
X0613891Y0084221D01*
X0614170Y0084326D01*
X0614452Y0084424D01*
X0614736Y0084516D01*
X0615022Y0084600D01*
X0615310Y0084677D01*
X0615600Y0084748D01*
X0615891Y0084811D01*
X0616184Y0084867D01*
X0616478Y0084916D01*
X0616774Y0084958D01*
X0617070Y0084992D01*
X0617367Y0085020D01*
X0617664Y0085040D01*
X0617962Y0085052D01*
X0618261Y0085058D01*
X0618559Y0085056D01*
X0618857Y0085047D01*
X0619155Y0085030D01*
X0619452Y0085007D01*
X0619749Y0084976D01*
X0620044Y0084937D01*
X0620339Y0084892D01*
X0620633Y0084839D01*
X0620925Y0084779D01*
X0621216Y0084713D01*
X0621504Y0084638D01*
X0621791Y0084557D01*
X0622076Y0084469D01*
X0622359Y0084374D01*
X0622639Y0084273D01*
X0622917Y0084164D01*
X0623192Y0084048D01*
X0623464Y0083926D01*
X0623733Y0083797D01*
X0623999Y0083662D01*
X0624261Y0083520D01*
X0624520Y0083372D01*
X0624775Y0083218D01*
X0625027Y0083057D01*
X0625274Y0082891D01*
X0625517Y0082718D01*
X0625756Y0082539D01*
X0625991Y0082355D01*
X0626220Y0082165D01*
X0626446Y0081969D01*
X0626666Y0081768D01*
X0626881Y0081562D01*
X0627091Y0081350D01*
X0627296Y0081134D01*
X0627496Y0080912D01*
X0627690Y0080685D01*
X0627879Y0080454D01*
X0628061Y0080219D01*
X0627986Y0080162D01*
X0627805Y0080396D01*
X0627618Y0080625D01*
X0627425Y0080850D01*
X0627227Y0081070D01*
X0627024Y0081285D01*
X0626815Y0081495D01*
X0626601Y0081700D01*
X0626383Y0081899D01*
X0626159Y0082093D01*
X0625931Y0082282D01*
X0625699Y0082465D01*
X0625462Y0082642D01*
X0625220Y0082813D01*
X0624975Y0082979D01*
X0624726Y0083138D01*
X0624472Y0083291D01*
X0624216Y0083438D01*
X0623955Y0083579D01*
X0623691Y0083713D01*
X0623424Y0083841D01*
X0623154Y0083962D01*
X0622882Y0084077D01*
X0622606Y0084185D01*
X0622328Y0084286D01*
X0622047Y0084380D01*
X0621765Y0084467D01*
X0621480Y0084548D01*
X0621193Y0084621D01*
X0620905Y0084688D01*
X0620615Y0084747D01*
X0620323Y0084799D01*
X0620031Y0084844D01*
X0619737Y0084882D01*
X0619443Y0084913D01*
X0619148Y0084937D01*
X0618853Y0084953D01*
X0618557Y0084962D01*
X0618261Y0084964D01*
X0617965Y0084958D01*
X0617669Y0084946D01*
X0617374Y0084926D01*
X0617079Y0084899D01*
X0616785Y0084865D01*
X0616492Y0084823D01*
X0616200Y0084775D01*
X0615910Y0084719D01*
X0615621Y0084656D01*
X0615333Y0084586D01*
X0615047Y0084509D01*
X0614763Y0084426D01*
X0614482Y0084335D01*
X0614202Y0084237D01*
X0613925Y0084133D01*
X0613651Y0084022D01*
X0613380Y0083904D01*
X0613111Y0083780D01*
X0612846Y0083649D01*
X0612584Y0083511D01*
X0612325Y0083368D01*
X0612070Y0083218D01*
X0611818Y0083061D01*
X0611571Y0082899D01*
X0611328Y0082731D01*
X0611088Y0082556D01*
X0610853Y0082376D01*
X0610623Y0082191D01*
X0610397Y0081999D01*
X0610176Y0081803D01*
X0609960Y0081601D01*
X0609749Y0081393D01*
X0609543Y0081181D01*
X0609342Y0080963D01*
X0609146Y0080741D01*
X0608956Y0080514D01*
X0608772Y0080283D01*
X0608594Y0080047D01*
X0608421Y0079807D01*
X0608254Y0079562D01*
X0608093Y0079314D01*
X0607938Y0079061D01*
X0607790Y0078805D01*
X0607648Y0078546D01*
X0607512Y0078283D01*
X0607382Y0078017D01*
X0607260Y0077748D01*
X0607143Y0077475D01*
X0607034Y0077200D01*
X0606931Y0076923D01*
X0606835Y0076643D01*
X0606746Y0076361D01*
X0606664Y0076076D01*
X0606589Y0075790D01*
X0606521Y0075502D01*
X0606460Y0075213D01*
X0606406Y0074922D01*
X0606359Y0074629D01*
X0606319Y0074336D01*
X0606287Y0074042D01*
X0606262Y0073747D01*
X0606243Y0073452D01*
X0606233Y0073156D01*
X0606229Y0072860D01*
X0606233Y0072564D01*
X0606243Y0072268D01*
X0606262Y0071973D01*
X0606287Y0071678D01*
X0606319Y0071384D01*
X0606359Y0071091D01*
X0606406Y0070798D01*
X0606460Y0070507D01*
X0606521Y0070218D01*
X0606589Y0069930D01*
X0606664Y0069644D01*
X0606746Y0069359D01*
X0606835Y0069077D01*
X0606931Y0068797D01*
X0607034Y0068520D01*
X0607143Y0068245D01*
X0607260Y0067972D01*
X0607382Y0067703D01*
X0607512Y0067437D01*
X0607648Y0067174D01*
X0607790Y0066915D01*
X0607938Y0066659D01*
X0608093Y0066406D01*
X0608254Y0066158D01*
X0608421Y0065913D01*
X0608594Y0065673D01*
X0608772Y0065437D01*
X0608956Y0065206D01*
X0609146Y0064979D01*
X0609342Y0064757D01*
X0609543Y0064539D01*
X0609749Y0064327D01*
X0609960Y0064119D01*
X0610176Y0063917D01*
X0610397Y0063721D01*
X0610623Y0063529D01*
X0610853Y0063344D01*
X0611088Y0063164D01*
X0611328Y0062989D01*
X0611571Y0062821D01*
X0611818Y0062659D01*
X0612070Y0062502D01*
X0612325Y0062352D01*
X0612584Y0062209D01*
X0612846Y0062071D01*
X0613111Y0061940D01*
X0613380Y0061816D01*
X0613651Y0061698D01*
X0613925Y0061587D01*
X0614202Y0061483D01*
X0614482Y0061385D01*
X0614763Y0061294D01*
X0615047Y0061211D01*
X0615333Y0061134D01*
X0615621Y0061064D01*
X0615910Y0061001D01*
X0616200Y0060945D01*
X0616492Y0060897D01*
X0616785Y0060855D01*
X0617079Y0060821D01*
X0617374Y0060794D01*
X0617669Y0060774D01*
X0617965Y0060762D01*
X0618261Y0060756D01*
X0618557Y0060758D01*
X0618853Y0060767D01*
X0619148Y0060783D01*
X0619443Y0060807D01*
X0619737Y0060838D01*
X0620031Y0060876D01*
X0620323Y0060921D01*
X0620615Y0060973D01*
X0620905Y0061032D01*
X0621193Y0061099D01*
X0621480Y0061172D01*
X0621765Y0061253D01*
X0622047Y0061340D01*
X0622328Y0061434D01*
X0622606Y0061535D01*
X0622882Y0061643D01*
X0623154Y0061758D01*
X0623424Y0061879D01*
X0623691Y0062007D01*
X0623955Y0062141D01*
X0624216Y0062282D01*
X0624472Y0062429D01*
X0624726Y0062582D01*
X0624975Y0062741D01*
X0625220Y0062907D01*
X0625462Y0063078D01*
X0625699Y0063255D01*
X0625931Y0063438D01*
X0626159Y0063627D01*
X0626383Y0063821D01*
X0626601Y0064020D01*
X0626815Y0064225D01*
X0627024Y0064435D01*
X0627227Y0064650D01*
X0627425Y0064870D01*
X0627618Y0065095D01*
X0627805Y0065324D01*
X0627986Y0065558D01*
X0628662Y0120669D02*
X0627942Y0120129D01*
X0627943Y0120130D02*
X0627762Y0120363D01*
X0627576Y0120591D01*
X0627384Y0120815D01*
X0627187Y0121034D01*
X0626985Y0121248D01*
X0626777Y0121457D01*
X0626564Y0121660D01*
X0626347Y0121859D01*
X0626124Y0122052D01*
X0625897Y0122240D01*
X0625666Y0122422D01*
X0625430Y0122599D01*
X0625189Y0122769D01*
X0624945Y0122934D01*
X0624697Y0123092D01*
X0624445Y0123245D01*
X0624189Y0123391D01*
X0623930Y0123531D01*
X0623667Y0123665D01*
X0623402Y0123792D01*
X0623133Y0123913D01*
X0622861Y0124027D01*
X0622587Y0124134D01*
X0622310Y0124235D01*
X0622031Y0124329D01*
X0621749Y0124416D01*
X0621466Y0124496D01*
X0621180Y0124569D01*
X0620893Y0124635D01*
X0620604Y0124694D01*
X0620314Y0124746D01*
X0620023Y0124791D01*
X0619731Y0124829D01*
X0619438Y0124859D01*
X0619144Y0124883D01*
X0618850Y0124899D01*
X0618556Y0124908D01*
X0618261Y0124910D01*
X0617966Y0124904D01*
X0617672Y0124892D01*
X0617378Y0124872D01*
X0617085Y0124845D01*
X0616792Y0124811D01*
X0616500Y0124770D01*
X0616210Y0124721D01*
X0615920Y0124666D01*
X0615633Y0124604D01*
X0615346Y0124534D01*
X0615062Y0124457D01*
X0614779Y0124374D01*
X0614499Y0124284D01*
X0614221Y0124187D01*
X0613945Y0124083D01*
X0613672Y0123972D01*
X0613402Y0123855D01*
X0613134Y0123731D01*
X0612870Y0123601D01*
X0612609Y0123464D01*
X0612352Y0123321D01*
X0612098Y0123171D01*
X0611847Y0123016D01*
X0611601Y0122854D01*
X0611359Y0122687D01*
X0611121Y0122513D01*
X0610887Y0122334D01*
X0610657Y0122149D01*
X0610433Y0121959D01*
X0610212Y0121763D01*
X0609997Y0121562D01*
X0609787Y0121355D01*
X0609582Y0121144D01*
X0609382Y0120927D01*
X0609187Y0120706D01*
X0608998Y0120480D01*
X0608815Y0120250D01*
X0608637Y0120015D01*
X0608465Y0119775D01*
X0608299Y0119532D01*
X0608139Y0119285D01*
X0607985Y0119034D01*
X0607837Y0118779D01*
X0607695Y0118520D01*
X0607560Y0118259D01*
X0607431Y0117994D01*
X0607309Y0117726D01*
X0607193Y0117455D01*
X0607084Y0117181D01*
X0606982Y0116905D01*
X0606887Y0116626D01*
X0606798Y0116345D01*
X0606716Y0116062D01*
X0606641Y0115777D01*
X0606574Y0115490D01*
X0606513Y0115202D01*
X0606459Y0114912D01*
X0606412Y0114621D01*
X0606373Y0114329D01*
X0606341Y0114037D01*
X0606315Y0113743D01*
X0606297Y0113449D01*
X0606287Y0113155D01*
X0606283Y0112860D01*
X0606287Y0112565D01*
X0606297Y0112271D01*
X0606315Y0111977D01*
X0606341Y0111683D01*
X0606373Y0111391D01*
X0606412Y0111099D01*
X0606459Y0110808D01*
X0606513Y0110518D01*
X0606574Y0110230D01*
X0606641Y0109943D01*
X0606716Y0109658D01*
X0606798Y0109375D01*
X0606887Y0109094D01*
X0606982Y0108815D01*
X0607084Y0108539D01*
X0607193Y0108265D01*
X0607309Y0107994D01*
X0607431Y0107726D01*
X0607560Y0107461D01*
X0607695Y0107200D01*
X0607837Y0106941D01*
X0607985Y0106686D01*
X0608139Y0106435D01*
X0608299Y0106188D01*
X0608465Y0105945D01*
X0608637Y0105705D01*
X0608815Y0105470D01*
X0608998Y0105240D01*
X0609187Y0105014D01*
X0609382Y0104793D01*
X0609582Y0104576D01*
X0609787Y0104365D01*
X0609997Y0104158D01*
X0610212Y0103957D01*
X0610433Y0103761D01*
X0610657Y0103571D01*
X0610887Y0103386D01*
X0611121Y0103207D01*
X0611359Y0103033D01*
X0611601Y0102866D01*
X0611847Y0102704D01*
X0612098Y0102549D01*
X0612352Y0102399D01*
X0612609Y0102256D01*
X0612870Y0102119D01*
X0613134Y0101989D01*
X0613402Y0101865D01*
X0613672Y0101748D01*
X0613945Y0101637D01*
X0614221Y0101533D01*
X0614499Y0101436D01*
X0614779Y0101346D01*
X0615062Y0101263D01*
X0615346Y0101186D01*
X0615633Y0101116D01*
X0615920Y0101054D01*
X0616210Y0100999D01*
X0616500Y0100950D01*
X0616792Y0100909D01*
X0617085Y0100875D01*
X0617378Y0100848D01*
X0617672Y0100828D01*
X0617966Y0100816D01*
X0618261Y0100810D01*
X0618556Y0100812D01*
X0618850Y0100821D01*
X0619144Y0100837D01*
X0619438Y0100861D01*
X0619731Y0100891D01*
X0620023Y0100929D01*
X0620314Y0100974D01*
X0620604Y0101026D01*
X0620893Y0101085D01*
X0621180Y0101151D01*
X0621466Y0101224D01*
X0621749Y0101304D01*
X0622031Y0101391D01*
X0622310Y0101485D01*
X0622587Y0101586D01*
X0622861Y0101693D01*
X0623133Y0101807D01*
X0623402Y0101928D01*
X0623667Y0102055D01*
X0623930Y0102189D01*
X0624189Y0102329D01*
X0624445Y0102475D01*
X0624697Y0102628D01*
X0624945Y0102786D01*
X0625189Y0102951D01*
X0625430Y0103121D01*
X0625666Y0103298D01*
X0625897Y0103480D01*
X0626124Y0103668D01*
X0626347Y0103861D01*
X0626564Y0104060D01*
X0626777Y0104263D01*
X0626985Y0104472D01*
X0627187Y0104686D01*
X0627384Y0104905D01*
X0627576Y0105129D01*
X0627762Y0105357D01*
X0627943Y0105590D01*
X0628662Y0105051D01*
X0628663Y0105050D01*
X0628469Y0104800D01*
X0628269Y0104554D01*
X0628063Y0104314D01*
X0627851Y0104079D01*
X0627633Y0103849D01*
X0627410Y0103624D01*
X0627182Y0103405D01*
X0626948Y0103191D01*
X0626709Y0102983D01*
X0626465Y0102781D01*
X0626216Y0102586D01*
X0625962Y0102396D01*
X0625704Y0102213D01*
X0625442Y0102036D01*
X0625175Y0101865D01*
X0624904Y0101701D01*
X0624629Y0101544D01*
X0624351Y0101393D01*
X0624068Y0101249D01*
X0623783Y0101113D01*
X0623494Y0100983D01*
X0623202Y0100860D01*
X0622907Y0100745D01*
X0622610Y0100637D01*
X0622309Y0100536D01*
X0622007Y0100442D01*
X0621702Y0100356D01*
X0621395Y0100277D01*
X0621087Y0100206D01*
X0620777Y0100143D01*
X0620465Y0100087D01*
X0620152Y0100038D01*
X0619838Y0099998D01*
X0619523Y0099965D01*
X0619207Y0099940D01*
X0618891Y0099922D01*
X0618575Y0099912D01*
X0618258Y0099910D01*
X0617941Y0099916D01*
X0617625Y0099929D01*
X0617309Y0099951D01*
X0616994Y0099979D01*
X0616679Y0100016D01*
X0616366Y0100060D01*
X0616053Y0100112D01*
X0615742Y0100172D01*
X0615433Y0100239D01*
X0615125Y0100314D01*
X0614819Y0100396D01*
X0614516Y0100485D01*
X0614214Y0100582D01*
X0613915Y0100687D01*
X0613619Y0100799D01*
X0613325Y0100917D01*
X0613035Y0101043D01*
X0612748Y0101176D01*
X0612463Y0101317D01*
X0612183Y0101464D01*
X0611906Y0101617D01*
X0611633Y0101778D01*
X0611364Y0101945D01*
X0611099Y0102119D01*
X0610839Y0102299D01*
X0610583Y0102485D01*
X0610332Y0102678D01*
X0610085Y0102876D01*
X0609843Y0103081D01*
X0609607Y0103291D01*
X0609375Y0103508D01*
X0609150Y0103730D01*
X0608929Y0103957D01*
X0608714Y0104189D01*
X0608505Y0104427D01*
X0608302Y0104670D01*
X0608104Y0104918D01*
X0607913Y0105170D01*
X0607728Y0105427D01*
X0607550Y0105689D01*
X0607378Y0105955D01*
X0607212Y0106224D01*
X0607053Y0106498D01*
X0606901Y0106776D01*
X0606756Y0107057D01*
X0606617Y0107342D01*
X0606486Y0107630D01*
X0606362Y0107922D01*
X0606244Y0108216D01*
X0606134Y0108513D01*
X0606032Y0108812D01*
X0605937Y0109114D01*
X0605849Y0109418D01*
X0605768Y0109725D01*
X0605695Y0110033D01*
X0605630Y0110343D01*
X0605572Y0110654D01*
X0605522Y0110967D01*
X0605480Y0111281D01*
X0605445Y0111595D01*
X0605418Y0111911D01*
X0605398Y0112227D01*
X0605387Y0112543D01*
X0605383Y0112860D01*
X0605387Y0113177D01*
X0605398Y0113493D01*
X0605418Y0113809D01*
X0605445Y0114125D01*
X0605480Y0114439D01*
X0605522Y0114753D01*
X0605572Y0115066D01*
X0605630Y0115377D01*
X0605695Y0115687D01*
X0605768Y0115995D01*
X0605849Y0116302D01*
X0605937Y0116606D01*
X0606032Y0116908D01*
X0606134Y0117207D01*
X0606244Y0117504D01*
X0606362Y0117798D01*
X0606486Y0118090D01*
X0606617Y0118378D01*
X0606756Y0118663D01*
X0606901Y0118944D01*
X0607053Y0119222D01*
X0607212Y0119496D01*
X0607378Y0119765D01*
X0607550Y0120031D01*
X0607728Y0120293D01*
X0607913Y0120550D01*
X0608104Y0120802D01*
X0608302Y0121050D01*
X0608505Y0121293D01*
X0608714Y0121531D01*
X0608929Y0121763D01*
X0609150Y0121990D01*
X0609375Y0122212D01*
X0609607Y0122429D01*
X0609843Y0122639D01*
X0610085Y0122844D01*
X0610332Y0123042D01*
X0610583Y0123235D01*
X0610839Y0123421D01*
X0611099Y0123601D01*
X0611364Y0123775D01*
X0611633Y0123942D01*
X0611906Y0124103D01*
X0612183Y0124256D01*
X0612463Y0124403D01*
X0612748Y0124544D01*
X0613035Y0124677D01*
X0613325Y0124803D01*
X0613619Y0124921D01*
X0613915Y0125033D01*
X0614214Y0125138D01*
X0614516Y0125235D01*
X0614819Y0125324D01*
X0615125Y0125406D01*
X0615433Y0125481D01*
X0615742Y0125548D01*
X0616053Y0125608D01*
X0616366Y0125660D01*
X0616679Y0125704D01*
X0616994Y0125741D01*
X0617309Y0125769D01*
X0617625Y0125791D01*
X0617941Y0125804D01*
X0618258Y0125810D01*
X0618575Y0125808D01*
X0618891Y0125798D01*
X0619207Y0125780D01*
X0619523Y0125755D01*
X0619838Y0125722D01*
X0620152Y0125682D01*
X0620465Y0125633D01*
X0620777Y0125577D01*
X0621087Y0125514D01*
X0621395Y0125443D01*
X0621702Y0125364D01*
X0622007Y0125278D01*
X0622309Y0125184D01*
X0622610Y0125083D01*
X0622907Y0124975D01*
X0623202Y0124860D01*
X0623494Y0124737D01*
X0623783Y0124607D01*
X0624068Y0124471D01*
X0624351Y0124327D01*
X0624629Y0124176D01*
X0624904Y0124019D01*
X0625175Y0123855D01*
X0625442Y0123684D01*
X0625704Y0123507D01*
X0625962Y0123324D01*
X0626216Y0123134D01*
X0626465Y0122939D01*
X0626709Y0122737D01*
X0626948Y0122529D01*
X0627182Y0122315D01*
X0627410Y0122096D01*
X0627633Y0121871D01*
X0627851Y0121641D01*
X0628063Y0121406D01*
X0628269Y0121166D01*
X0628469Y0120920D01*
X0628663Y0120670D01*
X0628588Y0120614D01*
X0628395Y0120862D01*
X0628196Y0121106D01*
X0627992Y0121344D01*
X0627782Y0121578D01*
X0627566Y0121806D01*
X0627344Y0122029D01*
X0627117Y0122247D01*
X0626885Y0122459D01*
X0626648Y0122665D01*
X0626406Y0122866D01*
X0626158Y0123060D01*
X0625907Y0123248D01*
X0625650Y0123430D01*
X0625390Y0123606D01*
X0625125Y0123775D01*
X0624856Y0123938D01*
X0624583Y0124094D01*
X0624307Y0124244D01*
X0624027Y0124386D01*
X0623743Y0124522D01*
X0623456Y0124651D01*
X0623166Y0124773D01*
X0622874Y0124887D01*
X0622578Y0124995D01*
X0622280Y0125095D01*
X0621980Y0125188D01*
X0621677Y0125273D01*
X0621373Y0125351D01*
X0621067Y0125422D01*
X0620759Y0125485D01*
X0620449Y0125541D01*
X0620139Y0125589D01*
X0619827Y0125629D01*
X0619514Y0125662D01*
X0619201Y0125687D01*
X0618887Y0125704D01*
X0618573Y0125714D01*
X0618258Y0125716D01*
X0617944Y0125710D01*
X0617630Y0125697D01*
X0617316Y0125676D01*
X0617003Y0125647D01*
X0616691Y0125611D01*
X0616380Y0125567D01*
X0616070Y0125515D01*
X0615761Y0125456D01*
X0615454Y0125389D01*
X0615148Y0125315D01*
X0614845Y0125234D01*
X0614543Y0125145D01*
X0614244Y0125048D01*
X0613947Y0124945D01*
X0613653Y0124834D01*
X0613362Y0124716D01*
X0613073Y0124591D01*
X0612788Y0124459D01*
X0612506Y0124320D01*
X0612228Y0124174D01*
X0611953Y0124021D01*
X0611682Y0123862D01*
X0611415Y0123696D01*
X0611152Y0123523D01*
X0610893Y0123345D01*
X0610639Y0123160D01*
X0610390Y0122968D01*
X0610145Y0122771D01*
X0609905Y0122568D01*
X0609670Y0122359D01*
X0609440Y0122144D01*
X0609216Y0121924D01*
X0608997Y0121699D01*
X0608784Y0121468D01*
X0608576Y0121232D01*
X0608374Y0120990D01*
X0608179Y0120745D01*
X0607989Y0120494D01*
X0607805Y0120239D01*
X0607628Y0119979D01*
X0607457Y0119715D01*
X0607293Y0119447D01*
X0607135Y0119175D01*
X0606984Y0118900D01*
X0606840Y0118620D01*
X0606702Y0118338D01*
X0606572Y0118052D01*
X0606448Y0117763D01*
X0606332Y0117470D01*
X0606223Y0117176D01*
X0606121Y0116878D01*
X0606027Y0116579D01*
X0605939Y0116276D01*
X0605859Y0115972D01*
X0605787Y0115667D01*
X0605722Y0115359D01*
X0605665Y0115050D01*
X0605615Y0114739D01*
X0605573Y0114428D01*
X0605538Y0114115D01*
X0605512Y0113802D01*
X0605492Y0113488D01*
X0605481Y0113174D01*
X0605477Y0112860D01*
X0605481Y0112546D01*
X0605492Y0112232D01*
X0605512Y0111918D01*
X0605538Y0111605D01*
X0605573Y0111292D01*
X0605615Y0110981D01*
X0605665Y0110670D01*
X0605722Y0110361D01*
X0605787Y0110053D01*
X0605859Y0109748D01*
X0605939Y0109444D01*
X0606027Y0109141D01*
X0606121Y0108842D01*
X0606223Y0108544D01*
X0606332Y0108250D01*
X0606448Y0107957D01*
X0606572Y0107668D01*
X0606702Y0107382D01*
X0606840Y0107100D01*
X0606984Y0106820D01*
X0607135Y0106545D01*
X0607293Y0106273D01*
X0607457Y0106005D01*
X0607628Y0105741D01*
X0607805Y0105481D01*
X0607989Y0105226D01*
X0608179Y0104975D01*
X0608374Y0104730D01*
X0608576Y0104488D01*
X0608784Y0104252D01*
X0608997Y0104021D01*
X0609216Y0103796D01*
X0609440Y0103576D01*
X0609670Y0103361D01*
X0609905Y0103152D01*
X0610145Y0102949D01*
X0610390Y0102752D01*
X0610639Y0102560D01*
X0610893Y0102375D01*
X0611152Y0102197D01*
X0611415Y0102024D01*
X0611682Y0101858D01*
X0611953Y0101699D01*
X0612228Y0101546D01*
X0612506Y0101400D01*
X0612788Y0101261D01*
X0613073Y0101129D01*
X0613362Y0101004D01*
X0613653Y0100886D01*
X0613947Y0100775D01*
X0614244Y0100672D01*
X0614543Y0100575D01*
X0614845Y0100486D01*
X0615148Y0100405D01*
X0615454Y0100331D01*
X0615761Y0100264D01*
X0616070Y0100205D01*
X0616380Y0100153D01*
X0616691Y0100109D01*
X0617003Y0100073D01*
X0617316Y0100044D01*
X0617630Y0100023D01*
X0617944Y0100010D01*
X0618258Y0100004D01*
X0618573Y0100006D01*
X0618887Y0100016D01*
X0619201Y0100033D01*
X0619514Y0100058D01*
X0619827Y0100091D01*
X0620139Y0100131D01*
X0620449Y0100179D01*
X0620759Y0100235D01*
X0621067Y0100298D01*
X0621373Y0100369D01*
X0621677Y0100447D01*
X0621980Y0100532D01*
X0622280Y0100625D01*
X0622578Y0100725D01*
X0622874Y0100833D01*
X0623166Y0100947D01*
X0623456Y0101069D01*
X0623743Y0101198D01*
X0624027Y0101334D01*
X0624307Y0101476D01*
X0624583Y0101626D01*
X0624856Y0101782D01*
X0625125Y0101945D01*
X0625390Y0102114D01*
X0625650Y0102290D01*
X0625907Y0102472D01*
X0626158Y0102660D01*
X0626406Y0102854D01*
X0626648Y0103055D01*
X0626885Y0103261D01*
X0627117Y0103473D01*
X0627344Y0103691D01*
X0627566Y0103914D01*
X0627782Y0104142D01*
X0627992Y0104376D01*
X0628196Y0104614D01*
X0628395Y0104858D01*
X0628588Y0105106D01*
X0628513Y0105163D01*
X0628321Y0104916D01*
X0628124Y0104674D01*
X0627921Y0104437D01*
X0627712Y0104206D01*
X0627498Y0103979D01*
X0627278Y0103757D01*
X0627053Y0103541D01*
X0626822Y0103331D01*
X0626587Y0103126D01*
X0626346Y0102927D01*
X0626101Y0102734D01*
X0625851Y0102548D01*
X0625597Y0102367D01*
X0625338Y0102192D01*
X0625075Y0102024D01*
X0624808Y0101863D01*
X0624537Y0101708D01*
X0624263Y0101559D01*
X0623985Y0101418D01*
X0623703Y0101283D01*
X0623419Y0101155D01*
X0623131Y0101034D01*
X0622840Y0100920D01*
X0622547Y0100814D01*
X0622251Y0100714D01*
X0621953Y0100622D01*
X0621653Y0100537D01*
X0621350Y0100460D01*
X0621046Y0100390D01*
X0620741Y0100327D01*
X0620434Y0100272D01*
X0620125Y0100224D01*
X0619816Y0100184D01*
X0619505Y0100152D01*
X0619194Y0100127D01*
X0618883Y0100110D01*
X0618571Y0100100D01*
X0618259Y0100098D01*
X0617947Y0100104D01*
X0617635Y0100117D01*
X0617324Y0100138D01*
X0617013Y0100166D01*
X0616703Y0100203D01*
X0616394Y0100246D01*
X0616086Y0100297D01*
X0615779Y0100356D01*
X0615475Y0100422D01*
X0615171Y0100496D01*
X0614870Y0100577D01*
X0614571Y0100665D01*
X0614274Y0100761D01*
X0613979Y0100864D01*
X0613687Y0100974D01*
X0613398Y0101091D01*
X0613111Y0101215D01*
X0612828Y0101346D01*
X0612548Y0101484D01*
X0612272Y0101629D01*
X0611999Y0101781D01*
X0611730Y0101939D01*
X0611465Y0102104D01*
X0611204Y0102275D01*
X0610948Y0102452D01*
X0610695Y0102636D01*
X0610448Y0102826D01*
X0610205Y0103021D01*
X0609966Y0103223D01*
X0609733Y0103431D01*
X0609505Y0103644D01*
X0609283Y0103862D01*
X0609065Y0104086D01*
X0608854Y0104315D01*
X0608648Y0104550D01*
X0608447Y0104789D01*
X0608253Y0105033D01*
X0608065Y0105282D01*
X0607882Y0105535D01*
X0607706Y0105793D01*
X0607537Y0106055D01*
X0607374Y0106321D01*
X0607217Y0106591D01*
X0607067Y0106865D01*
X0606924Y0107142D01*
X0606787Y0107422D01*
X0606658Y0107706D01*
X0606535Y0107993D01*
X0606420Y0108283D01*
X0606312Y0108576D01*
X0606210Y0108871D01*
X0606116Y0109169D01*
X0606030Y0109469D01*
X0605951Y0109770D01*
X0605879Y0110074D01*
X0605814Y0110379D01*
X0605757Y0110686D01*
X0605708Y0110994D01*
X0605666Y0111304D01*
X0605632Y0111614D01*
X0605605Y0111925D01*
X0605586Y0112236D01*
X0605575Y0112548D01*
X0605571Y0112860D01*
X0605575Y0113172D01*
X0605586Y0113484D01*
X0605605Y0113795D01*
X0605632Y0114106D01*
X0605666Y0114416D01*
X0605708Y0114726D01*
X0605757Y0115034D01*
X0605814Y0115341D01*
X0605879Y0115646D01*
X0605951Y0115950D01*
X0606030Y0116251D01*
X0606116Y0116551D01*
X0606210Y0116849D01*
X0606312Y0117144D01*
X0606420Y0117437D01*
X0606535Y0117727D01*
X0606658Y0118014D01*
X0606787Y0118298D01*
X0606924Y0118578D01*
X0607067Y0118855D01*
X0607217Y0119129D01*
X0607374Y0119399D01*
X0607537Y0119665D01*
X0607706Y0119927D01*
X0607882Y0120185D01*
X0608065Y0120438D01*
X0608253Y0120687D01*
X0608447Y0120931D01*
X0608648Y0121170D01*
X0608854Y0121405D01*
X0609065Y0121634D01*
X0609283Y0121858D01*
X0609505Y0122076D01*
X0609733Y0122289D01*
X0609966Y0122497D01*
X0610205Y0122699D01*
X0610448Y0122894D01*
X0610695Y0123084D01*
X0610948Y0123268D01*
X0611204Y0123445D01*
X0611465Y0123616D01*
X0611730Y0123781D01*
X0611999Y0123939D01*
X0612272Y0124091D01*
X0612548Y0124236D01*
X0612828Y0124374D01*
X0613111Y0124505D01*
X0613398Y0124629D01*
X0613687Y0124746D01*
X0613979Y0124856D01*
X0614274Y0124959D01*
X0614571Y0125055D01*
X0614870Y0125143D01*
X0615171Y0125224D01*
X0615475Y0125298D01*
X0615779Y0125364D01*
X0616086Y0125423D01*
X0616394Y0125474D01*
X0616703Y0125517D01*
X0617013Y0125554D01*
X0617324Y0125582D01*
X0617635Y0125603D01*
X0617947Y0125616D01*
X0618259Y0125622D01*
X0618571Y0125620D01*
X0618883Y0125610D01*
X0619194Y0125593D01*
X0619505Y0125568D01*
X0619816Y0125536D01*
X0620125Y0125496D01*
X0620434Y0125448D01*
X0620741Y0125393D01*
X0621046Y0125330D01*
X0621350Y0125260D01*
X0621653Y0125183D01*
X0621953Y0125098D01*
X0622251Y0125006D01*
X0622547Y0124906D01*
X0622840Y0124800D01*
X0623131Y0124686D01*
X0623419Y0124565D01*
X0623703Y0124437D01*
X0623985Y0124302D01*
X0624263Y0124161D01*
X0624537Y0124012D01*
X0624808Y0123857D01*
X0625075Y0123696D01*
X0625338Y0123528D01*
X0625597Y0123353D01*
X0625851Y0123172D01*
X0626101Y0122986D01*
X0626346Y0122793D01*
X0626587Y0122594D01*
X0626822Y0122389D01*
X0627053Y0122179D01*
X0627278Y0121963D01*
X0627498Y0121741D01*
X0627712Y0121514D01*
X0627921Y0121283D01*
X0628124Y0121046D01*
X0628321Y0120804D01*
X0628513Y0120557D01*
X0628437Y0120501D01*
X0628247Y0120746D01*
X0628052Y0120986D01*
X0627850Y0121221D01*
X0627643Y0121451D01*
X0627430Y0121676D01*
X0627212Y0121896D01*
X0626988Y0122110D01*
X0626759Y0122319D01*
X0626526Y0122522D01*
X0626287Y0122720D01*
X0626044Y0122911D01*
X0625795Y0123097D01*
X0625543Y0123276D01*
X0625286Y0123449D01*
X0625025Y0123616D01*
X0624760Y0123777D01*
X0624491Y0123930D01*
X0624219Y0124078D01*
X0623943Y0124218D01*
X0623663Y0124352D01*
X0623381Y0124479D01*
X0623095Y0124599D01*
X0622807Y0124712D01*
X0622516Y0124818D01*
X0622222Y0124916D01*
X0621926Y0125008D01*
X0621628Y0125092D01*
X0621328Y0125169D01*
X0621026Y0125238D01*
X0620723Y0125301D01*
X0620418Y0125355D01*
X0620112Y0125403D01*
X0619804Y0125442D01*
X0619496Y0125474D01*
X0619188Y0125499D01*
X0618878Y0125516D01*
X0618569Y0125526D01*
X0618259Y0125528D01*
X0617949Y0125522D01*
X0617640Y0125509D01*
X0617331Y0125488D01*
X0617022Y0125460D01*
X0616715Y0125424D01*
X0616408Y0125381D01*
X0616102Y0125330D01*
X0615798Y0125272D01*
X0615495Y0125206D01*
X0615194Y0125133D01*
X0614895Y0125053D01*
X0614598Y0124965D01*
X0614303Y0124870D01*
X0614011Y0124768D01*
X0613721Y0124659D01*
X0613434Y0124542D01*
X0613150Y0124419D01*
X0612869Y0124289D01*
X0612591Y0124152D01*
X0612317Y0124008D01*
X0612046Y0123858D01*
X0611779Y0123701D01*
X0611516Y0123537D01*
X0611257Y0123367D01*
X0611002Y0123191D01*
X0610751Y0123009D01*
X0610506Y0122820D01*
X0610264Y0122626D01*
X0610028Y0122426D01*
X0609797Y0122220D01*
X0609570Y0122008D01*
X0609349Y0121791D01*
X0609134Y0121569D01*
X0608923Y0121342D01*
X0608719Y0121109D01*
X0608520Y0120871D01*
X0608327Y0120629D01*
X0608140Y0120382D01*
X0607959Y0120131D01*
X0607785Y0119875D01*
X0607616Y0119615D01*
X0607454Y0119351D01*
X0607299Y0119083D01*
X0607150Y0118811D01*
X0607008Y0118536D01*
X0606872Y0118257D01*
X0606744Y0117976D01*
X0606622Y0117691D01*
X0606508Y0117403D01*
X0606400Y0117112D01*
X0606300Y0116819D01*
X0606206Y0116524D01*
X0606120Y0116226D01*
X0606042Y0115927D01*
X0605971Y0115625D01*
X0605907Y0115322D01*
X0605850Y0115018D01*
X0605801Y0114712D01*
X0605760Y0114405D01*
X0605726Y0114097D01*
X0605699Y0113788D01*
X0605680Y0113479D01*
X0605669Y0113170D01*
X0605665Y0112860D01*
X0605669Y0112550D01*
X0605680Y0112241D01*
X0605699Y0111932D01*
X0605726Y0111623D01*
X0605760Y0111315D01*
X0605801Y0111008D01*
X0605850Y0110702D01*
X0605907Y0110398D01*
X0605971Y0110095D01*
X0606042Y0109793D01*
X0606120Y0109494D01*
X0606206Y0109196D01*
X0606300Y0108901D01*
X0606400Y0108608D01*
X0606508Y0108317D01*
X0606622Y0108029D01*
X0606744Y0107744D01*
X0606872Y0107463D01*
X0607008Y0107184D01*
X0607150Y0106909D01*
X0607299Y0106637D01*
X0607454Y0106369D01*
X0607616Y0106105D01*
X0607785Y0105845D01*
X0607959Y0105589D01*
X0608140Y0105338D01*
X0608327Y0105091D01*
X0608520Y0104849D01*
X0608719Y0104611D01*
X0608923Y0104378D01*
X0609134Y0104151D01*
X0609349Y0103929D01*
X0609570Y0103712D01*
X0609797Y0103500D01*
X0610028Y0103294D01*
X0610264Y0103094D01*
X0610506Y0102900D01*
X0610751Y0102711D01*
X0611002Y0102529D01*
X0611257Y0102353D01*
X0611516Y0102183D01*
X0611779Y0102019D01*
X0612046Y0101862D01*
X0612317Y0101712D01*
X0612591Y0101568D01*
X0612869Y0101431D01*
X0613150Y0101301D01*
X0613434Y0101178D01*
X0613721Y0101061D01*
X0614011Y0100952D01*
X0614303Y0100850D01*
X0614598Y0100755D01*
X0614895Y0100667D01*
X0615194Y0100587D01*
X0615495Y0100514D01*
X0615798Y0100448D01*
X0616102Y0100390D01*
X0616408Y0100339D01*
X0616715Y0100296D01*
X0617022Y0100260D01*
X0617331Y0100232D01*
X0617640Y0100211D01*
X0617949Y0100198D01*
X0618259Y0100192D01*
X0618569Y0100194D01*
X0618878Y0100204D01*
X0619188Y0100221D01*
X0619496Y0100246D01*
X0619804Y0100278D01*
X0620112Y0100317D01*
X0620418Y0100365D01*
X0620723Y0100419D01*
X0621026Y0100482D01*
X0621328Y0100551D01*
X0621628Y0100628D01*
X0621926Y0100712D01*
X0622222Y0100804D01*
X0622516Y0100902D01*
X0622807Y0101008D01*
X0623095Y0101121D01*
X0623381Y0101241D01*
X0623663Y0101368D01*
X0623943Y0101502D01*
X0624219Y0101642D01*
X0624491Y0101790D01*
X0624760Y0101943D01*
X0625025Y0102104D01*
X0625286Y0102271D01*
X0625543Y0102444D01*
X0625795Y0102623D01*
X0626044Y0102809D01*
X0626287Y0103000D01*
X0626526Y0103198D01*
X0626759Y0103401D01*
X0626988Y0103610D01*
X0627212Y0103824D01*
X0627430Y0104044D01*
X0627643Y0104269D01*
X0627850Y0104499D01*
X0628052Y0104734D01*
X0628247Y0104974D01*
X0628437Y0105219D01*
X0628362Y0105276D01*
X0628174Y0105033D01*
X0627979Y0104794D01*
X0627779Y0104561D01*
X0627574Y0104333D01*
X0627362Y0104109D01*
X0627146Y0103891D01*
X0626924Y0103678D01*
X0626697Y0103471D01*
X0626465Y0103269D01*
X0626228Y0103073D01*
X0625986Y0102883D01*
X0625740Y0102699D01*
X0625489Y0102521D01*
X0625234Y0102349D01*
X0624975Y0102184D01*
X0624712Y0102024D01*
X0624445Y0101872D01*
X0624175Y0101725D01*
X0623901Y0101586D01*
X0623624Y0101453D01*
X0623343Y0101327D01*
X0623060Y0101208D01*
X0622773Y0101096D01*
X0622484Y0100991D01*
X0622193Y0100893D01*
X0621899Y0100802D01*
X0621603Y0100719D01*
X0621306Y0100642D01*
X0621006Y0100573D01*
X0620705Y0100512D01*
X0620402Y0100457D01*
X0620098Y0100411D01*
X0619793Y0100371D01*
X0619488Y0100339D01*
X0619181Y0100315D01*
X0618874Y0100298D01*
X0618567Y0100288D01*
X0618259Y0100286D01*
X0617952Y0100292D01*
X0617645Y0100305D01*
X0617338Y0100325D01*
X0617032Y0100354D01*
X0616726Y0100389D01*
X0616422Y0100432D01*
X0616119Y0100483D01*
X0615817Y0100540D01*
X0615516Y0100606D01*
X0615217Y0100678D01*
X0614921Y0100758D01*
X0614626Y0100845D01*
X0614333Y0100939D01*
X0614043Y0101041D01*
X0613755Y0101149D01*
X0613470Y0101264D01*
X0613188Y0101387D01*
X0612909Y0101516D01*
X0612633Y0101652D01*
X0612361Y0101795D01*
X0612092Y0101944D01*
X0611827Y0102100D01*
X0611566Y0102262D01*
X0611309Y0102431D01*
X0611056Y0102606D01*
X0610808Y0102787D01*
X0610564Y0102974D01*
X0610324Y0103167D01*
X0610090Y0103365D01*
X0609860Y0103570D01*
X0609635Y0103780D01*
X0609416Y0103995D01*
X0609202Y0104216D01*
X0608993Y0104441D01*
X0608790Y0104672D01*
X0608593Y0104908D01*
X0608401Y0105149D01*
X0608216Y0105394D01*
X0608036Y0105643D01*
X0607863Y0105897D01*
X0607696Y0106155D01*
X0607535Y0106417D01*
X0607381Y0106683D01*
X0607233Y0106953D01*
X0607092Y0107226D01*
X0606957Y0107503D01*
X0606830Y0107782D01*
X0606709Y0108065D01*
X0606595Y0108351D01*
X0606489Y0108639D01*
X0606389Y0108930D01*
X0606296Y0109223D01*
X0606211Y0109519D01*
X0606133Y0109816D01*
X0606062Y0110115D01*
X0605999Y0110416D01*
X0605943Y0110718D01*
X0605894Y0111022D01*
X0605853Y0111327D01*
X0605819Y0111632D01*
X0605793Y0111938D01*
X0605774Y0112245D01*
X0605763Y0112553D01*
X0605759Y0112860D01*
X0605763Y0113167D01*
X0605774Y0113475D01*
X0605793Y0113782D01*
X0605819Y0114088D01*
X0605853Y0114393D01*
X0605894Y0114698D01*
X0605943Y0115002D01*
X0605999Y0115304D01*
X0606062Y0115605D01*
X0606133Y0115904D01*
X0606211Y0116201D01*
X0606296Y0116497D01*
X0606389Y0116790D01*
X0606489Y0117081D01*
X0606595Y0117369D01*
X0606709Y0117655D01*
X0606830Y0117938D01*
X0606957Y0118217D01*
X0607092Y0118494D01*
X0607233Y0118767D01*
X0607381Y0119037D01*
X0607535Y0119303D01*
X0607696Y0119565D01*
X0607863Y0119823D01*
X0608036Y0120077D01*
X0608216Y0120326D01*
X0608401Y0120571D01*
X0608593Y0120812D01*
X0608790Y0121048D01*
X0608993Y0121279D01*
X0609202Y0121504D01*
X0609416Y0121725D01*
X0609635Y0121940D01*
X0609860Y0122150D01*
X0610090Y0122355D01*
X0610324Y0122553D01*
X0610564Y0122746D01*
X0610808Y0122933D01*
X0611056Y0123114D01*
X0611309Y0123289D01*
X0611566Y0123458D01*
X0611827Y0123620D01*
X0612092Y0123776D01*
X0612361Y0123925D01*
X0612633Y0124068D01*
X0612909Y0124204D01*
X0613188Y0124333D01*
X0613470Y0124456D01*
X0613755Y0124571D01*
X0614043Y0124679D01*
X0614333Y0124781D01*
X0614626Y0124875D01*
X0614921Y0124962D01*
X0615217Y0125042D01*
X0615516Y0125114D01*
X0615817Y0125180D01*
X0616119Y0125237D01*
X0616422Y0125288D01*
X0616726Y0125331D01*
X0617032Y0125366D01*
X0617338Y0125395D01*
X0617645Y0125415D01*
X0617952Y0125428D01*
X0618259Y0125434D01*
X0618567Y0125432D01*
X0618874Y0125422D01*
X0619181Y0125405D01*
X0619488Y0125381D01*
X0619793Y0125349D01*
X0620098Y0125309D01*
X0620402Y0125263D01*
X0620705Y0125208D01*
X0621006Y0125147D01*
X0621306Y0125078D01*
X0621603Y0125001D01*
X0621899Y0124918D01*
X0622193Y0124827D01*
X0622484Y0124729D01*
X0622773Y0124624D01*
X0623060Y0124512D01*
X0623343Y0124393D01*
X0623624Y0124267D01*
X0623901Y0124134D01*
X0624175Y0123995D01*
X0624445Y0123848D01*
X0624712Y0123696D01*
X0624975Y0123536D01*
X0625234Y0123371D01*
X0625489Y0123199D01*
X0625740Y0123021D01*
X0625986Y0122837D01*
X0626228Y0122647D01*
X0626465Y0122451D01*
X0626697Y0122249D01*
X0626924Y0122042D01*
X0627146Y0121829D01*
X0627362Y0121611D01*
X0627574Y0121387D01*
X0627779Y0121159D01*
X0627979Y0120926D01*
X0628174Y0120687D01*
X0628362Y0120444D01*
X0628287Y0120388D01*
X0628100Y0120629D01*
X0627907Y0120866D01*
X0627708Y0121097D01*
X0627504Y0121324D01*
X0627295Y0121546D01*
X0627080Y0121762D01*
X0626859Y0121973D01*
X0626634Y0122179D01*
X0626404Y0122379D01*
X0626168Y0122574D01*
X0625929Y0122762D01*
X0625684Y0122945D01*
X0625435Y0123122D01*
X0625182Y0123292D01*
X0624925Y0123457D01*
X0624664Y0123615D01*
X0624399Y0123766D01*
X0624131Y0123911D01*
X0623859Y0124050D01*
X0623584Y0124182D01*
X0623305Y0124307D01*
X0623024Y0124425D01*
X0622740Y0124536D01*
X0622453Y0124640D01*
X0622164Y0124738D01*
X0621872Y0124828D01*
X0621579Y0124911D01*
X0621283Y0124986D01*
X0620986Y0125055D01*
X0620687Y0125116D01*
X0620386Y0125170D01*
X0620085Y0125216D01*
X0619782Y0125256D01*
X0619479Y0125287D01*
X0619174Y0125312D01*
X0618870Y0125328D01*
X0618565Y0125338D01*
X0618260Y0125340D01*
X0617955Y0125334D01*
X0617650Y0125321D01*
X0617345Y0125301D01*
X0617041Y0125273D01*
X0616738Y0125238D01*
X0616436Y0125195D01*
X0616135Y0125145D01*
X0615835Y0125088D01*
X0615537Y0125023D01*
X0615241Y0124951D01*
X0614946Y0124872D01*
X0614653Y0124785D01*
X0614363Y0124692D01*
X0614075Y0124591D01*
X0613789Y0124483D01*
X0613506Y0124369D01*
X0613226Y0124247D01*
X0612949Y0124119D01*
X0612676Y0123984D01*
X0612406Y0123843D01*
X0612139Y0123694D01*
X0611876Y0123540D01*
X0611617Y0123379D01*
X0611361Y0123211D01*
X0611110Y0123038D01*
X0610864Y0122858D01*
X0610622Y0122672D01*
X0610384Y0122481D01*
X0610151Y0122284D01*
X0609923Y0122081D01*
X0609700Y0121872D01*
X0609482Y0121659D01*
X0609270Y0121440D01*
X0609063Y0121216D01*
X0608861Y0120986D01*
X0608665Y0120752D01*
X0608475Y0120514D01*
X0608291Y0120270D01*
X0608113Y0120023D01*
X0607941Y0119771D01*
X0607775Y0119514D01*
X0607616Y0119254D01*
X0607462Y0118990D01*
X0607316Y0118723D01*
X0607176Y0118452D01*
X0607042Y0118177D01*
X0606916Y0117900D01*
X0606796Y0117619D01*
X0606683Y0117335D01*
X0606577Y0117049D01*
X0606478Y0116761D01*
X0606386Y0116470D01*
X0606302Y0116176D01*
X0606224Y0115881D01*
X0606154Y0115584D01*
X0606091Y0115286D01*
X0606035Y0114986D01*
X0605987Y0114684D01*
X0605946Y0114382D01*
X0605913Y0114079D01*
X0605887Y0113775D01*
X0605868Y0113470D01*
X0605857Y0113165D01*
X0605853Y0112860D01*
X0605857Y0112555D01*
X0605868Y0112250D01*
X0605887Y0111945D01*
X0605913Y0111641D01*
X0605946Y0111338D01*
X0605987Y0111036D01*
X0606035Y0110734D01*
X0606091Y0110434D01*
X0606154Y0110136D01*
X0606224Y0109839D01*
X0606302Y0109544D01*
X0606386Y0109250D01*
X0606478Y0108959D01*
X0606577Y0108671D01*
X0606683Y0108385D01*
X0606796Y0108101D01*
X0606916Y0107820D01*
X0607042Y0107543D01*
X0607176Y0107268D01*
X0607316Y0106997D01*
X0607462Y0106730D01*
X0607616Y0106466D01*
X0607775Y0106206D01*
X0607941Y0105949D01*
X0608113Y0105697D01*
X0608291Y0105450D01*
X0608475Y0105206D01*
X0608665Y0104968D01*
X0608861Y0104734D01*
X0609063Y0104504D01*
X0609270Y0104280D01*
X0609482Y0104061D01*
X0609700Y0103848D01*
X0609923Y0103639D01*
X0610151Y0103436D01*
X0610384Y0103239D01*
X0610622Y0103048D01*
X0610864Y0102862D01*
X0611110Y0102682D01*
X0611361Y0102509D01*
X0611617Y0102341D01*
X0611876Y0102180D01*
X0612139Y0102026D01*
X0612406Y0101877D01*
X0612676Y0101736D01*
X0612949Y0101601D01*
X0613226Y0101473D01*
X0613506Y0101351D01*
X0613789Y0101237D01*
X0614075Y0101129D01*
X0614363Y0101028D01*
X0614653Y0100935D01*
X0614946Y0100848D01*
X0615241Y0100769D01*
X0615537Y0100697D01*
X0615835Y0100632D01*
X0616135Y0100575D01*
X0616436Y0100525D01*
X0616738Y0100482D01*
X0617041Y0100447D01*
X0617345Y0100419D01*
X0617650Y0100399D01*
X0617955Y0100386D01*
X0618260Y0100380D01*
X0618565Y0100382D01*
X0618870Y0100392D01*
X0619174Y0100408D01*
X0619479Y0100433D01*
X0619782Y0100464D01*
X0620085Y0100504D01*
X0620386Y0100550D01*
X0620687Y0100604D01*
X0620986Y0100665D01*
X0621283Y0100734D01*
X0621579Y0100809D01*
X0621872Y0100892D01*
X0622164Y0100982D01*
X0622453Y0101080D01*
X0622740Y0101184D01*
X0623024Y0101295D01*
X0623305Y0101413D01*
X0623584Y0101538D01*
X0623859Y0101670D01*
X0624131Y0101809D01*
X0624399Y0101954D01*
X0624664Y0102105D01*
X0624925Y0102263D01*
X0625182Y0102428D01*
X0625435Y0102598D01*
X0625684Y0102775D01*
X0625929Y0102958D01*
X0626168Y0103146D01*
X0626404Y0103341D01*
X0626634Y0103541D01*
X0626859Y0103747D01*
X0627080Y0103958D01*
X0627295Y0104174D01*
X0627504Y0104396D01*
X0627708Y0104623D01*
X0627907Y0104854D01*
X0628100Y0105091D01*
X0628287Y0105332D01*
X0628212Y0105388D01*
X0628026Y0105149D01*
X0627835Y0104914D01*
X0627638Y0104685D01*
X0627435Y0104460D01*
X0627227Y0104239D01*
X0627013Y0104025D01*
X0626795Y0103815D01*
X0626571Y0103611D01*
X0626343Y0103412D01*
X0626109Y0103219D01*
X0625871Y0103032D01*
X0625629Y0102851D01*
X0625382Y0102675D01*
X0625131Y0102506D01*
X0624875Y0102343D01*
X0624616Y0102186D01*
X0624353Y0102036D01*
X0624087Y0101892D01*
X0623817Y0101754D01*
X0623544Y0101623D01*
X0623268Y0101499D01*
X0622988Y0101382D01*
X0622706Y0101272D01*
X0622422Y0101168D01*
X0622135Y0101072D01*
X0621845Y0100982D01*
X0621554Y0100900D01*
X0621261Y0100825D01*
X0620965Y0100757D01*
X0620669Y0100696D01*
X0620371Y0100643D01*
X0620071Y0100597D01*
X0619771Y0100558D01*
X0619470Y0100526D01*
X0619168Y0100502D01*
X0618865Y0100485D01*
X0618563Y0100476D01*
X0618260Y0100474D01*
X0617957Y0100480D01*
X0617655Y0100493D01*
X0617352Y0100513D01*
X0617051Y0100541D01*
X0616750Y0100576D01*
X0616450Y0100618D01*
X0616151Y0100668D01*
X0615854Y0100725D01*
X0615558Y0100789D01*
X0615264Y0100860D01*
X0614971Y0100939D01*
X0614681Y0101025D01*
X0614392Y0101118D01*
X0614107Y0101217D01*
X0613823Y0101324D01*
X0613543Y0101438D01*
X0613265Y0101558D01*
X0612990Y0101686D01*
X0612718Y0101820D01*
X0612450Y0101960D01*
X0612185Y0102107D01*
X0611924Y0102261D01*
X0611667Y0102421D01*
X0611414Y0102587D01*
X0611165Y0102759D01*
X0610920Y0102937D01*
X0610679Y0103122D01*
X0610444Y0103312D01*
X0610213Y0103507D01*
X0609986Y0103709D01*
X0609765Y0103915D01*
X0609549Y0104128D01*
X0609338Y0104345D01*
X0609133Y0104567D01*
X0608933Y0104795D01*
X0608738Y0105027D01*
X0608550Y0105264D01*
X0608367Y0105506D01*
X0608190Y0105751D01*
X0608019Y0106002D01*
X0607855Y0106256D01*
X0607696Y0106514D01*
X0607544Y0106776D01*
X0607399Y0107041D01*
X0607260Y0107310D01*
X0607127Y0107583D01*
X0607002Y0107858D01*
X0606883Y0108137D01*
X0606771Y0108418D01*
X0606666Y0108702D01*
X0606567Y0108989D01*
X0606476Y0109278D01*
X0606392Y0109569D01*
X0606315Y0109862D01*
X0606246Y0110156D01*
X0606183Y0110453D01*
X0606128Y0110750D01*
X0606080Y0111049D01*
X0606039Y0111349D01*
X0606006Y0111651D01*
X0605980Y0111952D01*
X0605962Y0112255D01*
X0605951Y0112557D01*
X0605947Y0112860D01*
X0605951Y0113163D01*
X0605962Y0113465D01*
X0605980Y0113768D01*
X0606006Y0114069D01*
X0606039Y0114371D01*
X0606080Y0114671D01*
X0606128Y0114970D01*
X0606183Y0115267D01*
X0606246Y0115564D01*
X0606315Y0115858D01*
X0606392Y0116151D01*
X0606476Y0116442D01*
X0606567Y0116731D01*
X0606666Y0117018D01*
X0606771Y0117302D01*
X0606883Y0117583D01*
X0607002Y0117862D01*
X0607127Y0118137D01*
X0607260Y0118410D01*
X0607399Y0118679D01*
X0607544Y0118944D01*
X0607696Y0119206D01*
X0607855Y0119464D01*
X0608019Y0119718D01*
X0608190Y0119969D01*
X0608367Y0120214D01*
X0608550Y0120456D01*
X0608738Y0120693D01*
X0608933Y0120925D01*
X0609133Y0121153D01*
X0609338Y0121375D01*
X0609549Y0121592D01*
X0609765Y0121805D01*
X0609986Y0122011D01*
X0610213Y0122213D01*
X0610444Y0122408D01*
X0610679Y0122598D01*
X0610920Y0122783D01*
X0611165Y0122961D01*
X0611414Y0123133D01*
X0611667Y0123299D01*
X0611924Y0123459D01*
X0612185Y0123613D01*
X0612450Y0123760D01*
X0612718Y0123900D01*
X0612990Y0124034D01*
X0613265Y0124162D01*
X0613543Y0124282D01*
X0613823Y0124396D01*
X0614107Y0124503D01*
X0614392Y0124602D01*
X0614681Y0124695D01*
X0614971Y0124781D01*
X0615264Y0124860D01*
X0615558Y0124931D01*
X0615854Y0124995D01*
X0616151Y0125052D01*
X0616450Y0125102D01*
X0616750Y0125144D01*
X0617051Y0125179D01*
X0617352Y0125207D01*
X0617655Y0125227D01*
X0617957Y0125240D01*
X0618260Y0125246D01*
X0618563Y0125244D01*
X0618865Y0125235D01*
X0619168Y0125218D01*
X0619470Y0125194D01*
X0619771Y0125162D01*
X0620071Y0125123D01*
X0620371Y0125077D01*
X0620669Y0125024D01*
X0620965Y0124963D01*
X0621261Y0124895D01*
X0621554Y0124820D01*
X0621845Y0124738D01*
X0622135Y0124648D01*
X0622422Y0124552D01*
X0622706Y0124448D01*
X0622988Y0124338D01*
X0623268Y0124221D01*
X0623544Y0124097D01*
X0623817Y0123966D01*
X0624087Y0123828D01*
X0624353Y0123684D01*
X0624616Y0123534D01*
X0624875Y0123377D01*
X0625131Y0123214D01*
X0625382Y0123045D01*
X0625629Y0122869D01*
X0625871Y0122688D01*
X0626109Y0122501D01*
X0626343Y0122308D01*
X0626571Y0122109D01*
X0626795Y0121905D01*
X0627013Y0121695D01*
X0627227Y0121481D01*
X0627435Y0121260D01*
X0627638Y0121035D01*
X0627835Y0120806D01*
X0628026Y0120571D01*
X0628212Y0120332D01*
X0628137Y0120275D01*
X0627952Y0120513D01*
X0627762Y0120745D01*
X0627567Y0120974D01*
X0627366Y0121197D01*
X0627159Y0121415D01*
X0626947Y0121629D01*
X0626730Y0121837D01*
X0626508Y0122039D01*
X0626281Y0122236D01*
X0626050Y0122428D01*
X0625814Y0122614D01*
X0625573Y0122794D01*
X0625328Y0122968D01*
X0625079Y0123136D01*
X0624825Y0123298D01*
X0624568Y0123453D01*
X0624307Y0123602D01*
X0624043Y0123745D01*
X0623775Y0123882D01*
X0623504Y0124011D01*
X0623230Y0124134D01*
X0622953Y0124251D01*
X0622673Y0124360D01*
X0622390Y0124463D01*
X0622106Y0124559D01*
X0621818Y0124647D01*
X0621529Y0124729D01*
X0621238Y0124804D01*
X0620945Y0124871D01*
X0620651Y0124932D01*
X0620355Y0124985D01*
X0620058Y0125030D01*
X0619760Y0125069D01*
X0619461Y0125100D01*
X0619161Y0125124D01*
X0618861Y0125141D01*
X0618561Y0125150D01*
X0618260Y0125152D01*
X0617960Y0125146D01*
X0617659Y0125134D01*
X0617360Y0125113D01*
X0617060Y0125086D01*
X0616762Y0125051D01*
X0616464Y0125009D01*
X0616168Y0124960D01*
X0615873Y0124903D01*
X0615579Y0124839D01*
X0615287Y0124769D01*
X0614997Y0124691D01*
X0614708Y0124605D01*
X0614422Y0124513D01*
X0614138Y0124414D01*
X0613857Y0124308D01*
X0613579Y0124195D01*
X0613303Y0124076D01*
X0613030Y0123949D01*
X0612761Y0123816D01*
X0612495Y0123677D01*
X0612232Y0123531D01*
X0611973Y0123379D01*
X0611717Y0123220D01*
X0611466Y0123055D01*
X0611219Y0122884D01*
X0610976Y0122707D01*
X0610737Y0122524D01*
X0610503Y0122336D01*
X0610274Y0122142D01*
X0610050Y0121942D01*
X0609830Y0121737D01*
X0609616Y0121526D01*
X0609406Y0121310D01*
X0609202Y0121090D01*
X0609004Y0120864D01*
X0608811Y0120633D01*
X0608624Y0120398D01*
X0608442Y0120159D01*
X0608267Y0119915D01*
X0608097Y0119666D01*
X0607934Y0119414D01*
X0607777Y0119158D01*
X0607626Y0118898D01*
X0607482Y0118634D01*
X0607344Y0118367D01*
X0607212Y0118097D01*
X0607088Y0117824D01*
X0606970Y0117547D01*
X0606859Y0117268D01*
X0606754Y0116986D01*
X0606657Y0116702D01*
X0606566Y0116415D01*
X0606483Y0116126D01*
X0606407Y0115836D01*
X0606337Y0115543D01*
X0606275Y0115249D01*
X0606221Y0114954D01*
X0606173Y0114657D01*
X0606133Y0114359D01*
X0606100Y0114060D01*
X0606074Y0113761D01*
X0606056Y0113461D01*
X0606045Y0113161D01*
X0606041Y0112860D01*
X0606045Y0112559D01*
X0606056Y0112259D01*
X0606074Y0111959D01*
X0606100Y0111660D01*
X0606133Y0111361D01*
X0606173Y0111063D01*
X0606221Y0110766D01*
X0606275Y0110471D01*
X0606337Y0110177D01*
X0606407Y0109884D01*
X0606483Y0109594D01*
X0606566Y0109305D01*
X0606657Y0109018D01*
X0606754Y0108734D01*
X0606859Y0108452D01*
X0606970Y0108173D01*
X0607088Y0107896D01*
X0607212Y0107623D01*
X0607344Y0107353D01*
X0607482Y0107086D01*
X0607626Y0106822D01*
X0607777Y0106562D01*
X0607934Y0106306D01*
X0608097Y0106054D01*
X0608267Y0105805D01*
X0608442Y0105561D01*
X0608624Y0105322D01*
X0608811Y0105087D01*
X0609004Y0104856D01*
X0609202Y0104630D01*
X0609406Y0104410D01*
X0609616Y0104194D01*
X0609830Y0103983D01*
X0610050Y0103778D01*
X0610274Y0103578D01*
X0610503Y0103384D01*
X0610737Y0103196D01*
X0610976Y0103013D01*
X0611219Y0102836D01*
X0611466Y0102665D01*
X0611717Y0102500D01*
X0611973Y0102341D01*
X0612232Y0102189D01*
X0612495Y0102043D01*
X0612761Y0101904D01*
X0613030Y0101771D01*
X0613303Y0101644D01*
X0613579Y0101525D01*
X0613857Y0101412D01*
X0614138Y0101306D01*
X0614422Y0101207D01*
X0614708Y0101115D01*
X0614997Y0101029D01*
X0615287Y0100951D01*
X0615579Y0100881D01*
X0615873Y0100817D01*
X0616168Y0100760D01*
X0616464Y0100711D01*
X0616762Y0100669D01*
X0617060Y0100634D01*
X0617360Y0100607D01*
X0617659Y0100586D01*
X0617960Y0100574D01*
X0618260Y0100568D01*
X0618561Y0100570D01*
X0618861Y0100579D01*
X0619161Y0100596D01*
X0619461Y0100620D01*
X0619760Y0100651D01*
X0620058Y0100690D01*
X0620355Y0100735D01*
X0620651Y0100788D01*
X0620945Y0100849D01*
X0621238Y0100916D01*
X0621529Y0100991D01*
X0621818Y0101073D01*
X0622106Y0101161D01*
X0622390Y0101257D01*
X0622673Y0101360D01*
X0622953Y0101469D01*
X0623230Y0101586D01*
X0623504Y0101709D01*
X0623775Y0101838D01*
X0624043Y0101975D01*
X0624307Y0102118D01*
X0624568Y0102267D01*
X0624825Y0102422D01*
X0625079Y0102584D01*
X0625328Y0102752D01*
X0625573Y0102926D01*
X0625814Y0103106D01*
X0626050Y0103292D01*
X0626281Y0103484D01*
X0626508Y0103681D01*
X0626730Y0103883D01*
X0626947Y0104091D01*
X0627159Y0104305D01*
X0627366Y0104523D01*
X0627567Y0104746D01*
X0627762Y0104975D01*
X0627952Y0105207D01*
X0628137Y0105445D01*
X0628061Y0105501D01*
X0627879Y0105266D01*
X0627690Y0105035D01*
X0627496Y0104808D01*
X0627296Y0104586D01*
X0627091Y0104370D01*
X0626881Y0104158D01*
X0626666Y0103952D01*
X0626446Y0103751D01*
X0626220Y0103555D01*
X0625991Y0103365D01*
X0625756Y0103181D01*
X0625517Y0103002D01*
X0625274Y0102829D01*
X0625027Y0102663D01*
X0624775Y0102502D01*
X0624520Y0102348D01*
X0624261Y0102200D01*
X0623999Y0102058D01*
X0623733Y0101923D01*
X0623464Y0101794D01*
X0623192Y0101672D01*
X0622917Y0101556D01*
X0622639Y0101447D01*
X0622359Y0101346D01*
X0622076Y0101251D01*
X0621791Y0101163D01*
X0621504Y0101082D01*
X0621216Y0101007D01*
X0620925Y0100941D01*
X0620633Y0100881D01*
X0620339Y0100828D01*
X0620044Y0100783D01*
X0619749Y0100744D01*
X0619452Y0100713D01*
X0619155Y0100690D01*
X0618857Y0100673D01*
X0618559Y0100664D01*
X0618261Y0100662D01*
X0617962Y0100668D01*
X0617664Y0100680D01*
X0617367Y0100700D01*
X0617070Y0100728D01*
X0616774Y0100762D01*
X0616478Y0100804D01*
X0616184Y0100853D01*
X0615891Y0100909D01*
X0615600Y0100972D01*
X0615310Y0101043D01*
X0615022Y0101120D01*
X0614736Y0101204D01*
X0614452Y0101296D01*
X0614170Y0101394D01*
X0613891Y0101499D01*
X0613615Y0101611D01*
X0613341Y0101730D01*
X0613071Y0101855D01*
X0612803Y0101987D01*
X0612539Y0102126D01*
X0612278Y0102271D01*
X0612021Y0102422D01*
X0611768Y0102579D01*
X0611519Y0102743D01*
X0611273Y0102913D01*
X0611032Y0103088D01*
X0610795Y0103270D01*
X0610563Y0103457D01*
X0610336Y0103649D01*
X0610113Y0103848D01*
X0609895Y0104051D01*
X0609682Y0104260D01*
X0609474Y0104474D01*
X0609272Y0104694D01*
X0609075Y0104917D01*
X0608884Y0105146D01*
X0608698Y0105380D01*
X0608518Y0105617D01*
X0608344Y0105859D01*
X0608176Y0106106D01*
X0608014Y0106356D01*
X0607858Y0106610D01*
X0607708Y0106868D01*
X0607565Y0107130D01*
X0607428Y0107395D01*
X0607297Y0107663D01*
X0607174Y0107934D01*
X0607057Y0108209D01*
X0606946Y0108486D01*
X0606843Y0108766D01*
X0606746Y0109048D01*
X0606656Y0109332D01*
X0606574Y0109619D01*
X0606498Y0109907D01*
X0606429Y0110197D01*
X0606368Y0110489D01*
X0606313Y0110782D01*
X0606266Y0111077D01*
X0606226Y0111372D01*
X0606193Y0111669D01*
X0606168Y0111966D01*
X0606150Y0112264D01*
X0606139Y0112562D01*
X0606135Y0112860D01*
X0606139Y0113158D01*
X0606150Y0113456D01*
X0606168Y0113754D01*
X0606193Y0114051D01*
X0606226Y0114348D01*
X0606266Y0114643D01*
X0606313Y0114938D01*
X0606368Y0115231D01*
X0606429Y0115523D01*
X0606498Y0115813D01*
X0606574Y0116101D01*
X0606656Y0116388D01*
X0606746Y0116672D01*
X0606843Y0116954D01*
X0606946Y0117234D01*
X0607057Y0117511D01*
X0607174Y0117786D01*
X0607297Y0118057D01*
X0607428Y0118325D01*
X0607565Y0118590D01*
X0607708Y0118852D01*
X0607858Y0119110D01*
X0608014Y0119364D01*
X0608176Y0119614D01*
X0608344Y0119861D01*
X0608518Y0120103D01*
X0608698Y0120340D01*
X0608884Y0120574D01*
X0609075Y0120803D01*
X0609272Y0121026D01*
X0609474Y0121246D01*
X0609682Y0121460D01*
X0609895Y0121669D01*
X0610113Y0121872D01*
X0610336Y0122071D01*
X0610563Y0122263D01*
X0610795Y0122450D01*
X0611032Y0122632D01*
X0611273Y0122807D01*
X0611519Y0122977D01*
X0611768Y0123141D01*
X0612021Y0123298D01*
X0612278Y0123449D01*
X0612539Y0123594D01*
X0612803Y0123733D01*
X0613071Y0123865D01*
X0613341Y0123990D01*
X0613615Y0124109D01*
X0613891Y0124221D01*
X0614170Y0124326D01*
X0614452Y0124424D01*
X0614736Y0124516D01*
X0615022Y0124600D01*
X0615310Y0124677D01*
X0615600Y0124748D01*
X0615891Y0124811D01*
X0616184Y0124867D01*
X0616478Y0124916D01*
X0616774Y0124958D01*
X0617070Y0124992D01*
X0617367Y0125020D01*
X0617664Y0125040D01*
X0617962Y0125052D01*
X0618261Y0125058D01*
X0618559Y0125056D01*
X0618857Y0125047D01*
X0619155Y0125030D01*
X0619452Y0125007D01*
X0619749Y0124976D01*
X0620044Y0124937D01*
X0620339Y0124892D01*
X0620633Y0124839D01*
X0620925Y0124779D01*
X0621216Y0124713D01*
X0621504Y0124638D01*
X0621791Y0124557D01*
X0622076Y0124469D01*
X0622359Y0124374D01*
X0622639Y0124273D01*
X0622917Y0124164D01*
X0623192Y0124048D01*
X0623464Y0123926D01*
X0623733Y0123797D01*
X0623999Y0123662D01*
X0624261Y0123520D01*
X0624520Y0123372D01*
X0624775Y0123218D01*
X0625027Y0123057D01*
X0625274Y0122891D01*
X0625517Y0122718D01*
X0625756Y0122539D01*
X0625991Y0122355D01*
X0626220Y0122165D01*
X0626446Y0121969D01*
X0626666Y0121768D01*
X0626881Y0121562D01*
X0627091Y0121350D01*
X0627296Y0121134D01*
X0627496Y0120912D01*
X0627690Y0120685D01*
X0627879Y0120454D01*
X0628061Y0120219D01*
X0627986Y0120162D01*
X0627805Y0120396D01*
X0627618Y0120625D01*
X0627425Y0120850D01*
X0627227Y0121070D01*
X0627024Y0121285D01*
X0626815Y0121495D01*
X0626601Y0121700D01*
X0626383Y0121899D01*
X0626159Y0122093D01*
X0625931Y0122282D01*
X0625699Y0122465D01*
X0625462Y0122642D01*
X0625220Y0122813D01*
X0624975Y0122979D01*
X0624726Y0123138D01*
X0624472Y0123291D01*
X0624216Y0123438D01*
X0623955Y0123579D01*
X0623691Y0123713D01*
X0623424Y0123841D01*
X0623154Y0123962D01*
X0622882Y0124077D01*
X0622606Y0124185D01*
X0622328Y0124286D01*
X0622047Y0124380D01*
X0621765Y0124467D01*
X0621480Y0124548D01*
X0621193Y0124621D01*
X0620905Y0124688D01*
X0620615Y0124747D01*
X0620323Y0124799D01*
X0620031Y0124844D01*
X0619737Y0124882D01*
X0619443Y0124913D01*
X0619148Y0124937D01*
X0618853Y0124953D01*
X0618557Y0124962D01*
X0618261Y0124964D01*
X0617965Y0124958D01*
X0617669Y0124946D01*
X0617374Y0124926D01*
X0617079Y0124899D01*
X0616785Y0124865D01*
X0616492Y0124823D01*
X0616200Y0124775D01*
X0615910Y0124719D01*
X0615621Y0124656D01*
X0615333Y0124586D01*
X0615047Y0124509D01*
X0614763Y0124426D01*
X0614482Y0124335D01*
X0614202Y0124237D01*
X0613925Y0124133D01*
X0613651Y0124022D01*
X0613380Y0123904D01*
X0613111Y0123780D01*
X0612846Y0123649D01*
X0612584Y0123511D01*
X0612325Y0123368D01*
X0612070Y0123218D01*
X0611818Y0123061D01*
X0611571Y0122899D01*
X0611328Y0122731D01*
X0611088Y0122556D01*
X0610853Y0122376D01*
X0610623Y0122191D01*
X0610397Y0121999D01*
X0610176Y0121803D01*
X0609960Y0121601D01*
X0609749Y0121393D01*
X0609543Y0121181D01*
X0609342Y0120963D01*
X0609146Y0120741D01*
X0608956Y0120514D01*
X0608772Y0120283D01*
X0608594Y0120047D01*
X0608421Y0119807D01*
X0608254Y0119562D01*
X0608093Y0119314D01*
X0607938Y0119061D01*
X0607790Y0118805D01*
X0607648Y0118546D01*
X0607512Y0118283D01*
X0607382Y0118017D01*
X0607260Y0117748D01*
X0607143Y0117475D01*
X0607034Y0117200D01*
X0606931Y0116923D01*
X0606835Y0116643D01*
X0606746Y0116361D01*
X0606664Y0116076D01*
X0606589Y0115790D01*
X0606521Y0115502D01*
X0606460Y0115213D01*
X0606406Y0114922D01*
X0606359Y0114629D01*
X0606319Y0114336D01*
X0606287Y0114042D01*
X0606262Y0113747D01*
X0606243Y0113452D01*
X0606233Y0113156D01*
X0606229Y0112860D01*
X0606233Y0112564D01*
X0606243Y0112268D01*
X0606262Y0111973D01*
X0606287Y0111678D01*
X0606319Y0111384D01*
X0606359Y0111091D01*
X0606406Y0110798D01*
X0606460Y0110507D01*
X0606521Y0110218D01*
X0606589Y0109930D01*
X0606664Y0109644D01*
X0606746Y0109359D01*
X0606835Y0109077D01*
X0606931Y0108797D01*
X0607034Y0108520D01*
X0607143Y0108245D01*
X0607260Y0107972D01*
X0607382Y0107703D01*
X0607512Y0107437D01*
X0607648Y0107174D01*
X0607790Y0106915D01*
X0607938Y0106659D01*
X0608093Y0106406D01*
X0608254Y0106158D01*
X0608421Y0105913D01*
X0608594Y0105673D01*
X0608772Y0105437D01*
X0608956Y0105206D01*
X0609146Y0104979D01*
X0609342Y0104757D01*
X0609543Y0104539D01*
X0609749Y0104327D01*
X0609960Y0104119D01*
X0610176Y0103917D01*
X0610397Y0103721D01*
X0610623Y0103529D01*
X0610853Y0103344D01*
X0611088Y0103164D01*
X0611328Y0102989D01*
X0611571Y0102821D01*
X0611818Y0102659D01*
X0612070Y0102502D01*
X0612325Y0102352D01*
X0612584Y0102209D01*
X0612846Y0102071D01*
X0613111Y0101940D01*
X0613380Y0101816D01*
X0613651Y0101698D01*
X0613925Y0101587D01*
X0614202Y0101483D01*
X0614482Y0101385D01*
X0614763Y0101294D01*
X0615047Y0101211D01*
X0615333Y0101134D01*
X0615621Y0101064D01*
X0615910Y0101001D01*
X0616200Y0100945D01*
X0616492Y0100897D01*
X0616785Y0100855D01*
X0617079Y0100821D01*
X0617374Y0100794D01*
X0617669Y0100774D01*
X0617965Y0100762D01*
X0618261Y0100756D01*
X0618557Y0100758D01*
X0618853Y0100767D01*
X0619148Y0100783D01*
X0619443Y0100807D01*
X0619737Y0100838D01*
X0620031Y0100876D01*
X0620323Y0100921D01*
X0620615Y0100973D01*
X0620905Y0101032D01*
X0621193Y0101099D01*
X0621480Y0101172D01*
X0621765Y0101253D01*
X0622047Y0101340D01*
X0622328Y0101434D01*
X0622606Y0101535D01*
X0622882Y0101643D01*
X0623154Y0101758D01*
X0623424Y0101879D01*
X0623691Y0102007D01*
X0623955Y0102141D01*
X0624216Y0102282D01*
X0624472Y0102429D01*
X0624726Y0102582D01*
X0624975Y0102741D01*
X0625220Y0102907D01*
X0625462Y0103078D01*
X0625699Y0103255D01*
X0625931Y0103438D01*
X0626159Y0103627D01*
X0626383Y0103821D01*
X0626601Y0104020D01*
X0626815Y0104225D01*
X0627024Y0104435D01*
X0627227Y0104650D01*
X0627425Y0104870D01*
X0627618Y0105095D01*
X0627805Y0105324D01*
X0627986Y0105558D01*
D14*
X0608333Y0112860D02*
X0608336Y0113105D01*
X0608345Y0113351D01*
X0608360Y0113596D01*
X0608381Y0113840D01*
X0608408Y0114084D01*
X0608441Y0114327D01*
X0608480Y0114570D01*
X0608525Y0114811D01*
X0608576Y0115051D01*
X0608633Y0115290D01*
X0608695Y0115527D01*
X0608764Y0115763D01*
X0608838Y0115997D01*
X0608918Y0116229D01*
X0609003Y0116459D01*
X0609094Y0116687D01*
X0609191Y0116912D01*
X0609293Y0117136D01*
X0609401Y0117356D01*
X0609514Y0117574D01*
X0609632Y0117789D01*
X0609756Y0118001D01*
X0609884Y0118210D01*
X0610018Y0118416D01*
X0610157Y0118618D01*
X0610301Y0118817D01*
X0610450Y0119012D01*
X0610603Y0119204D01*
X0610761Y0119392D01*
X0610923Y0119576D01*
X0611091Y0119755D01*
X0611262Y0119931D01*
X0611438Y0120102D01*
X0611617Y0120270D01*
X0611801Y0120432D01*
X0611989Y0120590D01*
X0612181Y0120743D01*
X0612376Y0120892D01*
X0612575Y0121036D01*
X0612777Y0121175D01*
X0612983Y0121309D01*
X0613192Y0121437D01*
X0613404Y0121561D01*
X0613619Y0121679D01*
X0613837Y0121792D01*
X0614057Y0121900D01*
X0614281Y0122002D01*
X0614506Y0122099D01*
X0614734Y0122190D01*
X0614964Y0122275D01*
X0615196Y0122355D01*
X0615430Y0122429D01*
X0615666Y0122498D01*
X0615903Y0122560D01*
X0616142Y0122617D01*
X0616382Y0122668D01*
X0616623Y0122713D01*
X0616866Y0122752D01*
X0617109Y0122785D01*
X0617353Y0122812D01*
X0617597Y0122833D01*
X0617842Y0122848D01*
X0618088Y0122857D01*
X0618333Y0122860D01*
X0618578Y0122857D01*
X0618824Y0122848D01*
X0619069Y0122833D01*
X0619313Y0122812D01*
X0619557Y0122785D01*
X0619800Y0122752D01*
X0620043Y0122713D01*
X0620284Y0122668D01*
X0620524Y0122617D01*
X0620763Y0122560D01*
X0621000Y0122498D01*
X0621236Y0122429D01*
X0621470Y0122355D01*
X0621702Y0122275D01*
X0621932Y0122190D01*
X0622160Y0122099D01*
X0622385Y0122002D01*
X0622609Y0121900D01*
X0622829Y0121792D01*
X0623047Y0121679D01*
X0623262Y0121561D01*
X0623474Y0121437D01*
X0623683Y0121309D01*
X0623889Y0121175D01*
X0624091Y0121036D01*
X0624290Y0120892D01*
X0624485Y0120743D01*
X0624677Y0120590D01*
X0624865Y0120432D01*
X0625049Y0120270D01*
X0625228Y0120102D01*
X0625404Y0119931D01*
X0625575Y0119755D01*
X0625743Y0119576D01*
X0625905Y0119392D01*
X0626063Y0119204D01*
X0626216Y0119012D01*
X0626365Y0118817D01*
X0626509Y0118618D01*
X0626648Y0118416D01*
X0626782Y0118210D01*
X0626910Y0118001D01*
X0627034Y0117789D01*
X0627152Y0117574D01*
X0627265Y0117356D01*
X0627373Y0117136D01*
X0627475Y0116912D01*
X0627572Y0116687D01*
X0627663Y0116459D01*
X0627748Y0116229D01*
X0627828Y0115997D01*
X0627902Y0115763D01*
X0627971Y0115527D01*
X0628033Y0115290D01*
X0628090Y0115051D01*
X0628141Y0114811D01*
X0628186Y0114570D01*
X0628225Y0114327D01*
X0628258Y0114084D01*
X0628285Y0113840D01*
X0628306Y0113596D01*
X0628321Y0113351D01*
X0628330Y0113105D01*
X0628333Y0112860D01*
X0628330Y0112615D01*
X0628321Y0112369D01*
X0628306Y0112124D01*
X0628285Y0111880D01*
X0628258Y0111636D01*
X0628225Y0111393D01*
X0628186Y0111150D01*
X0628141Y0110909D01*
X0628090Y0110669D01*
X0628033Y0110430D01*
X0627971Y0110193D01*
X0627902Y0109957D01*
X0627828Y0109723D01*
X0627748Y0109491D01*
X0627663Y0109261D01*
X0627572Y0109033D01*
X0627475Y0108808D01*
X0627373Y0108584D01*
X0627265Y0108364D01*
X0627152Y0108146D01*
X0627034Y0107931D01*
X0626910Y0107719D01*
X0626782Y0107510D01*
X0626648Y0107304D01*
X0626509Y0107102D01*
X0626365Y0106903D01*
X0626216Y0106708D01*
X0626063Y0106516D01*
X0625905Y0106328D01*
X0625743Y0106144D01*
X0625575Y0105965D01*
X0625404Y0105789D01*
X0625228Y0105618D01*
X0625049Y0105450D01*
X0624865Y0105288D01*
X0624677Y0105130D01*
X0624485Y0104977D01*
X0624290Y0104828D01*
X0624091Y0104684D01*
X0623889Y0104545D01*
X0623683Y0104411D01*
X0623474Y0104283D01*
X0623262Y0104159D01*
X0623047Y0104041D01*
X0622829Y0103928D01*
X0622609Y0103820D01*
X0622385Y0103718D01*
X0622160Y0103621D01*
X0621932Y0103530D01*
X0621702Y0103445D01*
X0621470Y0103365D01*
X0621236Y0103291D01*
X0621000Y0103222D01*
X0620763Y0103160D01*
X0620524Y0103103D01*
X0620284Y0103052D01*
X0620043Y0103007D01*
X0619800Y0102968D01*
X0619557Y0102935D01*
X0619313Y0102908D01*
X0619069Y0102887D01*
X0618824Y0102872D01*
X0618578Y0102863D01*
X0618333Y0102860D01*
X0618088Y0102863D01*
X0617842Y0102872D01*
X0617597Y0102887D01*
X0617353Y0102908D01*
X0617109Y0102935D01*
X0616866Y0102968D01*
X0616623Y0103007D01*
X0616382Y0103052D01*
X0616142Y0103103D01*
X0615903Y0103160D01*
X0615666Y0103222D01*
X0615430Y0103291D01*
X0615196Y0103365D01*
X0614964Y0103445D01*
X0614734Y0103530D01*
X0614506Y0103621D01*
X0614281Y0103718D01*
X0614057Y0103820D01*
X0613837Y0103928D01*
X0613619Y0104041D01*
X0613404Y0104159D01*
X0613192Y0104283D01*
X0612983Y0104411D01*
X0612777Y0104545D01*
X0612575Y0104684D01*
X0612376Y0104828D01*
X0612181Y0104977D01*
X0611989Y0105130D01*
X0611801Y0105288D01*
X0611617Y0105450D01*
X0611438Y0105618D01*
X0611262Y0105789D01*
X0611091Y0105965D01*
X0610923Y0106144D01*
X0610761Y0106328D01*
X0610603Y0106516D01*
X0610450Y0106708D01*
X0610301Y0106903D01*
X0610157Y0107102D01*
X0610018Y0107304D01*
X0609884Y0107510D01*
X0609756Y0107719D01*
X0609632Y0107931D01*
X0609514Y0108146D01*
X0609401Y0108364D01*
X0609293Y0108584D01*
X0609191Y0108808D01*
X0609094Y0109033D01*
X0609003Y0109261D01*
X0608918Y0109491D01*
X0608838Y0109723D01*
X0608764Y0109957D01*
X0608695Y0110193D01*
X0608633Y0110430D01*
X0608576Y0110669D01*
X0608525Y0110909D01*
X0608480Y0111150D01*
X0608441Y0111393D01*
X0608408Y0111636D01*
X0608381Y0111880D01*
X0608360Y0112124D01*
X0608345Y0112369D01*
X0608336Y0112615D01*
X0608333Y0112860D01*
X0608333Y0072860D02*
X0608336Y0073105D01*
X0608345Y0073351D01*
X0608360Y0073596D01*
X0608381Y0073840D01*
X0608408Y0074084D01*
X0608441Y0074327D01*
X0608480Y0074570D01*
X0608525Y0074811D01*
X0608576Y0075051D01*
X0608633Y0075290D01*
X0608695Y0075527D01*
X0608764Y0075763D01*
X0608838Y0075997D01*
X0608918Y0076229D01*
X0609003Y0076459D01*
X0609094Y0076687D01*
X0609191Y0076912D01*
X0609293Y0077136D01*
X0609401Y0077356D01*
X0609514Y0077574D01*
X0609632Y0077789D01*
X0609756Y0078001D01*
X0609884Y0078210D01*
X0610018Y0078416D01*
X0610157Y0078618D01*
X0610301Y0078817D01*
X0610450Y0079012D01*
X0610603Y0079204D01*
X0610761Y0079392D01*
X0610923Y0079576D01*
X0611091Y0079755D01*
X0611262Y0079931D01*
X0611438Y0080102D01*
X0611617Y0080270D01*
X0611801Y0080432D01*
X0611989Y0080590D01*
X0612181Y0080743D01*
X0612376Y0080892D01*
X0612575Y0081036D01*
X0612777Y0081175D01*
X0612983Y0081309D01*
X0613192Y0081437D01*
X0613404Y0081561D01*
X0613619Y0081679D01*
X0613837Y0081792D01*
X0614057Y0081900D01*
X0614281Y0082002D01*
X0614506Y0082099D01*
X0614734Y0082190D01*
X0614964Y0082275D01*
X0615196Y0082355D01*
X0615430Y0082429D01*
X0615666Y0082498D01*
X0615903Y0082560D01*
X0616142Y0082617D01*
X0616382Y0082668D01*
X0616623Y0082713D01*
X0616866Y0082752D01*
X0617109Y0082785D01*
X0617353Y0082812D01*
X0617597Y0082833D01*
X0617842Y0082848D01*
X0618088Y0082857D01*
X0618333Y0082860D01*
X0618578Y0082857D01*
X0618824Y0082848D01*
X0619069Y0082833D01*
X0619313Y0082812D01*
X0619557Y0082785D01*
X0619800Y0082752D01*
X0620043Y0082713D01*
X0620284Y0082668D01*
X0620524Y0082617D01*
X0620763Y0082560D01*
X0621000Y0082498D01*
X0621236Y0082429D01*
X0621470Y0082355D01*
X0621702Y0082275D01*
X0621932Y0082190D01*
X0622160Y0082099D01*
X0622385Y0082002D01*
X0622609Y0081900D01*
X0622829Y0081792D01*
X0623047Y0081679D01*
X0623262Y0081561D01*
X0623474Y0081437D01*
X0623683Y0081309D01*
X0623889Y0081175D01*
X0624091Y0081036D01*
X0624290Y0080892D01*
X0624485Y0080743D01*
X0624677Y0080590D01*
X0624865Y0080432D01*
X0625049Y0080270D01*
X0625228Y0080102D01*
X0625404Y0079931D01*
X0625575Y0079755D01*
X0625743Y0079576D01*
X0625905Y0079392D01*
X0626063Y0079204D01*
X0626216Y0079012D01*
X0626365Y0078817D01*
X0626509Y0078618D01*
X0626648Y0078416D01*
X0626782Y0078210D01*
X0626910Y0078001D01*
X0627034Y0077789D01*
X0627152Y0077574D01*
X0627265Y0077356D01*
X0627373Y0077136D01*
X0627475Y0076912D01*
X0627572Y0076687D01*
X0627663Y0076459D01*
X0627748Y0076229D01*
X0627828Y0075997D01*
X0627902Y0075763D01*
X0627971Y0075527D01*
X0628033Y0075290D01*
X0628090Y0075051D01*
X0628141Y0074811D01*
X0628186Y0074570D01*
X0628225Y0074327D01*
X0628258Y0074084D01*
X0628285Y0073840D01*
X0628306Y0073596D01*
X0628321Y0073351D01*
X0628330Y0073105D01*
X0628333Y0072860D01*
X0628330Y0072615D01*
X0628321Y0072369D01*
X0628306Y0072124D01*
X0628285Y0071880D01*
X0628258Y0071636D01*
X0628225Y0071393D01*
X0628186Y0071150D01*
X0628141Y0070909D01*
X0628090Y0070669D01*
X0628033Y0070430D01*
X0627971Y0070193D01*
X0627902Y0069957D01*
X0627828Y0069723D01*
X0627748Y0069491D01*
X0627663Y0069261D01*
X0627572Y0069033D01*
X0627475Y0068808D01*
X0627373Y0068584D01*
X0627265Y0068364D01*
X0627152Y0068146D01*
X0627034Y0067931D01*
X0626910Y0067719D01*
X0626782Y0067510D01*
X0626648Y0067304D01*
X0626509Y0067102D01*
X0626365Y0066903D01*
X0626216Y0066708D01*
X0626063Y0066516D01*
X0625905Y0066328D01*
X0625743Y0066144D01*
X0625575Y0065965D01*
X0625404Y0065789D01*
X0625228Y0065618D01*
X0625049Y0065450D01*
X0624865Y0065288D01*
X0624677Y0065130D01*
X0624485Y0064977D01*
X0624290Y0064828D01*
X0624091Y0064684D01*
X0623889Y0064545D01*
X0623683Y0064411D01*
X0623474Y0064283D01*
X0623262Y0064159D01*
X0623047Y0064041D01*
X0622829Y0063928D01*
X0622609Y0063820D01*
X0622385Y0063718D01*
X0622160Y0063621D01*
X0621932Y0063530D01*
X0621702Y0063445D01*
X0621470Y0063365D01*
X0621236Y0063291D01*
X0621000Y0063222D01*
X0620763Y0063160D01*
X0620524Y0063103D01*
X0620284Y0063052D01*
X0620043Y0063007D01*
X0619800Y0062968D01*
X0619557Y0062935D01*
X0619313Y0062908D01*
X0619069Y0062887D01*
X0618824Y0062872D01*
X0618578Y0062863D01*
X0618333Y0062860D01*
X0618088Y0062863D01*
X0617842Y0062872D01*
X0617597Y0062887D01*
X0617353Y0062908D01*
X0617109Y0062935D01*
X0616866Y0062968D01*
X0616623Y0063007D01*
X0616382Y0063052D01*
X0616142Y0063103D01*
X0615903Y0063160D01*
X0615666Y0063222D01*
X0615430Y0063291D01*
X0615196Y0063365D01*
X0614964Y0063445D01*
X0614734Y0063530D01*
X0614506Y0063621D01*
X0614281Y0063718D01*
X0614057Y0063820D01*
X0613837Y0063928D01*
X0613619Y0064041D01*
X0613404Y0064159D01*
X0613192Y0064283D01*
X0612983Y0064411D01*
X0612777Y0064545D01*
X0612575Y0064684D01*
X0612376Y0064828D01*
X0612181Y0064977D01*
X0611989Y0065130D01*
X0611801Y0065288D01*
X0611617Y0065450D01*
X0611438Y0065618D01*
X0611262Y0065789D01*
X0611091Y0065965D01*
X0610923Y0066144D01*
X0610761Y0066328D01*
X0610603Y0066516D01*
X0610450Y0066708D01*
X0610301Y0066903D01*
X0610157Y0067102D01*
X0610018Y0067304D01*
X0609884Y0067510D01*
X0609756Y0067719D01*
X0609632Y0067931D01*
X0609514Y0068146D01*
X0609401Y0068364D01*
X0609293Y0068584D01*
X0609191Y0068808D01*
X0609094Y0069033D01*
X0609003Y0069261D01*
X0608918Y0069491D01*
X0608838Y0069723D01*
X0608764Y0069957D01*
X0608695Y0070193D01*
X0608633Y0070430D01*
X0608576Y0070669D01*
X0608525Y0070909D01*
X0608480Y0071150D01*
X0608441Y0071393D01*
X0608408Y0071636D01*
X0608381Y0071880D01*
X0608360Y0072124D01*
X0608345Y0072369D01*
X0608336Y0072615D01*
X0608333Y0072860D01*
X0608333Y0032860D02*
X0608336Y0033105D01*
X0608345Y0033351D01*
X0608360Y0033596D01*
X0608381Y0033840D01*
X0608408Y0034084D01*
X0608441Y0034327D01*
X0608480Y0034570D01*
X0608525Y0034811D01*
X0608576Y0035051D01*
X0608633Y0035290D01*
X0608695Y0035527D01*
X0608764Y0035763D01*
X0608838Y0035997D01*
X0608918Y0036229D01*
X0609003Y0036459D01*
X0609094Y0036687D01*
X0609191Y0036912D01*
X0609293Y0037136D01*
X0609401Y0037356D01*
X0609514Y0037574D01*
X0609632Y0037789D01*
X0609756Y0038001D01*
X0609884Y0038210D01*
X0610018Y0038416D01*
X0610157Y0038618D01*
X0610301Y0038817D01*
X0610450Y0039012D01*
X0610603Y0039204D01*
X0610761Y0039392D01*
X0610923Y0039576D01*
X0611091Y0039755D01*
X0611262Y0039931D01*
X0611438Y0040102D01*
X0611617Y0040270D01*
X0611801Y0040432D01*
X0611989Y0040590D01*
X0612181Y0040743D01*
X0612376Y0040892D01*
X0612575Y0041036D01*
X0612777Y0041175D01*
X0612983Y0041309D01*
X0613192Y0041437D01*
X0613404Y0041561D01*
X0613619Y0041679D01*
X0613837Y0041792D01*
X0614057Y0041900D01*
X0614281Y0042002D01*
X0614506Y0042099D01*
X0614734Y0042190D01*
X0614964Y0042275D01*
X0615196Y0042355D01*
X0615430Y0042429D01*
X0615666Y0042498D01*
X0615903Y0042560D01*
X0616142Y0042617D01*
X0616382Y0042668D01*
X0616623Y0042713D01*
X0616866Y0042752D01*
X0617109Y0042785D01*
X0617353Y0042812D01*
X0617597Y0042833D01*
X0617842Y0042848D01*
X0618088Y0042857D01*
X0618333Y0042860D01*
X0618578Y0042857D01*
X0618824Y0042848D01*
X0619069Y0042833D01*
X0619313Y0042812D01*
X0619557Y0042785D01*
X0619800Y0042752D01*
X0620043Y0042713D01*
X0620284Y0042668D01*
X0620524Y0042617D01*
X0620763Y0042560D01*
X0621000Y0042498D01*
X0621236Y0042429D01*
X0621470Y0042355D01*
X0621702Y0042275D01*
X0621932Y0042190D01*
X0622160Y0042099D01*
X0622385Y0042002D01*
X0622609Y0041900D01*
X0622829Y0041792D01*
X0623047Y0041679D01*
X0623262Y0041561D01*
X0623474Y0041437D01*
X0623683Y0041309D01*
X0623889Y0041175D01*
X0624091Y0041036D01*
X0624290Y0040892D01*
X0624485Y0040743D01*
X0624677Y0040590D01*
X0624865Y0040432D01*
X0625049Y0040270D01*
X0625228Y0040102D01*
X0625404Y0039931D01*
X0625575Y0039755D01*
X0625743Y0039576D01*
X0625905Y0039392D01*
X0626063Y0039204D01*
X0626216Y0039012D01*
X0626365Y0038817D01*
X0626509Y0038618D01*
X0626648Y0038416D01*
X0626782Y0038210D01*
X0626910Y0038001D01*
X0627034Y0037789D01*
X0627152Y0037574D01*
X0627265Y0037356D01*
X0627373Y0037136D01*
X0627475Y0036912D01*
X0627572Y0036687D01*
X0627663Y0036459D01*
X0627748Y0036229D01*
X0627828Y0035997D01*
X0627902Y0035763D01*
X0627971Y0035527D01*
X0628033Y0035290D01*
X0628090Y0035051D01*
X0628141Y0034811D01*
X0628186Y0034570D01*
X0628225Y0034327D01*
X0628258Y0034084D01*
X0628285Y0033840D01*
X0628306Y0033596D01*
X0628321Y0033351D01*
X0628330Y0033105D01*
X0628333Y0032860D01*
X0628330Y0032615D01*
X0628321Y0032369D01*
X0628306Y0032124D01*
X0628285Y0031880D01*
X0628258Y0031636D01*
X0628225Y0031393D01*
X0628186Y0031150D01*
X0628141Y0030909D01*
X0628090Y0030669D01*
X0628033Y0030430D01*
X0627971Y0030193D01*
X0627902Y0029957D01*
X0627828Y0029723D01*
X0627748Y0029491D01*
X0627663Y0029261D01*
X0627572Y0029033D01*
X0627475Y0028808D01*
X0627373Y0028584D01*
X0627265Y0028364D01*
X0627152Y0028146D01*
X0627034Y0027931D01*
X0626910Y0027719D01*
X0626782Y0027510D01*
X0626648Y0027304D01*
X0626509Y0027102D01*
X0626365Y0026903D01*
X0626216Y0026708D01*
X0626063Y0026516D01*
X0625905Y0026328D01*
X0625743Y0026144D01*
X0625575Y0025965D01*
X0625404Y0025789D01*
X0625228Y0025618D01*
X0625049Y0025450D01*
X0624865Y0025288D01*
X0624677Y0025130D01*
X0624485Y0024977D01*
X0624290Y0024828D01*
X0624091Y0024684D01*
X0623889Y0024545D01*
X0623683Y0024411D01*
X0623474Y0024283D01*
X0623262Y0024159D01*
X0623047Y0024041D01*
X0622829Y0023928D01*
X0622609Y0023820D01*
X0622385Y0023718D01*
X0622160Y0023621D01*
X0621932Y0023530D01*
X0621702Y0023445D01*
X0621470Y0023365D01*
X0621236Y0023291D01*
X0621000Y0023222D01*
X0620763Y0023160D01*
X0620524Y0023103D01*
X0620284Y0023052D01*
X0620043Y0023007D01*
X0619800Y0022968D01*
X0619557Y0022935D01*
X0619313Y0022908D01*
X0619069Y0022887D01*
X0618824Y0022872D01*
X0618578Y0022863D01*
X0618333Y0022860D01*
X0618088Y0022863D01*
X0617842Y0022872D01*
X0617597Y0022887D01*
X0617353Y0022908D01*
X0617109Y0022935D01*
X0616866Y0022968D01*
X0616623Y0023007D01*
X0616382Y0023052D01*
X0616142Y0023103D01*
X0615903Y0023160D01*
X0615666Y0023222D01*
X0615430Y0023291D01*
X0615196Y0023365D01*
X0614964Y0023445D01*
X0614734Y0023530D01*
X0614506Y0023621D01*
X0614281Y0023718D01*
X0614057Y0023820D01*
X0613837Y0023928D01*
X0613619Y0024041D01*
X0613404Y0024159D01*
X0613192Y0024283D01*
X0612983Y0024411D01*
X0612777Y0024545D01*
X0612575Y0024684D01*
X0612376Y0024828D01*
X0612181Y0024977D01*
X0611989Y0025130D01*
X0611801Y0025288D01*
X0611617Y0025450D01*
X0611438Y0025618D01*
X0611262Y0025789D01*
X0611091Y0025965D01*
X0610923Y0026144D01*
X0610761Y0026328D01*
X0610603Y0026516D01*
X0610450Y0026708D01*
X0610301Y0026903D01*
X0610157Y0027102D01*
X0610018Y0027304D01*
X0609884Y0027510D01*
X0609756Y0027719D01*
X0609632Y0027931D01*
X0609514Y0028146D01*
X0609401Y0028364D01*
X0609293Y0028584D01*
X0609191Y0028808D01*
X0609094Y0029033D01*
X0609003Y0029261D01*
X0608918Y0029491D01*
X0608838Y0029723D01*
X0608764Y0029957D01*
X0608695Y0030193D01*
X0608633Y0030430D01*
X0608576Y0030669D01*
X0608525Y0030909D01*
X0608480Y0031150D01*
X0608441Y0031393D01*
X0608408Y0031636D01*
X0608381Y0031880D01*
X0608360Y0032124D01*
X0608345Y0032369D01*
X0608336Y0032615D01*
X0608333Y0032860D01*
M02*
