G75*
%MOIN*%
%OFA0B0*%
%FSLAX25Y25*%
%IPPOS*%
%LPD*%
%AMOC8*
5,1,8,0,0,1.08239X$1,22.5*
%
%ADD10C,0.00600*%
%ADD11C,0.00400*%
%ADD12C,0.00800*%
%ADD13C,0.00500*%
%ADD14C,0.01000*%
D10*
X0311628Y0075300D02*
X0318033Y0075300D01*
X0314831Y0075300D02*
X0314831Y0079570D01*
X0316966Y0081745D02*
X0315898Y0082813D01*
X0315898Y0086016D01*
X0314831Y0086016D02*
X0318033Y0086016D01*
X0318033Y0082813D01*
X0316966Y0081745D01*
X0318033Y0079570D02*
X0311628Y0079570D01*
X0313763Y0082813D02*
X0313763Y0084948D01*
X0314831Y0086016D01*
X0313763Y0088191D02*
X0316966Y0088191D01*
X0318033Y0089259D01*
X0318033Y0092461D01*
X0319101Y0092461D02*
X0320168Y0091394D01*
X0320168Y0090326D01*
X0319101Y0092461D02*
X0313763Y0092461D01*
X0314831Y0094636D02*
X0313763Y0095704D01*
X0313763Y0097839D01*
X0314831Y0098907D01*
X0315898Y0098907D01*
X0315898Y0094636D01*
X0314831Y0094636D02*
X0316966Y0094636D01*
X0318033Y0095704D01*
X0318033Y0097839D01*
X0318033Y0101082D02*
X0318033Y0104285D01*
X0316966Y0105352D01*
X0315898Y0104285D01*
X0315898Y0102150D01*
X0314831Y0101082D01*
X0313763Y0102150D01*
X0313763Y0105352D01*
X0314831Y0107527D02*
X0313763Y0108595D01*
X0313763Y0110730D01*
X0314831Y0111798D01*
X0315898Y0111798D01*
X0315898Y0107527D01*
X0314831Y0107527D02*
X0316966Y0107527D01*
X0318033Y0108595D01*
X0318033Y0110730D01*
X0316966Y0113973D02*
X0313763Y0113973D01*
X0316966Y0113973D02*
X0318033Y0115041D01*
X0318033Y0118243D01*
X0319101Y0118243D02*
X0313763Y0118243D01*
X0319101Y0118243D02*
X0320168Y0117176D01*
X0320168Y0116108D01*
X0318033Y0126864D02*
X0313763Y0131134D01*
X0312695Y0131134D01*
X0311628Y0130067D01*
X0311628Y0127932D01*
X0312695Y0126864D01*
X0318033Y0126864D02*
X0318033Y0131134D01*
X0316966Y0133309D02*
X0312695Y0133309D01*
X0311628Y0134377D01*
X0311628Y0136512D01*
X0312695Y0137580D01*
X0316966Y0133309D01*
X0318033Y0134377D01*
X0318033Y0136512D01*
X0316966Y0137580D01*
X0312695Y0137580D01*
X0313763Y0139755D02*
X0311628Y0141890D01*
X0318033Y0141890D01*
X0318033Y0139755D02*
X0318033Y0144025D01*
X0316966Y0146200D02*
X0318033Y0147268D01*
X0318033Y0149403D01*
X0316966Y0150471D01*
X0314831Y0150471D01*
X0313763Y0149403D01*
X0313763Y0148336D01*
X0314831Y0146200D01*
X0311628Y0146200D01*
X0311628Y0150471D01*
D11*
X0313529Y0149804D02*
X0313529Y0152106D01*
X0314297Y0152873D01*
X0315831Y0152873D01*
X0316599Y0152106D01*
X0316599Y0149804D01*
X0318133Y0149804D02*
X0313529Y0149804D01*
X0314297Y0148269D02*
X0313529Y0147502D01*
X0313529Y0145967D01*
X0314297Y0145200D01*
X0315064Y0145200D01*
X0315831Y0145967D01*
X0315831Y0147502D01*
X0316599Y0148269D01*
X0317366Y0148269D01*
X0318133Y0147502D01*
X0318133Y0145967D01*
X0317366Y0145200D01*
X0316599Y0151339D02*
X0318133Y0152873D01*
X0318133Y0154408D02*
X0313529Y0154408D01*
X0313529Y0157477D01*
X0315831Y0155942D02*
X0315831Y0154408D01*
X0313529Y0163616D02*
X0318133Y0163616D01*
X0318133Y0166685D01*
X0318133Y0168220D02*
X0318133Y0169754D01*
X0318133Y0168987D02*
X0315064Y0168987D01*
X0315064Y0168220D01*
X0313529Y0168987D02*
X0312762Y0168987D01*
X0315064Y0172056D02*
X0315831Y0171289D01*
X0317366Y0171289D01*
X0318133Y0172056D01*
X0318133Y0174358D01*
X0318901Y0174358D02*
X0315064Y0174358D01*
X0315064Y0172056D01*
X0315831Y0175893D02*
X0315064Y0176660D01*
X0315064Y0178195D01*
X0315831Y0178962D01*
X0318133Y0178962D01*
X0317366Y0181264D02*
X0318133Y0182031D01*
X0317366Y0181264D02*
X0314297Y0181264D01*
X0315064Y0180497D02*
X0315064Y0182031D01*
X0315064Y0183566D02*
X0315064Y0184333D01*
X0318133Y0184333D01*
X0318133Y0183566D02*
X0318133Y0185101D01*
X0318133Y0186635D02*
X0315064Y0186635D01*
X0315064Y0188937D01*
X0315831Y0189705D01*
X0318133Y0189705D01*
X0317366Y0191239D02*
X0318133Y0192007D01*
X0318133Y0194309D01*
X0318901Y0194309D02*
X0315064Y0194309D01*
X0315064Y0192007D01*
X0315831Y0191239D01*
X0317366Y0191239D01*
X0319668Y0192774D02*
X0319668Y0193541D01*
X0318901Y0194309D01*
X0318133Y0200447D02*
X0315064Y0200447D01*
X0315064Y0201214D01*
X0315831Y0201982D01*
X0315064Y0202749D01*
X0315831Y0203516D01*
X0318133Y0203516D01*
X0318133Y0201982D02*
X0315831Y0201982D01*
X0315831Y0205051D02*
X0317366Y0205051D01*
X0318133Y0205818D01*
X0318133Y0207353D01*
X0317366Y0208120D01*
X0315831Y0208120D01*
X0315064Y0207353D01*
X0315064Y0205818D01*
X0315831Y0205051D01*
X0315831Y0209655D02*
X0315064Y0210422D01*
X0315064Y0212724D01*
X0313529Y0212724D02*
X0318133Y0212724D01*
X0318133Y0210422D01*
X0317366Y0209655D01*
X0315831Y0209655D01*
X0315064Y0214259D02*
X0317366Y0214259D01*
X0318133Y0215026D01*
X0318133Y0217328D01*
X0315064Y0217328D01*
X0313529Y0218863D02*
X0313529Y0219630D01*
X0318133Y0219630D01*
X0318133Y0218863D02*
X0318133Y0220397D01*
X0317366Y0221932D02*
X0315831Y0221932D01*
X0315064Y0222699D01*
X0315064Y0224234D01*
X0315831Y0225001D01*
X0316599Y0225001D01*
X0316599Y0221932D01*
X0317366Y0221932D02*
X0318133Y0222699D01*
X0318133Y0224234D01*
X0315064Y0231140D02*
X0318133Y0232675D01*
X0315064Y0234209D01*
X0315064Y0235744D02*
X0313529Y0237278D01*
X0318133Y0237278D01*
X0318133Y0235744D02*
X0318133Y0238813D01*
X0295414Y0194804D02*
X0292345Y0194804D01*
X0293880Y0194804D02*
X0293880Y0190200D01*
X0290810Y0190200D02*
X0289276Y0191735D01*
X0290043Y0191735D02*
X0287741Y0191735D01*
X0287741Y0190200D02*
X0287741Y0194804D01*
X0290043Y0194804D01*
X0290810Y0194037D01*
X0290810Y0192502D01*
X0290043Y0191735D01*
X0286207Y0192502D02*
X0283137Y0192502D01*
X0283137Y0193269D02*
X0284672Y0194804D01*
X0286207Y0193269D01*
X0286207Y0190200D01*
X0283137Y0190200D02*
X0283137Y0193269D01*
X0281603Y0194804D02*
X0281603Y0190967D01*
X0280835Y0190200D01*
X0279301Y0190200D01*
X0278533Y0190967D01*
X0278533Y0194804D01*
X0312762Y0184333D02*
X0313529Y0184333D01*
X0313529Y0175893D02*
X0318133Y0175893D01*
X0318901Y0174358D02*
X0319668Y0173591D01*
X0319668Y0172824D01*
X0295414Y0149037D02*
X0294647Y0149804D01*
X0293112Y0149804D01*
X0292345Y0149037D01*
X0292345Y0145967D01*
X0293112Y0145200D01*
X0294647Y0145200D01*
X0295414Y0145967D01*
X0295414Y0147502D01*
X0293880Y0147502D01*
X0290810Y0149037D02*
X0290043Y0149804D01*
X0288508Y0149804D01*
X0287741Y0149037D01*
X0287741Y0145967D01*
X0288508Y0145200D01*
X0290043Y0145200D01*
X0290810Y0145967D01*
X0290810Y0149037D01*
X0286207Y0149037D02*
X0286207Y0147502D01*
X0285439Y0146735D01*
X0283137Y0146735D01*
X0284672Y0146735D02*
X0286207Y0145200D01*
X0283137Y0145200D02*
X0283137Y0149804D01*
X0285439Y0149804D01*
X0286207Y0149037D01*
X0281603Y0149037D02*
X0281603Y0147502D01*
X0280835Y0146735D01*
X0278533Y0146735D01*
X0278533Y0145200D02*
X0278533Y0149804D01*
X0280835Y0149804D01*
X0281603Y0149037D01*
X0108133Y0147873D02*
X0108133Y0144804D01*
X0103529Y0144804D01*
X0104297Y0143269D02*
X0105064Y0143269D01*
X0105831Y0142502D01*
X0105831Y0140200D01*
X0103529Y0140200D02*
X0103529Y0142502D01*
X0104297Y0143269D01*
X0105831Y0142502D02*
X0106599Y0143269D01*
X0107366Y0143269D01*
X0108133Y0142502D01*
X0108133Y0140200D01*
X0103529Y0140200D01*
X0103529Y0128269D02*
X0108133Y0128269D01*
X0103529Y0125200D01*
X0108133Y0125200D01*
X0108133Y0102873D02*
X0103529Y0102873D01*
X0103529Y0099804D02*
X0108133Y0099804D01*
X0106599Y0101339D01*
X0108133Y0102873D01*
X0107366Y0098269D02*
X0108133Y0097502D01*
X0108133Y0095967D01*
X0107366Y0095200D01*
X0105831Y0095967D02*
X0105831Y0097502D01*
X0106599Y0098269D01*
X0107366Y0098269D01*
X0105831Y0095967D02*
X0105064Y0095200D01*
X0104297Y0095200D01*
X0103529Y0095967D01*
X0103529Y0097502D01*
X0104297Y0098269D01*
X0103529Y0160200D02*
X0108133Y0160200D01*
X0108133Y0163269D01*
X0108133Y0170200D02*
X0103529Y0170200D01*
X0108133Y0170200D02*
X0108133Y0173269D01*
X0106599Y0180200D02*
X0108133Y0181735D01*
X0106599Y0183269D01*
X0103529Y0183269D01*
X0103529Y0184804D02*
X0103529Y0186339D01*
X0103529Y0185571D02*
X0108133Y0185571D01*
X0108133Y0184804D02*
X0108133Y0186339D01*
X0108133Y0187873D02*
X0103529Y0187873D01*
X0108133Y0190942D01*
X0103529Y0190942D01*
X0103529Y0180200D02*
X0106599Y0180200D01*
X0108133Y0205200D02*
X0103529Y0205200D01*
X0108133Y0208269D01*
X0103529Y0208269D01*
D12*
X0099869Y0212205D02*
X0074278Y0212205D01*
X0074278Y0168110D01*
X0070341Y0168110D01*
X0070341Y0212205D01*
X0074278Y0212205D01*
X0099869Y0212205D02*
X0099869Y0168110D01*
X0074278Y0168110D01*
X0074278Y0167205D02*
X0074278Y0123110D01*
X0070341Y0123110D01*
X0070341Y0167205D01*
X0074278Y0167205D01*
X0099869Y0167205D01*
X0099869Y0123110D01*
X0074278Y0123110D01*
X0074278Y0122205D02*
X0074278Y0078110D01*
X0070341Y0078110D01*
X0070341Y0122205D01*
X0074278Y0122205D01*
X0099869Y0122205D01*
X0099869Y0078110D01*
X0074278Y0078110D01*
X0223570Y0152283D02*
X0223570Y0187717D01*
X0254672Y0187717D01*
X0254672Y0181811D01*
X0271995Y0181811D01*
X0271995Y0187717D01*
X0303097Y0187717D01*
X0303097Y0152677D01*
X0303097Y0152283D02*
X0223570Y0152283D01*
X0280833Y0180925D02*
X0285833Y0180925D01*
X0271995Y0187717D02*
X0254672Y0187717D01*
X0243570Y0197283D02*
X0243570Y0232717D01*
X0264672Y0232717D01*
X0264672Y0226811D01*
X0281995Y0226811D01*
X0281995Y0232717D01*
X0303097Y0232717D01*
X0303097Y0197677D01*
X0303097Y0197283D02*
X0243570Y0197283D01*
X0238058Y0202598D02*
X0228609Y0202598D01*
X0228609Y0227402D01*
X0238058Y0227402D01*
X0238058Y0202598D01*
X0212333Y0204548D02*
X0212333Y0206127D01*
X0206833Y0206754D02*
X0206833Y0223246D01*
X0212333Y0223873D02*
X0212333Y0225452D01*
X0212333Y0216127D02*
X0212333Y0213873D01*
X0206833Y0206754D02*
X0207035Y0206599D01*
X0207240Y0206449D01*
X0207449Y0206303D01*
X0207662Y0206163D01*
X0207878Y0206028D01*
X0208097Y0205899D01*
X0208319Y0205775D01*
X0208544Y0205656D01*
X0208772Y0205543D01*
X0209002Y0205435D01*
X0209235Y0205333D01*
X0209471Y0205236D01*
X0209709Y0205145D01*
X0209948Y0205060D01*
X0210190Y0204981D01*
X0210434Y0204908D01*
X0210679Y0204841D01*
X0210926Y0204779D01*
X0211175Y0204724D01*
X0211425Y0204675D01*
X0211675Y0204632D01*
X0211927Y0204595D01*
X0212180Y0204564D01*
X0212433Y0204539D01*
X0212687Y0204520D01*
X0212941Y0204507D01*
X0213195Y0204501D01*
X0213450Y0204501D01*
X0213704Y0204507D01*
X0213959Y0204519D01*
X0214212Y0204537D01*
X0214466Y0204561D01*
X0214718Y0204592D01*
X0214970Y0204628D01*
X0215221Y0204671D01*
X0215471Y0204720D01*
X0215719Y0204775D01*
X0215966Y0204836D01*
X0216212Y0204902D01*
X0216456Y0204975D01*
X0216698Y0205054D01*
X0216938Y0205138D01*
X0217176Y0205229D01*
X0217412Y0205325D01*
X0217645Y0205426D01*
X0217876Y0205534D01*
X0218104Y0205646D01*
X0218329Y0205765D01*
X0218551Y0205889D01*
X0218771Y0206018D01*
X0218987Y0206152D01*
X0219200Y0206292D01*
X0219409Y0206437D01*
X0219615Y0206586D01*
X0219817Y0206741D01*
X0220015Y0206901D01*
X0220209Y0207065D01*
X0220400Y0207234D01*
X0220586Y0207407D01*
X0220768Y0207585D01*
X0220945Y0207768D01*
X0221118Y0207954D01*
X0221287Y0208145D01*
X0221451Y0208340D01*
X0221610Y0208539D01*
X0221764Y0208741D01*
X0221913Y0208947D01*
X0222057Y0209157D01*
X0222196Y0209370D01*
X0222330Y0209587D01*
X0222459Y0209806D01*
X0222582Y0210029D01*
X0222699Y0210255D01*
X0222812Y0210483D01*
X0222918Y0210714D01*
X0223019Y0210948D01*
X0223115Y0211184D01*
X0223204Y0211422D01*
X0223288Y0211662D01*
X0223366Y0211904D01*
X0223366Y0218096D02*
X0223288Y0218338D01*
X0223205Y0218578D01*
X0223115Y0218816D01*
X0223020Y0219052D01*
X0222918Y0219286D01*
X0222812Y0219517D01*
X0222700Y0219745D01*
X0222582Y0219971D01*
X0222459Y0220194D01*
X0222330Y0220413D01*
X0222196Y0220630D01*
X0222057Y0220843D01*
X0221913Y0221053D01*
X0221764Y0221259D01*
X0221610Y0221461D01*
X0221451Y0221660D01*
X0221287Y0221855D01*
X0221118Y0222045D01*
X0220945Y0222232D01*
X0220768Y0222414D01*
X0220586Y0222592D01*
X0220400Y0222766D01*
X0220209Y0222935D01*
X0220015Y0223099D01*
X0219817Y0223259D01*
X0219615Y0223414D01*
X0219409Y0223563D01*
X0219200Y0223708D01*
X0218987Y0223848D01*
X0218771Y0223982D01*
X0218552Y0224111D01*
X0218329Y0224235D01*
X0218104Y0224353D01*
X0217876Y0224466D01*
X0217645Y0224574D01*
X0217412Y0224675D01*
X0217176Y0224771D01*
X0216938Y0224862D01*
X0216698Y0224946D01*
X0216456Y0225025D01*
X0216212Y0225098D01*
X0215967Y0225164D01*
X0215720Y0225225D01*
X0215471Y0225280D01*
X0215221Y0225329D01*
X0214970Y0225372D01*
X0214719Y0225408D01*
X0214466Y0225439D01*
X0214213Y0225463D01*
X0213959Y0225481D01*
X0213705Y0225493D01*
X0213450Y0225499D01*
X0213196Y0225499D01*
X0212941Y0225493D01*
X0212687Y0225480D01*
X0212433Y0225461D01*
X0212180Y0225436D01*
X0211927Y0225405D01*
X0211676Y0225368D01*
X0211425Y0225325D01*
X0211175Y0225276D01*
X0210927Y0225221D01*
X0210680Y0225159D01*
X0210434Y0225092D01*
X0210191Y0225019D01*
X0209949Y0224940D01*
X0209709Y0224855D01*
X0209471Y0224764D01*
X0209235Y0224667D01*
X0209002Y0224565D01*
X0208772Y0224458D01*
X0208544Y0224344D01*
X0208319Y0224225D01*
X0208097Y0224101D01*
X0207878Y0223972D01*
X0207662Y0223837D01*
X0207449Y0223697D01*
X0207240Y0223552D01*
X0207035Y0223401D01*
X0206833Y0223246D01*
X0264672Y0232717D02*
X0281995Y0232717D01*
X0280833Y0225925D02*
X0285833Y0225925D01*
D13*
X0216089Y0062402D02*
X0110577Y0062402D01*
X0110577Y0187598D01*
X0216089Y0187598D01*
X0216089Y0062402D01*
X0228333Y0064606D02*
X0228333Y0069606D01*
X0228333Y0064606D02*
X0232664Y0064606D01*
X0286601Y0064606D02*
X0290932Y0064606D01*
X0290932Y0069606D01*
X0290932Y0123465D02*
X0290932Y0127992D01*
X0284908Y0127992D01*
X0283058Y0127992D01*
X0228333Y0127992D01*
X0228333Y0123465D01*
X0184333Y0195000D02*
X0112333Y0195000D01*
X0112333Y0235000D01*
X0184333Y0235000D01*
X0184333Y0195000D01*
X0232081Y0216311D02*
X0234783Y0216311D01*
X0234783Y0215410D02*
X0234783Y0217212D01*
X0234333Y0218357D02*
X0232531Y0220159D01*
X0234333Y0220159D01*
X0234783Y0219708D01*
X0234783Y0218807D01*
X0234333Y0218357D01*
X0232531Y0218357D01*
X0232081Y0218807D01*
X0232081Y0219708D01*
X0232531Y0220159D01*
X0232531Y0221303D02*
X0232081Y0221754D01*
X0232081Y0222655D01*
X0232531Y0223105D01*
X0234333Y0221303D01*
X0234783Y0221754D01*
X0234783Y0222655D01*
X0234333Y0223105D01*
X0232531Y0223105D01*
X0232531Y0221303D02*
X0234333Y0221303D01*
X0232081Y0216311D02*
X0232982Y0215410D01*
D14*
X0198333Y0207500D02*
X0198333Y0202500D01*
X0193333Y0202500D01*
X0193333Y0200000D01*
X0193333Y0202500D02*
X0188333Y0202500D01*
X0188333Y0207500D01*
X0198333Y0207500D01*
X0198333Y0227500D01*
X0193333Y0227500D01*
X0193333Y0230000D01*
X0193333Y0227500D02*
X0188333Y0227500D01*
X0188333Y0207500D01*
M02*
