%
M48
M72
T01C0.02362
T02C0.03200
T03C0.03543
T04C0.03937
T05C0.04000
T06C0.04331
T07C0.05118
T08C0.05200
T09C0.13000
%
T01
X303333Y85000
X273333Y195000
T02
X220833Y215000
X213333Y210000
X213333Y220000
T03
X233333Y235000
X233333Y195000
T04
X193333Y195000
X193333Y235000
T05
X263333Y220000
X273333Y220000
X283333Y220000
X283333Y210000
X273333Y210000
X263333Y210000
X263333Y175000
X273333Y175000
X283333Y175000
X283333Y165000
X273333Y165000
X263333Y165000
X253333Y165000
X243333Y165000
X243333Y175000
X253333Y175000
T06
X202703Y144685
X202703Y105315
X123963Y85630
X123963Y164370
T07
X83333Y155000
X83333Y135315
X83333Y110000
X83333Y90315
X83333Y180315
X83333Y200000
X119333Y200000
X129133Y230000
X179333Y230000
X179333Y199900
T08
X228333Y145000
T09
X83333Y65000
X313333Y65000
X313333Y230000
X83333Y230000
M30
