G75*
%MOIN*%
%OFA0B0*%
%FSLAX25Y25*%
%IPPOS*%
%LPD*%
%AMOC8*
5,1,8,0,0,1.08239X$1,22.5*
%
%ADD10C,0.07400*%
%ADD11C,0.07800*%
%ADD12C,0.07677*%
%ADD13R,0.08000X0.08000*%
%ADD14C,0.08000*%
%ADD15OC8,0.07400*%
%ADD16C,0.06731*%
%ADD17OC8,0.10000*%
%ADD18C,0.01600*%
%ADD19R,0.04362X0.04362*%
%ADD20C,0.07000*%
D10*
X0233333Y0195000D03*
X0213333Y0210000D03*
X0220833Y0215000D03*
X0213333Y0220000D03*
X0233333Y0235000D03*
D11*
X0193333Y0235000D03*
X0193333Y0195000D03*
D12*
X0179333Y0199900D03*
X0179333Y0230000D03*
X0129133Y0230000D03*
X0119333Y0200000D03*
D13*
X0083333Y0200000D03*
X0083333Y0155000D03*
X0083333Y0110000D03*
D14*
X0083333Y0090315D03*
X0083333Y0135315D03*
X0083333Y0180315D03*
D15*
X0243333Y0175000D03*
X0253333Y0175000D03*
X0263333Y0175000D03*
X0273333Y0175000D03*
X0283333Y0175000D03*
X0283333Y0165000D03*
X0273333Y0165000D03*
X0263333Y0165000D03*
X0253333Y0165000D03*
X0243333Y0165000D03*
X0263333Y0210000D03*
X0273333Y0210000D03*
X0283333Y0210000D03*
X0283333Y0220000D03*
X0273333Y0220000D03*
X0263333Y0220000D03*
D16*
X0202703Y0144685D03*
X0202703Y0105315D03*
X0123963Y0085630D03*
X0123963Y0164370D03*
D17*
X0228333Y0145000D03*
D18*
X0138333Y0057000D02*
X0138333Y0237961D01*
X0188445Y0237961D01*
X0188051Y0237188D01*
X0187774Y0236335D01*
X0187633Y0235449D01*
X0187633Y0235184D01*
X0193149Y0235184D01*
X0193149Y0234816D01*
X0187633Y0234816D01*
X0187633Y0234551D01*
X0187774Y0233665D01*
X0188051Y0232812D01*
X0188458Y0232013D01*
X0188986Y0231287D01*
X0189620Y0230652D01*
X0190346Y0230125D01*
X0191145Y0229718D01*
X0191999Y0229440D01*
X0192885Y0229300D01*
X0193149Y0229300D01*
X0193149Y0234816D01*
X0193518Y0234816D01*
X0193518Y0235184D01*
X0199033Y0235184D01*
X0199033Y0235449D01*
X0198893Y0236335D01*
X0198616Y0237188D01*
X0198222Y0237961D01*
X0228390Y0237961D01*
X0227633Y0236134D01*
X0227633Y0233866D01*
X0228501Y0231771D01*
X0230105Y0230168D01*
X0232200Y0229300D01*
X0234467Y0229300D01*
X0236562Y0230168D01*
X0238166Y0231771D01*
X0239033Y0233866D01*
X0239033Y0236134D01*
X0238277Y0237961D01*
X0307730Y0237961D01*
X0305788Y0236331D01*
X0304078Y0233369D01*
X0304078Y0233369D01*
X0303484Y0230000D01*
X0304078Y0226631D01*
X0305788Y0223669D01*
X0305788Y0223669D01*
X0308409Y0221470D01*
X0311623Y0220300D01*
X0313811Y0220300D01*
X0315044Y0220300D01*
X0318258Y0221470D01*
X0318258Y0221470D01*
X0320034Y0222960D01*
X0320034Y0072040D01*
X0318258Y0073530D01*
X0315044Y0074700D01*
X0311623Y0074700D01*
X0308409Y0073530D01*
X0305788Y0071331D01*
X0304078Y0068369D01*
X0304078Y0068369D01*
X0303484Y0065000D01*
X0304078Y0061631D01*
X0305788Y0058669D01*
X0305788Y0058669D01*
X0307777Y0057000D01*
X0138333Y0057000D01*
X0138333Y0058197D02*
X0306350Y0058197D01*
X0305138Y0059796D02*
X0138333Y0059796D01*
X0138333Y0061394D02*
X0304215Y0061394D01*
X0304078Y0061631D02*
X0304078Y0061631D01*
X0303838Y0062993D02*
X0138333Y0062993D01*
X0138333Y0064591D02*
X0303556Y0064591D01*
X0303484Y0065000D02*
X0303484Y0065000D01*
X0303693Y0066190D02*
X0138333Y0066190D01*
X0138333Y0067788D02*
X0303975Y0067788D01*
X0304665Y0069387D02*
X0138333Y0069387D01*
X0138333Y0070985D02*
X0305588Y0070985D01*
X0305788Y0071331D02*
X0305788Y0071331D01*
X0305788Y0071331D01*
X0307281Y0072584D02*
X0138333Y0072584D01*
X0138333Y0074182D02*
X0310200Y0074182D01*
X0316466Y0074182D02*
X0320034Y0074182D01*
X0320034Y0072584D02*
X0319386Y0072584D01*
X0318258Y0073530D02*
X0318258Y0073530D01*
X0320034Y0075781D02*
X0138333Y0075781D01*
X0138333Y0077379D02*
X0320034Y0077379D01*
X0320034Y0078978D02*
X0138333Y0078978D01*
X0138333Y0080576D02*
X0320034Y0080576D01*
X0320034Y0082175D02*
X0307514Y0082175D01*
X0307514Y0081990D02*
X0307514Y0088010D01*
X0306343Y0089181D01*
X0306133Y0089181D01*
X0306133Y0185557D01*
X0305707Y0186586D01*
X0290707Y0201586D01*
X0289919Y0202374D01*
X0288890Y0202800D01*
X0284493Y0202800D01*
X0282993Y0204300D01*
X0285694Y0204300D01*
X0289033Y0207639D01*
X0289033Y0212361D01*
X0286253Y0215141D01*
X0288833Y0217722D01*
X0288833Y0219800D01*
X0283533Y0219800D01*
X0283533Y0220200D01*
X0283133Y0220200D01*
X0283133Y0225500D01*
X0281055Y0225500D01*
X0278475Y0222920D01*
X0275694Y0225700D01*
X0270972Y0225700D01*
X0268333Y0223061D01*
X0265694Y0225700D01*
X0260972Y0225700D01*
X0257633Y0222361D01*
X0257633Y0217639D01*
X0260272Y0215000D01*
X0257633Y0212361D01*
X0257633Y0207639D01*
X0260972Y0204300D01*
X0265694Y0204300D01*
X0268333Y0206939D01*
X0270972Y0204300D01*
X0275074Y0204300D01*
X0281747Y0197626D01*
X0282776Y0197200D01*
X0287174Y0197200D01*
X0300533Y0183840D01*
X0300533Y0089181D01*
X0300324Y0089181D01*
X0299152Y0088010D01*
X0299152Y0081990D01*
X0300324Y0080819D01*
X0306343Y0080819D01*
X0307514Y0081990D01*
X0307514Y0083773D02*
X0320034Y0083773D01*
X0320034Y0085372D02*
X0307514Y0085372D01*
X0307514Y0086970D02*
X0320034Y0086970D01*
X0320034Y0088569D02*
X0306955Y0088569D01*
X0306133Y0090167D02*
X0320034Y0090167D01*
X0320034Y0091766D02*
X0306133Y0091766D01*
X0306133Y0093364D02*
X0320034Y0093364D01*
X0320034Y0094963D02*
X0306133Y0094963D01*
X0306133Y0096561D02*
X0320034Y0096561D01*
X0320034Y0098160D02*
X0306133Y0098160D01*
X0306133Y0099758D02*
X0320034Y0099758D01*
X0320034Y0101357D02*
X0306133Y0101357D01*
X0306133Y0102955D02*
X0320034Y0102955D01*
X0320034Y0104554D02*
X0306133Y0104554D01*
X0306133Y0106152D02*
X0320034Y0106152D01*
X0320034Y0107751D02*
X0306133Y0107751D01*
X0306133Y0109349D02*
X0320034Y0109349D01*
X0320034Y0110948D02*
X0306133Y0110948D01*
X0306133Y0112546D02*
X0320034Y0112546D01*
X0320034Y0114145D02*
X0306133Y0114145D01*
X0306133Y0115743D02*
X0320034Y0115743D01*
X0320034Y0117342D02*
X0306133Y0117342D01*
X0306133Y0118940D02*
X0320034Y0118940D01*
X0320034Y0120539D02*
X0306133Y0120539D01*
X0306133Y0122137D02*
X0320034Y0122137D01*
X0320034Y0123736D02*
X0306133Y0123736D01*
X0306133Y0125334D02*
X0320034Y0125334D01*
X0320034Y0126933D02*
X0306133Y0126933D01*
X0306133Y0128532D02*
X0320034Y0128532D01*
X0320034Y0130130D02*
X0306133Y0130130D01*
X0306133Y0131729D02*
X0320034Y0131729D01*
X0320034Y0133327D02*
X0306133Y0133327D01*
X0306133Y0134926D02*
X0320034Y0134926D01*
X0320034Y0136524D02*
X0306133Y0136524D01*
X0306133Y0138123D02*
X0320034Y0138123D01*
X0320034Y0139721D02*
X0306133Y0139721D01*
X0306133Y0141320D02*
X0320034Y0141320D01*
X0320034Y0142918D02*
X0306133Y0142918D01*
X0306133Y0144517D02*
X0320034Y0144517D01*
X0320034Y0146115D02*
X0306133Y0146115D01*
X0306133Y0147714D02*
X0320034Y0147714D01*
X0320034Y0149312D02*
X0306133Y0149312D01*
X0306133Y0150911D02*
X0320034Y0150911D01*
X0320034Y0152509D02*
X0306133Y0152509D01*
X0306133Y0154108D02*
X0320034Y0154108D01*
X0320034Y0155706D02*
X0306133Y0155706D01*
X0306133Y0157305D02*
X0320034Y0157305D01*
X0320034Y0158903D02*
X0306133Y0158903D01*
X0306133Y0160502D02*
X0320034Y0160502D01*
X0320034Y0162100D02*
X0306133Y0162100D01*
X0306133Y0163699D02*
X0320034Y0163699D01*
X0320034Y0165297D02*
X0306133Y0165297D01*
X0306133Y0166896D02*
X0320034Y0166896D01*
X0320034Y0168494D02*
X0306133Y0168494D01*
X0306133Y0170093D02*
X0320034Y0170093D01*
X0320034Y0171691D02*
X0306133Y0171691D01*
X0306133Y0173290D02*
X0320034Y0173290D01*
X0320034Y0174888D02*
X0306133Y0174888D01*
X0306133Y0176487D02*
X0320034Y0176487D01*
X0320034Y0178085D02*
X0306133Y0178085D01*
X0306133Y0179684D02*
X0320034Y0179684D01*
X0320034Y0181282D02*
X0306133Y0181282D01*
X0306133Y0182881D02*
X0320034Y0182881D01*
X0320034Y0184479D02*
X0306133Y0184479D01*
X0305918Y0186078D02*
X0320034Y0186078D01*
X0320034Y0187676D02*
X0304617Y0187676D01*
X0303018Y0189275D02*
X0320034Y0189275D01*
X0320034Y0190873D02*
X0301420Y0190873D01*
X0299821Y0192472D02*
X0320034Y0192472D01*
X0320034Y0194070D02*
X0298223Y0194070D01*
X0296624Y0195669D02*
X0320034Y0195669D01*
X0320034Y0197268D02*
X0295026Y0197268D01*
X0293427Y0198866D02*
X0320034Y0198866D01*
X0320034Y0200465D02*
X0291829Y0200465D01*
X0290230Y0202063D02*
X0320034Y0202063D01*
X0320034Y0203662D02*
X0283632Y0203662D01*
X0286654Y0205260D02*
X0320034Y0205260D01*
X0320034Y0206859D02*
X0288253Y0206859D01*
X0289033Y0208457D02*
X0320034Y0208457D01*
X0320034Y0210056D02*
X0289033Y0210056D01*
X0289033Y0211654D02*
X0320034Y0211654D01*
X0320034Y0213253D02*
X0288142Y0213253D01*
X0286543Y0214851D02*
X0320034Y0214851D01*
X0320034Y0216450D02*
X0287561Y0216450D01*
X0288833Y0218048D02*
X0320034Y0218048D01*
X0320034Y0219647D02*
X0288833Y0219647D01*
X0288833Y0220200D02*
X0288833Y0222278D01*
X0285611Y0225500D01*
X0283533Y0225500D01*
X0283533Y0220200D01*
X0288833Y0220200D01*
X0288833Y0221245D02*
X0309026Y0221245D01*
X0308409Y0221470D02*
X0308409Y0221470D01*
X0306771Y0222844D02*
X0288268Y0222844D01*
X0286669Y0224442D02*
X0305342Y0224442D01*
X0304419Y0226041D02*
X0183348Y0226041D01*
X0183634Y0226327D02*
X0184156Y0227045D01*
X0184559Y0227836D01*
X0184833Y0228680D01*
X0184966Y0229520D01*
X0179813Y0229520D01*
X0179813Y0224367D01*
X0180654Y0224500D01*
X0181498Y0224775D01*
X0182289Y0225177D01*
X0183007Y0225699D01*
X0183634Y0226327D01*
X0184459Y0227639D02*
X0303900Y0227639D01*
X0304078Y0226631D02*
X0304078Y0226631D01*
X0303618Y0229238D02*
X0184921Y0229238D01*
X0184966Y0230480D02*
X0184833Y0231320D01*
X0184559Y0232164D01*
X0184156Y0232955D01*
X0183634Y0233673D01*
X0183007Y0234301D01*
X0182289Y0234823D01*
X0181498Y0235225D01*
X0180654Y0235500D01*
X0179813Y0235633D01*
X0179813Y0230480D01*
X0178854Y0230480D01*
X0178854Y0235633D01*
X0178013Y0235500D01*
X0177169Y0235225D01*
X0176378Y0234823D01*
X0175660Y0234301D01*
X0175032Y0233673D01*
X0174511Y0232955D01*
X0174108Y0232164D01*
X0173834Y0231320D01*
X0173700Y0230480D01*
X0178854Y0230480D01*
X0178854Y0229520D01*
X0179813Y0229520D01*
X0179813Y0230480D01*
X0184966Y0230480D01*
X0184910Y0230836D02*
X0189436Y0230836D01*
X0188243Y0232435D02*
X0184421Y0232435D01*
X0183274Y0234033D02*
X0187715Y0234033D01*
X0187662Y0235632D02*
X0179820Y0235632D01*
X0179813Y0235632D02*
X0178854Y0235632D01*
X0178847Y0235632D02*
X0138333Y0235632D01*
X0138333Y0237230D02*
X0188072Y0237230D01*
X0193149Y0234033D02*
X0193518Y0234033D01*
X0193518Y0234816D02*
X0193518Y0229300D01*
X0193782Y0229300D01*
X0194668Y0229440D01*
X0195521Y0229718D01*
X0196321Y0230125D01*
X0197047Y0230652D01*
X0197681Y0231287D01*
X0198208Y0232013D01*
X0198616Y0232812D01*
X0198893Y0233665D01*
X0199033Y0234551D01*
X0199033Y0234816D01*
X0193518Y0234816D01*
X0193518Y0232435D02*
X0193149Y0232435D01*
X0193149Y0230836D02*
X0193518Y0230836D01*
X0197231Y0230836D02*
X0229436Y0230836D01*
X0228226Y0232435D02*
X0198424Y0232435D01*
X0198951Y0234033D02*
X0227633Y0234033D01*
X0227633Y0235632D02*
X0199004Y0235632D01*
X0198594Y0237230D02*
X0228088Y0237230D01*
X0238579Y0237230D02*
X0306860Y0237230D01*
X0305788Y0236331D02*
X0305788Y0236331D01*
X0305788Y0236331D01*
X0305384Y0235632D02*
X0239033Y0235632D01*
X0239033Y0234033D02*
X0304461Y0234033D01*
X0303913Y0232435D02*
X0238440Y0232435D01*
X0237231Y0230836D02*
X0303631Y0230836D01*
X0303484Y0230000D02*
X0303484Y0230000D01*
X0317641Y0221245D02*
X0320034Y0221245D01*
X0320034Y0222844D02*
X0319895Y0222844D01*
X0315044Y0220300D02*
X0315044Y0220300D01*
X0283533Y0221245D02*
X0283133Y0221245D01*
X0283133Y0222844D02*
X0283533Y0222844D01*
X0283533Y0224442D02*
X0283133Y0224442D01*
X0279997Y0224442D02*
X0276952Y0224442D01*
X0269715Y0224442D02*
X0266952Y0224442D01*
X0259715Y0224442D02*
X0216952Y0224442D01*
X0216562Y0224832D02*
X0214467Y0225700D01*
X0212200Y0225700D01*
X0210105Y0224832D01*
X0208501Y0223229D01*
X0207633Y0221134D01*
X0207633Y0218866D01*
X0208501Y0216771D01*
X0210105Y0215168D01*
X0210510Y0215000D01*
X0210105Y0214832D01*
X0208501Y0213229D01*
X0207633Y0211134D01*
X0207633Y0208866D01*
X0208501Y0206771D01*
X0210105Y0205168D01*
X0212200Y0204300D01*
X0214467Y0204300D01*
X0214896Y0204478D01*
X0215960Y0203414D01*
X0216747Y0202626D01*
X0217776Y0202200D01*
X0247174Y0202200D01*
X0250960Y0198414D01*
X0251747Y0197626D01*
X0252776Y0197200D01*
X0257879Y0197200D01*
X0269152Y0193442D01*
X0269152Y0191990D01*
X0270324Y0190819D01*
X0274241Y0190819D01*
X0290533Y0178600D01*
X0290533Y0171160D01*
X0287884Y0168510D01*
X0286253Y0170141D01*
X0288833Y0172722D01*
X0288833Y0174800D01*
X0283533Y0174800D01*
X0283533Y0175200D01*
X0283133Y0175200D01*
X0283133Y0180500D01*
X0281055Y0180500D01*
X0278475Y0177920D01*
X0275694Y0180700D01*
X0270972Y0180700D01*
X0268333Y0178061D01*
X0265694Y0180700D01*
X0260972Y0180700D01*
X0258333Y0178061D01*
X0255694Y0180700D01*
X0250972Y0180700D01*
X0248333Y0178061D01*
X0245694Y0180700D01*
X0240972Y0180700D01*
X0237633Y0177361D01*
X0237633Y0172639D01*
X0240272Y0170000D01*
X0237633Y0167361D01*
X0237633Y0162639D01*
X0240972Y0159300D01*
X0245694Y0159300D01*
X0248333Y0161939D01*
X0250972Y0159300D01*
X0255694Y0159300D01*
X0258333Y0161939D01*
X0260972Y0159300D01*
X0265694Y0159300D01*
X0268333Y0161939D01*
X0270972Y0159300D01*
X0275694Y0159300D01*
X0278333Y0161939D01*
X0280533Y0159739D01*
X0280533Y0156160D01*
X0277174Y0152800D01*
X0246831Y0152800D01*
X0245802Y0152374D01*
X0235905Y0142476D01*
X0235905Y0148136D01*
X0231470Y0152572D01*
X0225197Y0152572D01*
X0220762Y0148136D01*
X0220762Y0141864D01*
X0225197Y0137428D01*
X0230857Y0137428D01*
X0204010Y0110581D01*
X0203771Y0110680D01*
X0201636Y0110680D01*
X0199664Y0109863D01*
X0198155Y0108354D01*
X0197338Y0106382D01*
X0197338Y0104248D01*
X0198155Y0102276D01*
X0199664Y0100766D01*
X0201636Y0099950D01*
X0203771Y0099950D01*
X0205743Y0100766D01*
X0207252Y0102276D01*
X0208069Y0104248D01*
X0208069Y0106382D01*
X0207970Y0106621D01*
X0248548Y0147200D01*
X0278890Y0147200D01*
X0279919Y0147626D01*
X0280707Y0148414D01*
X0285707Y0153414D01*
X0286133Y0154443D01*
X0286133Y0159739D01*
X0288594Y0162200D01*
X0288890Y0162200D01*
X0289919Y0162626D01*
X0294919Y0167626D01*
X0295707Y0168414D01*
X0296133Y0169443D01*
X0296133Y0179647D01*
X0296184Y0179845D01*
X0296133Y0180199D01*
X0296133Y0180557D01*
X0296055Y0180745D01*
X0296026Y0180947D01*
X0295844Y0181255D01*
X0295707Y0181586D01*
X0295563Y0181730D01*
X0295459Y0181906D01*
X0295173Y0182121D01*
X0294919Y0182374D01*
X0294731Y0182452D01*
X0277514Y0195364D01*
X0277514Y0198010D01*
X0276343Y0199181D01*
X0270324Y0199181D01*
X0270154Y0199011D01*
X0259313Y0202625D01*
X0258890Y0202800D01*
X0258788Y0202800D01*
X0258690Y0202832D01*
X0258234Y0202800D01*
X0254493Y0202800D01*
X0249919Y0207374D01*
X0248890Y0207800D01*
X0219493Y0207800D01*
X0218856Y0208437D01*
X0219033Y0208866D01*
X0219033Y0209576D01*
X0219700Y0209300D01*
X0221967Y0209300D01*
X0224062Y0210168D01*
X0225666Y0211771D01*
X0226533Y0213866D01*
X0226533Y0216134D01*
X0225666Y0218229D01*
X0224062Y0219832D01*
X0221967Y0220700D01*
X0219700Y0220700D01*
X0219033Y0220424D01*
X0219033Y0221134D01*
X0218166Y0223229D01*
X0216562Y0224832D01*
X0218325Y0222844D02*
X0258116Y0222844D01*
X0257633Y0221245D02*
X0218987Y0221245D01*
X0224248Y0219647D02*
X0257633Y0219647D01*
X0257633Y0218048D02*
X0225740Y0218048D01*
X0226402Y0216450D02*
X0258823Y0216450D01*
X0260123Y0214851D02*
X0226533Y0214851D01*
X0226279Y0213253D02*
X0258525Y0213253D01*
X0257633Y0211654D02*
X0225548Y0211654D01*
X0223791Y0210056D02*
X0257633Y0210056D01*
X0257633Y0208457D02*
X0218864Y0208457D01*
X0218333Y0205000D02*
X0213333Y0210000D01*
X0207633Y0210056D02*
X0138333Y0210056D01*
X0138333Y0211654D02*
X0207849Y0211654D01*
X0208525Y0213253D02*
X0138333Y0213253D01*
X0138333Y0214851D02*
X0210150Y0214851D01*
X0208823Y0216450D02*
X0138333Y0216450D01*
X0138333Y0218048D02*
X0207972Y0218048D01*
X0207633Y0219647D02*
X0138333Y0219647D01*
X0138333Y0221245D02*
X0207679Y0221245D01*
X0208342Y0222844D02*
X0138333Y0222844D01*
X0138333Y0224442D02*
X0178379Y0224442D01*
X0178013Y0224500D02*
X0178854Y0224367D01*
X0178854Y0229520D01*
X0173700Y0229520D01*
X0173834Y0228680D01*
X0174108Y0227836D01*
X0174511Y0227045D01*
X0175032Y0226327D01*
X0175660Y0225699D01*
X0176378Y0225177D01*
X0177169Y0224775D01*
X0178013Y0224500D01*
X0178854Y0224442D02*
X0179813Y0224442D01*
X0180287Y0224442D02*
X0209715Y0224442D01*
X0207803Y0208457D02*
X0138333Y0208457D01*
X0138333Y0206859D02*
X0208465Y0206859D01*
X0210012Y0205260D02*
X0181650Y0205260D01*
X0182641Y0204850D02*
X0180495Y0205739D01*
X0178172Y0205739D01*
X0176026Y0204850D01*
X0174384Y0203207D01*
X0173495Y0201061D01*
X0173495Y0198739D01*
X0174384Y0196593D01*
X0176026Y0194950D01*
X0178172Y0194061D01*
X0180495Y0194061D01*
X0182641Y0194950D01*
X0184283Y0196593D01*
X0185172Y0198739D01*
X0185172Y0201061D01*
X0184283Y0203207D01*
X0182641Y0204850D01*
X0183829Y0203662D02*
X0215712Y0203662D01*
X0218333Y0205000D02*
X0248333Y0205000D01*
X0253333Y0200000D01*
X0258333Y0200000D01*
X0273333Y0195000D01*
X0293333Y0180000D01*
X0293333Y0170000D01*
X0288333Y0165000D01*
X0283333Y0165000D01*
X0283333Y0155000D01*
X0278333Y0150000D01*
X0247388Y0150000D01*
X0202703Y0105315D01*
X0197873Y0102955D02*
X0138333Y0102955D01*
X0138333Y0101357D02*
X0199074Y0101357D01*
X0206333Y0101357D02*
X0300533Y0101357D01*
X0300533Y0102955D02*
X0207533Y0102955D01*
X0208069Y0104554D02*
X0300533Y0104554D01*
X0300533Y0106152D02*
X0208069Y0106152D01*
X0209099Y0107751D02*
X0300533Y0107751D01*
X0300533Y0109349D02*
X0210698Y0109349D01*
X0212296Y0110948D02*
X0300533Y0110948D01*
X0300533Y0112546D02*
X0213895Y0112546D01*
X0215493Y0114145D02*
X0300533Y0114145D01*
X0300533Y0115743D02*
X0217092Y0115743D01*
X0218690Y0117342D02*
X0300533Y0117342D01*
X0300533Y0118940D02*
X0220289Y0118940D01*
X0221887Y0120539D02*
X0300533Y0120539D01*
X0300533Y0122137D02*
X0223486Y0122137D01*
X0225084Y0123736D02*
X0300533Y0123736D01*
X0300533Y0125334D02*
X0226683Y0125334D01*
X0228281Y0126933D02*
X0300533Y0126933D01*
X0300533Y0128532D02*
X0229880Y0128532D01*
X0231478Y0130130D02*
X0300533Y0130130D01*
X0300533Y0131729D02*
X0233077Y0131729D01*
X0234675Y0133327D02*
X0300533Y0133327D01*
X0300533Y0134926D02*
X0236274Y0134926D01*
X0237872Y0136524D02*
X0300533Y0136524D01*
X0300533Y0138123D02*
X0239471Y0138123D01*
X0241069Y0139721D02*
X0300533Y0139721D01*
X0300533Y0141320D02*
X0242668Y0141320D01*
X0244266Y0142918D02*
X0300533Y0142918D01*
X0300533Y0144517D02*
X0245865Y0144517D01*
X0247463Y0146115D02*
X0300533Y0146115D01*
X0300533Y0147714D02*
X0280007Y0147714D01*
X0281605Y0149312D02*
X0300533Y0149312D01*
X0300533Y0150911D02*
X0283204Y0150911D01*
X0284802Y0152509D02*
X0300533Y0152509D01*
X0300533Y0154108D02*
X0285994Y0154108D01*
X0286133Y0155706D02*
X0300533Y0155706D01*
X0300533Y0157305D02*
X0286133Y0157305D01*
X0286133Y0158903D02*
X0300533Y0158903D01*
X0300533Y0160502D02*
X0286896Y0160502D01*
X0288495Y0162100D02*
X0300533Y0162100D01*
X0300533Y0163699D02*
X0290992Y0163699D01*
X0292590Y0165297D02*
X0300533Y0165297D01*
X0300533Y0166896D02*
X0294189Y0166896D01*
X0295740Y0168494D02*
X0300533Y0168494D01*
X0300533Y0170093D02*
X0296133Y0170093D01*
X0296133Y0171691D02*
X0300533Y0171691D01*
X0300533Y0173290D02*
X0296133Y0173290D01*
X0296133Y0174888D02*
X0300533Y0174888D01*
X0300533Y0176487D02*
X0296133Y0176487D01*
X0296133Y0178085D02*
X0300533Y0178085D01*
X0300533Y0179684D02*
X0296143Y0179684D01*
X0295833Y0181282D02*
X0300533Y0181282D01*
X0300533Y0182881D02*
X0294159Y0182881D01*
X0292027Y0184479D02*
X0299894Y0184479D01*
X0298296Y0186078D02*
X0289896Y0186078D01*
X0287765Y0187676D02*
X0296697Y0187676D01*
X0295099Y0189275D02*
X0285633Y0189275D01*
X0283502Y0190873D02*
X0293500Y0190873D01*
X0291902Y0192472D02*
X0281371Y0192472D01*
X0279239Y0194070D02*
X0290303Y0194070D01*
X0288705Y0195669D02*
X0277514Y0195669D01*
X0277514Y0197268D02*
X0282613Y0197268D01*
X0280508Y0198866D02*
X0276658Y0198866D01*
X0278909Y0200465D02*
X0265794Y0200465D01*
X0260999Y0202063D02*
X0277310Y0202063D01*
X0275712Y0203662D02*
X0253632Y0203662D01*
X0252033Y0205260D02*
X0260012Y0205260D01*
X0258414Y0206859D02*
X0250435Y0206859D01*
X0247310Y0202063D02*
X0184757Y0202063D01*
X0185172Y0200465D02*
X0191108Y0200465D01*
X0192160Y0200900D02*
X0189991Y0200002D01*
X0188332Y0198342D01*
X0187433Y0196174D01*
X0187433Y0193826D01*
X0188332Y0191658D01*
X0189991Y0189998D01*
X0192160Y0189100D01*
X0194507Y0189100D01*
X0196675Y0189998D01*
X0198335Y0191658D01*
X0199233Y0193826D01*
X0199233Y0196174D01*
X0198335Y0198342D01*
X0196675Y0200002D01*
X0194507Y0200900D01*
X0192160Y0200900D01*
X0195558Y0200465D02*
X0231631Y0200465D01*
X0232200Y0200700D02*
X0230105Y0199832D01*
X0228501Y0198229D01*
X0227633Y0196134D01*
X0227633Y0193866D01*
X0228501Y0191771D01*
X0230105Y0190168D01*
X0232200Y0189300D01*
X0234467Y0189300D01*
X0236562Y0190168D01*
X0238166Y0191771D01*
X0239033Y0193866D01*
X0239033Y0196134D01*
X0238166Y0198229D01*
X0236562Y0199832D01*
X0234467Y0200700D01*
X0232200Y0200700D01*
X0235036Y0200465D02*
X0248909Y0200465D01*
X0250508Y0198866D02*
X0237528Y0198866D01*
X0238564Y0197268D02*
X0252613Y0197268D01*
X0262472Y0195669D02*
X0239033Y0195669D01*
X0239033Y0194070D02*
X0267267Y0194070D01*
X0269152Y0192472D02*
X0238456Y0192472D01*
X0237268Y0190873D02*
X0270269Y0190873D01*
X0276300Y0189275D02*
X0194929Y0189275D01*
X0197551Y0190873D02*
X0229399Y0190873D01*
X0228211Y0192472D02*
X0198672Y0192472D01*
X0199233Y0194070D02*
X0227633Y0194070D01*
X0227633Y0195669D02*
X0199233Y0195669D01*
X0198780Y0197268D02*
X0228103Y0197268D01*
X0229138Y0198866D02*
X0197811Y0198866D01*
X0188855Y0198866D02*
X0185172Y0198866D01*
X0184563Y0197268D02*
X0187886Y0197268D01*
X0187433Y0195669D02*
X0183359Y0195669D01*
X0180517Y0194070D02*
X0187433Y0194070D01*
X0187994Y0192472D02*
X0138333Y0192472D01*
X0138333Y0194070D02*
X0178150Y0194070D01*
X0175307Y0195669D02*
X0138333Y0195669D01*
X0138333Y0197268D02*
X0174104Y0197268D01*
X0173495Y0198866D02*
X0138333Y0198866D01*
X0138333Y0200465D02*
X0173495Y0200465D01*
X0173910Y0202063D02*
X0138333Y0202063D01*
X0138333Y0203662D02*
X0174838Y0203662D01*
X0177017Y0205260D02*
X0138333Y0205260D01*
X0119333Y0200000D02*
X0118333Y0200000D01*
X0138333Y0190873D02*
X0189116Y0190873D01*
X0191737Y0189275D02*
X0138333Y0189275D01*
X0138333Y0187676D02*
X0278431Y0187676D01*
X0280563Y0186078D02*
X0138333Y0186078D01*
X0138333Y0184479D02*
X0282694Y0184479D01*
X0284825Y0182881D02*
X0138333Y0182881D01*
X0138333Y0181282D02*
X0286957Y0181282D01*
X0285611Y0180500D02*
X0283533Y0180500D01*
X0283533Y0175200D01*
X0288833Y0175200D01*
X0288833Y0177278D01*
X0285611Y0180500D01*
X0286428Y0179684D02*
X0289088Y0179684D01*
X0288026Y0178085D02*
X0290533Y0178085D01*
X0290533Y0176487D02*
X0288833Y0176487D01*
X0290533Y0174888D02*
X0283533Y0174888D01*
X0283533Y0176487D02*
X0283133Y0176487D01*
X0283133Y0178085D02*
X0283533Y0178085D01*
X0283533Y0179684D02*
X0283133Y0179684D01*
X0280239Y0179684D02*
X0276710Y0179684D01*
X0278309Y0178085D02*
X0278641Y0178085D01*
X0269956Y0179684D02*
X0266710Y0179684D01*
X0268309Y0178085D02*
X0268358Y0178085D01*
X0259956Y0179684D02*
X0256710Y0179684D01*
X0258309Y0178085D02*
X0258358Y0178085D01*
X0249956Y0179684D02*
X0246710Y0179684D01*
X0248309Y0178085D02*
X0248358Y0178085D01*
X0239956Y0179684D02*
X0138333Y0179684D01*
X0138333Y0178085D02*
X0238358Y0178085D01*
X0237633Y0176487D02*
X0138333Y0176487D01*
X0138333Y0174888D02*
X0237633Y0174888D01*
X0237633Y0173290D02*
X0138333Y0173290D01*
X0138333Y0171691D02*
X0238581Y0171691D01*
X0240179Y0170093D02*
X0138333Y0170093D01*
X0138333Y0168494D02*
X0238767Y0168494D01*
X0237633Y0166896D02*
X0138333Y0166896D01*
X0138333Y0165297D02*
X0237633Y0165297D01*
X0237633Y0163699D02*
X0138333Y0163699D01*
X0138333Y0162100D02*
X0238172Y0162100D01*
X0239771Y0160502D02*
X0138333Y0160502D01*
X0138333Y0158903D02*
X0280533Y0158903D01*
X0280533Y0157305D02*
X0138333Y0157305D01*
X0138333Y0155706D02*
X0280080Y0155706D01*
X0278481Y0154108D02*
X0138333Y0154108D01*
X0138333Y0152509D02*
X0225135Y0152509D01*
X0223536Y0150911D02*
X0138333Y0150911D01*
X0138333Y0149312D02*
X0200407Y0149312D01*
X0200721Y0149472D02*
X0199996Y0149103D01*
X0199338Y0148625D01*
X0198763Y0148050D01*
X0198286Y0147392D01*
X0197916Y0146668D01*
X0197665Y0145895D01*
X0197538Y0145092D01*
X0197538Y0144968D01*
X0202421Y0144968D01*
X0202421Y0149850D01*
X0202297Y0149850D01*
X0201494Y0149723D01*
X0200721Y0149472D01*
X0202421Y0149312D02*
X0202986Y0149312D01*
X0202986Y0149850D02*
X0202986Y0144968D01*
X0202421Y0144968D01*
X0202421Y0144402D01*
X0202986Y0144402D01*
X0202986Y0139520D01*
X0203110Y0139520D01*
X0203913Y0139647D01*
X0204686Y0139898D01*
X0205411Y0140267D01*
X0206068Y0140745D01*
X0206643Y0141320D01*
X0207121Y0141978D01*
X0207490Y0142702D01*
X0207742Y0143475D01*
X0207869Y0144279D01*
X0207869Y0144402D01*
X0202986Y0144402D01*
X0202986Y0144968D01*
X0207869Y0144968D01*
X0207869Y0145092D01*
X0207742Y0145895D01*
X0207490Y0146668D01*
X0207121Y0147392D01*
X0206643Y0148050D01*
X0206068Y0148625D01*
X0205411Y0149103D01*
X0204686Y0149472D01*
X0203913Y0149723D01*
X0203110Y0149850D01*
X0202986Y0149850D01*
X0205000Y0149312D02*
X0221938Y0149312D01*
X0220762Y0147714D02*
X0206888Y0147714D01*
X0207670Y0146115D02*
X0220762Y0146115D01*
X0220762Y0144517D02*
X0202986Y0144517D01*
X0202421Y0144517D02*
X0138333Y0144517D01*
X0138333Y0146115D02*
X0197737Y0146115D01*
X0197538Y0144402D02*
X0197538Y0144279D01*
X0197665Y0143475D01*
X0197916Y0142702D01*
X0198286Y0141978D01*
X0198763Y0141320D01*
X0199338Y0140745D01*
X0199996Y0140267D01*
X0200721Y0139898D01*
X0201494Y0139647D01*
X0202297Y0139520D01*
X0202421Y0139520D01*
X0202421Y0144402D01*
X0197538Y0144402D01*
X0197846Y0142918D02*
X0138333Y0142918D01*
X0138333Y0141320D02*
X0198764Y0141320D01*
X0201265Y0139721D02*
X0138333Y0139721D01*
X0138333Y0138123D02*
X0224503Y0138123D01*
X0222904Y0139721D02*
X0204141Y0139721D01*
X0202986Y0139721D02*
X0202421Y0139721D01*
X0202421Y0141320D02*
X0202986Y0141320D01*
X0202986Y0142918D02*
X0202421Y0142918D01*
X0206643Y0141320D02*
X0221306Y0141320D01*
X0220762Y0142918D02*
X0207560Y0142918D01*
X0202986Y0146115D02*
X0202421Y0146115D01*
X0202421Y0147714D02*
X0202986Y0147714D01*
X0198519Y0147714D02*
X0138333Y0147714D01*
X0138333Y0136524D02*
X0229953Y0136524D01*
X0228354Y0134926D02*
X0138333Y0134926D01*
X0138333Y0133327D02*
X0226756Y0133327D01*
X0225157Y0131729D02*
X0138333Y0131729D01*
X0138333Y0130130D02*
X0223559Y0130130D01*
X0221960Y0128532D02*
X0138333Y0128532D01*
X0138333Y0126933D02*
X0220362Y0126933D01*
X0218763Y0125334D02*
X0138333Y0125334D01*
X0138333Y0123736D02*
X0217165Y0123736D01*
X0215566Y0122137D02*
X0138333Y0122137D01*
X0138333Y0120539D02*
X0213968Y0120539D01*
X0212369Y0118940D02*
X0138333Y0118940D01*
X0138333Y0117342D02*
X0210771Y0117342D01*
X0209172Y0115743D02*
X0138333Y0115743D01*
X0138333Y0114145D02*
X0207574Y0114145D01*
X0205975Y0112546D02*
X0138333Y0112546D01*
X0138333Y0110948D02*
X0204377Y0110948D01*
X0199150Y0109349D02*
X0138333Y0109349D01*
X0138333Y0107751D02*
X0197905Y0107751D01*
X0197338Y0106152D02*
X0138333Y0106152D01*
X0138333Y0104554D02*
X0197338Y0104554D01*
X0138333Y0099758D02*
X0300533Y0099758D01*
X0300533Y0098160D02*
X0138333Y0098160D01*
X0138333Y0096561D02*
X0300533Y0096561D01*
X0300533Y0094963D02*
X0138333Y0094963D01*
X0138333Y0093364D02*
X0300533Y0093364D01*
X0300533Y0091766D02*
X0138333Y0091766D01*
X0138333Y0090167D02*
X0300533Y0090167D01*
X0299711Y0088569D02*
X0138333Y0088569D01*
X0138333Y0086970D02*
X0299152Y0086970D01*
X0299152Y0085372D02*
X0138333Y0085372D01*
X0138333Y0083773D02*
X0299152Y0083773D01*
X0299152Y0082175D02*
X0138333Y0082175D01*
X0093333Y0135000D02*
X0093333Y0135315D01*
X0231532Y0152509D02*
X0246129Y0152509D01*
X0244339Y0150911D02*
X0233131Y0150911D01*
X0234729Y0149312D02*
X0242741Y0149312D01*
X0241142Y0147714D02*
X0235905Y0147714D01*
X0235905Y0146115D02*
X0239544Y0146115D01*
X0237945Y0144517D02*
X0235905Y0144517D01*
X0235905Y0142918D02*
X0236347Y0142918D01*
X0246896Y0160502D02*
X0249771Y0160502D01*
X0256896Y0160502D02*
X0259771Y0160502D01*
X0266896Y0160502D02*
X0269771Y0160502D01*
X0276896Y0160502D02*
X0279771Y0160502D01*
X0286302Y0170093D02*
X0289466Y0170093D01*
X0290533Y0171691D02*
X0287803Y0171691D01*
X0288833Y0173290D02*
X0290533Y0173290D01*
X0303333Y0185000D02*
X0288333Y0200000D01*
X0283333Y0200000D01*
X0273333Y0210000D01*
X0268414Y0206859D02*
X0268253Y0206859D01*
X0266654Y0205260D02*
X0270012Y0205260D01*
X0303333Y0185000D02*
X0303333Y0085000D01*
X0179813Y0226041D02*
X0178854Y0226041D01*
X0178854Y0227639D02*
X0179813Y0227639D01*
X0179813Y0229238D02*
X0178854Y0229238D01*
X0178854Y0230836D02*
X0179813Y0230836D01*
X0179813Y0232435D02*
X0178854Y0232435D01*
X0178854Y0234033D02*
X0179813Y0234033D01*
X0175392Y0234033D02*
X0138333Y0234033D01*
X0138333Y0232435D02*
X0174246Y0232435D01*
X0173757Y0230836D02*
X0138333Y0230836D01*
X0138333Y0229238D02*
X0173745Y0229238D01*
X0174208Y0227639D02*
X0138333Y0227639D01*
X0138333Y0226041D02*
X0175318Y0226041D01*
D19*
X0273333Y0195000D03*
X0303333Y0085000D03*
D20*
X0123963Y0085630D02*
X0123963Y0104370D01*
X0103333Y0125000D01*
X0103333Y0180000D01*
X0083333Y0200000D01*
X0118333Y0200000D02*
X0118333Y0170000D01*
X0123963Y0164370D01*
X0093333Y0135315D02*
X0083333Y0135315D01*
X0093333Y0135000D02*
X0103333Y0125000D01*
M02*
