G75*
%MOIN*%
%OFA0B0*%
%FSLAX25Y25*%
%IPPOS*%
%LPD*%
%AMOC8*
5,1,8,0,0,1.08239X$1,22.5*
%
%ADD10C,0.00000*%
%ADD11C,0.07400*%
%ADD12C,0.07800*%
%ADD13C,0.07677*%
%ADD14R,0.08000X0.08000*%
%ADD15C,0.08000*%
%ADD16OC8,0.07400*%
%ADD17C,0.06731*%
%ADD18R,0.05512X0.05512*%
%ADD19OC8,0.10000*%
%ADD20C,0.01600*%
%ADD21R,0.04362X0.04362*%
%ADD22C,0.07000*%
%ADD23C,0.05000*%
D10*
X0068333Y0055000D02*
X0068333Y0239961D01*
X0322034Y0239961D01*
X0322034Y0055000D01*
X0068333Y0055000D01*
X0076833Y0065000D02*
X0076835Y0065161D01*
X0076841Y0065321D01*
X0076851Y0065482D01*
X0076865Y0065642D01*
X0076883Y0065802D01*
X0076904Y0065961D01*
X0076930Y0066120D01*
X0076960Y0066278D01*
X0076993Y0066435D01*
X0077031Y0066592D01*
X0077072Y0066747D01*
X0077117Y0066901D01*
X0077166Y0067054D01*
X0077219Y0067206D01*
X0077275Y0067357D01*
X0077336Y0067506D01*
X0077399Y0067654D01*
X0077467Y0067800D01*
X0077538Y0067944D01*
X0077612Y0068086D01*
X0077690Y0068227D01*
X0077772Y0068365D01*
X0077857Y0068502D01*
X0077945Y0068636D01*
X0078037Y0068768D01*
X0078132Y0068898D01*
X0078230Y0069026D01*
X0078331Y0069151D01*
X0078435Y0069273D01*
X0078542Y0069393D01*
X0078652Y0069510D01*
X0078765Y0069625D01*
X0078881Y0069736D01*
X0079000Y0069845D01*
X0079121Y0069950D01*
X0079245Y0070053D01*
X0079371Y0070153D01*
X0079499Y0070249D01*
X0079630Y0070342D01*
X0079764Y0070432D01*
X0079899Y0070519D01*
X0080037Y0070602D01*
X0080176Y0070682D01*
X0080318Y0070758D01*
X0080461Y0070831D01*
X0080606Y0070900D01*
X0080753Y0070966D01*
X0080901Y0071028D01*
X0081051Y0071086D01*
X0081202Y0071141D01*
X0081355Y0071192D01*
X0081509Y0071239D01*
X0081664Y0071282D01*
X0081820Y0071321D01*
X0081976Y0071357D01*
X0082134Y0071388D01*
X0082292Y0071416D01*
X0082451Y0071440D01*
X0082611Y0071460D01*
X0082771Y0071476D01*
X0082931Y0071488D01*
X0083092Y0071496D01*
X0083253Y0071500D01*
X0083413Y0071500D01*
X0083574Y0071496D01*
X0083735Y0071488D01*
X0083895Y0071476D01*
X0084055Y0071460D01*
X0084215Y0071440D01*
X0084374Y0071416D01*
X0084532Y0071388D01*
X0084690Y0071357D01*
X0084846Y0071321D01*
X0085002Y0071282D01*
X0085157Y0071239D01*
X0085311Y0071192D01*
X0085464Y0071141D01*
X0085615Y0071086D01*
X0085765Y0071028D01*
X0085913Y0070966D01*
X0086060Y0070900D01*
X0086205Y0070831D01*
X0086348Y0070758D01*
X0086490Y0070682D01*
X0086629Y0070602D01*
X0086767Y0070519D01*
X0086902Y0070432D01*
X0087036Y0070342D01*
X0087167Y0070249D01*
X0087295Y0070153D01*
X0087421Y0070053D01*
X0087545Y0069950D01*
X0087666Y0069845D01*
X0087785Y0069736D01*
X0087901Y0069625D01*
X0088014Y0069510D01*
X0088124Y0069393D01*
X0088231Y0069273D01*
X0088335Y0069151D01*
X0088436Y0069026D01*
X0088534Y0068898D01*
X0088629Y0068768D01*
X0088721Y0068636D01*
X0088809Y0068502D01*
X0088894Y0068365D01*
X0088976Y0068227D01*
X0089054Y0068086D01*
X0089128Y0067944D01*
X0089199Y0067800D01*
X0089267Y0067654D01*
X0089330Y0067506D01*
X0089391Y0067357D01*
X0089447Y0067206D01*
X0089500Y0067054D01*
X0089549Y0066901D01*
X0089594Y0066747D01*
X0089635Y0066592D01*
X0089673Y0066435D01*
X0089706Y0066278D01*
X0089736Y0066120D01*
X0089762Y0065961D01*
X0089783Y0065802D01*
X0089801Y0065642D01*
X0089815Y0065482D01*
X0089825Y0065321D01*
X0089831Y0065161D01*
X0089833Y0065000D01*
X0089831Y0064839D01*
X0089825Y0064679D01*
X0089815Y0064518D01*
X0089801Y0064358D01*
X0089783Y0064198D01*
X0089762Y0064039D01*
X0089736Y0063880D01*
X0089706Y0063722D01*
X0089673Y0063565D01*
X0089635Y0063408D01*
X0089594Y0063253D01*
X0089549Y0063099D01*
X0089500Y0062946D01*
X0089447Y0062794D01*
X0089391Y0062643D01*
X0089330Y0062494D01*
X0089267Y0062346D01*
X0089199Y0062200D01*
X0089128Y0062056D01*
X0089054Y0061914D01*
X0088976Y0061773D01*
X0088894Y0061635D01*
X0088809Y0061498D01*
X0088721Y0061364D01*
X0088629Y0061232D01*
X0088534Y0061102D01*
X0088436Y0060974D01*
X0088335Y0060849D01*
X0088231Y0060727D01*
X0088124Y0060607D01*
X0088014Y0060490D01*
X0087901Y0060375D01*
X0087785Y0060264D01*
X0087666Y0060155D01*
X0087545Y0060050D01*
X0087421Y0059947D01*
X0087295Y0059847D01*
X0087167Y0059751D01*
X0087036Y0059658D01*
X0086902Y0059568D01*
X0086767Y0059481D01*
X0086629Y0059398D01*
X0086490Y0059318D01*
X0086348Y0059242D01*
X0086205Y0059169D01*
X0086060Y0059100D01*
X0085913Y0059034D01*
X0085765Y0058972D01*
X0085615Y0058914D01*
X0085464Y0058859D01*
X0085311Y0058808D01*
X0085157Y0058761D01*
X0085002Y0058718D01*
X0084846Y0058679D01*
X0084690Y0058643D01*
X0084532Y0058612D01*
X0084374Y0058584D01*
X0084215Y0058560D01*
X0084055Y0058540D01*
X0083895Y0058524D01*
X0083735Y0058512D01*
X0083574Y0058504D01*
X0083413Y0058500D01*
X0083253Y0058500D01*
X0083092Y0058504D01*
X0082931Y0058512D01*
X0082771Y0058524D01*
X0082611Y0058540D01*
X0082451Y0058560D01*
X0082292Y0058584D01*
X0082134Y0058612D01*
X0081976Y0058643D01*
X0081820Y0058679D01*
X0081664Y0058718D01*
X0081509Y0058761D01*
X0081355Y0058808D01*
X0081202Y0058859D01*
X0081051Y0058914D01*
X0080901Y0058972D01*
X0080753Y0059034D01*
X0080606Y0059100D01*
X0080461Y0059169D01*
X0080318Y0059242D01*
X0080176Y0059318D01*
X0080037Y0059398D01*
X0079899Y0059481D01*
X0079764Y0059568D01*
X0079630Y0059658D01*
X0079499Y0059751D01*
X0079371Y0059847D01*
X0079245Y0059947D01*
X0079121Y0060050D01*
X0079000Y0060155D01*
X0078881Y0060264D01*
X0078765Y0060375D01*
X0078652Y0060490D01*
X0078542Y0060607D01*
X0078435Y0060727D01*
X0078331Y0060849D01*
X0078230Y0060974D01*
X0078132Y0061102D01*
X0078037Y0061232D01*
X0077945Y0061364D01*
X0077857Y0061498D01*
X0077772Y0061635D01*
X0077690Y0061773D01*
X0077612Y0061914D01*
X0077538Y0062056D01*
X0077467Y0062200D01*
X0077399Y0062346D01*
X0077336Y0062494D01*
X0077275Y0062643D01*
X0077219Y0062794D01*
X0077166Y0062946D01*
X0077117Y0063099D01*
X0077072Y0063253D01*
X0077031Y0063408D01*
X0076993Y0063565D01*
X0076960Y0063722D01*
X0076930Y0063880D01*
X0076904Y0064039D01*
X0076883Y0064198D01*
X0076865Y0064358D01*
X0076851Y0064518D01*
X0076841Y0064679D01*
X0076835Y0064839D01*
X0076833Y0065000D01*
X0228333Y0095000D02*
X0228333Y0096496D01*
X0306833Y0065000D02*
X0306835Y0065161D01*
X0306841Y0065321D01*
X0306851Y0065482D01*
X0306865Y0065642D01*
X0306883Y0065802D01*
X0306904Y0065961D01*
X0306930Y0066120D01*
X0306960Y0066278D01*
X0306993Y0066435D01*
X0307031Y0066592D01*
X0307072Y0066747D01*
X0307117Y0066901D01*
X0307166Y0067054D01*
X0307219Y0067206D01*
X0307275Y0067357D01*
X0307336Y0067506D01*
X0307399Y0067654D01*
X0307467Y0067800D01*
X0307538Y0067944D01*
X0307612Y0068086D01*
X0307690Y0068227D01*
X0307772Y0068365D01*
X0307857Y0068502D01*
X0307945Y0068636D01*
X0308037Y0068768D01*
X0308132Y0068898D01*
X0308230Y0069026D01*
X0308331Y0069151D01*
X0308435Y0069273D01*
X0308542Y0069393D01*
X0308652Y0069510D01*
X0308765Y0069625D01*
X0308881Y0069736D01*
X0309000Y0069845D01*
X0309121Y0069950D01*
X0309245Y0070053D01*
X0309371Y0070153D01*
X0309499Y0070249D01*
X0309630Y0070342D01*
X0309764Y0070432D01*
X0309899Y0070519D01*
X0310037Y0070602D01*
X0310176Y0070682D01*
X0310318Y0070758D01*
X0310461Y0070831D01*
X0310606Y0070900D01*
X0310753Y0070966D01*
X0310901Y0071028D01*
X0311051Y0071086D01*
X0311202Y0071141D01*
X0311355Y0071192D01*
X0311509Y0071239D01*
X0311664Y0071282D01*
X0311820Y0071321D01*
X0311976Y0071357D01*
X0312134Y0071388D01*
X0312292Y0071416D01*
X0312451Y0071440D01*
X0312611Y0071460D01*
X0312771Y0071476D01*
X0312931Y0071488D01*
X0313092Y0071496D01*
X0313253Y0071500D01*
X0313413Y0071500D01*
X0313574Y0071496D01*
X0313735Y0071488D01*
X0313895Y0071476D01*
X0314055Y0071460D01*
X0314215Y0071440D01*
X0314374Y0071416D01*
X0314532Y0071388D01*
X0314690Y0071357D01*
X0314846Y0071321D01*
X0315002Y0071282D01*
X0315157Y0071239D01*
X0315311Y0071192D01*
X0315464Y0071141D01*
X0315615Y0071086D01*
X0315765Y0071028D01*
X0315913Y0070966D01*
X0316060Y0070900D01*
X0316205Y0070831D01*
X0316348Y0070758D01*
X0316490Y0070682D01*
X0316629Y0070602D01*
X0316767Y0070519D01*
X0316902Y0070432D01*
X0317036Y0070342D01*
X0317167Y0070249D01*
X0317295Y0070153D01*
X0317421Y0070053D01*
X0317545Y0069950D01*
X0317666Y0069845D01*
X0317785Y0069736D01*
X0317901Y0069625D01*
X0318014Y0069510D01*
X0318124Y0069393D01*
X0318231Y0069273D01*
X0318335Y0069151D01*
X0318436Y0069026D01*
X0318534Y0068898D01*
X0318629Y0068768D01*
X0318721Y0068636D01*
X0318809Y0068502D01*
X0318894Y0068365D01*
X0318976Y0068227D01*
X0319054Y0068086D01*
X0319128Y0067944D01*
X0319199Y0067800D01*
X0319267Y0067654D01*
X0319330Y0067506D01*
X0319391Y0067357D01*
X0319447Y0067206D01*
X0319500Y0067054D01*
X0319549Y0066901D01*
X0319594Y0066747D01*
X0319635Y0066592D01*
X0319673Y0066435D01*
X0319706Y0066278D01*
X0319736Y0066120D01*
X0319762Y0065961D01*
X0319783Y0065802D01*
X0319801Y0065642D01*
X0319815Y0065482D01*
X0319825Y0065321D01*
X0319831Y0065161D01*
X0319833Y0065000D01*
X0319831Y0064839D01*
X0319825Y0064679D01*
X0319815Y0064518D01*
X0319801Y0064358D01*
X0319783Y0064198D01*
X0319762Y0064039D01*
X0319736Y0063880D01*
X0319706Y0063722D01*
X0319673Y0063565D01*
X0319635Y0063408D01*
X0319594Y0063253D01*
X0319549Y0063099D01*
X0319500Y0062946D01*
X0319447Y0062794D01*
X0319391Y0062643D01*
X0319330Y0062494D01*
X0319267Y0062346D01*
X0319199Y0062200D01*
X0319128Y0062056D01*
X0319054Y0061914D01*
X0318976Y0061773D01*
X0318894Y0061635D01*
X0318809Y0061498D01*
X0318721Y0061364D01*
X0318629Y0061232D01*
X0318534Y0061102D01*
X0318436Y0060974D01*
X0318335Y0060849D01*
X0318231Y0060727D01*
X0318124Y0060607D01*
X0318014Y0060490D01*
X0317901Y0060375D01*
X0317785Y0060264D01*
X0317666Y0060155D01*
X0317545Y0060050D01*
X0317421Y0059947D01*
X0317295Y0059847D01*
X0317167Y0059751D01*
X0317036Y0059658D01*
X0316902Y0059568D01*
X0316767Y0059481D01*
X0316629Y0059398D01*
X0316490Y0059318D01*
X0316348Y0059242D01*
X0316205Y0059169D01*
X0316060Y0059100D01*
X0315913Y0059034D01*
X0315765Y0058972D01*
X0315615Y0058914D01*
X0315464Y0058859D01*
X0315311Y0058808D01*
X0315157Y0058761D01*
X0315002Y0058718D01*
X0314846Y0058679D01*
X0314690Y0058643D01*
X0314532Y0058612D01*
X0314374Y0058584D01*
X0314215Y0058560D01*
X0314055Y0058540D01*
X0313895Y0058524D01*
X0313735Y0058512D01*
X0313574Y0058504D01*
X0313413Y0058500D01*
X0313253Y0058500D01*
X0313092Y0058504D01*
X0312931Y0058512D01*
X0312771Y0058524D01*
X0312611Y0058540D01*
X0312451Y0058560D01*
X0312292Y0058584D01*
X0312134Y0058612D01*
X0311976Y0058643D01*
X0311820Y0058679D01*
X0311664Y0058718D01*
X0311509Y0058761D01*
X0311355Y0058808D01*
X0311202Y0058859D01*
X0311051Y0058914D01*
X0310901Y0058972D01*
X0310753Y0059034D01*
X0310606Y0059100D01*
X0310461Y0059169D01*
X0310318Y0059242D01*
X0310176Y0059318D01*
X0310037Y0059398D01*
X0309899Y0059481D01*
X0309764Y0059568D01*
X0309630Y0059658D01*
X0309499Y0059751D01*
X0309371Y0059847D01*
X0309245Y0059947D01*
X0309121Y0060050D01*
X0309000Y0060155D01*
X0308881Y0060264D01*
X0308765Y0060375D01*
X0308652Y0060490D01*
X0308542Y0060607D01*
X0308435Y0060727D01*
X0308331Y0060849D01*
X0308230Y0060974D01*
X0308132Y0061102D01*
X0308037Y0061232D01*
X0307945Y0061364D01*
X0307857Y0061498D01*
X0307772Y0061635D01*
X0307690Y0061773D01*
X0307612Y0061914D01*
X0307538Y0062056D01*
X0307467Y0062200D01*
X0307399Y0062346D01*
X0307336Y0062494D01*
X0307275Y0062643D01*
X0307219Y0062794D01*
X0307166Y0062946D01*
X0307117Y0063099D01*
X0307072Y0063253D01*
X0307031Y0063408D01*
X0306993Y0063565D01*
X0306960Y0063722D01*
X0306930Y0063880D01*
X0306904Y0064039D01*
X0306883Y0064198D01*
X0306865Y0064358D01*
X0306851Y0064518D01*
X0306841Y0064679D01*
X0306835Y0064839D01*
X0306833Y0065000D01*
X0306833Y0230000D02*
X0306835Y0230161D01*
X0306841Y0230321D01*
X0306851Y0230482D01*
X0306865Y0230642D01*
X0306883Y0230802D01*
X0306904Y0230961D01*
X0306930Y0231120D01*
X0306960Y0231278D01*
X0306993Y0231435D01*
X0307031Y0231592D01*
X0307072Y0231747D01*
X0307117Y0231901D01*
X0307166Y0232054D01*
X0307219Y0232206D01*
X0307275Y0232357D01*
X0307336Y0232506D01*
X0307399Y0232654D01*
X0307467Y0232800D01*
X0307538Y0232944D01*
X0307612Y0233086D01*
X0307690Y0233227D01*
X0307772Y0233365D01*
X0307857Y0233502D01*
X0307945Y0233636D01*
X0308037Y0233768D01*
X0308132Y0233898D01*
X0308230Y0234026D01*
X0308331Y0234151D01*
X0308435Y0234273D01*
X0308542Y0234393D01*
X0308652Y0234510D01*
X0308765Y0234625D01*
X0308881Y0234736D01*
X0309000Y0234845D01*
X0309121Y0234950D01*
X0309245Y0235053D01*
X0309371Y0235153D01*
X0309499Y0235249D01*
X0309630Y0235342D01*
X0309764Y0235432D01*
X0309899Y0235519D01*
X0310037Y0235602D01*
X0310176Y0235682D01*
X0310318Y0235758D01*
X0310461Y0235831D01*
X0310606Y0235900D01*
X0310753Y0235966D01*
X0310901Y0236028D01*
X0311051Y0236086D01*
X0311202Y0236141D01*
X0311355Y0236192D01*
X0311509Y0236239D01*
X0311664Y0236282D01*
X0311820Y0236321D01*
X0311976Y0236357D01*
X0312134Y0236388D01*
X0312292Y0236416D01*
X0312451Y0236440D01*
X0312611Y0236460D01*
X0312771Y0236476D01*
X0312931Y0236488D01*
X0313092Y0236496D01*
X0313253Y0236500D01*
X0313413Y0236500D01*
X0313574Y0236496D01*
X0313735Y0236488D01*
X0313895Y0236476D01*
X0314055Y0236460D01*
X0314215Y0236440D01*
X0314374Y0236416D01*
X0314532Y0236388D01*
X0314690Y0236357D01*
X0314846Y0236321D01*
X0315002Y0236282D01*
X0315157Y0236239D01*
X0315311Y0236192D01*
X0315464Y0236141D01*
X0315615Y0236086D01*
X0315765Y0236028D01*
X0315913Y0235966D01*
X0316060Y0235900D01*
X0316205Y0235831D01*
X0316348Y0235758D01*
X0316490Y0235682D01*
X0316629Y0235602D01*
X0316767Y0235519D01*
X0316902Y0235432D01*
X0317036Y0235342D01*
X0317167Y0235249D01*
X0317295Y0235153D01*
X0317421Y0235053D01*
X0317545Y0234950D01*
X0317666Y0234845D01*
X0317785Y0234736D01*
X0317901Y0234625D01*
X0318014Y0234510D01*
X0318124Y0234393D01*
X0318231Y0234273D01*
X0318335Y0234151D01*
X0318436Y0234026D01*
X0318534Y0233898D01*
X0318629Y0233768D01*
X0318721Y0233636D01*
X0318809Y0233502D01*
X0318894Y0233365D01*
X0318976Y0233227D01*
X0319054Y0233086D01*
X0319128Y0232944D01*
X0319199Y0232800D01*
X0319267Y0232654D01*
X0319330Y0232506D01*
X0319391Y0232357D01*
X0319447Y0232206D01*
X0319500Y0232054D01*
X0319549Y0231901D01*
X0319594Y0231747D01*
X0319635Y0231592D01*
X0319673Y0231435D01*
X0319706Y0231278D01*
X0319736Y0231120D01*
X0319762Y0230961D01*
X0319783Y0230802D01*
X0319801Y0230642D01*
X0319815Y0230482D01*
X0319825Y0230321D01*
X0319831Y0230161D01*
X0319833Y0230000D01*
X0319831Y0229839D01*
X0319825Y0229679D01*
X0319815Y0229518D01*
X0319801Y0229358D01*
X0319783Y0229198D01*
X0319762Y0229039D01*
X0319736Y0228880D01*
X0319706Y0228722D01*
X0319673Y0228565D01*
X0319635Y0228408D01*
X0319594Y0228253D01*
X0319549Y0228099D01*
X0319500Y0227946D01*
X0319447Y0227794D01*
X0319391Y0227643D01*
X0319330Y0227494D01*
X0319267Y0227346D01*
X0319199Y0227200D01*
X0319128Y0227056D01*
X0319054Y0226914D01*
X0318976Y0226773D01*
X0318894Y0226635D01*
X0318809Y0226498D01*
X0318721Y0226364D01*
X0318629Y0226232D01*
X0318534Y0226102D01*
X0318436Y0225974D01*
X0318335Y0225849D01*
X0318231Y0225727D01*
X0318124Y0225607D01*
X0318014Y0225490D01*
X0317901Y0225375D01*
X0317785Y0225264D01*
X0317666Y0225155D01*
X0317545Y0225050D01*
X0317421Y0224947D01*
X0317295Y0224847D01*
X0317167Y0224751D01*
X0317036Y0224658D01*
X0316902Y0224568D01*
X0316767Y0224481D01*
X0316629Y0224398D01*
X0316490Y0224318D01*
X0316348Y0224242D01*
X0316205Y0224169D01*
X0316060Y0224100D01*
X0315913Y0224034D01*
X0315765Y0223972D01*
X0315615Y0223914D01*
X0315464Y0223859D01*
X0315311Y0223808D01*
X0315157Y0223761D01*
X0315002Y0223718D01*
X0314846Y0223679D01*
X0314690Y0223643D01*
X0314532Y0223612D01*
X0314374Y0223584D01*
X0314215Y0223560D01*
X0314055Y0223540D01*
X0313895Y0223524D01*
X0313735Y0223512D01*
X0313574Y0223504D01*
X0313413Y0223500D01*
X0313253Y0223500D01*
X0313092Y0223504D01*
X0312931Y0223512D01*
X0312771Y0223524D01*
X0312611Y0223540D01*
X0312451Y0223560D01*
X0312292Y0223584D01*
X0312134Y0223612D01*
X0311976Y0223643D01*
X0311820Y0223679D01*
X0311664Y0223718D01*
X0311509Y0223761D01*
X0311355Y0223808D01*
X0311202Y0223859D01*
X0311051Y0223914D01*
X0310901Y0223972D01*
X0310753Y0224034D01*
X0310606Y0224100D01*
X0310461Y0224169D01*
X0310318Y0224242D01*
X0310176Y0224318D01*
X0310037Y0224398D01*
X0309899Y0224481D01*
X0309764Y0224568D01*
X0309630Y0224658D01*
X0309499Y0224751D01*
X0309371Y0224847D01*
X0309245Y0224947D01*
X0309121Y0225050D01*
X0309000Y0225155D01*
X0308881Y0225264D01*
X0308765Y0225375D01*
X0308652Y0225490D01*
X0308542Y0225607D01*
X0308435Y0225727D01*
X0308331Y0225849D01*
X0308230Y0225974D01*
X0308132Y0226102D01*
X0308037Y0226232D01*
X0307945Y0226364D01*
X0307857Y0226498D01*
X0307772Y0226635D01*
X0307690Y0226773D01*
X0307612Y0226914D01*
X0307538Y0227056D01*
X0307467Y0227200D01*
X0307399Y0227346D01*
X0307336Y0227494D01*
X0307275Y0227643D01*
X0307219Y0227794D01*
X0307166Y0227946D01*
X0307117Y0228099D01*
X0307072Y0228253D01*
X0307031Y0228408D01*
X0306993Y0228565D01*
X0306960Y0228722D01*
X0306930Y0228880D01*
X0306904Y0229039D01*
X0306883Y0229198D01*
X0306865Y0229358D01*
X0306851Y0229518D01*
X0306841Y0229679D01*
X0306835Y0229839D01*
X0306833Y0230000D01*
X0076833Y0230000D02*
X0076835Y0230161D01*
X0076841Y0230321D01*
X0076851Y0230482D01*
X0076865Y0230642D01*
X0076883Y0230802D01*
X0076904Y0230961D01*
X0076930Y0231120D01*
X0076960Y0231278D01*
X0076993Y0231435D01*
X0077031Y0231592D01*
X0077072Y0231747D01*
X0077117Y0231901D01*
X0077166Y0232054D01*
X0077219Y0232206D01*
X0077275Y0232357D01*
X0077336Y0232506D01*
X0077399Y0232654D01*
X0077467Y0232800D01*
X0077538Y0232944D01*
X0077612Y0233086D01*
X0077690Y0233227D01*
X0077772Y0233365D01*
X0077857Y0233502D01*
X0077945Y0233636D01*
X0078037Y0233768D01*
X0078132Y0233898D01*
X0078230Y0234026D01*
X0078331Y0234151D01*
X0078435Y0234273D01*
X0078542Y0234393D01*
X0078652Y0234510D01*
X0078765Y0234625D01*
X0078881Y0234736D01*
X0079000Y0234845D01*
X0079121Y0234950D01*
X0079245Y0235053D01*
X0079371Y0235153D01*
X0079499Y0235249D01*
X0079630Y0235342D01*
X0079764Y0235432D01*
X0079899Y0235519D01*
X0080037Y0235602D01*
X0080176Y0235682D01*
X0080318Y0235758D01*
X0080461Y0235831D01*
X0080606Y0235900D01*
X0080753Y0235966D01*
X0080901Y0236028D01*
X0081051Y0236086D01*
X0081202Y0236141D01*
X0081355Y0236192D01*
X0081509Y0236239D01*
X0081664Y0236282D01*
X0081820Y0236321D01*
X0081976Y0236357D01*
X0082134Y0236388D01*
X0082292Y0236416D01*
X0082451Y0236440D01*
X0082611Y0236460D01*
X0082771Y0236476D01*
X0082931Y0236488D01*
X0083092Y0236496D01*
X0083253Y0236500D01*
X0083413Y0236500D01*
X0083574Y0236496D01*
X0083735Y0236488D01*
X0083895Y0236476D01*
X0084055Y0236460D01*
X0084215Y0236440D01*
X0084374Y0236416D01*
X0084532Y0236388D01*
X0084690Y0236357D01*
X0084846Y0236321D01*
X0085002Y0236282D01*
X0085157Y0236239D01*
X0085311Y0236192D01*
X0085464Y0236141D01*
X0085615Y0236086D01*
X0085765Y0236028D01*
X0085913Y0235966D01*
X0086060Y0235900D01*
X0086205Y0235831D01*
X0086348Y0235758D01*
X0086490Y0235682D01*
X0086629Y0235602D01*
X0086767Y0235519D01*
X0086902Y0235432D01*
X0087036Y0235342D01*
X0087167Y0235249D01*
X0087295Y0235153D01*
X0087421Y0235053D01*
X0087545Y0234950D01*
X0087666Y0234845D01*
X0087785Y0234736D01*
X0087901Y0234625D01*
X0088014Y0234510D01*
X0088124Y0234393D01*
X0088231Y0234273D01*
X0088335Y0234151D01*
X0088436Y0234026D01*
X0088534Y0233898D01*
X0088629Y0233768D01*
X0088721Y0233636D01*
X0088809Y0233502D01*
X0088894Y0233365D01*
X0088976Y0233227D01*
X0089054Y0233086D01*
X0089128Y0232944D01*
X0089199Y0232800D01*
X0089267Y0232654D01*
X0089330Y0232506D01*
X0089391Y0232357D01*
X0089447Y0232206D01*
X0089500Y0232054D01*
X0089549Y0231901D01*
X0089594Y0231747D01*
X0089635Y0231592D01*
X0089673Y0231435D01*
X0089706Y0231278D01*
X0089736Y0231120D01*
X0089762Y0230961D01*
X0089783Y0230802D01*
X0089801Y0230642D01*
X0089815Y0230482D01*
X0089825Y0230321D01*
X0089831Y0230161D01*
X0089833Y0230000D01*
X0089831Y0229839D01*
X0089825Y0229679D01*
X0089815Y0229518D01*
X0089801Y0229358D01*
X0089783Y0229198D01*
X0089762Y0229039D01*
X0089736Y0228880D01*
X0089706Y0228722D01*
X0089673Y0228565D01*
X0089635Y0228408D01*
X0089594Y0228253D01*
X0089549Y0228099D01*
X0089500Y0227946D01*
X0089447Y0227794D01*
X0089391Y0227643D01*
X0089330Y0227494D01*
X0089267Y0227346D01*
X0089199Y0227200D01*
X0089128Y0227056D01*
X0089054Y0226914D01*
X0088976Y0226773D01*
X0088894Y0226635D01*
X0088809Y0226498D01*
X0088721Y0226364D01*
X0088629Y0226232D01*
X0088534Y0226102D01*
X0088436Y0225974D01*
X0088335Y0225849D01*
X0088231Y0225727D01*
X0088124Y0225607D01*
X0088014Y0225490D01*
X0087901Y0225375D01*
X0087785Y0225264D01*
X0087666Y0225155D01*
X0087545Y0225050D01*
X0087421Y0224947D01*
X0087295Y0224847D01*
X0087167Y0224751D01*
X0087036Y0224658D01*
X0086902Y0224568D01*
X0086767Y0224481D01*
X0086629Y0224398D01*
X0086490Y0224318D01*
X0086348Y0224242D01*
X0086205Y0224169D01*
X0086060Y0224100D01*
X0085913Y0224034D01*
X0085765Y0223972D01*
X0085615Y0223914D01*
X0085464Y0223859D01*
X0085311Y0223808D01*
X0085157Y0223761D01*
X0085002Y0223718D01*
X0084846Y0223679D01*
X0084690Y0223643D01*
X0084532Y0223612D01*
X0084374Y0223584D01*
X0084215Y0223560D01*
X0084055Y0223540D01*
X0083895Y0223524D01*
X0083735Y0223512D01*
X0083574Y0223504D01*
X0083413Y0223500D01*
X0083253Y0223500D01*
X0083092Y0223504D01*
X0082931Y0223512D01*
X0082771Y0223524D01*
X0082611Y0223540D01*
X0082451Y0223560D01*
X0082292Y0223584D01*
X0082134Y0223612D01*
X0081976Y0223643D01*
X0081820Y0223679D01*
X0081664Y0223718D01*
X0081509Y0223761D01*
X0081355Y0223808D01*
X0081202Y0223859D01*
X0081051Y0223914D01*
X0080901Y0223972D01*
X0080753Y0224034D01*
X0080606Y0224100D01*
X0080461Y0224169D01*
X0080318Y0224242D01*
X0080176Y0224318D01*
X0080037Y0224398D01*
X0079899Y0224481D01*
X0079764Y0224568D01*
X0079630Y0224658D01*
X0079499Y0224751D01*
X0079371Y0224847D01*
X0079245Y0224947D01*
X0079121Y0225050D01*
X0079000Y0225155D01*
X0078881Y0225264D01*
X0078765Y0225375D01*
X0078652Y0225490D01*
X0078542Y0225607D01*
X0078435Y0225727D01*
X0078331Y0225849D01*
X0078230Y0225974D01*
X0078132Y0226102D01*
X0078037Y0226232D01*
X0077945Y0226364D01*
X0077857Y0226498D01*
X0077772Y0226635D01*
X0077690Y0226773D01*
X0077612Y0226914D01*
X0077538Y0227056D01*
X0077467Y0227200D01*
X0077399Y0227346D01*
X0077336Y0227494D01*
X0077275Y0227643D01*
X0077219Y0227794D01*
X0077166Y0227946D01*
X0077117Y0228099D01*
X0077072Y0228253D01*
X0077031Y0228408D01*
X0076993Y0228565D01*
X0076960Y0228722D01*
X0076930Y0228880D01*
X0076904Y0229039D01*
X0076883Y0229198D01*
X0076865Y0229358D01*
X0076851Y0229518D01*
X0076841Y0229679D01*
X0076835Y0229839D01*
X0076833Y0230000D01*
D11*
X0213333Y0220000D03*
X0220833Y0215000D03*
X0213333Y0210000D03*
X0233333Y0195000D03*
X0233333Y0235000D03*
D12*
X0193333Y0235000D03*
X0193333Y0195000D03*
D13*
X0179333Y0199900D03*
X0179333Y0230000D03*
X0129133Y0230000D03*
X0119333Y0200000D03*
D14*
X0083333Y0200000D03*
X0083333Y0155000D03*
X0083333Y0110000D03*
D15*
X0083333Y0090315D03*
X0083333Y0135315D03*
X0083333Y0180315D03*
D16*
X0243333Y0175000D03*
X0253333Y0175000D03*
X0263333Y0175000D03*
X0273333Y0175000D03*
X0283333Y0175000D03*
X0283333Y0165000D03*
X0273333Y0165000D03*
X0263333Y0165000D03*
X0253333Y0165000D03*
X0243333Y0165000D03*
X0263333Y0210000D03*
X0273333Y0210000D03*
X0283333Y0210000D03*
X0283333Y0220000D03*
X0273333Y0220000D03*
X0263333Y0220000D03*
D17*
X0202703Y0144685D03*
X0202703Y0105315D03*
X0123963Y0085630D03*
X0123963Y0164370D03*
D18*
X0228333Y0120118D03*
X0228333Y0112244D03*
X0228333Y0104370D03*
X0228333Y0096496D03*
X0228333Y0088622D03*
X0228333Y0080748D03*
X0228333Y0072874D03*
X0236010Y0064606D03*
X0243885Y0064606D03*
X0251759Y0064606D03*
X0259633Y0064606D03*
X0267507Y0064606D03*
X0275381Y0064606D03*
X0283255Y0064606D03*
X0290932Y0072874D03*
X0290932Y0080748D03*
X0290932Y0088622D03*
X0290932Y0096496D03*
X0290932Y0104370D03*
X0290932Y0112244D03*
X0290932Y0120118D03*
D19*
X0228333Y0145000D03*
D20*
X0233405Y0139364D02*
X0235905Y0141864D01*
X0235905Y0148136D01*
X0231470Y0152572D01*
X0225197Y0152572D01*
X0220762Y0148136D01*
X0220762Y0141864D01*
X0223262Y0139364D01*
X0223262Y0124003D01*
X0223006Y0123386D01*
X0223006Y0116851D01*
X0223397Y0115905D01*
X0223577Y0115725D01*
X0223577Y0115044D01*
X0209076Y0115044D01*
X0208046Y0114618D01*
X0207259Y0113830D01*
X0204010Y0110581D01*
X0203771Y0110680D01*
X0201636Y0110680D01*
X0199664Y0109863D01*
X0198155Y0108354D01*
X0197338Y0106382D01*
X0197338Y0104248D01*
X0198155Y0102276D01*
X0199664Y0100766D01*
X0201636Y0099950D01*
X0203771Y0099950D01*
X0205743Y0100766D01*
X0207252Y0102276D01*
X0208069Y0104248D01*
X0208069Y0106382D01*
X0207970Y0106621D01*
X0210792Y0109444D01*
X0223577Y0109444D01*
X0223577Y0108660D01*
X0224089Y0108148D01*
X0223900Y0107821D01*
X0223777Y0107363D01*
X0223777Y0104948D01*
X0227755Y0104948D01*
X0227755Y0103792D01*
X0223777Y0103792D01*
X0223777Y0101377D01*
X0223900Y0100919D01*
X0224089Y0100592D01*
X0223577Y0100080D01*
X0223577Y0097800D01*
X0199832Y0097800D01*
X0191133Y0110848D01*
X0191133Y0173375D01*
X0224077Y0192200D01*
X0228323Y0192200D01*
X0228501Y0191771D01*
X0230105Y0190168D01*
X0232200Y0189300D01*
X0234467Y0189300D01*
X0236562Y0190168D01*
X0238166Y0191771D01*
X0239033Y0193866D01*
X0239033Y0196134D01*
X0238166Y0198229D01*
X0236562Y0199832D01*
X0234467Y0200700D01*
X0232200Y0200700D01*
X0230105Y0199832D01*
X0228501Y0198229D01*
X0228323Y0197800D01*
X0223708Y0197800D01*
X0223533Y0197848D01*
X0223156Y0197800D01*
X0222776Y0197800D01*
X0222608Y0197730D01*
X0222428Y0197707D01*
X0222098Y0197519D01*
X0221747Y0197374D01*
X0221619Y0197245D01*
X0187098Y0177519D01*
X0186747Y0177374D01*
X0186619Y0177245D01*
X0186461Y0177155D01*
X0186228Y0176855D01*
X0185960Y0176586D01*
X0185890Y0176418D01*
X0185779Y0176274D01*
X0185679Y0175908D01*
X0185533Y0175557D01*
X0185533Y0175375D01*
X0185485Y0175199D01*
X0185533Y0174823D01*
X0185533Y0110277D01*
X0185478Y0110003D01*
X0185533Y0109726D01*
X0185533Y0109443D01*
X0185640Y0109185D01*
X0185695Y0108910D01*
X0185851Y0108675D01*
X0185960Y0108414D01*
X0186157Y0108216D01*
X0195851Y0093675D01*
X0195960Y0093414D01*
X0196157Y0093216D01*
X0196313Y0092983D01*
X0196547Y0092826D01*
X0196574Y0092800D01*
X0138333Y0092800D01*
X0134493Y0092800D01*
X0129919Y0097374D01*
X0128890Y0097800D01*
X0117776Y0097800D01*
X0116747Y0097374D01*
X0115960Y0096586D01*
X0112488Y0093115D01*
X0088668Y0093115D01*
X0088420Y0093714D01*
X0086732Y0095402D01*
X0084527Y0096315D01*
X0082140Y0096315D01*
X0079935Y0095402D01*
X0078247Y0093714D01*
X0077333Y0091508D01*
X0077333Y0089121D01*
X0078247Y0086916D01*
X0079935Y0085228D01*
X0082140Y0084315D01*
X0084527Y0084315D01*
X0086732Y0085228D01*
X0088420Y0086916D01*
X0088668Y0087515D01*
X0114205Y0087515D01*
X0115234Y0087941D01*
X0119493Y0092200D01*
X0127174Y0092200D01*
X0130960Y0088414D01*
X0131747Y0087626D01*
X0132776Y0087200D01*
X0138333Y0087200D01*
X0138333Y0057000D01*
X0088890Y0057000D01*
X0090879Y0058669D01*
X0092589Y0061631D01*
X0092589Y0061631D01*
X0093183Y0065000D01*
X0092589Y0068369D01*
X0090879Y0071331D01*
X0090879Y0071331D01*
X0088258Y0073530D01*
X0085044Y0074700D01*
X0081623Y0074700D01*
X0078409Y0073530D01*
X0078409Y0073530D01*
X0075788Y0071331D01*
X0074078Y0068369D01*
X0074078Y0068369D01*
X0073484Y0065000D01*
X0074078Y0061631D01*
X0075788Y0058669D01*
X0075788Y0058669D01*
X0077777Y0057000D01*
X0070333Y0057000D01*
X0070333Y0125000D01*
X0138333Y0125000D01*
X0138333Y0092800D01*
X0138333Y0237961D01*
X0188445Y0237961D01*
X0188051Y0237188D01*
X0187774Y0236335D01*
X0187633Y0235449D01*
X0187633Y0235184D01*
X0193149Y0235184D01*
X0193149Y0234816D01*
X0187633Y0234816D01*
X0187633Y0234551D01*
X0187774Y0233665D01*
X0188051Y0232812D01*
X0188458Y0232013D01*
X0188986Y0231287D01*
X0189620Y0230652D01*
X0190346Y0230125D01*
X0191145Y0229718D01*
X0191999Y0229440D01*
X0192885Y0229300D01*
X0193149Y0229300D01*
X0193149Y0234816D01*
X0193518Y0234816D01*
X0193518Y0235184D01*
X0199033Y0235184D01*
X0199033Y0235449D01*
X0198893Y0236335D01*
X0198616Y0237188D01*
X0198222Y0237961D01*
X0228390Y0237961D01*
X0227633Y0236134D01*
X0227633Y0233866D01*
X0228501Y0231771D01*
X0230105Y0230168D01*
X0230533Y0229990D01*
X0230533Y0221896D01*
X0224437Y0219457D01*
X0224062Y0219832D01*
X0221967Y0220700D01*
X0219700Y0220700D01*
X0219033Y0220424D01*
X0219033Y0221134D01*
X0218166Y0223229D01*
X0216562Y0224832D01*
X0214467Y0225700D01*
X0212200Y0225700D01*
X0210105Y0224832D01*
X0208501Y0223229D01*
X0208323Y0222800D01*
X0202776Y0222800D01*
X0201747Y0222374D01*
X0191747Y0212374D01*
X0190960Y0211586D01*
X0190533Y0210557D01*
X0190533Y0200226D01*
X0189991Y0200002D01*
X0188332Y0198342D01*
X0188107Y0197800D01*
X0185393Y0197800D01*
X0184962Y0198231D01*
X0185172Y0198739D01*
X0185172Y0201061D01*
X0184283Y0203207D01*
X0182641Y0204850D01*
X0180495Y0205739D01*
X0178172Y0205739D01*
X0176026Y0204850D01*
X0174384Y0203207D01*
X0173495Y0201061D01*
X0173495Y0198739D01*
X0174384Y0196593D01*
X0176026Y0194950D01*
X0178172Y0194061D01*
X0180495Y0194061D01*
X0181002Y0194272D01*
X0181860Y0193414D01*
X0182647Y0192626D01*
X0183676Y0192200D01*
X0188107Y0192200D01*
X0188332Y0191658D01*
X0189991Y0189998D01*
X0192160Y0189100D01*
X0194507Y0189100D01*
X0196675Y0189998D01*
X0198335Y0191658D01*
X0199233Y0193826D01*
X0199233Y0196174D01*
X0198335Y0198342D01*
X0196675Y0200002D01*
X0196133Y0200226D01*
X0196133Y0208840D01*
X0204493Y0217200D01*
X0208323Y0217200D01*
X0208501Y0216771D01*
X0210105Y0215168D01*
X0210510Y0215000D01*
X0210105Y0214832D01*
X0208501Y0213229D01*
X0207633Y0211134D01*
X0207633Y0208866D01*
X0208501Y0206771D01*
X0210105Y0205168D01*
X0212200Y0204300D01*
X0214467Y0204300D01*
X0216562Y0205168D01*
X0218166Y0206771D01*
X0219033Y0208866D01*
X0219033Y0209576D01*
X0219700Y0209300D01*
X0221967Y0209300D01*
X0224062Y0210168D01*
X0225666Y0211771D01*
X0226533Y0213866D01*
X0226533Y0214264D01*
X0233873Y0217200D01*
X0233890Y0217200D01*
X0234389Y0217407D01*
X0234890Y0217607D01*
X0234903Y0217619D01*
X0234919Y0217626D01*
X0235301Y0218008D01*
X0235688Y0218385D01*
X0235695Y0218401D01*
X0235707Y0218414D01*
X0235914Y0218913D01*
X0236126Y0219409D01*
X0236127Y0219427D01*
X0236133Y0219443D01*
X0236133Y0219983D01*
X0236140Y0220523D01*
X0236133Y0220539D01*
X0236133Y0229990D01*
X0236562Y0230168D01*
X0238166Y0231771D01*
X0239033Y0233866D01*
X0239033Y0236134D01*
X0238277Y0237961D01*
X0307730Y0237961D01*
X0305788Y0236331D01*
X0304078Y0233369D01*
X0304078Y0233369D01*
X0303484Y0230000D01*
X0304078Y0226631D01*
X0305788Y0223669D01*
X0305788Y0223669D01*
X0308409Y0221470D01*
X0311623Y0220300D01*
X0315044Y0220300D01*
X0318258Y0221470D01*
X0318258Y0221470D01*
X0320034Y0222960D01*
X0320034Y0072040D01*
X0318258Y0073530D01*
X0315044Y0074700D01*
X0311623Y0074700D01*
X0308409Y0073530D01*
X0305788Y0071331D01*
X0304078Y0068369D01*
X0304078Y0068369D01*
X0303484Y0065000D01*
X0304078Y0061631D01*
X0305788Y0058669D01*
X0305788Y0058669D01*
X0307777Y0057000D01*
X0138333Y0057000D01*
X0138333Y0087200D01*
X0223577Y0087200D01*
X0223577Y0085038D01*
X0223930Y0084685D01*
X0223577Y0084332D01*
X0223577Y0077164D01*
X0223930Y0076811D01*
X0223577Y0076458D01*
X0223577Y0069290D01*
X0224749Y0068118D01*
X0231255Y0068118D01*
X0231255Y0061022D01*
X0232426Y0059850D01*
X0239595Y0059850D01*
X0239947Y0060203D01*
X0240300Y0059850D01*
X0247469Y0059850D01*
X0247822Y0060203D01*
X0248174Y0059850D01*
X0255343Y0059850D01*
X0255696Y0060203D01*
X0256048Y0059850D01*
X0263217Y0059850D01*
X0263570Y0060203D01*
X0263922Y0059850D01*
X0271091Y0059850D01*
X0271444Y0060203D01*
X0271796Y0059850D01*
X0278965Y0059850D01*
X0279318Y0060203D01*
X0279670Y0059850D01*
X0286839Y0059850D01*
X0288010Y0061022D01*
X0288010Y0068118D01*
X0294516Y0068118D01*
X0295688Y0069290D01*
X0295688Y0076458D01*
X0295335Y0076811D01*
X0295688Y0077164D01*
X0295688Y0077948D01*
X0299638Y0077948D01*
X0300667Y0078374D01*
X0303112Y0080819D01*
X0306343Y0080819D01*
X0307514Y0081990D01*
X0307514Y0088010D01*
X0306343Y0089181D01*
X0300324Y0089181D01*
X0299152Y0088010D01*
X0299152Y0084779D01*
X0297922Y0083548D01*
X0295688Y0083548D01*
X0295688Y0084332D01*
X0295335Y0084685D01*
X0295688Y0085038D01*
X0295688Y0088395D01*
X0304919Y0097626D01*
X0305707Y0098414D01*
X0306133Y0099443D01*
X0306133Y0220557D01*
X0305707Y0221586D01*
X0304919Y0222374D01*
X0295707Y0231586D01*
X0295707Y0231586D01*
X0294919Y0232374D01*
X0293890Y0232800D01*
X0282776Y0232800D01*
X0281747Y0232374D01*
X0275074Y0225700D01*
X0270972Y0225700D01*
X0268333Y0223061D01*
X0265694Y0225700D01*
X0260972Y0225700D01*
X0257633Y0222361D01*
X0257633Y0217639D01*
X0260272Y0215000D01*
X0257633Y0212361D01*
X0257633Y0207639D01*
X0260972Y0204300D01*
X0265694Y0204300D01*
X0268333Y0206939D01*
X0270972Y0204300D01*
X0275694Y0204300D01*
X0277116Y0205721D01*
X0272756Y0199181D01*
X0270324Y0199181D01*
X0269152Y0198010D01*
X0269152Y0191990D01*
X0270324Y0190819D01*
X0276343Y0190819D01*
X0277514Y0191990D01*
X0277514Y0196224D01*
X0282898Y0204300D01*
X0285694Y0204300D01*
X0289033Y0207639D01*
X0289033Y0212361D01*
X0286253Y0215141D01*
X0288833Y0217722D01*
X0288833Y0219800D01*
X0283533Y0219800D01*
X0283533Y0220200D01*
X0283133Y0220200D01*
X0283133Y0225500D01*
X0282793Y0225500D01*
X0284493Y0227200D01*
X0292174Y0227200D01*
X0300533Y0218840D01*
X0300533Y0176861D01*
X0295882Y0186163D01*
X0295707Y0186586D01*
X0295634Y0186659D01*
X0295589Y0186750D01*
X0295243Y0187050D01*
X0294919Y0187374D01*
X0294825Y0187413D01*
X0294747Y0187480D01*
X0294313Y0187625D01*
X0293890Y0187800D01*
X0293788Y0187800D01*
X0293690Y0187832D01*
X0293234Y0187800D01*
X0282776Y0187800D01*
X0281747Y0187374D01*
X0275074Y0180700D01*
X0270972Y0180700D01*
X0268333Y0178061D01*
X0265694Y0180700D01*
X0260972Y0180700D01*
X0258333Y0178061D01*
X0256133Y0180261D01*
X0256133Y0180557D01*
X0255707Y0181586D01*
X0250707Y0186586D01*
X0249919Y0187374D01*
X0248890Y0187800D01*
X0237776Y0187800D01*
X0236747Y0187374D01*
X0231747Y0182374D01*
X0230960Y0181586D01*
X0230533Y0180557D01*
X0230533Y0159443D01*
X0230960Y0158414D01*
X0240533Y0148840D01*
X0240533Y0080632D01*
X0235172Y0069362D01*
X0233089Y0069362D01*
X0233089Y0076458D01*
X0232737Y0076811D01*
X0233089Y0077164D01*
X0233089Y0084332D01*
X0232737Y0084685D01*
X0233089Y0085038D01*
X0233089Y0092206D01*
X0232737Y0092559D01*
X0233089Y0092912D01*
X0233089Y0100080D01*
X0232578Y0100592D01*
X0232767Y0100919D01*
X0232889Y0101377D01*
X0232889Y0103792D01*
X0228911Y0103792D01*
X0228911Y0104948D01*
X0232889Y0104948D01*
X0232889Y0107363D01*
X0232767Y0107821D01*
X0232578Y0108148D01*
X0233089Y0108660D01*
X0233089Y0115725D01*
X0233269Y0115905D01*
X0233661Y0116851D01*
X0233661Y0123386D01*
X0233405Y0124003D01*
X0233405Y0139364D01*
X0233762Y0139721D02*
X0240533Y0139721D01*
X0240533Y0138123D02*
X0233405Y0138123D01*
X0233405Y0136524D02*
X0240533Y0136524D01*
X0240533Y0134926D02*
X0233405Y0134926D01*
X0233405Y0133327D02*
X0240533Y0133327D01*
X0240533Y0131729D02*
X0233405Y0131729D01*
X0233405Y0130130D02*
X0240533Y0130130D01*
X0240533Y0128532D02*
X0233405Y0128532D01*
X0233405Y0126933D02*
X0240533Y0126933D01*
X0240533Y0125334D02*
X0233405Y0125334D01*
X0233516Y0123736D02*
X0240533Y0123736D01*
X0240533Y0122137D02*
X0233661Y0122137D01*
X0233661Y0120539D02*
X0240533Y0120539D01*
X0240533Y0118940D02*
X0233661Y0118940D01*
X0233661Y0117342D02*
X0240533Y0117342D01*
X0240533Y0115743D02*
X0233107Y0115743D01*
X0233089Y0114145D02*
X0240533Y0114145D01*
X0240533Y0112546D02*
X0233089Y0112546D01*
X0233089Y0110948D02*
X0240533Y0110948D01*
X0240533Y0109349D02*
X0233089Y0109349D01*
X0232785Y0107751D02*
X0240533Y0107751D01*
X0240533Y0106152D02*
X0232889Y0106152D01*
X0232889Y0102955D02*
X0240533Y0102955D01*
X0240533Y0101357D02*
X0232884Y0101357D01*
X0233089Y0099758D02*
X0240533Y0099758D01*
X0240533Y0098160D02*
X0233089Y0098160D01*
X0233089Y0096561D02*
X0240533Y0096561D01*
X0240533Y0094963D02*
X0233089Y0094963D01*
X0233089Y0093364D02*
X0240533Y0093364D01*
X0240533Y0091766D02*
X0233089Y0091766D01*
X0233089Y0090167D02*
X0240533Y0090167D01*
X0240533Y0088569D02*
X0233089Y0088569D01*
X0233089Y0086970D02*
X0240533Y0086970D01*
X0240533Y0085372D02*
X0233089Y0085372D01*
X0233089Y0083773D02*
X0240533Y0083773D01*
X0240533Y0082175D02*
X0233089Y0082175D01*
X0233089Y0080576D02*
X0240507Y0080576D01*
X0239746Y0078978D02*
X0233089Y0078978D01*
X0233089Y0077379D02*
X0238986Y0077379D01*
X0238226Y0075781D02*
X0233089Y0075781D01*
X0233089Y0074182D02*
X0237465Y0074182D01*
X0236705Y0072584D02*
X0233089Y0072584D01*
X0233089Y0070985D02*
X0235944Y0070985D01*
X0235184Y0069387D02*
X0233089Y0069387D01*
X0231255Y0067788D02*
X0138333Y0067788D01*
X0092691Y0067788D01*
X0092589Y0068369D02*
X0092589Y0068369D01*
X0092001Y0069387D02*
X0138333Y0069387D01*
X0223577Y0069387D01*
X0223577Y0070985D02*
X0138333Y0070985D01*
X0091078Y0070985D01*
X0089386Y0072584D02*
X0138333Y0072584D01*
X0223577Y0072584D01*
X0223577Y0074182D02*
X0138333Y0074182D01*
X0086466Y0074182D01*
X0088258Y0073530D02*
X0088258Y0073530D01*
X0080200Y0074182D02*
X0070333Y0074182D01*
X0070333Y0072584D02*
X0077281Y0072584D01*
X0075788Y0071331D02*
X0075788Y0071331D01*
X0075788Y0071331D01*
X0075588Y0070985D02*
X0070333Y0070985D01*
X0070333Y0069387D02*
X0074665Y0069387D01*
X0073975Y0067788D02*
X0070333Y0067788D01*
X0070333Y0066190D02*
X0073693Y0066190D01*
X0073484Y0065000D02*
X0073484Y0065000D01*
X0073556Y0064591D02*
X0070333Y0064591D01*
X0070333Y0062993D02*
X0073838Y0062993D01*
X0074078Y0061631D02*
X0074078Y0061631D01*
X0074215Y0061394D02*
X0070333Y0061394D01*
X0070333Y0059796D02*
X0075138Y0059796D01*
X0076350Y0058197D02*
X0070333Y0058197D01*
X0090316Y0058197D02*
X0138333Y0058197D01*
X0306350Y0058197D01*
X0305138Y0059796D02*
X0138333Y0059796D01*
X0091529Y0059796D01*
X0090879Y0058669D02*
X0090879Y0058669D01*
X0092452Y0061394D02*
X0138333Y0061394D01*
X0231255Y0061394D01*
X0231255Y0062993D02*
X0138333Y0062993D01*
X0092829Y0062993D01*
X0093111Y0064591D02*
X0138333Y0064591D01*
X0231255Y0064591D01*
X0231255Y0066190D02*
X0138333Y0066190D01*
X0092973Y0066190D01*
X0093183Y0065000D02*
X0093183Y0065000D01*
X0070333Y0075781D02*
X0138333Y0075781D01*
X0223577Y0075781D01*
X0223577Y0077379D02*
X0138333Y0077379D01*
X0070333Y0077379D01*
X0070333Y0078978D02*
X0138333Y0078978D01*
X0223577Y0078978D01*
X0223577Y0080576D02*
X0138333Y0080576D01*
X0125783Y0080576D01*
X0125030Y0080265D02*
X0127002Y0081081D01*
X0128512Y0082591D01*
X0129329Y0084563D01*
X0129329Y0086697D01*
X0128512Y0088669D01*
X0127002Y0090178D01*
X0125030Y0090995D01*
X0122896Y0090995D01*
X0120924Y0090178D01*
X0119415Y0088669D01*
X0118598Y0086697D01*
X0118598Y0084563D01*
X0119415Y0082591D01*
X0120924Y0081081D01*
X0122896Y0080265D01*
X0125030Y0080265D01*
X0122144Y0080576D02*
X0070333Y0080576D01*
X0070333Y0082175D02*
X0119831Y0082175D01*
X0118925Y0083773D02*
X0070333Y0083773D01*
X0070333Y0085372D02*
X0079791Y0085372D01*
X0078224Y0086970D02*
X0070333Y0086970D01*
X0070333Y0088569D02*
X0077562Y0088569D01*
X0077333Y0090167D02*
X0070333Y0090167D01*
X0070333Y0091766D02*
X0077440Y0091766D01*
X0078102Y0093364D02*
X0070333Y0093364D01*
X0070333Y0094963D02*
X0079496Y0094963D01*
X0083333Y0090315D02*
X0113648Y0090315D01*
X0118333Y0095000D01*
X0128333Y0095000D01*
X0133333Y0090000D01*
X0226955Y0090000D01*
X0228333Y0088622D01*
X0223577Y0086970D02*
X0138333Y0086970D01*
X0129215Y0086970D01*
X0129329Y0085372D02*
X0138333Y0085372D01*
X0223577Y0085372D01*
X0223577Y0083773D02*
X0138333Y0083773D01*
X0129002Y0083773D01*
X0128096Y0082175D02*
X0138333Y0082175D01*
X0223577Y0082175D01*
X0243333Y0080000D02*
X0236010Y0064606D01*
X0243333Y0080000D02*
X0243333Y0150000D01*
X0233333Y0160000D01*
X0233333Y0180000D01*
X0238333Y0185000D01*
X0248333Y0185000D01*
X0253333Y0180000D01*
X0253333Y0175000D01*
X0256710Y0179684D02*
X0259956Y0179684D01*
X0258358Y0178085D02*
X0258309Y0178085D01*
X0255833Y0181282D02*
X0275656Y0181282D01*
X0277254Y0182881D02*
X0254412Y0182881D01*
X0252814Y0184479D02*
X0278853Y0184479D01*
X0280451Y0186078D02*
X0251215Y0186078D01*
X0249189Y0187676D02*
X0282478Y0187676D01*
X0283333Y0185000D02*
X0273333Y0175000D01*
X0268358Y0178085D02*
X0268309Y0178085D01*
X0266710Y0179684D02*
X0269956Y0179684D01*
X0282793Y0180500D02*
X0284493Y0182200D01*
X0291603Y0182200D01*
X0295533Y0174339D01*
X0295533Y0123857D01*
X0294516Y0124874D01*
X0287347Y0124874D01*
X0286176Y0123702D01*
X0286176Y0116534D01*
X0286529Y0116181D01*
X0286176Y0115828D01*
X0286176Y0108660D01*
X0286529Y0108307D01*
X0286176Y0107954D01*
X0286176Y0107574D01*
X0284587Y0107706D01*
X0276133Y0116160D01*
X0276133Y0159739D01*
X0278333Y0161939D01*
X0280972Y0159300D01*
X0285694Y0159300D01*
X0289033Y0162639D01*
X0289033Y0167361D01*
X0286253Y0170141D01*
X0288833Y0172722D01*
X0288833Y0174800D01*
X0283533Y0174800D01*
X0283533Y0175200D01*
X0283133Y0175200D01*
X0283133Y0180500D01*
X0282793Y0180500D01*
X0283533Y0180500D02*
X0283533Y0175200D01*
X0288833Y0175200D01*
X0288833Y0177278D01*
X0285611Y0180500D01*
X0283533Y0180500D01*
X0283576Y0181282D02*
X0292062Y0181282D01*
X0292861Y0179684D02*
X0286428Y0179684D01*
X0288026Y0178085D02*
X0293660Y0178085D01*
X0294459Y0176487D02*
X0288833Y0176487D01*
X0288833Y0173290D02*
X0295533Y0173290D01*
X0295533Y0171691D02*
X0287803Y0171691D01*
X0286302Y0170093D02*
X0295533Y0170093D01*
X0295533Y0168494D02*
X0287900Y0168494D01*
X0289033Y0166896D02*
X0295533Y0166896D01*
X0295533Y0165297D02*
X0289033Y0165297D01*
X0289033Y0163699D02*
X0295533Y0163699D01*
X0295533Y0162100D02*
X0288495Y0162100D01*
X0286896Y0160502D02*
X0295533Y0160502D01*
X0295533Y0158903D02*
X0276133Y0158903D01*
X0276133Y0157305D02*
X0295533Y0157305D01*
X0295533Y0155706D02*
X0276133Y0155706D01*
X0276133Y0154108D02*
X0295533Y0154108D01*
X0295533Y0152509D02*
X0276133Y0152509D01*
X0276133Y0150911D02*
X0295533Y0150911D01*
X0295533Y0149312D02*
X0276133Y0149312D01*
X0276133Y0147714D02*
X0295533Y0147714D01*
X0295533Y0146115D02*
X0276133Y0146115D01*
X0276133Y0144517D02*
X0295533Y0144517D01*
X0295533Y0142918D02*
X0276133Y0142918D01*
X0276133Y0141320D02*
X0295533Y0141320D01*
X0295533Y0139721D02*
X0276133Y0139721D01*
X0276133Y0138123D02*
X0295533Y0138123D01*
X0295533Y0136524D02*
X0276133Y0136524D01*
X0276133Y0134926D02*
X0295533Y0134926D01*
X0295533Y0133327D02*
X0276133Y0133327D01*
X0276133Y0131729D02*
X0295533Y0131729D01*
X0295533Y0130130D02*
X0276133Y0130130D01*
X0276133Y0128532D02*
X0295533Y0128532D01*
X0295533Y0126933D02*
X0276133Y0126933D01*
X0276133Y0125334D02*
X0295533Y0125334D01*
X0286209Y0123736D02*
X0276133Y0123736D01*
X0276133Y0122137D02*
X0286176Y0122137D01*
X0286176Y0120539D02*
X0276133Y0120539D01*
X0276133Y0118940D02*
X0286176Y0118940D01*
X0286176Y0117342D02*
X0276133Y0117342D01*
X0276550Y0115743D02*
X0286176Y0115743D01*
X0286176Y0114145D02*
X0278148Y0114145D01*
X0279747Y0112546D02*
X0286176Y0112546D01*
X0286176Y0110948D02*
X0281345Y0110948D01*
X0282944Y0109349D02*
X0286176Y0109349D01*
X0286176Y0107751D02*
X0284542Y0107751D01*
X0283333Y0105000D02*
X0273333Y0115000D01*
X0273333Y0165000D01*
X0276896Y0160502D02*
X0279771Y0160502D01*
X0283533Y0174888D02*
X0295259Y0174888D01*
X0298333Y0175000D02*
X0293333Y0185000D01*
X0283333Y0185000D01*
X0283133Y0179684D02*
X0283533Y0179684D01*
X0283533Y0178085D02*
X0283133Y0178085D01*
X0283133Y0176487D02*
X0283533Y0176487D01*
X0298333Y0175000D02*
X0298333Y0115000D01*
X0290932Y0112244D01*
X0290932Y0104370D02*
X0283333Y0105000D01*
X0291955Y0088622D02*
X0303333Y0100000D01*
X0303333Y0220000D01*
X0293333Y0230000D01*
X0283333Y0230000D01*
X0273333Y0220000D01*
X0269715Y0224442D02*
X0266952Y0224442D01*
X0259715Y0224442D02*
X0236133Y0224442D01*
X0236133Y0222844D02*
X0258116Y0222844D01*
X0257633Y0221245D02*
X0236133Y0221245D01*
X0236133Y0219647D02*
X0257633Y0219647D01*
X0257633Y0218048D02*
X0235342Y0218048D01*
X0233333Y0220000D02*
X0233333Y0235000D01*
X0228088Y0237230D02*
X0198594Y0237230D01*
X0199004Y0235632D02*
X0227633Y0235632D01*
X0227633Y0234033D02*
X0198951Y0234033D01*
X0198893Y0233665D02*
X0199033Y0234551D01*
X0199033Y0234816D01*
X0193518Y0234816D01*
X0193518Y0229300D01*
X0193782Y0229300D01*
X0194668Y0229440D01*
X0195521Y0229718D01*
X0196321Y0230125D01*
X0197047Y0230652D01*
X0197681Y0231287D01*
X0198208Y0232013D01*
X0198616Y0232812D01*
X0198893Y0233665D01*
X0198424Y0232435D02*
X0228226Y0232435D01*
X0229436Y0230836D02*
X0197231Y0230836D01*
X0193518Y0230836D02*
X0193149Y0230836D01*
X0193149Y0232435D02*
X0193518Y0232435D01*
X0193518Y0234033D02*
X0193149Y0234033D01*
X0193333Y0235000D02*
X0184333Y0235000D01*
X0179333Y0230000D01*
X0178854Y0230480D02*
X0178854Y0229520D01*
X0179813Y0229520D01*
X0179813Y0224367D01*
X0180654Y0224500D01*
X0181498Y0224775D01*
X0182289Y0225177D01*
X0183007Y0225699D01*
X0183634Y0226327D01*
X0184156Y0227045D01*
X0184559Y0227836D01*
X0184833Y0228680D01*
X0184966Y0229520D01*
X0179813Y0229520D01*
X0179813Y0230480D01*
X0178854Y0230480D01*
X0178854Y0235633D01*
X0178013Y0235500D01*
X0177169Y0235225D01*
X0176378Y0234823D01*
X0175660Y0234301D01*
X0175032Y0233673D01*
X0174511Y0232955D01*
X0174108Y0232164D01*
X0173834Y0231320D01*
X0173700Y0230480D01*
X0178854Y0230480D01*
X0178854Y0230836D02*
X0179813Y0230836D01*
X0179813Y0230480D02*
X0179813Y0235633D01*
X0180654Y0235500D01*
X0181498Y0235225D01*
X0182289Y0234823D01*
X0183007Y0234301D01*
X0183634Y0233673D01*
X0184156Y0232955D01*
X0184559Y0232164D01*
X0184833Y0231320D01*
X0184966Y0230480D01*
X0179813Y0230480D01*
X0179813Y0229238D02*
X0178854Y0229238D01*
X0178854Y0229520D02*
X0178854Y0224367D01*
X0178013Y0224500D01*
X0177169Y0224775D01*
X0176378Y0225177D01*
X0175660Y0225699D01*
X0175032Y0226327D01*
X0174511Y0227045D01*
X0174108Y0227836D01*
X0173834Y0228680D01*
X0173700Y0229520D01*
X0178854Y0229520D01*
X0178854Y0227639D02*
X0179813Y0227639D01*
X0179813Y0226041D02*
X0178854Y0226041D01*
X0178854Y0224442D02*
X0179813Y0224442D01*
X0180287Y0224442D02*
X0209715Y0224442D01*
X0208342Y0222844D02*
X0138333Y0222844D01*
X0138333Y0224442D02*
X0178379Y0224442D01*
X0175318Y0226041D02*
X0138333Y0226041D01*
X0138333Y0227639D02*
X0174208Y0227639D01*
X0173745Y0229238D02*
X0138333Y0229238D01*
X0138333Y0230836D02*
X0173757Y0230836D01*
X0174246Y0232435D02*
X0138333Y0232435D01*
X0138333Y0234033D02*
X0175392Y0234033D01*
X0178854Y0234033D02*
X0179813Y0234033D01*
X0179813Y0232435D02*
X0178854Y0232435D01*
X0183274Y0234033D02*
X0187715Y0234033D01*
X0187662Y0235632D02*
X0179820Y0235632D01*
X0179813Y0235632D02*
X0178854Y0235632D01*
X0178847Y0235632D02*
X0138333Y0235632D01*
X0138333Y0237230D02*
X0188072Y0237230D01*
X0188243Y0232435D02*
X0184421Y0232435D01*
X0184910Y0230836D02*
X0189436Y0230836D01*
X0184921Y0229238D02*
X0230533Y0229238D01*
X0230533Y0227639D02*
X0184459Y0227639D01*
X0183348Y0226041D02*
X0230533Y0226041D01*
X0230533Y0224442D02*
X0216952Y0224442D01*
X0218325Y0222844D02*
X0230533Y0222844D01*
X0228907Y0221245D02*
X0218987Y0221245D01*
X0213333Y0220000D02*
X0203333Y0220000D01*
X0193333Y0210000D01*
X0193333Y0195000D01*
X0184233Y0195000D01*
X0179333Y0199900D01*
X0173910Y0202063D02*
X0138333Y0202063D01*
X0138333Y0200465D02*
X0173495Y0200465D01*
X0173495Y0198866D02*
X0138333Y0198866D01*
X0138333Y0197268D02*
X0174104Y0197268D01*
X0175307Y0195669D02*
X0138333Y0195669D01*
X0138333Y0194070D02*
X0178150Y0194070D01*
X0180517Y0194070D02*
X0181203Y0194070D01*
X0183020Y0192472D02*
X0138333Y0192472D01*
X0138333Y0190873D02*
X0189116Y0190873D01*
X0191737Y0189275D02*
X0138333Y0189275D01*
X0138333Y0187676D02*
X0204874Y0187676D01*
X0207671Y0189275D02*
X0194929Y0189275D01*
X0197551Y0190873D02*
X0210468Y0190873D01*
X0213266Y0192472D02*
X0198672Y0192472D01*
X0199233Y0194070D02*
X0216063Y0194070D01*
X0218861Y0195669D02*
X0199233Y0195669D01*
X0198780Y0197268D02*
X0221641Y0197268D01*
X0223333Y0195000D02*
X0188333Y0175000D01*
X0188333Y0110000D01*
X0198333Y0095000D01*
X0228333Y0095000D01*
X0223577Y0098160D02*
X0199592Y0098160D01*
X0198526Y0099758D02*
X0223577Y0099758D01*
X0223783Y0101357D02*
X0206333Y0101357D01*
X0207533Y0102955D02*
X0223777Y0102955D01*
X0223777Y0106152D02*
X0208069Y0106152D01*
X0208069Y0104554D02*
X0227755Y0104554D01*
X0228911Y0104554D02*
X0240533Y0104554D01*
X0228333Y0112244D02*
X0209633Y0112244D01*
X0202703Y0105315D01*
X0197873Y0102955D02*
X0196395Y0102955D01*
X0197338Y0104554D02*
X0195329Y0104554D01*
X0194264Y0106152D02*
X0197338Y0106152D01*
X0197905Y0107751D02*
X0193198Y0107751D01*
X0192132Y0109349D02*
X0199150Y0109349D01*
X0204377Y0110948D02*
X0191133Y0110948D01*
X0191133Y0112546D02*
X0205975Y0112546D01*
X0207574Y0114145D02*
X0191133Y0114145D01*
X0191133Y0115743D02*
X0223559Y0115743D01*
X0223006Y0117342D02*
X0191133Y0117342D01*
X0191133Y0118940D02*
X0223006Y0118940D01*
X0223006Y0120539D02*
X0191133Y0120539D01*
X0191133Y0122137D02*
X0223006Y0122137D01*
X0223151Y0123736D02*
X0191133Y0123736D01*
X0191133Y0125334D02*
X0223262Y0125334D01*
X0223262Y0126933D02*
X0191133Y0126933D01*
X0191133Y0128532D02*
X0223262Y0128532D01*
X0223262Y0130130D02*
X0191133Y0130130D01*
X0191133Y0131729D02*
X0223262Y0131729D01*
X0223262Y0133327D02*
X0191133Y0133327D01*
X0191133Y0134926D02*
X0223262Y0134926D01*
X0223262Y0136524D02*
X0191133Y0136524D01*
X0191133Y0138123D02*
X0223262Y0138123D01*
X0222904Y0139721D02*
X0204141Y0139721D01*
X0203913Y0139647D02*
X0204686Y0139898D01*
X0205411Y0140267D01*
X0206068Y0140745D01*
X0206643Y0141320D01*
X0207121Y0141978D01*
X0207490Y0142702D01*
X0207742Y0143475D01*
X0207869Y0144279D01*
X0207869Y0144402D01*
X0202986Y0144402D01*
X0202986Y0139520D01*
X0203110Y0139520D01*
X0203913Y0139647D01*
X0202986Y0139721D02*
X0202421Y0139721D01*
X0202421Y0139520D02*
X0202421Y0144402D01*
X0202986Y0144402D01*
X0202986Y0144968D01*
X0202421Y0144968D01*
X0202421Y0149850D01*
X0202297Y0149850D01*
X0201494Y0149723D01*
X0200721Y0149472D01*
X0199996Y0149103D01*
X0199338Y0148625D01*
X0198763Y0148050D01*
X0198286Y0147392D01*
X0197916Y0146668D01*
X0197665Y0145895D01*
X0197538Y0145092D01*
X0197538Y0144968D01*
X0202421Y0144968D01*
X0202421Y0144402D01*
X0197538Y0144402D01*
X0197538Y0144279D01*
X0197665Y0143475D01*
X0197916Y0142702D01*
X0198286Y0141978D01*
X0198763Y0141320D01*
X0199338Y0140745D01*
X0199996Y0140267D01*
X0200721Y0139898D01*
X0201494Y0139647D01*
X0202297Y0139520D01*
X0202421Y0139520D01*
X0201265Y0139721D02*
X0191133Y0139721D01*
X0191133Y0141320D02*
X0198764Y0141320D01*
X0197846Y0142918D02*
X0191133Y0142918D01*
X0191133Y0144517D02*
X0202421Y0144517D01*
X0202986Y0144517D02*
X0220762Y0144517D01*
X0220762Y0146115D02*
X0207670Y0146115D01*
X0207742Y0145895D02*
X0207490Y0146668D01*
X0207121Y0147392D01*
X0206643Y0148050D01*
X0206068Y0148625D01*
X0205411Y0149103D01*
X0204686Y0149472D01*
X0203913Y0149723D01*
X0203110Y0149850D01*
X0202986Y0149850D01*
X0202986Y0144968D01*
X0207869Y0144968D01*
X0207869Y0145092D01*
X0207742Y0145895D01*
X0206888Y0147714D02*
X0220762Y0147714D01*
X0221938Y0149312D02*
X0205000Y0149312D01*
X0202986Y0149312D02*
X0202421Y0149312D01*
X0202421Y0147714D02*
X0202986Y0147714D01*
X0202986Y0146115D02*
X0202421Y0146115D01*
X0200407Y0149312D02*
X0191133Y0149312D01*
X0191133Y0147714D02*
X0198519Y0147714D01*
X0197737Y0146115D02*
X0191133Y0146115D01*
X0185533Y0146115D02*
X0138333Y0146115D01*
X0138333Y0144517D02*
X0185533Y0144517D01*
X0185533Y0142918D02*
X0138333Y0142918D01*
X0138333Y0141320D02*
X0185533Y0141320D01*
X0185533Y0139721D02*
X0138333Y0139721D01*
X0138333Y0138123D02*
X0185533Y0138123D01*
X0185533Y0136524D02*
X0138333Y0136524D01*
X0138333Y0134926D02*
X0185533Y0134926D01*
X0185533Y0133327D02*
X0138333Y0133327D01*
X0138333Y0131729D02*
X0185533Y0131729D01*
X0185533Y0130130D02*
X0138333Y0130130D01*
X0138333Y0128532D02*
X0185533Y0128532D01*
X0185533Y0126933D02*
X0138333Y0126933D01*
X0138333Y0125334D02*
X0185533Y0125334D01*
X0185533Y0123736D02*
X0138333Y0123736D01*
X0070333Y0123736D01*
X0070333Y0122137D02*
X0138333Y0122137D01*
X0185533Y0122137D01*
X0185533Y0120539D02*
X0138333Y0120539D01*
X0070333Y0120539D01*
X0070333Y0118940D02*
X0138333Y0118940D01*
X0185533Y0118940D01*
X0185533Y0117342D02*
X0138333Y0117342D01*
X0070333Y0117342D01*
X0070333Y0115743D02*
X0078885Y0115743D01*
X0079096Y0115800D02*
X0078639Y0115677D01*
X0078228Y0115440D01*
X0077893Y0115105D01*
X0077656Y0114695D01*
X0077533Y0114237D01*
X0077533Y0110480D01*
X0082854Y0110480D01*
X0082854Y0115800D01*
X0079096Y0115800D01*
X0077533Y0114145D02*
X0070333Y0114145D01*
X0070333Y0112546D02*
X0077533Y0112546D01*
X0077533Y0110948D02*
X0070333Y0110948D01*
X0070333Y0109349D02*
X0077533Y0109349D01*
X0077533Y0109520D02*
X0077533Y0105763D01*
X0077656Y0105305D01*
X0077893Y0104895D01*
X0078228Y0104560D01*
X0078639Y0104323D01*
X0079096Y0104200D01*
X0082854Y0104200D01*
X0082854Y0109520D01*
X0083813Y0109520D01*
X0083813Y0104200D01*
X0087570Y0104200D01*
X0088028Y0104323D01*
X0088439Y0104560D01*
X0088774Y0104895D01*
X0089011Y0105305D01*
X0089133Y0105763D01*
X0089133Y0109520D01*
X0083813Y0109520D01*
X0083813Y0110480D01*
X0082854Y0110480D01*
X0082854Y0109520D01*
X0077533Y0109520D01*
X0077533Y0107751D02*
X0070333Y0107751D01*
X0070333Y0106152D02*
X0077533Y0106152D01*
X0078238Y0104554D02*
X0070333Y0104554D01*
X0070333Y0102955D02*
X0138333Y0102955D01*
X0189665Y0102955D01*
X0190730Y0101357D02*
X0138333Y0101357D01*
X0070333Y0101357D01*
X0070333Y0099758D02*
X0138333Y0099758D01*
X0191796Y0099758D01*
X0192862Y0098160D02*
X0138333Y0098160D01*
X0070333Y0098160D01*
X0070333Y0096561D02*
X0115935Y0096561D01*
X0114336Y0094963D02*
X0087171Y0094963D01*
X0088565Y0093364D02*
X0112738Y0093364D01*
X0117460Y0090167D02*
X0120913Y0090167D01*
X0119373Y0088569D02*
X0115862Y0088569D01*
X0118711Y0086970D02*
X0088442Y0086970D01*
X0086875Y0085372D02*
X0118598Y0085372D01*
X0119059Y0091766D02*
X0127608Y0091766D01*
X0127014Y0090167D02*
X0129206Y0090167D01*
X0128553Y0088569D02*
X0130805Y0088569D01*
X0133929Y0093364D02*
X0138333Y0093364D01*
X0196009Y0093364D01*
X0194993Y0094963D02*
X0138333Y0094963D01*
X0132330Y0094963D01*
X0130732Y0096561D02*
X0138333Y0096561D01*
X0193927Y0096561D01*
X0197461Y0101357D02*
X0199074Y0101357D01*
X0188599Y0104554D02*
X0138333Y0104554D01*
X0088429Y0104554D01*
X0089133Y0106152D02*
X0138333Y0106152D01*
X0187533Y0106152D01*
X0186468Y0107751D02*
X0138333Y0107751D01*
X0089133Y0107751D01*
X0089133Y0109349D02*
X0138333Y0109349D01*
X0185572Y0109349D01*
X0185533Y0110948D02*
X0138333Y0110948D01*
X0089133Y0110948D01*
X0089133Y0110480D02*
X0089133Y0114237D01*
X0089011Y0114695D01*
X0088774Y0115105D01*
X0088439Y0115440D01*
X0088028Y0115677D01*
X0087570Y0115800D01*
X0083813Y0115800D01*
X0083813Y0110480D01*
X0089133Y0110480D01*
X0089133Y0112546D02*
X0138333Y0112546D01*
X0185533Y0112546D01*
X0185533Y0114145D02*
X0138333Y0114145D01*
X0089133Y0114145D01*
X0087781Y0115743D02*
X0138333Y0115743D01*
X0185533Y0115743D01*
X0209099Y0107751D02*
X0223881Y0107751D01*
X0223577Y0109349D02*
X0210698Y0109349D01*
X0206643Y0141320D02*
X0221306Y0141320D01*
X0220762Y0142918D02*
X0207560Y0142918D01*
X0202986Y0142918D02*
X0202421Y0142918D01*
X0202421Y0141320D02*
X0202986Y0141320D01*
X0191133Y0150911D02*
X0223536Y0150911D01*
X0225135Y0152509D02*
X0191133Y0152509D01*
X0191133Y0154108D02*
X0235266Y0154108D01*
X0233667Y0155706D02*
X0191133Y0155706D01*
X0191133Y0157305D02*
X0232069Y0157305D01*
X0230757Y0158903D02*
X0191133Y0158903D01*
X0191133Y0160502D02*
X0230533Y0160502D01*
X0230533Y0162100D02*
X0191133Y0162100D01*
X0191133Y0163699D02*
X0230533Y0163699D01*
X0230533Y0165297D02*
X0191133Y0165297D01*
X0191133Y0166896D02*
X0230533Y0166896D01*
X0230533Y0168494D02*
X0191133Y0168494D01*
X0191133Y0170093D02*
X0230533Y0170093D01*
X0230533Y0171691D02*
X0191133Y0171691D01*
X0191133Y0173290D02*
X0230533Y0173290D01*
X0230533Y0174888D02*
X0193781Y0174888D01*
X0196579Y0176487D02*
X0230533Y0176487D01*
X0230533Y0178085D02*
X0199376Y0178085D01*
X0202174Y0179684D02*
X0230533Y0179684D01*
X0230834Y0181282D02*
X0204971Y0181282D01*
X0207768Y0182881D02*
X0232254Y0182881D01*
X0233853Y0184479D02*
X0210566Y0184479D01*
X0213363Y0186078D02*
X0235451Y0186078D01*
X0237478Y0187676D02*
X0216161Y0187676D01*
X0218958Y0189275D02*
X0300533Y0189275D01*
X0300533Y0190873D02*
X0276397Y0190873D01*
X0277514Y0192472D02*
X0300533Y0192472D01*
X0300533Y0194070D02*
X0277514Y0194070D01*
X0277514Y0195669D02*
X0300533Y0195669D01*
X0300533Y0197268D02*
X0278210Y0197268D01*
X0279276Y0198866D02*
X0300533Y0198866D01*
X0300533Y0200465D02*
X0280342Y0200465D01*
X0281407Y0202063D02*
X0300533Y0202063D01*
X0300533Y0203662D02*
X0282473Y0203662D01*
X0286654Y0205260D02*
X0300533Y0205260D01*
X0300533Y0206859D02*
X0288253Y0206859D01*
X0289033Y0208457D02*
X0300533Y0208457D01*
X0300533Y0210056D02*
X0289033Y0210056D01*
X0289033Y0211654D02*
X0300533Y0211654D01*
X0300533Y0213253D02*
X0288142Y0213253D01*
X0286543Y0214851D02*
X0300533Y0214851D01*
X0300533Y0216450D02*
X0287561Y0216450D01*
X0288833Y0218048D02*
X0300533Y0218048D01*
X0299727Y0219647D02*
X0288833Y0219647D01*
X0288833Y0220200D02*
X0288833Y0222278D01*
X0285611Y0225500D01*
X0283533Y0225500D01*
X0283533Y0220200D01*
X0288833Y0220200D01*
X0288833Y0221245D02*
X0298128Y0221245D01*
X0296530Y0222844D02*
X0288268Y0222844D01*
X0286669Y0224442D02*
X0294931Y0224442D01*
X0293333Y0226041D02*
X0283334Y0226041D01*
X0283133Y0224442D02*
X0283533Y0224442D01*
X0283533Y0222844D02*
X0283133Y0222844D01*
X0283133Y0221245D02*
X0283533Y0221245D01*
X0277013Y0227639D02*
X0236133Y0227639D01*
X0236133Y0226041D02*
X0275414Y0226041D01*
X0278611Y0229238D02*
X0236133Y0229238D01*
X0237231Y0230836D02*
X0280210Y0230836D01*
X0281895Y0232435D02*
X0238440Y0232435D01*
X0239033Y0234033D02*
X0304461Y0234033D01*
X0303913Y0232435D02*
X0294772Y0232435D01*
X0296457Y0230836D02*
X0303631Y0230836D01*
X0303484Y0230000D02*
X0303484Y0230000D01*
X0303618Y0229238D02*
X0298055Y0229238D01*
X0299654Y0227639D02*
X0303900Y0227639D01*
X0304078Y0226631D02*
X0304078Y0226631D01*
X0304419Y0226041D02*
X0301252Y0226041D01*
X0302851Y0224442D02*
X0305342Y0224442D01*
X0304449Y0222844D02*
X0306771Y0222844D01*
X0305848Y0221245D02*
X0309026Y0221245D01*
X0308409Y0221470D02*
X0308409Y0221470D01*
X0306133Y0219647D02*
X0320034Y0219647D01*
X0320034Y0221245D02*
X0317641Y0221245D01*
X0319895Y0222844D02*
X0320034Y0222844D01*
X0320034Y0218048D02*
X0306133Y0218048D01*
X0306133Y0216450D02*
X0320034Y0216450D01*
X0320034Y0214851D02*
X0306133Y0214851D01*
X0306133Y0213253D02*
X0320034Y0213253D01*
X0320034Y0211654D02*
X0306133Y0211654D01*
X0306133Y0210056D02*
X0320034Y0210056D01*
X0320034Y0208457D02*
X0306133Y0208457D01*
X0306133Y0206859D02*
X0320034Y0206859D01*
X0320034Y0205260D02*
X0306133Y0205260D01*
X0306133Y0203662D02*
X0320034Y0203662D01*
X0320034Y0202063D02*
X0306133Y0202063D01*
X0306133Y0200465D02*
X0320034Y0200465D01*
X0320034Y0198866D02*
X0306133Y0198866D01*
X0306133Y0197268D02*
X0320034Y0197268D01*
X0320034Y0195669D02*
X0306133Y0195669D01*
X0306133Y0194070D02*
X0320034Y0194070D01*
X0320034Y0192472D02*
X0306133Y0192472D01*
X0306133Y0190873D02*
X0320034Y0190873D01*
X0320034Y0189275D02*
X0306133Y0189275D01*
X0306133Y0187676D02*
X0320034Y0187676D01*
X0320034Y0186078D02*
X0306133Y0186078D01*
X0306133Y0184479D02*
X0320034Y0184479D01*
X0320034Y0182881D02*
X0306133Y0182881D01*
X0306133Y0181282D02*
X0320034Y0181282D01*
X0320034Y0179684D02*
X0306133Y0179684D01*
X0306133Y0178085D02*
X0320034Y0178085D01*
X0320034Y0176487D02*
X0306133Y0176487D01*
X0306133Y0174888D02*
X0320034Y0174888D01*
X0320034Y0173290D02*
X0306133Y0173290D01*
X0306133Y0171691D02*
X0320034Y0171691D01*
X0320034Y0170093D02*
X0306133Y0170093D01*
X0306133Y0168494D02*
X0320034Y0168494D01*
X0320034Y0166896D02*
X0306133Y0166896D01*
X0306133Y0165297D02*
X0320034Y0165297D01*
X0320034Y0163699D02*
X0306133Y0163699D01*
X0306133Y0162100D02*
X0320034Y0162100D01*
X0320034Y0160502D02*
X0306133Y0160502D01*
X0306133Y0158903D02*
X0320034Y0158903D01*
X0320034Y0157305D02*
X0306133Y0157305D01*
X0306133Y0155706D02*
X0320034Y0155706D01*
X0320034Y0154108D02*
X0306133Y0154108D01*
X0306133Y0152509D02*
X0320034Y0152509D01*
X0320034Y0150911D02*
X0306133Y0150911D01*
X0306133Y0149312D02*
X0320034Y0149312D01*
X0320034Y0147714D02*
X0306133Y0147714D01*
X0306133Y0146115D02*
X0320034Y0146115D01*
X0320034Y0144517D02*
X0306133Y0144517D01*
X0306133Y0142918D02*
X0320034Y0142918D01*
X0320034Y0141320D02*
X0306133Y0141320D01*
X0306133Y0139721D02*
X0320034Y0139721D01*
X0320034Y0138123D02*
X0306133Y0138123D01*
X0306133Y0136524D02*
X0320034Y0136524D01*
X0320034Y0134926D02*
X0306133Y0134926D01*
X0306133Y0133327D02*
X0320034Y0133327D01*
X0320034Y0131729D02*
X0306133Y0131729D01*
X0306133Y0130130D02*
X0320034Y0130130D01*
X0320034Y0128532D02*
X0306133Y0128532D01*
X0306133Y0126933D02*
X0320034Y0126933D01*
X0320034Y0125334D02*
X0306133Y0125334D01*
X0306133Y0123736D02*
X0320034Y0123736D01*
X0320034Y0122137D02*
X0306133Y0122137D01*
X0306133Y0120539D02*
X0320034Y0120539D01*
X0320034Y0118940D02*
X0306133Y0118940D01*
X0306133Y0117342D02*
X0320034Y0117342D01*
X0320034Y0115743D02*
X0306133Y0115743D01*
X0306133Y0114145D02*
X0320034Y0114145D01*
X0320034Y0112546D02*
X0306133Y0112546D01*
X0306133Y0110948D02*
X0320034Y0110948D01*
X0320034Y0109349D02*
X0306133Y0109349D01*
X0306133Y0107751D02*
X0320034Y0107751D01*
X0320034Y0106152D02*
X0306133Y0106152D01*
X0306133Y0104554D02*
X0320034Y0104554D01*
X0320034Y0102955D02*
X0306133Y0102955D01*
X0306133Y0101357D02*
X0320034Y0101357D01*
X0320034Y0099758D02*
X0306133Y0099758D01*
X0305453Y0098160D02*
X0320034Y0098160D01*
X0320034Y0096561D02*
X0303854Y0096561D01*
X0302256Y0094963D02*
X0320034Y0094963D01*
X0320034Y0093364D02*
X0300657Y0093364D01*
X0299059Y0091766D02*
X0320034Y0091766D01*
X0320034Y0090167D02*
X0297460Y0090167D01*
X0295862Y0088569D02*
X0299711Y0088569D01*
X0299152Y0086970D02*
X0295688Y0086970D01*
X0295688Y0085372D02*
X0299152Y0085372D01*
X0298147Y0083773D02*
X0295688Y0083773D01*
X0299081Y0080748D02*
X0290932Y0080748D01*
X0295688Y0077379D02*
X0320034Y0077379D01*
X0320034Y0075781D02*
X0295688Y0075781D01*
X0295688Y0074182D02*
X0310200Y0074182D01*
X0307281Y0072584D02*
X0295688Y0072584D01*
X0295688Y0070985D02*
X0305588Y0070985D01*
X0305788Y0071331D02*
X0305788Y0071331D01*
X0305788Y0071331D01*
X0304665Y0069387D02*
X0295688Y0069387D01*
X0288010Y0067788D02*
X0303975Y0067788D01*
X0303693Y0066190D02*
X0288010Y0066190D01*
X0288010Y0064591D02*
X0303556Y0064591D01*
X0303484Y0065000D02*
X0303484Y0065000D01*
X0303838Y0062993D02*
X0288010Y0062993D01*
X0288010Y0061394D02*
X0304215Y0061394D01*
X0304078Y0061631D02*
X0304078Y0061631D01*
X0319386Y0072584D02*
X0320034Y0072584D01*
X0320034Y0074182D02*
X0316466Y0074182D01*
X0318258Y0073530D02*
X0318258Y0073530D01*
X0320034Y0078978D02*
X0301271Y0078978D01*
X0302869Y0080576D02*
X0320034Y0080576D01*
X0320034Y0082175D02*
X0307514Y0082175D01*
X0307514Y0083773D02*
X0320034Y0083773D01*
X0320034Y0085372D02*
X0307514Y0085372D01*
X0307514Y0086970D02*
X0320034Y0086970D01*
X0320034Y0088569D02*
X0306955Y0088569D01*
X0303333Y0085000D02*
X0299081Y0080748D01*
X0291955Y0088622D02*
X0290932Y0088622D01*
X0240533Y0141320D02*
X0235361Y0141320D01*
X0235905Y0142918D02*
X0240533Y0142918D01*
X0240533Y0144517D02*
X0235905Y0144517D01*
X0235905Y0146115D02*
X0240533Y0146115D01*
X0240533Y0147714D02*
X0235905Y0147714D01*
X0234729Y0149312D02*
X0240061Y0149312D01*
X0238463Y0150911D02*
X0233131Y0150911D01*
X0231532Y0152509D02*
X0236864Y0152509D01*
X0185533Y0152509D02*
X0138333Y0152509D01*
X0138333Y0150911D02*
X0185533Y0150911D01*
X0185533Y0149312D02*
X0138333Y0149312D01*
X0138333Y0147714D02*
X0185533Y0147714D01*
X0185533Y0154108D02*
X0138333Y0154108D01*
X0138333Y0155706D02*
X0185533Y0155706D01*
X0185533Y0157305D02*
X0138333Y0157305D01*
X0138333Y0158903D02*
X0185533Y0158903D01*
X0185533Y0160502D02*
X0138333Y0160502D01*
X0138333Y0162100D02*
X0185533Y0162100D01*
X0185533Y0163699D02*
X0138333Y0163699D01*
X0138333Y0165297D02*
X0185533Y0165297D01*
X0185533Y0166896D02*
X0138333Y0166896D01*
X0138333Y0168494D02*
X0185533Y0168494D01*
X0185533Y0170093D02*
X0138333Y0170093D01*
X0138333Y0171691D02*
X0185533Y0171691D01*
X0185533Y0173290D02*
X0138333Y0173290D01*
X0138333Y0174888D02*
X0185525Y0174888D01*
X0185919Y0176487D02*
X0138333Y0176487D01*
X0138333Y0178085D02*
X0188089Y0178085D01*
X0190887Y0179684D02*
X0138333Y0179684D01*
X0138333Y0181282D02*
X0193684Y0181282D01*
X0196481Y0182881D02*
X0138333Y0182881D01*
X0138333Y0184479D02*
X0199279Y0184479D01*
X0202076Y0186078D02*
X0138333Y0186078D01*
X0138333Y0203662D02*
X0174838Y0203662D01*
X0177017Y0205260D02*
X0138333Y0205260D01*
X0138333Y0206859D02*
X0190533Y0206859D01*
X0190533Y0208457D02*
X0138333Y0208457D01*
X0138333Y0210056D02*
X0190533Y0210056D01*
X0191028Y0211654D02*
X0138333Y0211654D01*
X0138333Y0213253D02*
X0192626Y0213253D01*
X0194225Y0214851D02*
X0138333Y0214851D01*
X0138333Y0216450D02*
X0195823Y0216450D01*
X0197422Y0218048D02*
X0138333Y0218048D01*
X0138333Y0219647D02*
X0199020Y0219647D01*
X0200619Y0221245D02*
X0138333Y0221245D01*
X0181650Y0205260D02*
X0190533Y0205260D01*
X0190533Y0203662D02*
X0183829Y0203662D01*
X0184757Y0202063D02*
X0190533Y0202063D01*
X0190533Y0200465D02*
X0185172Y0200465D01*
X0185172Y0198866D02*
X0188855Y0198866D01*
X0196133Y0200465D02*
X0231631Y0200465D01*
X0229138Y0198866D02*
X0197811Y0198866D01*
X0196133Y0202063D02*
X0274677Y0202063D01*
X0275743Y0203662D02*
X0196133Y0203662D01*
X0196133Y0205260D02*
X0210012Y0205260D01*
X0208465Y0206859D02*
X0196133Y0206859D01*
X0196133Y0208457D02*
X0207803Y0208457D01*
X0207633Y0210056D02*
X0197349Y0210056D01*
X0198947Y0211654D02*
X0207849Y0211654D01*
X0208525Y0213253D02*
X0200546Y0213253D01*
X0202144Y0214851D02*
X0210150Y0214851D01*
X0208823Y0216450D02*
X0203743Y0216450D01*
X0218864Y0208457D02*
X0257633Y0208457D01*
X0257633Y0210056D02*
X0223791Y0210056D01*
X0225548Y0211654D02*
X0257633Y0211654D01*
X0258525Y0213253D02*
X0226279Y0213253D01*
X0228000Y0214851D02*
X0260123Y0214851D01*
X0258823Y0216450D02*
X0231997Y0216450D01*
X0233333Y0220000D02*
X0220833Y0215000D01*
X0224248Y0219647D02*
X0224911Y0219647D01*
X0218202Y0206859D02*
X0258414Y0206859D01*
X0260012Y0205260D02*
X0216654Y0205260D01*
X0223333Y0195000D02*
X0233333Y0195000D01*
X0238564Y0197268D02*
X0269152Y0197268D01*
X0269152Y0195669D02*
X0239033Y0195669D01*
X0239033Y0194070D02*
X0269152Y0194070D01*
X0269152Y0192472D02*
X0238456Y0192472D01*
X0237268Y0190873D02*
X0270269Y0190873D01*
X0273333Y0195000D02*
X0283333Y0210000D01*
X0276808Y0205260D02*
X0276654Y0205260D01*
X0273611Y0200465D02*
X0235036Y0200465D01*
X0237528Y0198866D02*
X0270009Y0198866D01*
X0270012Y0205260D02*
X0266654Y0205260D01*
X0268253Y0206859D02*
X0268414Y0206859D01*
X0294189Y0187676D02*
X0300533Y0187676D01*
X0300533Y0186078D02*
X0295925Y0186078D01*
X0296724Y0184479D02*
X0300533Y0184479D01*
X0300533Y0182881D02*
X0297523Y0182881D01*
X0298323Y0181282D02*
X0300533Y0181282D01*
X0300533Y0179684D02*
X0299122Y0179684D01*
X0299921Y0178085D02*
X0300533Y0178085D01*
X0229399Y0190873D02*
X0221755Y0190873D01*
X0239033Y0235632D02*
X0305384Y0235632D01*
X0305788Y0236331D02*
X0305788Y0236331D01*
X0305788Y0236331D01*
X0306860Y0237230D02*
X0238579Y0237230D01*
X0304919Y0222374D02*
X0304919Y0222374D01*
X0083813Y0115743D02*
X0082854Y0115743D01*
X0082854Y0114145D02*
X0083813Y0114145D01*
X0083813Y0112546D02*
X0082854Y0112546D01*
X0082854Y0110948D02*
X0083813Y0110948D01*
X0083813Y0109349D02*
X0082854Y0109349D01*
X0082854Y0107751D02*
X0083813Y0107751D01*
X0083813Y0106152D02*
X0082854Y0106152D01*
X0082854Y0104554D02*
X0083813Y0104554D01*
D21*
X0273333Y0195000D03*
X0303333Y0085000D03*
D22*
X0129133Y0190800D02*
X0093333Y0155000D01*
X0083333Y0155000D01*
X0083333Y0180315D02*
X0103018Y0200000D01*
X0119333Y0200000D01*
X0129133Y0190800D02*
X0129133Y0230000D01*
D23*
X0228333Y0145000D02*
X0228333Y0120118D01*
M02*
